<?xml version="1.0" standalone="no"?>
<!DOCTYPE svg PUBLIC "-//W3C//DTD SVG 1.1//EN" "http://www.w3.org/Graphics/SVG/1.1/DTD/svg11.dtd" >
<svg xmlns="http://www.w3.org/2000/svg">
<metadata></metadata>
<defs>
<font id="quadraat-regularregular" horiz-adv-x="1030" >
<font-face units-per-em="2048" ascent="1638" descent="-410" />
<missing-glyph horiz-adv-x="423" />
<glyph unicode="&#xfb01;" horiz-adv-x="1171" d="M70 0v49q84 13 112.5 58t28.5 161v484l-127 96v29l137 86q0 160 28 244t103 153q53 50 138.5 79t177.5 29q136 0 236 -42.5t100 -100.5q0 -37 -25.5 -64.5t-81.5 -52.5q-14 22 -63 84q-38 43 -93 67.5t-112 24.5q-128 0 -195 -108t-67 -315v-50h372q65 0 124 12.5 t85 24.5l27 13l29 -29l-15 -268v-396q0 -112 15 -147q11 -28 40 -45t86 -27v-49h-452v49q59 9 86.5 28.5t39.5 61.5t15 129l15 340v33q0 73 -22.5 118.5t-61.5 45.5h-383v-537q0 -83 14 -127q15 -38 58.5 -59.5t125.5 -32.5v-49h-495z" />
<glyph unicode="&#xfb02;" horiz-adv-x="1150" d="M70 0v49q84 13 112.5 58t28.5 161v484l-127 96v29l137 86q9 155 38.5 237.5t100.5 151.5q55 55 132 85.5t161 30.5q74 0 185 -12l110 27l29 -29l-16 -522v-664q0 -115 14 -147q11 -28 40.5 -45t86.5 -27v-49h-453v49q59 9 87 29t40 62t15 128l14 396v155q-14 -14 -70 -14 h-368v-537q0 -83 14 -127q15 -38 58.5 -59.5t125.5 -32.5v-49h-495zM367 911l397 15q27 0 41 -17v99q0 199 -23 264q-24 65 -66.5 88.5t-105.5 23.5t-107 -30.5t-79 -96.5q-30 -57 -43.5 -109.5t-13.5 -148.5v-88z" />
<glyph horiz-adv-x="2048" />
<glyph horiz-adv-x="2048" />
<glyph unicode="&#xd;" horiz-adv-x="2048" />
<glyph unicode=" "  horiz-adv-x="423" />
<glyph unicode="&#x09;" horiz-adv-x="423" />
<glyph unicode="&#xa0;" horiz-adv-x="423" />
<glyph unicode="!" horiz-adv-x="538" d="M141 111q0 50 35 84t86 34q47 0 81 -34.5t34 -81.5q0 -53 -34 -89t-83 -36t-84 36t-35 87zM156 1311h241l-84 -930l-98 -31z" />
<glyph unicode="&#x22;" horiz-adv-x="833" d="M121 819l41 438l106 78l107 -78l-185 -438l-28 -28zM459 819l43 438l106 78l105 -78l-183 -438l-28 -28z" />
<glyph unicode="#" horiz-adv-x="1349" d="M70 453l28 92h283l92 280h-299l25 93h309l170 466l84 -34l-154 -432h295l164 466l92 -34l-149 -432h268l-29 -93h-268l-104 -280h317l-29 -92h-317l-170 -496l-92 29l155 467h-288l-170 -496l-93 37l162 459h-282zM479 545h291l107 280h-297z" />
<glyph unicode="$" d="M121 395l41 21q34 -82 57 -133q73 -163 219 -205l49 -15v482q-33 27 -108.5 89t-104.5 87q-112 103 -112 258q0 156 100 256q45 45 90 66t135 40v170h84v-170q84 -9 128.5 -20.5t140.5 -48.5l43 -297l-43 -21q-57 105 -95 158q-34 50 -69.5 81.5t-104.5 70.5v-523 q24 -17 67.5 -49t59.5 -43q45 -31 66 -47t55.5 -48.5t50 -60t28.5 -70.5t13 -93q0 -143 -83.5 -231t-256.5 -128v-182h-84v182q-111 10 -167 24.5t-173 61.5zM303 1069q0 -33 14 -80q20 -55 55.5 -96t114.5 -102v473q-70 -14 -112 -41q-29 -20 -50.5 -65.5t-21.5 -88.5z M571 57q170 47 170 213q0 66 -35.5 114.5t-134.5 117.5v-445z" />
<glyph unicode="%" horiz-adv-x="1650" d="M43 967q0 166 91.5 263t246.5 97q156 0 248 -97.5t92 -262.5q0 -164 -92.5 -261.5t-247.5 -97.5t-246.5 97.5t-91.5 261.5zM184 961q0 -123 51.5 -191t145.5 -68q95 0 147 69t52 196t-52 196.5t-147 69.5q-96 0 -146.5 -70t-50.5 -202zM551 0l424 1356l112 -43 l-423 -1356zM928 340q0 165 91.5 262.5t246.5 97.5q156 0 248 -97.5t92 -262.5q0 -166 -91.5 -263t-248.5 -97q-155 0 -246.5 97t-91.5 263zM1069 334q0 -123 51.5 -191.5t145.5 -68.5q95 0 146.5 69t51.5 197q0 127 -51.5 195.5t-146.5 68.5q-96 0 -146.5 -69t-50.5 -201z " />
<glyph unicode="&#x26;" horiz-adv-x="1355" d="M70 315q0 67 25.5 131.5t66.5 104.5q36 33 60.5 48.5t94.5 49.5q-95 113 -132.5 192.5t-37.5 168.5t29 149q38 79 131 130.5t199 51.5q143 0 235.5 -78.5t92.5 -199.5q0 -119 -85.5 -210.5t-261.5 -160.5q121 -137 182.5 -200.5t188.5 -178.5q60 94 60 205 q0 46 -14.5 79.5t-55.5 80.5v43h438v-43q-68 -21 -127 -57q-66 -40 -102.5 -82.5t-67.5 -114.5l-57 -135l-14 -27q140 -129 214.5 -186.5t153.5 -95.5v-37q-52 -15 -84 -15q-102 0 -183 42t-200 157q-65 -65 -106 -92q-44 -28 -112.5 -46t-131.5 -18q-169 0 -284 99 t-115 245zM240 373q0 -126 82 -207.5t208 -81.5q65 0 126.5 26.5t105.5 73.5q-142 125 -209.5 195t-192.5 221q-65 -50 -92.5 -102t-27.5 -125zM297 1079q0 -79 37 -159.5t119 -178.5l26 21q14 11 50.5 38t50.5 40q42 42 67 101t25 118q0 93 -50.5 141.5t-146.5 48.5 q-78 0 -128 -47.5t-50 -122.5z" />
<glyph unicode="'" horiz-adv-x="493" d="M121 819l41 438l106 78l107 -78l-185 -438l-43 -28z" />
<glyph unicode="(" horiz-adv-x="677" d="M162 438v170q0 297 104.5 474.5t319.5 244.5l43 -35q-117 -75 -180 -162.5t-90 -212t-27 -323.5v-141q0 -200 25 -314.5t87 -195.5q36 -46 63.5 -72.5t121.5 -103.5l-43 -35q-87 28 -130.5 52.5t-95.5 74.5q-97 92 -147.5 241t-50.5 338z" />
<glyph unicode=")" horiz-adv-x="677" d="M49 -233q115 92 184 176q61 76 87 193.5t26 316.5v141q0 199 -27 323.5t-90 212t-180 162.5l43 35q215 -67 319.5 -244.5t104.5 -474.5v-170q0 -382 -197 -579q-49 -49 -94 -74t-133 -53z" />
<glyph unicode="*" horiz-adv-x="983" d="M33 1128l14 35l381 -80l53 369l39 -4l43 -371l379 90l8 -39q-350 -182 -352 -182l199 -342l-35 -18l-279 286q1 0 -69 -75t-140 -149l-71 -75l-29 25l207 358z" />
<glyph unicode="+" horiz-adv-x="1146" d="M51 453l29 141h430v367l141 49l-14 -174v-242h156l290 6v-151l-268 18h-178v-467l-141 -29l14 312v184h-205z" />
<glyph unicode="," horiz-adv-x="573" d="M141 106q0 50 34 84.5t83 34.5q62 0 107 -66t45 -157q0 -75 -44 -150t-167 -212l-58 63q31 20 58 43q37 34 60.5 80.5t23.5 87.5q0 28 -12.5 50.5t-32.5 31.5l-39 18q-26 12 -42 37.5t-16 54.5z" />
<glyph unicode="-" horiz-adv-x="675" d="M84 571l494 58l14 -162l-494 -57z" />
<glyph unicode="." horiz-adv-x="573" d="M141 104q0 57 40.5 96.5t99.5 39.5q54 0 91.5 -39t37.5 -95t-41 -95.5t-99 -39.5q-54 0 -91.5 38.5t-37.5 94.5z" />
<glyph unicode="/" horiz-adv-x="593" d="M84 -211l283 1567l127 -35l-283 -1561z" />
<glyph unicode="0" d="M84 467q0 224 116.5 355.5t315.5 131.5t315.5 -131.5t116.5 -355.5q0 -226 -116 -356.5t-316 -130.5t-316 130.5t-116 356.5zM244 467q0 -167 73 -264t199 -97t198 96.5t72 264.5t-72.5 263t-201.5 95q-123 0 -195.5 -96.5t-72.5 -261.5z" />
<glyph unicode="1" horiz-adv-x="804" d="M84 0v43q146 26 194 79.5t48 188.5v310q0 100 -17 149.5t-60 75.5t-136 43v43h594v-43q-99 -15 -145 -40t-64.5 -75.5t-18.5 -152.5v-310q0 -135 48.5 -188.5t193.5 -79.5v-43h-637z" />
<glyph unicode="2" d="M78 70q26 16 102 63q143 93 303 238q66 63 84 90q22 33 36.5 85.5t14.5 94.5q0 72 -45.5 118t-117.5 46q-57 0 -107.5 -18.5t-142.5 -73.5l-21 8l27 156q104 47 163 62t140 15q133 0 208 -73.5t75 -204.5q0 -172 -131 -297q-29 -27 -99 -78q-76 -55 -235 -145v-15h594 v-155q-120 14 -219 14h-598z" />
<glyph unicode="3" d="M63 -403l31 63q106 -18 187 -18q180 0 286.5 85t106.5 230q0 72 -45.5 122t-111 70.5t-142.5 20.5q-39 0 -142 -23l-22 15l31 121q79 9 123 20.5t90 34.5q95 49 147.5 124.5t52.5 172.5q0 75 -53.5 120.5t-142.5 45.5q-61 0 -107.5 -16.5t-118.5 -63.5l-28 14l37 148 q93 39 149 52t133 13q155 0 240.5 -68.5t85.5 -191.5q0 -197 -193 -315l-127 -78v-12q326 -45 326 -312q0 -187 -146 -301t-386 -114q-75 0 -126 8t-135 33z" />
<glyph unicode="4" d="M29 113l620 833l107 -20l-6 -170v-615h239v-155q-83 14 -149 14h-90v-440h-156v440h-537zM156 141h438v580z" />
<glyph unicode="5" d="M104 -360q99 -9 142 -9q195 0 307.5 97t112.5 266q0 167 -119.5 250.5t-399.5 122.5l31 565h668l-31 -170h-534l-15 -268l49 -11q177 -37 261 -68.5t147 -90.5q67 -62 101 -137.5t34 -182.5q0 -110 -57 -210.5t-154 -162.5q-69 -44 -141.5 -62t-186.5 -18q-111 0 -215 17 v72z" />
<glyph unicode="6" d="M127 524q0 225 63.5 419t178.5 321q154 176 499 176h23v-70q-112 -15 -164.5 -29.5t-103.5 -42.5q-54 -28 -107 -84q-58 -59 -90.5 -113.5t-71.5 -160.5q111 21 183 21q169 0 282 -133.5t113 -333.5q0 -227 -117 -370.5t-303 -143.5q-180 0 -282.5 144.5t-102.5 399.5z M301 524q0 -204 66 -332.5t170 -128.5q45 0 96 48q60 55 92.5 138.5t32.5 180.5q0 95 -34 184.5t-91 145.5q-47 47 -98.5 69t-153.5 39l-53 -43q-27 -205 -27 -301z" />
<glyph unicode="7" d="M78 776v156h840l36 -43l-723 -1354l-120 64l673 1177h-706z" />
<glyph unicode="8" d="M96 326q0 166 162 282l107 76l55 43l-113 98q-95 83 -132.5 147t-37.5 142q0 141 116.5 244.5t274.5 103.5q161 0 270 -92.5t109 -230.5q0 -96 -53 -171.5t-180 -162.5l-64 -43l49 -35q126 -86 199 -170q78 -88 78 -207q0 -161 -125.5 -265.5t-316.5 -104.5 q-172 0 -285 98.5t-113 247.5zM264 338q0 -115 70.5 -187.5t183.5 -72.5q114 0 181 68t67 184q0 77 -49 143q-25 34 -44.5 52t-90.5 75l-105 84l-35 -35q-91 -91 -106 -112q-31 -38 -51.5 -95t-20.5 -104zM293 1159q0 -75 29 -123.5t127 -132.5l112 -98l57 57 q58 58 92.5 135.5t34.5 151.5q0 103 -62 165t-163 62q-103 0 -165 -59t-62 -158z" />
<glyph unicode="9" d="M98 434q0 238 119.5 385.5t312.5 147.5q375 0 375 -527q0 -242 -52 -415t-171 -301q-165 -177 -520 -177h-23v70q164 26 246.5 59t144.5 95q53 53 85 100.5t61 134.5q-123 -20 -184 -20q-75 0 -154.5 35t-130.5 92q-109 118 -109 321zM272 518q0 -96 33.5 -188t87.5 -146 q50 -48 102 -69.5t154 -36.5l53 43q27 178 27 303q0 205 -65 329t-172 124q-86 0 -153 -109t-67 -250z" />
<glyph unicode=":" horiz-adv-x="573" d="M170 104q0 57 40.5 96.5t98.5 39.5q54 0 91.5 -39t37.5 -95q0 -55 -41 -95t-98 -40q-54 0 -91.5 38.5t-37.5 94.5zM170 655q0 57 40.5 96.5t98.5 39.5q54 0 91.5 -39t37.5 -95q0 -55 -41 -95t-98 -40q-54 0 -91.5 38.5t-37.5 94.5z" />
<glyph unicode=";" horiz-adv-x="573" d="M170 113q0 51 33.5 85.5t81.5 34.5q63 0 108 -67t45 -158q0 -75 -44.5 -150t-168.5 -210l-55 63q25 16 55 41q38 34 62 80.5t24 89.5q0 59 -43 78l-43 20q-26 12 -40.5 37.5t-14.5 55.5zM170 655q0 57 40.5 96.5t98.5 39.5q54 0 91.5 -39t37.5 -95q0 -55 -41 -95t-98 -40 q-54 0 -91.5 38.5t-37.5 94.5z" />
<glyph unicode="&#x3c;" horiz-adv-x="1146" d="M98 453l826 557l71 -142q-76 -45 -165.5 -100.5t-150.5 -94.5t-167 -107t-154 -99l641 -354l-86 -146l-211 142z" />
<glyph unicode="=" horiz-adv-x="1146" d="M68 209l28 147l654 -6l350 6v-147l-269 14h-509zM68 618l22 142h719l291 6v-152l-269 19h-509z" />
<glyph unicode="&#x3e;" horiz-adv-x="1146" d="M176 113l641 354q-49 31 -154 98.5t-166.5 107t-151 95t-165.5 100.5l72 142l825 -555l-604 -346l-211 -142z" />
<glyph unicode="?" horiz-adv-x="761" d="M70 1327q0 49 36 91.5t119 92.5q-28 -58 -28 -96q0 -22 14 -39q13 -12 44 -18t126 -17q101 -10 151.5 -28t88.5 -56t54.5 -79t16.5 -101q0 -82 -24.5 -138.5t-87.5 -119.5l-185 -184q-43 -43 -43 -88q0 -63 127 -94q-97 -40 -128.5 -49t-74.5 -9q-49 0 -77.5 27.5 t-28.5 73.5q0 29 11.5 50.5t43.5 53.5l213 205q57 56 78 99t21 104q0 72 -38.5 120.5t-103.5 57.5l-196 28q-129 18 -129 113zM158 104q0 50 35 84.5t86 34.5q47 0 80.5 -34.5t33.5 -82.5q0 -52 -34.5 -88t-84.5 -36q-49 0 -82.5 35.5t-33.5 86.5z" />
<glyph unicode="@" horiz-adv-x="1636" d="M27 455q0 202 65.5 345.5t192.5 256.5q233 211 565 211q220 0 393 -90t269 -252.5t96 -370.5q0 -162 -69.5 -303t-186.5 -224t-252 -83q-55 0 -96 11t-111 44l8 170q-119 -108 -185.5 -149t-121.5 -41q-60 0 -99.5 98t-39.5 246t58.5 285t158.5 222q70 60 168 85t272 28 l-43 -266l-27 -594q30 -13 47 -17t50 -4q152 0 234.5 118t82.5 335q0 247 -90 393q-73 123 -210.5 194t-299.5 71q-138 0 -266.5 -52t-214.5 -143q-180 -189 -180 -539q0 -348 184 -532q151 -145 455 -248l-15 -41q-145 24 -214.5 44.5t-170.5 70.5q-192 94 -299.5 284 t-107.5 437zM596 334q0 -72 8.5 -113.5t36.5 -107.5l262 106l33 598h-170q-101 -151 -135.5 -248t-34.5 -235z" />
<glyph unicode="A" horiz-adv-x="1243" d="M0 0v43q94 32 123.5 65.5t75.5 159.5l381 1045h127l409 -1143q18 -47 44 -73.5t83 -53.5v-43h-409v43q55 17 76.5 41.5t21.5 67.5q0 38 -14 73l-84 228h-467l-41 -170q-23 -94 -23 -123q0 -51 37 -78t123 -39v-43h-463zM395 537h410l-211 600z" />
<glyph unicode="B" horiz-adv-x="1185" d="M43 0v43q123 19 160 61t37 164v750q0 126 -25.5 173t-116.5 87v43l269 -23q128 20 176.5 24.5t113.5 4.5q137 0 220.5 -78t83.5 -207q0 -70 -29 -139q-23 -54 -59.5 -103.5t-122.5 -142.5q125 -42 168 -63q79 -41 124 -113t45 -157q0 -152 -118 -248t-307 -96 q-117 0 -281 20h-338zM410 268q0 -100 57 -155.5t160 -55.5t176.5 81.5t73.5 195.5q0 108 -72 174q-61 55 -146 79.5t-249 33.5v-353zM410 735l28 -28l240 -29q50 53 72 84q55 80 55 178q0 124 -84 205q-50 45 -117.5 66.5t-193.5 31.5v-508z" />
<glyph unicode="C" horiz-adv-x="1257" d="M70 659q0 198 83 353.5t232.5 242t339.5 86.5q104 0 179 -19.5t198 -78.5v-311l-43 -14q-60 169 -141 253q-35 38 -98 62t-126 24q-181 0 -296 -159.5t-115 -411.5q0 -174 55 -317t152 -224.5t215 -81.5t213 80.5t198 266.5l43 -15l-86 -366q-121 -35 -189.5 -46.5 t-164.5 -11.5q-147 0 -244.5 33t-177.5 109q-108 103 -167.5 245.5t-59.5 300.5z" />
<glyph unicode="D" horiz-adv-x="1398" d="M43 0v43q123 19 160 61t37 164v750q0 59 -3.5 93.5t-11.5 61t-27.5 41t-44.5 24.5t-69 19v41l170 15q158 14 301 14q228 0 403.5 -85t272 -239.5t96.5 -353.5q0 -297 -180 -480t-473 -183q-33 0 -130.5 7t-162.5 7h-338zM410 297q0 -114 51.5 -166.5t163.5 -52.5 q226 0 365.5 165.5t139.5 432.5q0 114 -29.5 196.5t-96.5 157.5q-72 80 -170 135q-91 50 -177.5 68.5t-246.5 23.5v-960z" />
<glyph unicode="E" horiz-adv-x="1116" d="M43 0v43q123 19 160 61t37 164v750q0 129 -25.5 175.5t-116.5 78.5v41h820l28 -309l-43 -15q-63 128 -125 181t-157 59l-211 14v-536l198 6q108 3 151 34t75 130h43v-424h-43q-25 110 -65 141.5t-161 34.5l-198 6v-356q0 -115 41.5 -155t160.5 -40q126 0 203.5 57.5 t159.5 210.5l43 -12l-72 -340h-903z" />
<glyph unicode="F" d="M43 0v43q123 19 160 61t37 164v750q0 129 -25.5 175.5t-116.5 78.5v41h820l28 -295l-43 -29q-63 128 -125 181t-157 59l-211 14v-565l211 6q113 3 152 32t61 124h43v-410h-43q-19 103 -57.5 134.5t-155.5 35.5l-211 8v-340q0 -104 56.5 -154.5t197.5 -70.5v-43h-621z" />
<glyph unicode="G" horiz-adv-x="1468" d="M70 645q0 145 48 275.5t136 224.5q95 101 217.5 148.5t286.5 47.5q104 0 191 -17t237 -67l14 -311l-41 -28q-97 192 -192 265.5t-246 73.5q-196 0 -317 -163.5t-121 -429.5q0 -173 61.5 -308.5t173 -210.5t254.5 -75q287 0 287 227v84q0 109 -39 152.5t-158 66.5v49h522 v-41q-95 -31 -125 -72t-30 -141v-141l28 -197h-63q-19 0 -47 -7.5t-143 -43.5q-116 -35 -271 -35q-156 0 -258.5 35.5t-191.5 120.5q-103 99 -158 232t-55 286z" />
<glyph unicode="H" horiz-adv-x="1497" d="M57 0v43q114 23 148.5 65t34.5 160v750q0 129 -25.5 175.5t-116.5 78.5v41h482v-41q-106 -28 -138 -70.5t-32 -157.5v-323h634l43 29v268q0 130 -25.5 176t-115.5 78v41h481v-41q-107 -28 -138.5 -70t-31.5 -158v-776q0 -116 31.5 -157.5t138.5 -67.5v-43h-524v43 q116 23 150 65t34 160v367h-634l-43 -27v-340q0 -115 32 -157t138 -68v-43h-523z" />
<glyph unicode="I" horiz-adv-x="649" d="M43 0v43q123 19 160 61t37 164v776q0 119 -34.5 162t-148.5 66v41h551v-41q-123 -20 -160.5 -63.5t-37.5 -164.5v-776q0 -121 37.5 -163.5t160.5 -61.5v-43h-565z" />
<glyph unicode="J" horiz-adv-x="593" d="M-29 -233q152 170 205 285q49 110 49 262v18l-14 712q-3 125 -38.5 166.5t-158.5 61.5v41h566v-41q-115 -23 -150 -66t-35 -162v-649q0 -239 -55 -352q-35 -70 -110.5 -139t-229.5 -172z" />
<glyph unicode="K" horiz-adv-x="1306" d="M57 0v43q114 23 148.5 65t34.5 160v776q0 113 -29 155t-127 73v41h496v-41q-106 -28 -138 -70.5t-32 -157.5v-776q0 -121 37.5 -163.5t160.5 -61.5v-43h-551zM438 678l254 297l99 127q57 72 57 106q0 23 -26.5 40.5t-71.5 23.5v41h493v-41q-152 -53 -228 -108t-210 -210 l-197 -227l324 -401q116 -140 166 -195q55 -61 96.5 -89t118.5 -56v-43q-75 -11 -90 -11q-143 0 -265.5 97t-302.5 352q-103 144 -217 297z" />
<glyph unicode="L" d="M43 0v43q123 19 160 61t37 164v750q0 129 -25.5 175.5t-116.5 78.5v41h510v-41q-123 -20 -160.5 -63.5t-37.5 -164.5v-776q0 -104 45 -144t163 -40q121 0 198 58t159 210l43 -12l-72 -340h-903z" />
<glyph unicode="M" horiz-adv-x="1681" d="M14 0v43q97 34 134.5 76.5t50.5 134.5l112 790q4 23 4 62q0 66 -31 102t-114 64v41h309l369 -981l381 981h311v-41q-74 -9 -107.5 -35t-33.5 -74q0 -11 6 -76l78 -897q6 -78 26.5 -105t85.5 -42v-43h-395v43q72 10 93.5 36t21.5 101q0 17 -2 25l-70 868l-438 -1108 l-410 1079l-55 -591q-14 -140 -14 -222q0 -86 34.5 -124.5t133.5 -63.5v-43h-480z" />
<glyph unicode="N" horiz-adv-x="1468" d="M29 0v43q52 8 83 17.5t54 23t34 39.5t16.5 58t8.5 87l29 664q2 36 2 66q0 44 -4 76q-6 54 -30.5 92.5t-61 60t-103.5 45.5v41h305l754 -1045l-14 776q-1 124 -38 166t-161 62v41h537v-41q-122 -20 -158 -61.5t-39 -166.5l-29 -1015l-77 -74l-785 1083l15 -770 q3 -128 42 -169t171 -56v-43h-551z" />
<glyph unicode="O" horiz-adv-x="1427" d="M70 653q0 306 178 497t461 191q272 0 436 -161q102 -102 156.5 -238t54.5 -289q0 -302 -180 -492t-467 -190q-183 0 -329 87.5t-228 243.5t-82 351zM283 686q0 -176 60 -320t165.5 -226.5t234.5 -82.5q182 0 292 156t110 412q0 179 -60.5 323.5t-167.5 226.5t-239 82 q-177 0 -286 -158t-109 -413z" />
<glyph unicode="P" horiz-adv-x="1044" d="M43 0v43q86 13 126 35t55.5 65.5t15.5 130.5v770q0 117 -28 155t-128 58v41l156 15q146 14 245 14q246 0 389.5 -115.5t143.5 -314.5q0 -168 -115 -289q-73 -74 -148.5 -105t-232.5 -50l-28 55q104 14 156.5 35.5t99.5 70.5q84 87 84 271q0 207 -142 301q-48 32 -106 47 t-176 24v-989q0 -106 56.5 -155t197.5 -64v-49h-621z" />
<glyph unicode="Q" horiz-adv-x="1427" d="M70 653q0 309 178 498.5t467 189.5q140 0 247.5 -42.5t196.5 -133.5q94 -97 145.5 -230.5t51.5 -281.5q0 -155 -55 -292t-156 -234q-69 -65 -131 -93t-180 -48l296 -197q104 -70 153 -92.5t101 -22.5q38 0 127 29l15 -43q-77 -33 -123.5 -44t-110.5 -11q-156 0 -288 69 q-74 40 -147.5 98t-221.5 193q-138 32 -209 66.5t-143 103.5q-103 97 -158 230t-55 288zM283 686q0 -178 60.5 -322t167 -225.5t237.5 -81.5q60 0 138 32t118 73q63 68 102 196.5t39 272.5q0 176 -61 319.5t-168 225t-238 81.5q-177 0 -286 -158t-109 -413z" />
<glyph unicode="R" horiz-adv-x="1269" d="M43 0v43q64 10 100.5 22.5t59 39t30 63t7.5 100.5v750q0 82 -14 127t-49 75t-107 58v43l311 -23q105 19 149.5 24t98.5 5q148 0 240 -84.5t92 -222.5q0 -101 -43 -186q-26 -55 -63.5 -101.5t-119.5 -124.5q181 -267 267 -384.5t143 -174.5q36 -36 69.5 -57.5t82 -35.5 t116.5 -19v-35q-78 -23 -133 -23q-92 0 -184 39.5t-164 110.5q-59 58 -106 119.5t-103 154t-143 254.5q-58 -6 -86 -6t-84 6v-289q0 -63 7.5 -100t30.5 -63.5t59.5 -39t100.5 -22.5v-43h-565zM410 657q48 -18 77 -23t82 -5q57 0 109 14q34 32 58 63.5t39.5 65t22.5 68.5 t7 75q0 96 -47 172t-123 113q-45 23 -91.5 32.5t-133.5 10.5v-586z" />
<glyph unicode="S" horiz-adv-x="1017" d="M113 395l43 21q38 -101 67.5 -154t73.5 -100q50 -53 108.5 -83t112.5 -30q90 0 153.5 64.5t63.5 156.5q0 65 -33 111t-122 106q-136 91 -198 137.5t-114 96.5q-61 58 -86.5 117.5t-25.5 144.5q0 160 105.5 259t277.5 99q67 0 129 -14t166 -55l43 -297l-43 -21 q-45 80 -95 158q-103 152 -245 152q-85 0 -141 -55.5t-56 -141.5q0 -43 19 -92.5t51 -85.5q41 -44 103 -90t222 -150q51 -32 84 -59.5t64.5 -66t47 -88.5t15.5 -113q0 -153 -114.5 -252t-292.5 -99q-84 0 -157 17.5t-198 68.5z" />
<glyph unicode="T" horiz-adv-x="1157" d="M0 1040l68 301q137 -37 221 -46t291 -9q203 0 286.5 9t220.5 46l72 -297l-43 -26q-73 117 -140.5 161t-170.5 44h-141v-955q0 -104 56.5 -154.5t197.5 -70.5v-43h-664v43q135 23 187.5 72.5t52.5 152.5v955h-142q-92 0 -160 -44.5t-153 -160.5z" />
<glyph unicode="U" horiz-adv-x="1384" d="M57 1272v41h508v-41q-123 -20 -160.5 -63.5t-37.5 -164.5v-516q0 -121 25 -194t87 -135q107 -107 260 -107q154 0 250 107q49 54 66.5 120t17.5 199v47l-14 479q-3 123 -35.5 164t-146.5 64v41h479v-41q-97 -31 -125 -72t-31 -156l-14 -493q-4 -160 -14 -233t-33.5 -119 t-79.5 -101q-130 -127 -367 -127q-143 0 -253 53t-171 148q-40 61 -54.5 132.5t-14.5 201.5v512q0 129 -26 175.5t-116 78.5z" />
<glyph unicode="V" horiz-adv-x="1165" d="M0 1272v41h438v-41q-67 -9 -90.5 -27t-23.5 -59q0 -51 28 -133l269 -764l227 692q29 92 29 152q0 52 -32.5 81t-123.5 58v41h450v-35q-69 -38 -97 -70.5t-56 -105.5l-354 -946q-21 -56 -43 -93.5t-70 -97.5l-410 1172q-18 48 -47 76.5t-94 58.5z" />
<glyph unicode="W" horiz-adv-x="1816" d="M0 1272v41h410v-41q-45 -7 -64.5 -24t-19.5 -48q0 -38 14 -84l225 -776l240 655q29 82 29 140q0 52 -32 83t-110 54v41h438v-41q-61 -13 -86.5 -37t-25.5 -66q0 -40 12 -75l256 -762l168 614q43 151 43 203q0 74 -127 123v41h438v-41q-98 -44 -133 -83.5t-69 -141.5 l-308 -920q-19 -58 -33.5 -85.5t-50.5 -70.5l-311 1010l-323 -875q-28 -72 -72 -135l-367 1174q-17 55 -44 79.5t-97 47.5z" />
<glyph unicode="X" horiz-adv-x="1159" d="M0 0v43q87 31 113 55q35 31 98 127l297 439l-240 423q-50 88 -80 116t-118 69v41h438v-41q-52 -9 -75 -27.5t-23 -50.5q0 -27 14 -49l197 -346l141 219q41 63 56.5 97t15.5 63q0 35 -26.5 57t-86.5 37v41h424v-41q-95 -55 -129 -87t-113 -141l-239 -331l325 -543 q31 -53 63 -77t107 -50v-43h-467v43q113 18 113 76q0 24 -29 80l-211 381l-155 -240q-37 -57 -61.5 -111t-24.5 -79q0 -86 143 -107v-43h-467z" />
<glyph unicode="Y" horiz-adv-x="1044" d="M0 1272v41h395v-41q-55 -10 -76.5 -28.5t-21.5 -53.5q0 -28 14 -60l240 -509l156 340q69 150 69 200q0 83 -141 111v41h424v-41q-92 -48 -113 -72q-28 -31 -84 -141l-198 -381q-70 -134 -70 -297v-113q0 -104 56.5 -154.5t197.5 -70.5v-43h-664v43q134 23 187 72.5 t53 152.5v113q0 147 -49 248l-219 458q-47 100 -70 127t-86 58z" />
<glyph unicode="Z" horiz-adv-x="1101" d="M29 29l762 1171l-29 29l-283 -15q-106 -5 -167.5 -28t-103.5 -74.5t-81 -150.5l-43 14l57 338h877l14 -35l-764 -1180l15 -14l282 14q154 8 251 64t214 205l43 -15l-98 -352h-932z" />
<glyph unicode="[" horiz-adv-x="737" d="M242 -211v1503l452 35l15 -70l-312 -57v-1313l312 -71l-15 -70z" />
<glyph unicode="\" horiz-adv-x="593" d="M84 1321l127 35l283 -1567l-127 -29z" />
<glyph unicode="]" horiz-adv-x="737" d="M29 -184l311 71v1313l-311 57l14 70l453 -35v-1503l-453 -43z" />
<glyph unicode="^" horiz-adv-x="921" d="M152 1130l327 359l287 -367l-29 -20l-260 194l-305 -186z" />
<glyph unicode="_" horiz-adv-x="989" d="M0 -70h989v-129h-989v129z" />
<glyph unicode="`" horiz-adv-x="921" d="M244 1413l14 84h98l254 -438l-28 -29z" />
<glyph unicode="a" horiz-adv-x="917" d="M57 174q0 77 47 125.5t164 91.5l312 115v172q0 100 -30.5 136t-115.5 36q-76 0 -116 -35.5t-78 -136.5q-13 -34 -29 -70q-113 15 -113 82q0 53 74 118t178 105q46 17 106 29t101 12q97 0 140.5 -45t43.5 -143v-39l-20 -479v-17q0 -75 32 -110t136 -72v-45l-103 -12 q-62 -8 -86 -8q-62 0 -89 21t-46 83q-91 -65 -149 -86.5t-140 -21.5q-102 0 -160.5 52t-58.5 142zM231 199q0 -44 35.5 -79.5t81.5 -35.5q58 0 156 37q6 2 26 9t35 11l15 295l-209 -86q-140 -58 -140 -151z" />
<glyph unicode="b" horiz-adv-x="1073" d="M84 1354v59l256 41l27 -27l-27 -593q62 55 141 91t154 36q155 0 254.5 -127.5t99.5 -325.5q0 -239 -131 -388t-342 -149q-48 0 -106 15q-92 28 -111 28q-11 0 -59 -20l-41 -23l-43 43l28 367v676q0 111 -8 165.5t-28 83.5t-64 48zM340 283q0 -99 49.5 -159.5t130.5 -60.5 q129 0 214 110t85 276q0 162 -87.5 269t-219.5 107q-49 0 -83.5 -9.5t-88.5 -39.5v-493z" />
<glyph unicode="c" horiz-adv-x="876" d="M84 434q0 230 120 375t310 145q126 0 223 -66t97 -151q0 -41 -27 -71.5t-62 -30.5q-28 0 -50 15.5t-31 41.5l-29 84q-26 78 -131 78q-119 0 -184.5 -93.5t-65.5 -262.5q0 -178 77 -277.5t214 -99.5q54 0 101.5 16t129.5 62l58 -23q-58 -93 -159 -144.5t-224 -51.5 q-164 0 -265.5 125t-101.5 329z" />
<glyph unicode="d" horiz-adv-x="1073" d="M84 426q0 150 59 273t163.5 192.5t232.5 69.5q50 0 88.5 -8.5t107.5 -34.5v153q0 157 -33 216.5t-131 82.5v49l318 35l29 -27l-29 -495v-664q0 -95 24.5 -131t104.5 -59v-49l-256 -58l-27 29v98q-80 -68 -147.5 -97.5t-145.5 -29.5q-158 0 -258 127t-100 328zM254 502 q0 -177 85.5 -286.5t223.5 -109.5q48 0 81.5 10t90.5 40v493q0 98 -50.5 158.5t-133.5 60.5q-125 0 -211 -106t-86 -260z" />
<glyph unicode="e" horiz-adv-x="897" d="M84 434q0 241 123 380.5t334 139.5q139 0 216 -67t77 -189q0 -64 -15 -153h-579v-53q0 -173 80.5 -271t222.5 -98q56 0 105.5 12t150.5 49l41 -8q-19 -77 -140 -138t-256 -61q-160 0 -260 127t-100 330zM254 629h395l29 35v43q0 65 -50.5 110t-123.5 45 q-86 0 -150.5 -59.5t-99.5 -173.5z" />
<glyph unicode="f" horiz-adv-x="651" d="M70 0v49q84 13 112.5 58t28.5 161v484l-127 96v29l137 86q9 155 38 236t101 153q115 118 320 118q126 0 196 -25t70 -69q0 -39 -26 -65t-84 -45q-69 66 -120 92t-110 26q-60 0 -103.5 -30.5t-78.5 -96.5q-24 -46 -33.5 -97t-17.5 -161l-6 -88l254 15q27 1 42 -13.5 t15 -40.5q0 -41 -16 -54t-68 -13h-227l14 -537q3 -100 14 -127q26 -72 185 -92v-49h-510z" />
<glyph unicode="g" horiz-adv-x="1052" d="M63 -213q0 139 205 248q-59 28 -85.5 57.5t-26.5 67.5t39 79t143 113q-217 105 -217 289q0 132 112.5 222.5t278.5 90.5q23 0 160.5 -18t179.5 -18q62 0 207 22v-115l-156 -20q19 -47 25 -76t6 -70q0 -157 -112 -248.5t-304 -91.5q-47 0 -129 13q-34 -33 -45.5 -54 t-11.5 -53q0 -54 32.5 -74t133.5 -24l131 -6q190 -8 268 -43q40 -19 66 -60.5t26 -87.5q0 -166 -151.5 -274.5t-384.5 -108.5q-170 0 -280 68t-110 172zM240 -158q0 -86 76.5 -139t201.5 -53q135 0 221 62.5t86 162.5q0 57 -45 82.5t-151 28.5q-209 9 -326 28 q-37 -60 -50 -95.5t-13 -76.5zM297 639q0 -106 63 -171t164 -65q103 0 170.5 66t67.5 166q0 101 -63 161t-169 60q-101 0 -167 -61.5t-66 -155.5z" />
<glyph unicode="h" horiz-adv-x="1116" d="M70 0v49q54 14 79 34.5t36.5 61.5t13.5 123l12 396v393q0 116 -7 169t-26.5 81t-64.5 47v59l254 41l28 -27l-28 -610q137 83 212.5 113.5t145.5 30.5q39 0 82 -16t70 -42q55 -49 55 -196v-439q0 -54 2.5 -84t8.5 -54t22 -37t36 -22.5t58 -21.5v-49h-438v49 q59 9 86.5 28.5t39.5 61.5t15 129l14 340v15q0 95 -43.5 148.5t-120.5 53.5q-48 0 -94.5 -12t-150.5 -53v-492q0 -35 0.5 -54.5t2.5 -43.5t5.5 -35.5t10.5 -26t17 -21.5t25.5 -15t34 -13t45.5 -10v-49h-438z" />
<glyph unicode="i" horiz-adv-x="550" d="M57 0v49q59 9 86.5 28.5t40 61.5t15.5 129l12 340q2 10 2 33q0 106 -20 150.5t-80 70.5v41l243 58l27 -29l-16 -266v-398q0 -35 0.5 -54.5t2.5 -43.5t5.5 -35.5t10.5 -26t17 -21.5t25.5 -15t34 -13t45.5 -10v-49h-451zM184 1313q0 51 33 86t80 35q46 0 79.5 -35t33.5 -86 q0 -49 -33.5 -84t-79.5 -35q-47 0 -80 34.5t-33 84.5z" />
<glyph unicode="j" horiz-adv-x="479" d="M-70 -385q47 7 77 15.5t55.5 27t39.5 43t25 68.5t16 97.5t9 135.5l4 92v570q0 90 -21 127t-92 71v41l268 58l29 -29l-29 -592v-287q0 -120 -11 -199.5t-35 -137.5t-69.5 -89.5t-108 -47t-157.5 -17.5v53zM113 1313q0 51 33 86t79 35q48 0 81.5 -35t33.5 -86 q0 -49 -34 -84t-81 -35q-46 0 -79 35t-33 84z" />
<glyph unicode="k" horiz-adv-x="1038" d="M63 0v49q75 20 101 64.5t26 154.5v805q0 92 -2.5 138t-14 80.5t-29 48.5t-52.5 30v43l254 41l29 -27l-29 -610v-549q0 -125 19.5 -159t107.5 -60v-49h-410zM375 508l248 215q61 55 61 108q0 52 -84 58v43h467v-43q-84 -25 -127 -43.5t-100 -54.5q-80 -50 -139.5 -101 t-155.5 -153l465 -551l-15 -29h-28q-147 0 -290 133t-302 418z" />
<glyph unicode="l" horiz-adv-x="550" d="M49 0v49q85 13 110.5 53.5t30.5 165.5l15 396v393q0 110 -8 165t-28 84t-63 48v59l254 41l29 -27l-29 -524v-635q0 -112 15 -147q11 -28 40.5 -45t86.5 -27v-49h-453z" />
<glyph unicode="m" horiz-adv-x="1681" d="M70 0v49q78 20 101.5 59t27.5 160l12 340q2 12 2 37q0 104 -20.5 143t-94.5 74v41l254 58l15 -15v-133q132 85 210.5 116.5t157.5 31.5q81 0 121.5 -35t75.5 -135q120 98 196 134t164 36q100 0 162 -72q43 -55 43 -182v-439q0 -54 2.5 -84t8.5 -54.5t22 -37.5t36 -22.5 t58 -20.5v-49h-438v49q59 9 86.5 28.5t39.5 61.5t15 129l14 340v15q0 94 -43.5 149t-117.5 55q-50 0 -98.5 -19.5t-149.5 -80.5v-459q0 -35 0.5 -54.5t2.5 -43.5t5.5 -35.5t10.5 -26t17 -21.5t25.5 -15t34 -13t45.5 -10v-49h-452v49q86 13 111 53t30 166l14 340v15 q0 94 -43.5 149t-118.5 55q-46 0 -88.5 -13t-158.5 -64v-482q0 -35 0.5 -54.5t2.5 -43.5t5.5 -35.5t10.5 -26t17 -21.5t25.5 -15t34 -13t45.5 -10v-49h-438z" />
<glyph unicode="n" horiz-adv-x="1116" d="M70 0v49q78 20 101.5 59t27.5 160l12 340q2 8 2 29q0 101 -24 147.5t-91 77.5v41l248 64l21 -13v-141q135 85 210 116.5t148 31.5q40 0 83.5 -16.5t68.5 -41.5q55 -55 55 -196v-439q0 -54 2.5 -84t8.5 -54t22 -37t36 -22.5t58 -21.5v-49h-438v49q59 9 86.5 28.5 t39.5 61.5t15 129l14 340v13q0 95 -45 149.5t-123 54.5q-53 0 -101.5 -15t-139.5 -60v-482q0 -35 0.5 -54.5t2.5 -43.5t5.5 -35.5t10.5 -26t17 -21.5t25.5 -15t34 -13t45.5 -10v-49h-438z" />
<glyph unicode="o" horiz-adv-x="1058" d="M84 418q0 255 133.5 402t362.5 147q189 0 292 -116t103 -331q0 -255 -133 -402t-363 -147q-189 0 -292 116.5t-103 330.5zM268 487q0 -189 75 -310.5t192 -121.5q112 0 184 113.5t72 288.5q0 186 -75 306t-192 120q-112 0 -184 -111.5t-72 -284.5z" />
<glyph unicode="p" horiz-adv-x="1087" d="M43 -389q90 9 123 53.5t33 159.5v784q0 126 -21.5 174t-93.5 80v41l268 58v-127q61 54 142 90.5t153 36.5q157 0 257 -129t100 -330q0 -232 -133.5 -381.5t-340.5 -149.5q-51 0 -85 8.5t-93 34.5l8 -225q3 -89 41.5 -125t149.5 -53v-49h-508v49zM352 254 q0 -80 52.5 -135.5t127.5 -55.5q132 0 217 112t85 284q0 160 -81.5 263t-207.5 103q-48 0 -87 -9.5t-106 -39.5v-522z" />
<glyph unicode="q" horiz-adv-x="1073" d="M84 418q0 239 132 391t339 152q51 0 102 -15q100 -35 115 -35q24 0 100 50l46 -31l-29 -379v-721q0 -120 26 -160t115 -55v-53h-500v53q115 22 150 61.5t41 155.5l14 266q-80 -68 -147.5 -97.5t-145.5 -29.5q-157 0 -257.5 125.5t-100.5 321.5zM254 485q0 -166 88 -272.5 t225 -106.5q47 0 81 10t87 40v479q0 227 -184 227q-131 0 -214 -105.5t-83 -271.5z" />
<glyph unicode="r" horiz-adv-x="731" d="M70 0v49q77 20 101 60t28 159l12 340q2 12 2 37q0 104 -20.5 143t-94.5 74v41l269 58v-234q110 142 164.5 182.5t134.5 40.5q28 0 46.5 -18.5t18.5 -46.5q0 -66 -51 -148l-16 -26q-82 43 -148 43q-41 0 -76.5 -31t-72.5 -98v-357q0 -121 45 -164.5t180 -54.5v-49h-522z " />
<glyph unicode="s" horiz-adv-x="847" d="M98 326l43 14q47 -80 84 -141q49 -79 95 -110.5t114 -31.5q72 0 116 40.5t44 107.5q0 52 -27 83.5t-100 63.5l-127 58q-119 54 -173 118t-54 150q0 117 90 196.5t221 79.5q56 0 102 -8t152 -35l43 -219l-57 -14q-121 199 -258 199q-62 0 -107 -40.5t-45 -95.5 q0 -96 127 -147l141 -57q117 -47 172.5 -113t55.5 -158q0 -123 -91.5 -204.5t-228.5 -81.5q-81 0 -190 20l-113 20z" />
<glyph unicode="t" horiz-adv-x="614" d="M78 877l6 55q35 19 59.5 35t43.5 32.5t36.5 38.5t32.5 44.5t37 60.5l55 -21l-16 -213l254 17q27 1 42 -13t15 -39q0 -34 -27.5 -54.5t-70.5 -20.5h-213v-502q0 -103 34.5 -158t98.5 -55q70 0 178 51l14 -43q-75 -70 -126.5 -91t-147.5 -21q-120 0 -172 53q-49 50 -49 163 v13l12 559z" />
<glyph unicode="u" horiz-adv-x="1067" d="M70 868v50l276 36l-6 -530l-2 -23q0 -113 9 -162.5t34 -82.5q51 -64 151 -64q44 0 83 13.5t106 50.5l14 522v14q-1 74 -29 108q-32 38 -126 68v50l317 36l-20 -700l-3 -12q0 -92 31 -128t113 -44v-41l-256 -72l-55 29l14 112q-96 -73 -159 -100t-136 -27q-112 0 -177 76 t-65 207v438q0 84 -25 122.5t-89 53.5z" />
<glyph unicode="v" horiz-adv-x="833" d="M-14 889v43h366v-43l-41 -12q-35 -10 -49 -27t-14 -47q0 -35 20 -96l156 -482l170 453q27 73 27 121q0 78 -127 84v49h354v-43q-34 -10 -55.5 -37t-42.5 -76l-312 -719q-44 -100 -86 -100h-6l-262 819q-27 85 -98 113z" />
<glyph unicode="w" horiz-adv-x="1413" d="M-14 889v43h381v-43q-61 -10 -87 -29t-26 -53t14 -72l170 -495l226 551q-24 44 -48 60t-94 38v43h396v-43q-52 -12 -68 -25t-16 -43q0 -24 14 -71l170 -510l153 438q29 85 29 129q0 38 -25.5 55t-101.5 27v43h354v-43q-33 -9 -50 -25.5t-36 -58.5l-311 -721 q-31 -73 -51.5 -100t-46.5 -27h-14l-211 707l-254 -594q-23 -53 -43 -76t-43 -23h-15l-268 820q-19 62 -98 98z" />
<glyph unicode="x" horiz-adv-x="917" d="M14 0v35q77 26 115.5 55.5t81.5 93.5l192 283l-204 295q-6 7 -20 26.5t-23 30.5q-32 40 -51 53t-62 25v35h381v-35q-84 -6 -84 -49q0 -31 55 -113l92 -141l78 113q56 81 56 127q0 26 -16.5 40.5t-53.5 22.5v35h326v-35q-37 -13 -57.5 -21.5t-45.5 -23.5t-39 -33 q-25 -25 -133 -174l-80 -108l269 -396q38 -57 61 -76.5t66 -29.5v-35h-396v35q99 13 99 65q0 24 -41 86l-136 217l-92 -141q-55 -86 -55 -145q0 -34 19 -53t65 -29v-35h-367z" />
<glyph unicode="y" horiz-adv-x="833" d="M-14 897v35h381v-35q-4 -1 -41 -14q-72 -24 -72 -78q0 -23 14 -70l172 -522l168 479q27 80 27 115q0 36 -27 55.5t-100 34.5v35h354v-35q-44 -19 -70.5 -54t-56.5 -108l-424 -1018q-34 -81 -77 -118t-103 -37q-49 0 -75.5 22t-26.5 62q0 68 84 100l71 29q37 15 76.5 65 t95.5 150l-272 801q-15 45 -35.5 67t-62.5 39z" />
<glyph unicode="z" horiz-adv-x="931" d="M57 41l564 764l-13 14l-198 -6q-97 -3 -162.5 -46.5t-106.5 -131.5l-43 14l72 283l649 -43l29 -27l-565 -764l14 -14l182 14q266 21 355 213l43 -14l-101 -297h-692z" />
<glyph unicode="{" horiz-adv-x="755" d="M29 489v60q154 8 208.5 52.5t51.5 164.5l-15 448v21q0 139 62 201q47 44 119 59.5t229 15.5h29v-63q-82 0 -116 -5t-69 -22q-57 -26 -77.5 -85t-20.5 -197v-377q0 -103 -21 -142.5t-92 -68.5l-69 -29l69 -28q68 -28 90.5 -70t22.5 -141v-418q0 -104 7.5 -155t26.5 -80 t62 -52q47 -24 136 -24h51v-62q-20 -2 -60 -2q-138 0 -202.5 15t-118.5 61q-33 27 -45.5 69t-12.5 125v29l15 490q3 122 -51 164.5t-209 45.5z" />
<glyph unicode="|" horiz-adv-x="755" d="M295 -537v2171h156v-2171h-156z" />
<glyph unicode="}" horiz-adv-x="755" d="M43 -446h51q52 0 78.5 4.5t56.5 19.5q60 29 78.5 83.5t18.5 203.5v418q0 100 22 141.5t90 69.5l70 28l-70 29q-70 29 -91 68.5t-21 142.5v377q0 137 -20 194t-79 88q-30 17 -65 22t-119 5v63h29q155 0 226 -15.5t122 -59.5q61 -55 61 -201q0 -15 -2 -21l-12 -448 q-3 -120 51.5 -164.5t208.5 -52.5v-60q-155 -3 -209 -45.5t-51 -164.5l12 -490q2 -10 2 -29q0 -79 -12.5 -120.5t-44.5 -73.5q-47 -44 -114.5 -60t-207.5 -16q-41 0 -59 2v62z" />
<glyph unicode="~" horiz-adv-x="1146" d="M145 442l199 250h78q9 0 83.5 -28.5t129.5 -55.5q89 -43 151 -43q27 0 76.5 33t100.5 104l63 -47l-184 -237h-78q-39 0 -223 78q-4 1 -23 9t-29 11.5t-28.5 8.5t-35.5 7.5t-34 2.5q-23 0 -79 -40t-103 -102z" />
<glyph unicode="&#xa1;" horiz-adv-x="548" d="M141 2l92 928l99 31l51 -961zM172 1200q0 51 35 87t84 36q48 0 82.5 -36t34.5 -87q0 -49 -36 -84t-87 -35q-47 0 -80 34.5t-33 84.5z" />
<glyph unicode="&#xa2;" d="M49 510q0 208 150 352q73 70 145 100.5t207 47.5v311h98v-311h29q40 0 91.5 -14.5t158.5 -55.5v-233l-35 -11q-58 118 -107.5 176.5t-101.5 67.5l-35 6v-883l29 7q69 15 126.5 69t135.5 174l41 -16l-78 -268q-79 -26 -125 -34.5t-106 -8.5h-23v-340h-98v340h-21 q-128 0 -239 71.5t-176.5 192.5t-65.5 260zM231 522q0 -114 42 -221t112 -172.5t145 -65.5h21v891l-43 -8q-117 -22 -197 -144t-80 -280z" />
<glyph unicode="&#xa3;" d="M6 635v100h205v70q0 171 25.5 263.5t93.5 166.5q111 117 323 117q146 0 244 -39.5t98 -98.5q0 -54 -106 -98q-44 73 -99 115.5t-135 42.5q-142 0 -201 -96.5t-59 -329.5v-113h340v-100h-340v-332q0 -117 49 -161t179 -44q123 0 203 65t163 232l41 -14l-63 -381h-938v43 q87 13 127.5 35t56 66t12.5 130l-14 361h-205z" />
<glyph unicode="&#xa4;" d="M59 557l179 178q-41 68 -41 158t41 158l-179 178l84 84l170 -170q88 69 203 69t201 -67l168 168l84 -84l-174 -174q41 -71 41 -162t-41 -162l174 -174l-84 -84l-168 168q-87 -68 -201 -68q-113 0 -203 70l-170 -170zM313 893q0 -90 57.5 -152.5t145.5 -62.5t145.5 62.5 t57.5 152.5t-57.5 152.5t-145.5 62.5t-145.5 -62.5t-57.5 -152.5z" />
<glyph unicode="&#xa5;" d="M-6 1272v41h395v-41q-56 -11 -78 -29t-22 -53q0 -28 14 -60l242 -509l153 340q72 156 72 200q0 83 -141 111v41h424v-41q-93 -48 -113 -72q-28 -28 -86 -141q-17 -32 -99.5 -191.5t-125.5 -246.5h366v-76h-395q-9 -41 -11.5 -67t-2.5 -97v-14h409v-78h-409v-21 q0 -104 56.5 -154.5t197.5 -70.5v-43h-664v43q135 23 187.5 72.5t52.5 152.5v21h-381v78h381v14q0 78 -2 102.5t-11 61.5h-368v76h332l-220 466q-46 99 -68 126t-85 59z" />
<glyph unicode="&#xa6;" horiz-adv-x="755" d="M295 -217v539h156v-539h-156zM295 860v539h156v-539h-156z" />
<glyph unicode="&#xa7;" horiz-adv-x="917" d="M82 -57l43 14q40 -84 69 -126t80 -89q104 -98 222 -98q83 0 135.5 47.5t52.5 122.5q0 51 -16 80q-33 53 -176 141l-240 147q-82 51 -125 116t-43 138q0 85 35.5 146t101.5 110l29 -28q-34 -55 -44.5 -83t-10.5 -69q0 -52 27 -90t100 -84l268 -168q141 -88 192.5 -149.5 t51.5 -143.5q0 -139 -97 -220t-264 -81q-61 0 -132 12t-212 47zM127 1049q0 138 97 219.5t261 81.5q59 0 128.5 -12.5t220.5 -49.5l45 -307l-43 -14q-39 82 -68.5 124.5t-79.5 90.5q-106 100 -223 100q-83 0 -136 -48t-53 -124q0 -49 19 -78q36 -58 174 -143l240 -148 q82 -51 125 -116t43 -138q0 -74 -37 -141q-11 -20 -19.5 -33.5t-20.5 -26.5t-26.5 -25t-36.5 -28l-28 29q36 54 46.5 82.5t10.5 69.5q0 26 -6 46.5t-20.5 41.5t-39 41t-61.5 43l-268 170q-142 90 -193 151t-51 142z" />
<glyph unicode="&#xa8;" horiz-adv-x="921" d="M203 1231q5 44 33 75t65 31q41 0 70.5 -31.5t29.5 -74.5q0 -56 -29.5 -95.5t-70.5 -39.5q-44 0 -73.5 40.5t-24.5 94.5zM535 1231q5 44 33 75t65 31q41 0 70.5 -31.5t29.5 -74.5q0 -56 -29.5 -95.5t-70.5 -39.5q-44 0 -73.5 40.5t-24.5 94.5z" />
<glyph unicode="&#xa9;" horiz-adv-x="1433" d="M49 657q0 181 89.5 333.5t243 241.5t335.5 89q181 0 334 -89t242 -242t89 -333q0 -137 -52.5 -260.5t-142 -212.5t-212.5 -141.5t-258 -52.5q-136 0 -259.5 52.5t-213 141.5t-142.5 212.5t-53 260.5zM135 657q0 -158 78 -292t212 -211.5t292 -77.5q156 0 289 77.5 t210.5 211.5t77.5 292q0 156 -77.5 289.5t-210.5 212t-289 78.5q-158 0 -292.5 -78.5t-212 -212t-77.5 -289.5zM381 668q0 144 91.5 233.5t236.5 89.5q53 0 98 -10.5t129 -40.5l6 -170l-31 -10q-34 96 -79.5 137t-120.5 41q-88 0 -140.5 -68t-52.5 -182q0 -126 56 -204 t145 -78q72 0 116.5 37.5t82.5 129.5l40 -6l-40 -205q-112 -20 -183 -20q-162 0 -258 89t-96 237z" />
<glyph unicode="&#xaa;" horiz-adv-x="847" d="M70 741q0 60 37 95t133 67l268 92l8 127v13q0 114 -115 114q-86 0 -122.5 -35t-67.5 -147q-105 3 -105 63q0 44 61 93t150 75q110 31 187 31q79 0 116 -34.5t37 -108.5v-15l-22 -372q-4 -63 25.5 -92.5t123.5 -57.5v-35q-27 -2 -90.5 -8t-85.5 -6q-50 0 -70.5 15 t-35.5 63q-83 -49 -133 -66.5t-109 -17.5q-86 0 -137 39.5t-53 107.5zM219 764q0 -16 8.5 -32t22 -28t31.5 -19t36 -7q11 0 27.5 3t37.5 8t39.5 10t43 12t37.5 10l6 219l-168 -63q-67 -26 -94 -51t-27 -62z" />
<glyph unicode="&#xab;" horiz-adv-x="882" d="M70 508l325 369l43 -15l-170 -354l170 -387l-43 -23zM410 508l325 369l41 -15l-168 -354l168 -387l-41 -23z" />
<glyph unicode="&#xac;" horiz-adv-x="1146" d="M51 514l29 141h672l290 7v-5l2 -460l-153 22l6 148l-4 153l-119 8h-469z" />
<glyph unicode="&#xad;" horiz-adv-x="675" d="M84 571l494 58l14 -162l-494 -57z" />
<glyph unicode="&#xae;" horiz-adv-x="1433" d="M47 657q0 181 89.5 334t242.5 241.5t334 88.5q136 0 259.5 -52.5t213 -141t142 -211.5t52.5 -259t-52.5 -259t-142 -212t-213 -141.5t-259.5 -52.5q-181 0 -334 88.5t-242.5 242t-89.5 334.5zM131 657q0 -157 78.5 -291t212.5 -212t291 -78q117 0 224 46.5t185 124 t124 185.5t46 225q0 156 -78 289.5t-211.5 212t-289.5 78.5q-157 0 -291 -78.5t-212.5 -212t-78.5 -289.5zM418 367v41q58 4 74 23t16 81v317q0 46 -16.5 73t-63.5 56v33l178 -16q61 16 127 16q94 0 145.5 -40t51.5 -113q0 -58 -28.5 -97t-108.5 -90q144 -204 172 -236 l12 -12q26 -26 55 -38t76 -15v-31q-46 -10 -74 -10q-106 0 -170 64q-36 37 -62 77t-97 168q-11 -1 -24.5 -3.5t-16.5 -2.5q-5 0 -19 2.5t-22 3.5v-106q0 -55 13 -73.5t60 -30.5v-41h-278zM623 700q22 -15 35 -19.5t36 -4.5q11 0 76 14q49 60 49 121q0 49 -31 80 q-26 26 -57.5 35t-107.5 10v-236z" />
<glyph unicode="&#xaf;" horiz-adv-x="921" d="M186 1257v127h545v-127h-545z" />
<glyph unicode="&#xb0;" horiz-adv-x="614" d="M55 1081q0 105 74.5 179.5t179.5 74.5t179.5 -74.5t74.5 -179.5q0 -104 -75 -180t-179 -76t-179 76t-75 180zM137 1081q0 -71 50.5 -120.5t121.5 -49.5q75 0 123.5 48t48.5 122q0 72 -50 122t-122 50q-74 0 -123 -51t-49 -121z" />
<glyph unicode="&#xb1;" horiz-adv-x="1146" d="M51 473l29 141h430v367l141 49l-14 -174v-242h156l290 7v-152l-268 18h-178v-405l-141 -29l14 312v122h-205zM68 -262l28 147l654 -6l329 6v-147l-248 14h-509z" />
<glyph unicode="&#xb2;" d="M186 694l72 45q84 54 132 88t98 77t72 81.5t22 77.5q0 51 -31.5 83t-81.5 32q-89 0 -197 -64l-20 8l31 150q71 32 120 43.5t107 11.5q116 0 183 -58.5t67 -146.5q0 -27 -5 -52t-17.5 -47.5t-25 -41t-35.5 -38.5t-39.5 -34t-47 -33.5t-49.5 -31t-55 -32.5t-54 -32v-14h385 v-156q-100 17 -162 17h-438z" />
<glyph unicode="&#xb3;" d="M145 389l31 64q76 -15 152 -15q79 0 139.5 25t94.5 71.5t34 108.5q0 42 -31 71.5t-74 41.5t-92 12q-21 0 -127 -20l-22 14l31 119q36 2 67 5.5t62 10.5t56 17.5t46.5 25.5t36 34.5t23 45.5t8.5 57q0 43 -33 72t-80 29q-89 0 -197 -64l-20 8l31 150q71 32 120 43.5 t107 11.5q115 0 182.5 -56t67.5 -141q0 -73 -56 -132.5t-151 -100.5l-43 -18v-15q123 0 193.5 -55t70.5 -150q0 -90 -55 -160.5t-148.5 -108.5t-208.5 -38q-110 0 -215 37z" />
<glyph unicode="&#xb4;" horiz-adv-x="921" d="M229 1059l254 438h99l14 -84l-338 -383z" />
<glyph unicode="&#xb6;" horiz-adv-x="1179" d="M55 985q0 149 107 249.5t264 100.5q58 0 168 -22v-791h-25q-132 0 -251.5 64.5t-191 171.5t-71.5 227zM190 -303q0 43 20 77.5t73 84.5q22 -59 28 -70q54 -129 160 -129q63 0 118 42t89 114t45.5 160.5t11.5 277.5v1059h402v-41q-140 -19 -182.5 -64t-43.5 -178l-8 -756 q-2 -206 -40 -334t-128 -229q-59 -65 -147.5 -100t-194.5 -35q-203 0 -203 121z" />
<glyph unicode="&#xb7;" horiz-adv-x="550" d="M141 571q0 56 41 96t99 40q54 0 91.5 -39t37.5 -95q0 -57 -40.5 -96t-99.5 -39q-54 0 -91.5 38.5t-37.5 94.5z" />
<glyph unicode="&#xb8;" horiz-adv-x="921" d="M219 -444q115 -9 133 -9q104 0 162.5 30.5t58.5 84.5q0 33 -20.5 54t-85.5 59l-94 55l-76 -55l-43 49l297 227l59 -43l-143 -106l113 -58q127 -65 127 -178q0 -85 -76 -133.5t-209 -48.5q-53 0 -92.5 7.5t-104.5 29.5z" />
<glyph unicode="&#xb9;" d="M260 666v43q104 19 141 57t37 131v150q0 99 -39.5 141.5t-136.5 48.5l-2 43l318 51l28 -26l-14 -230v-178q0 -93 37.5 -131t140.5 -57v-43h-510z" />
<glyph unicode="&#xba;" horiz-adv-x="854" d="M49 907q0 197 111.5 308.5t308.5 111.5q161 0 248.5 -85t87.5 -243q0 -195 -111.5 -307t-306.5 -112q-160 0 -249 86t-89 241zM205 963q0 -143 60.5 -228.5t162.5 -85.5q101 0 161 83t60 224q0 134 -63 221t-160 87t-159 -84t-62 -217z" />
<glyph unicode="&#xbb;" horiz-adv-x="882" d="M106 121l168 387l-168 354l41 15l326 -369l-326 -410zM444 121l170 387l-170 354l43 15l326 -369l-326 -410z" />
<glyph unicode="&#xbc;" horiz-adv-x="1650" d="M164 1280l321 51l29 -26l-14 -230v-178q0 -93 37.5 -131t140.5 -57v-43h-510v43q104 19 141 57t37 131v150q0 99 -39.5 141.5t-136.5 48.5zM551 0l424 1356l112 -43l-423 -1356zM856 113l444 563l107 -14l-6 -119v-414h145v-145q-91 16 -145 16v-307h-139v307h-377z M975 131h287v352z" />
<glyph unicode="&#xbd;" horiz-adv-x="1650" d="M164 1280l321 51l29 -26l-14 -230v-178q0 -93 37.5 -131t140.5 -57v-43h-510v43q104 19 141 57t37 131v150q0 99 -39.5 141.5t-136.5 48.5zM551 0l424 1356l112 -43l-423 -1356zM926 68q31 20 71 45q85 55 132.5 88t97.5 76t72 81.5t22 77.5q0 51 -31.5 83t-81.5 32 q-88 0 -196 -64l-21 9l31 149q71 32 120 43.5t107 11.5q116 0 183 -58t67 -146q0 -27 -5 -52t-17.5 -47.5t-25 -41t-35.5 -38.5t-39.5 -34t-47 -33.5t-49.5 -31t-55 -32.5t-54 -32v-15h385v-155q-94 16 -161 16h-439z" />
<glyph unicode="&#xbe;" horiz-adv-x="1650" d="M-4 389l31 64q77 -15 151 -15q59 0 108.5 14.5t85 41t55 65t19.5 84.5q0 43 -30.5 72t-73.5 41t-92 12q-21 0 -127 -20l-23 14l31 119q51 2 92.5 8.5t81 21t66.5 35.5t43 54.5t16 76.5t-33 72t-80 29q-88 0 -196 -64l-21 8l31 150q71 32 120 43.5t107 11.5 q115 0 182.5 -56t67.5 -141q0 -73 -56 -132.5t-151 -100.5l-43 -18v-15q123 0 194 -55t71 -150q0 -90 -55 -160.5t-148.5 -108.5t-208.5 -38q-110 0 -215 37zM561 0l424 1356l113 -43l-424 -1356zM856 113l444 563l107 -14l-6 -119v-414h145v-145q-91 16 -145 16v-307h-139 v307h-377zM975 131h287v352z" />
<glyph unicode="&#xbf;" horiz-adv-x="759" d="M68 231q0 153 110 263l184 184q21 21 35.5 47t14.5 41q0 26 -32 51.5t-89 44.5q97 36 126 43.5t72 7.5q47 0 77 -27.5t30 -70.5q0 -35 -9 -50t-55 -58l-213 -199q-96 -90 -96 -211q0 -68 38.5 -116.5t100.5 -57.5l197 -31q65 -11 96 -38t31 -74q0 -51 -35.5 -92 t-118.5 -87q25 60 25 90q0 27 -12 39q-14 12 -46 19.5t-124 17.5q-101 12 -150.5 30t-89.5 58q-67 67 -67 176zM377 1202q0 52 34.5 88.5t84.5 36.5q49 0 82.5 -36t33.5 -87q0 -50 -34.5 -84.5t-85.5 -34.5q-47 0 -81 35t-34 82z" />
<glyph unicode="&#xc0;" horiz-adv-x="1243" d="M0 0v43q94 32 123.5 65.5t75.5 159.5l381 1045h127l409 -1143q18 -47 44 -73.5t83 -53.5v-43h-409v43q55 17 76.5 41.5t21.5 67.5q0 38 -14 73l-84 228h-467l-41 -170q-23 -94 -23 -123q0 -51 37 -78t123 -39v-43h-463zM283 1581l84 57l368 -198l-14 -27l-410 84z M395 537h410l-211 600z" />
<glyph unicode="&#xc1;" horiz-adv-x="1243" d="M0 0v43q94 32 123.5 65.5t75.5 159.5l381 1045h127l409 -1143q18 -47 44 -73.5t83 -53.5v-43h-409v43q55 17 76.5 41.5t21.5 67.5q0 38 -14 73l-84 228h-467l-41 -170q-23 -94 -23 -123q0 -51 37 -78t123 -39v-43h-463zM395 537h410l-211 600zM565 1440l367 198l86 -57 l-29 -84l-409 -84z" />
<glyph unicode="&#xc2;" horiz-adv-x="1243" d="M0 0v43q94 32 123.5 65.5t75.5 159.5l381 1045h127l409 -1143q18 -47 44 -73.5t83 -53.5v-43h-409v43q55 17 76.5 41.5t21.5 67.5q0 38 -14 73l-84 228h-467l-41 -170q-23 -94 -23 -123q0 -51 37 -78t123 -39v-43h-463zM367 1413l254 225h57l254 -225l-29 -29l-254 127 l-254 -127zM395 537h410l-211 600z" />
<glyph unicode="&#xc3;" horiz-adv-x="1243" d="M0 0v43q94 32 123.5 65.5t75.5 159.5l381 1045h127l409 -1143q18 -47 44 -73.5t83 -53.5v-43h-409v43q55 17 76.5 41.5t21.5 67.5q0 38 -14 73l-84 228h-467l-41 -170q-23 -94 -23 -123q0 -51 37 -78t123 -39v-43h-463zM311 1413l168 197h58q57 0 225 -43q69 -15 100 -15 q48 0 81.5 18.5t74.5 67.5l26 -28l-141 -183h-55q-20 0 -260 52q-36 8 -64 8q-45 0 -84 -22t-100 -81zM395 537h410l-211 600z" />
<glyph unicode="&#xc4;" horiz-adv-x="1243" d="M0 0v43q94 32 123.5 65.5t75.5 159.5l381 1045h127l409 -1143q18 -47 44 -73.5t83 -53.5v-43h-409v43q55 17 76.5 41.5t21.5 67.5q0 38 -14 73l-84 228h-467l-41 -170q-23 -94 -23 -123q0 -51 37 -78t123 -39v-43h-463zM385 1538q5 44 33 75.5t65 31.5q41 0 71 -32 t30 -75q0 -55 -30 -95t-71 -40q-44 0 -73.5 40.5t-24.5 94.5zM395 537h410l-211 600zM717 1538q5 44 33 75.5t65 31.5q41 0 70.5 -32t29.5 -75q0 -56 -29.5 -95.5t-70.5 -39.5q-44 0 -73.5 40.5t-24.5 94.5z" />
<glyph unicode="&#xc5;" horiz-adv-x="1243" d="M0 0v43q94 32 123.5 65.5t75.5 159.5l381 1045h127l409 -1143q18 -47 44 -73.5t83 -53.5v-43h-409v43q55 17 76.5 41.5t21.5 67.5q0 38 -14 73l-84 228h-467l-41 -170q-23 -94 -23 -123q0 -51 37 -78t123 -39v-43h-463zM395 537h410l-211 600zM467 1546q0 70 49.5 120 t120.5 50q69 0 118.5 -50t49.5 -120t-49.5 -120t-118.5 -50q-71 0 -120.5 50t-49.5 120zM551 1546q0 -35 25.5 -59.5t60.5 -24.5t59.5 24.5t24.5 59.5t-24.5 59.5t-59.5 24.5t-60.5 -24.5t-25.5 -59.5z" />
<glyph unicode="&#xc6;" horiz-adv-x="1847" d="M0 0v43q38 11 43 14q45 20 102.5 73.5t94.5 109.5l487 741q91 139 104 164q15 26 15 49q0 29 -31.5 51.5t-89.5 32.5v35h940l29 -309l-43 -15q-65 128 -126.5 181t-156.5 59l-211 14v-536l197 6q110 3 152 34t73 130h43v-424h-43q-23 109 -63.5 141t-161.5 35l-197 6 v-361q0 -111 41.5 -150.5t159.5 -39.5q125 0 202.5 57.5t159.5 210.5l43 -12l-69 -340h-906v43q57 11 90 23t60 35.5t38 61t11 95.5v350h-381l-155 -241q-101 -153 -101 -220q0 -86 123 -104v-43h-473zM662 692h325v537z" />
<glyph unicode="&#xc7;" horiz-adv-x="1257" d="M70 659q0 198 83 353.5t232.5 242t339.5 86.5q104 0 179 -19.5t198 -78.5v-311l-43 -14q-60 169 -141 253q-35 38 -98 62t-126 24q-181 0 -296 -159.5t-115 -411.5q0 -174 55 -317t152 -224.5t215 -81.5t213 80.5t198 266.5l43 -15l-86 -366q-115 -34 -171.5 -44 t-166.5 -14l-100 -69l115 -58q135 -69 135 -178q0 -66 -56 -119q-38 -34 -92 -48.5t-141 -14.5q-52 0 -88.5 7.5t-97.5 29.5l-15 26h82q145 0 210 26.5t65 84.5q0 34 -28 65.5t-75 51.5l-98 41l-72 -41l-41 41l197 155q-71 7 -168 35q-124 67 -170 107q-102 87 -164.5 237 t-62.5 309z" />
<glyph unicode="&#xc8;" horiz-adv-x="1116" d="M43 0v43q123 19 160 61t37 164v750q0 129 -25.5 175.5t-116.5 78.5v41h820l28 -309l-43 -15q-63 128 -125 181t-157 59l-211 14v-536l198 6q108 3 151 34t75 130h43v-424h-43q-25 110 -65 141.5t-161 34.5l-198 6v-356q0 -115 41.5 -155t160.5 -40q126 0 203.5 57.5 t159.5 210.5l43 -12l-72 -340h-903zM199 1581l84 57l366 -198l-14 -27l-410 84z" />
<glyph unicode="&#xc9;" horiz-adv-x="1120" d="M43 0v43q123 19 160 61t37 164v750q0 129 -25.5 175.5t-116.5 78.5v41h820l28 -309l-43 -15q-63 128 -125 181t-157 59l-211 14v-536l198 6q108 3 151 34t75 130h43v-424h-43q-25 110 -65 141.5t-161 34.5l-198 6v-356q0 -115 41.5 -155t160.5 -40q126 0 203.5 57.5 t159.5 210.5l43 -12l-72 -340h-903zM352 1440l369 198l84 -57l-29 -84l-409 -84z" />
<glyph unicode="&#xca;" horiz-adv-x="1116" d="M43 0v43q123 19 160 61t37 164v750q0 129 -25.5 175.5t-116.5 78.5v41h820l28 -309l-43 -15q-63 128 -125 181t-157 59l-211 14v-536l198 6q108 3 151 34t75 130h43v-424h-43q-25 110 -65 141.5t-161 34.5l-198 6v-356q0 -115 41.5 -155t160.5 -40q126 0 203.5 57.5 t159.5 210.5l43 -12l-72 -340h-903zM268 1413l254 225h58l254 -225l-29 -29l-254 127l-254 -127z" />
<glyph unicode="&#xcb;" horiz-adv-x="1116" d="M43 0v43q123 19 160 61t37 164v750q0 129 -25.5 175.5t-116.5 78.5v41h820l28 -309l-43 -15q-63 128 -125 181t-157 59l-211 14v-536l198 6q108 3 151 34t75 130h43v-424h-43q-25 110 -65 141.5t-161 34.5l-198 6v-356q0 -115 41.5 -155t160.5 -40q126 0 203.5 57.5 t159.5 210.5l43 -12l-72 -340h-903zM283 1538q5 44 33 75.5t65 31.5q41 0 70.5 -32t29.5 -75q0 -56 -29.5 -95.5t-70.5 -39.5q-44 0 -73.5 40.5t-24.5 94.5zM614 1538q5 44 33.5 75.5t65.5 31.5q41 0 70.5 -32t29.5 -75q0 -56 -29.5 -95.5t-70.5 -39.5q-44 0 -74 40.5 t-25 94.5z" />
<glyph unicode="&#xcc;" horiz-adv-x="649" d="M-43 1581l86 57l367 -198l-15 -27l-409 84zM43 0v43q123 19 160 61t37 164v776q0 119 -34.5 162t-148.5 66v41h551v-41q-123 -20 -160.5 -63.5t-37.5 -164.5v-776q0 -121 37.5 -163.5t160.5 -61.5v-43h-565z" />
<glyph unicode="&#xcd;" horiz-adv-x="649" d="M43 0v43q123 19 160 61t37 164v776q0 119 -34.5 162t-148.5 66v41h551v-41q-123 -20 -160.5 -63.5t-37.5 -164.5v-776q0 -121 37.5 -163.5t160.5 -61.5v-43h-565zM225 1440l369 198l84 -57l-29 -84l-409 -84z" />
<glyph unicode="&#xce;" horiz-adv-x="649" d="M43 0v43q123 19 160 61t37 164v776q0 119 -34.5 162t-148.5 66v41h551v-41q-123 -20 -160.5 -63.5t-37.5 -164.5v-776q0 -121 37.5 -163.5t160.5 -61.5v-43h-565zM57 1413l254 225h56l254 -225l-27 -29l-254 127l-256 -127z" />
<glyph unicode="&#xcf;" horiz-adv-x="649" d="M43 0v43q123 19 160 61t37 164v776q0 119 -34.5 162t-148.5 66v41h551v-41q-123 -20 -160.5 -63.5t-37.5 -164.5v-776q0 -121 37.5 -163.5t160.5 -61.5v-43h-565zM68 1538q5 44 33 75.5t65 31.5q41 0 70.5 -32t29.5 -75q0 -56 -29.5 -95.5t-70.5 -39.5q-44 0 -73.5 40.5 t-24.5 94.5zM399 1538q5 44 33.5 75.5t65.5 31.5q41 0 70.5 -32t29.5 -75q0 -56 -29.5 -95.5t-70.5 -39.5q-44 0 -74 40.5t-25 94.5z" />
<glyph unicode="&#xd0;" horiz-adv-x="1398" d="M31 575l209 68v375q0 59 -3.5 93.5t-11.5 61t-27.5 41t-44.5 24.5t-69 19v41l170 15q158 14 301 14q228 0 403.5 -85t272 -239.5t96.5 -353.5q0 -297 -180 -480t-473 -183q-33 0 -130.5 7t-162.5 7h-338v43q123 19 160 61t37 164v293l-185 -59zM410 297 q0 -114 51.5 -166.5t163.5 -52.5q226 0 365.5 165.5t139.5 432.5q0 114 -29.5 196.5t-96.5 157.5q-72 80 -170 135q-91 50 -177.5 68.5t-246.5 23.5v-559l225 72l22 -74l-247 -80v-319z" />
<glyph unicode="&#xd1;" horiz-adv-x="1468" d="M29 0v43q52 8 83 17.5t54 23t34 39.5t16.5 58t8.5 87l29 664q4 89 -2 142.5t-30.5 92t-61 60t-103.5 45.5v41h305l754 -1045l-14 776q-1 124 -38 166t-161 62v41h537v-41q-122 -20 -158 -61.5t-39 -166.5l-29 -1015l-77 -74l-785 1083l15 -770q3 -128 42 -169t171 -56 v-43h-551zM412 1413l170 197h57q57 0 225 -43q69 -15 101 -15q48 0 80.5 18.5t72.5 67.5l29 -28l-141 -183h-58q-22 0 -258 52q-36 8 -63 8q-46 0 -85 -21.5t-102 -81.5z" />
<glyph unicode="&#xd2;" horiz-adv-x="1427" d="M70 653q0 306 178 497t461 191q272 0 436 -161q102 -102 156.5 -238t54.5 -289q0 -302 -180 -492t-467 -190q-183 0 -329 87.5t-228 243.5t-82 351zM283 686q0 -176 60 -320t165.5 -226.5t234.5 -82.5q182 0 292 156t110 412q0 179 -60.5 323.5t-167.5 226.5t-239 82 q-177 0 -286 -158t-109 -413zM494 1581l86 57l366 -198l-14 -27l-410 84z" />
<glyph unicode="&#xd3;" horiz-adv-x="1427" d="M70 653q0 306 178 497t461 191q272 0 436 -161q102 -102 156.5 -238t54.5 -289q0 -302 -180 -492t-467 -190q-183 0 -329 87.5t-228 243.5t-82 351zM283 686q0 -176 60 -320t165.5 -226.5t234.5 -82.5q182 0 292 156t110 412q0 179 -60.5 323.5t-167.5 226.5t-239 82 q-177 0 -286 -158t-109 -413zM467 1440l367 198l84 -57l-29 -84l-410 -84z" />
<glyph unicode="&#xd4;" horiz-adv-x="1427" d="M70 653q0 306 178 497t461 191q272 0 436 -161q102 -102 156.5 -238t54.5 -289q0 -302 -180 -492t-467 -190q-183 0 -329 87.5t-228 243.5t-82 351zM283 686q0 -176 60 -320t165.5 -226.5t234.5 -82.5q182 0 292 156t110 412q0 179 -60.5 323.5t-167.5 226.5t-239 82 q-177 0 -286 -158t-109 -413zM424 1413l254 225h57l254 -225l-28 -29l-254 127l-254 -127z" />
<glyph unicode="&#xd5;" horiz-adv-x="1427" d="M70 653q0 306 178 497t461 191q272 0 436 -161q102 -102 156.5 -238t54.5 -289q0 -302 -180 -492t-467 -190q-183 0 -329 87.5t-228 243.5t-82 351zM283 686q0 -176 60 -320t165.5 -226.5t234.5 -82.5q182 0 292 156t110 412q0 179 -60.5 323.5t-167.5 226.5t-239 82 q-177 0 -286 -158t-109 -413zM352 1413l170 197h58q57 0 225 -43q69 -15 100 -15q48 0 81.5 18.5t72.5 67.5l28 -28l-141 -183h-57q-22 0 -258 52q-36 8 -64 8q-46 0 -84.5 -21.5t-101.5 -81.5z" />
<glyph unicode="&#xd6;" horiz-adv-x="1427" d="M70 653q0 306 178 497t461 191q272 0 436 -161q102 -102 156.5 -238t54.5 -289q0 -302 -180 -492t-467 -190q-183 0 -329 87.5t-228 243.5t-82 351zM283 686q0 -176 60 -320t165.5 -226.5t234.5 -82.5q182 0 292 156t110 412q0 179 -60.5 323.5t-167.5 226.5t-239 82 q-177 0 -286 -158t-109 -413zM446 1538q5 44 33.5 75.5t65.5 31.5q41 0 70.5 -32t29.5 -75q0 -56 -29.5 -95.5t-70.5 -39.5q-44 0 -74 40.5t-25 94.5zM778 1538q5 44 33.5 75.5t65.5 31.5q41 0 70.5 -32t29.5 -75q0 -56 -29.5 -95.5t-70.5 -39.5q-44 0 -74 40.5t-25 94.5z " />
<glyph unicode="&#xd7;" horiz-adv-x="1146" d="M147 152l238 219l102 102q-128 130 -331 311l112 86l307 -309l310 309l98 -98l-117 -100l-200 -199q36 -38 81 -82t75 -72.5t87 -82.5t78 -74l-108 -109l-177 203l-127 127l-329 -330z" />
<glyph unicode="&#xd8;" horiz-adv-x="1427" d="M70 653q0 306 178 497t461 191q27 0 77 -4l27 158l82 -35l-23 -135q163 -35 273 -145q102 -102 156.5 -238t54.5 -289q0 -302 -180 -492t-467 -190q-44 0 -64 2l-33 -192l-82 29l29 178q-220 50 -354.5 231t-134.5 434zM283 686q0 -205 81 -364t214 -226l194 1149 q-46 12 -94 12q-177 0 -286 -158t-109 -413zM659 66q61 -9 84 -9q182 0 292 156t110 412q0 205 -79.5 363t-211.5 226q-193 -1148 -195 -1148z" />
<glyph unicode="&#xd9;" horiz-adv-x="1384" d="M57 1272v41h508v-41q-123 -20 -160.5 -63.5t-37.5 -164.5v-516q0 -121 25 -194t87 -135q107 -107 260 -107q154 0 250 107q49 54 66.5 120t17.5 199v47l-14 479q-3 123 -35.5 164t-146.5 64v41h479v-41q-97 -31 -125 -72t-31 -156l-14 -493q-4 -160 -14 -233t-33.5 -119 t-79.5 -101q-130 -127 -367 -127q-143 0 -253 53t-171 148q-40 61 -54.5 132.5t-14.5 201.5v512q0 129 -26 175.5t-116 78.5zM311 1581l84 57l367 -198l-12 -27l-410 84z" />
<glyph unicode="&#xda;" horiz-adv-x="1384" d="M57 1272v41h508v-41q-123 -20 -160.5 -63.5t-37.5 -164.5v-516q0 -121 25 -194t87 -135q107 -107 260 -107q154 0 250 107q49 54 66.5 120t17.5 199v47l-14 479q-3 123 -35.5 164t-146.5 64v41h479v-41q-97 -31 -125 -72t-31 -156l-14 -493q-4 -160 -14 -233t-33.5 -119 t-79.5 -101q-130 -127 -367 -127q-143 0 -253 53t-171 148q-40 61 -54.5 132.5t-14.5 201.5v512q0 129 -26 175.5t-116 78.5zM707 1440l366 198l86 -57l-29 -84l-409 -84z" />
<glyph unicode="&#xdb;" horiz-adv-x="1384" d="M57 1272v41h508v-41q-123 -20 -160.5 -63.5t-37.5 -164.5v-516q0 -121 25 -194t87 -135q107 -107 260 -107q154 0 250 107q49 54 66.5 120t17.5 199v47l-14 479q-3 123 -35.5 164t-146.5 64v41h479v-41q-97 -31 -125 -72t-31 -156l-14 -493q-4 -160 -14 -233t-33.5 -119 t-79.5 -101q-130 -127 -367 -127q-143 0 -253 53t-171 148q-40 61 -54.5 132.5t-14.5 201.5v512q0 129 -26 175.5t-116 78.5zM438 1413l254 225h58l254 -225l-29 -29l-254 127l-254 -127z" />
<glyph unicode="&#xdc;" horiz-adv-x="1384" d="M57 1272v41h508v-41q-123 -20 -160.5 -63.5t-37.5 -164.5v-516q0 -121 25 -194t87 -135q107 -107 260 -107q154 0 250 107q49 54 66.5 120t17.5 199v47l-14 479q-3 123 -35.5 164t-146.5 64v41h479v-41q-97 -31 -125 -72t-31 -156l-14 -493q-4 -160 -14 -233t-33.5 -119 t-79.5 -101q-130 -127 -367 -127q-143 0 -253 53t-171 148q-40 61 -54.5 132.5t-14.5 201.5v512q0 129 -26 175.5t-116 78.5zM459 1538q5 44 33 75.5t65 31.5q41 0 70.5 -32t29.5 -75q0 -56 -29.5 -95.5t-70.5 -39.5q-44 0 -73.5 40.5t-24.5 94.5zM791 1538q5 44 33 75.5 t65 31.5q41 0 70.5 -32t29.5 -75q0 -56 -29.5 -95.5t-70.5 -39.5q-44 0 -73.5 40.5t-24.5 94.5z" />
<glyph unicode="&#xdd;" horiz-adv-x="1044" d="M0 1272v41h395v-41q-55 -10 -76.5 -28.5t-21.5 -53.5q0 -28 14 -60l240 -509l156 340q69 150 69 200q0 83 -141 111v41h424v-41q-92 -48 -113 -72q-28 -31 -84 -141l-198 -381q-70 -134 -70 -297v-113q0 -104 56.5 -154.5t197.5 -70.5v-43h-664v43q134 23 187 72.5 t53 152.5v113q0 147 -49 248l-219 458q-47 100 -70 127t-86 58zM381 1440l369 198l84 -57l-29 -84l-410 -84z" />
<glyph unicode="&#xde;" horiz-adv-x="1044" d="M43 0v43q86 13 126 35t55.5 65.5t15.5 130.5v764q0 127 -36.5 170t-160.5 62v43h621v-49q-116 -12 -172.5 -46.5t-73.5 -103.5q25 2 67 2q246 0 389.5 -115.5t143.5 -314.5q0 -168 -115 -289q-73 -74 -148.5 -105t-232.5 -50l-28 55q104 14 156.5 35.5t99.5 70.5 q84 87 84 271q0 207 -142 301q-48 33 -106.5 48t-175.5 24v-779q0 -106 56.5 -155t197.5 -64v-49h-621z" />
<glyph unicode="&#xdf;" horiz-adv-x="1320" d="M57 0v49q83 14 112.5 59t29.5 160v484q0 19 -1 58t-1 60q0 117 5 172t23 117q38 141 158.5 226t280.5 85q177 0 293 -97.5t116 -248.5q0 -86 -43.5 -146t-146.5 -116q-58 -32 -78.5 -59.5t-20.5 -73.5q0 -48 27 -82t100 -76l133 -77q179 -104 179 -265q0 -118 -79.5 -188 t-213.5 -70q-62 0 -119 9t-162 34l-14 254l43 15q43 -74 72 -113q40 -57 92 -89t106 -32q58 0 95.5 37.5t37.5 95.5q0 41 -22 80q-15 26 -40.5 46.5t-86.5 58.5l-141 86q-74 45 -108 97t-34 124q0 124 113 209q59 46 63 51q32 28 52 77t20 103q0 114 -84.5 192t-204.5 78 q-256 0 -256 -374v-742q0 -115 30 -153t140 -66v-49h-465z" />
<glyph unicode="&#xe0;" horiz-adv-x="917" d="M57 174q0 77 47 125.5t164 91.5l312 115v172q0 100 -30.5 136t-115.5 36q-76 0 -116 -35.5t-78 -136.5q-13 -34 -29 -70q-113 15 -113 82q0 53 74 118t178 105q46 17 106 29t101 12q97 0 140.5 -45t43.5 -143v-39l-20 -479v-17q0 -75 32 -110t136 -72v-45l-103 -12 q-62 -8 -86 -8q-62 0 -89 21t-46 83q-91 -65 -149 -86.5t-140 -21.5q-102 0 -160.5 52t-58.5 142zM199 1413l14 84h98l254 -438l-28 -29zM231 199q0 -44 35.5 -79.5t81.5 -35.5q58 0 156 37q6 2 26 9t35 11l15 295l-209 -86q-140 -58 -140 -151z" />
<glyph unicode="&#xe1;" horiz-adv-x="917" d="M57 174q0 77 47 125.5t164 91.5l312 115v172q0 100 -30.5 136t-115.5 36q-76 0 -116 -35.5t-78 -136.5q-13 -34 -29 -70q-113 15 -113 82q0 53 74 118t178 105q46 17 106 29t101 12q97 0 140.5 -45t43.5 -143v-39l-20 -479v-17q0 -75 32 -110t136 -72v-45l-103 -12 q-62 -8 -86 -8q-62 0 -89 21t-46 83q-91 -65 -149 -86.5t-140 -21.5q-102 0 -160.5 52t-58.5 142zM231 199q0 -44 35.5 -79.5t81.5 -35.5q58 0 156 37q6 2 26 9t35 11l15 295l-209 -86q-140 -58 -140 -151zM438 1059l254 438h99l14 -84l-338 -383z" />
<glyph unicode="&#xe2;" horiz-adv-x="917" d="M57 174q0 77 47 125.5t164 91.5l312 115v172q0 100 -30.5 136t-115.5 36q-76 0 -116 -35.5t-78 -136.5q-13 -34 -29 -70q-113 15 -113 82q0 53 74 118t178 105q46 17 106 29t101 12q97 0 140.5 -45t43.5 -143v-39l-20 -479v-17q0 -75 32 -110t136 -72v-45l-103 -12 q-62 -8 -86 -8q-62 0 -89 21t-46 83q-91 -65 -149 -86.5t-140 -21.5q-102 0 -160.5 52t-58.5 142zM162 1073l311 395h35l242 -395l-37 -29l-240 242l-283 -242zM231 199q0 -44 35.5 -79.5t81.5 -35.5q58 0 156 37q6 2 26 9t35 11l15 295l-209 -86q-140 -58 -140 -151z" />
<glyph unicode="&#xe3;" horiz-adv-x="917" d="M57 174q0 77 47 125.5t164 91.5l312 115v172q0 100 -30.5 136t-115.5 36q-76 0 -116 -35.5t-78 -136.5q-13 -34 -29 -70q-113 15 -113 82q0 53 74 118t178 105q46 17 106 29t101 12q97 0 140.5 -45t43.5 -143v-39l-20 -479v-17q0 -75 32 -110t136 -72v-45l-103 -12 q-62 -8 -86 -8q-62 0 -89 21t-46 83q-91 -65 -149 -86.5t-140 -21.5q-102 0 -160.5 52t-58.5 142zM88 1118l199 240h57q23 0 191 -98q53 -29 92 -29q38 0 80 27.5t116 99.5l43 -27l-184 -227h-57q-38 0 -197 86q-54 31 -94 31q-36 0 -82.5 -30t-120.5 -101zM231 199 q0 -44 35.5 -79.5t81.5 -35.5q58 0 156 37q6 2 26 9t35 11l15 295l-209 -86q-140 -58 -140 -151z" />
<glyph unicode="&#xe4;" horiz-adv-x="917" d="M57 174q0 77 47 125.5t164 91.5l312 115v172q0 100 -30.5 136t-115.5 36q-76 0 -116 -35.5t-78 -136.5q-13 -34 -29 -70q-113 15 -113 82q0 53 74 118t178 105q46 17 106 29t101 12q97 0 140.5 -45t43.5 -143v-39l-20 -479v-17q0 -75 32 -110t136 -72v-45l-103 -12 q-62 -8 -86 -8q-62 0 -89 21t-46 83q-91 -65 -149 -86.5t-140 -21.5q-102 0 -160.5 52t-58.5 142zM219 1231q5 44 33 75t65 31q41 0 71 -31.5t30 -74.5q0 -55 -30 -95t-71 -40q-44 0 -73.5 40.5t-24.5 94.5zM231 199q0 -44 35.5 -79.5t81.5 -35.5q58 0 156 37q6 2 26 9 t35 11l15 295l-209 -86q-140 -58 -140 -151zM551 1231q5 44 33 75t65 31q41 0 71 -31.5t30 -74.5q0 -55 -30 -95t-71 -40q-44 0 -73.5 40.5t-24.5 94.5z" />
<glyph unicode="&#xe5;" horiz-adv-x="917" d="M57 174q0 77 47 125.5t164 91.5l312 115v172q0 100 -30.5 136t-115.5 36q-76 0 -116 -35.5t-78 -136.5q-13 -34 -29 -70q-113 15 -113 82q0 53 74 118t178 105q46 17 106 29t101 12q97 0 140.5 -45t43.5 -143v-39l-20 -479v-17q0 -75 32 -110t136 -72v-45l-103 -12 q-62 -8 -86 -8q-62 0 -89 21t-46 83q-91 -65 -149 -86.5t-140 -21.5q-102 0 -160.5 52t-58.5 142zM231 199q0 -44 35.5 -79.5t81.5 -35.5q58 0 156 37q6 2 26 9t35 11l15 295l-209 -86q-140 -58 -140 -151zM283 1239q0 71 49.5 120.5t120.5 49.5q69 0 118.5 -50t49.5 -120 t-49.5 -120t-118.5 -50q-71 0 -120.5 49.5t-49.5 120.5zM367 1239q0 -35 25.5 -59.5t60.5 -24.5t59.5 24.5t24.5 59.5t-24.5 59.5t-59.5 24.5t-60.5 -24.5t-25.5 -59.5z" />
<glyph unicode="&#xe6;" horiz-adv-x="1361" d="M55 176q0 176 219 234l312 84v149q0 110 -35 157.5t-113 47.5q-92 0 -151 -68q-24 -28 -38 -58.5t-38 -107.5q-60 6 -87.5 27t-27.5 61q0 22 14.5 49.5t36.5 47.5q80 72 189 113.5t219 41.5q82 0 118.5 -28.5t45.5 -100.5l14 -6q43 50 73 73t71 38q71 26 159 26 q123 0 197 -68.5t74 -185.5q0 -26 -15 -102q-160 -39 -284.5 -76t-286.5 -75v-37q0 -114 20 -176q20 -56 83 -90.5t143 -34.5q74 0 140 15.5t167 57.5l29 -14q-12 -38 -17 -45q-35 -49 -166 -100.5t-233 -51.5q-161 0 -256 133q-122 -76 -199 -105.5t-151 -29.5 q-97 0 -161.5 58.5t-64.5 146.5zM240 209q0 -48 31.5 -81.5t80.5 -33.5q64 0 103 10t127 44q17 6 26 10q-15 51 -21.5 94.5t-7.5 72t-1 99.5l-191 -64q-79 -26 -113 -61.5t-34 -89.5zM727 522l254 72q70 21 102.5 52t32.5 83q0 57 -35 91t-94 34q-151 0 -213 -121 q-23 -43 -32.5 -86t-14.5 -125z" />
<glyph unicode="&#xe7;" horiz-adv-x="876" d="M84 444q0 245 149 394q61 61 124 85.5t157 24.5q123 0 221.5 -63t98.5 -142q0 -43 -29.5 -74.5t-69.5 -31.5q-26 0 -45.5 14.5t-27.5 38.5l-23 72q-27 90 -143 90q-115 0 -185.5 -103t-70.5 -270q0 -177 79.5 -267.5t233.5 -90.5q64 0 111 10t124 39l43 -20 q-19 -45 -40 -66q-17 -17 -45.5 -30t-165.5 -68l-113 -84l113 -58q127 -65 127 -178q0 -85 -76 -133.5t-209 -48.5q-53 0 -92.5 7.5t-104.5 29.5l-6 35q115 -9 133 -9q104 0 162.5 30.5t58.5 84.5q0 34 -20.5 56t-85.5 57l-92 49l-78 -49l-43 49l186 133v16 q-167 15 -261.5 140.5t-94.5 330.5z" />
<glyph unicode="&#xe8;" horiz-adv-x="897" d="M84 434q0 241 123 380.5t334 139.5q139 0 216 -67t77 -189q0 -64 -15 -153h-579v-53q0 -173 80.5 -271t222.5 -98q56 0 105.5 12t150.5 49l41 -8q-19 -77 -140 -138t-256 -61q-160 0 -260 127t-100 330zM254 629h395l29 35v43q0 65 -50.5 110t-123.5 45 q-86 0 -150.5 -59.5t-99.5 -173.5zM254 1413l14 84h99l254 -438l-29 -29z" />
<glyph unicode="&#xe9;" horiz-adv-x="897" d="M84 434q0 241 123 380.5t334 139.5q139 0 216 -67t77 -189q0 -64 -15 -153h-579v-53q0 -173 80.5 -271t222.5 -98q56 0 105.5 12t150.5 49l41 -8q-19 -77 -140 -138t-256 -61q-160 0 -260 127t-100 330zM254 629h395l29 35v43q0 65 -50.5 110t-123.5 45 q-86 0 -150.5 -59.5t-99.5 -173.5zM453 1059l254 438h98l14 -84l-338 -383z" />
<glyph unicode="&#xea;" horiz-adv-x="897" d="M84 434q0 241 123 380.5t334 139.5q139 0 216 -67t77 -189q0 -64 -15 -153h-579v-53q0 -173 80.5 -271t222.5 -98q56 0 105.5 12t150.5 49l41 -8q-19 -77 -140 -138t-256 -61q-160 0 -260 127t-100 330zM225 1073l312 395h34l242 -395l-37 -29l-239 242l-283 -242z M254 629h395l29 35v43q0 65 -50.5 110t-123.5 45q-86 0 -150.5 -59.5t-99.5 -173.5z" />
<glyph unicode="&#xeb;" horiz-adv-x="897" d="M84 434q0 241 123 380.5t334 139.5q139 0 216 -67t77 -189q0 -64 -15 -153h-579v-53q0 -173 80.5 -271t222.5 -98q56 0 105.5 12t150.5 49l41 -8q-19 -77 -140 -138t-256 -61q-160 0 -260 127t-100 330zM254 629h395l29 35v43q0 65 -50.5 110t-123.5 45 q-86 0 -150.5 -59.5t-99.5 -173.5zM268 1231q4 44 33 75t66 31q41 0 70.5 -31.5t29.5 -74.5q0 -56 -29.5 -95.5t-70.5 -39.5q-44 0 -74 40.5t-25 94.5zM600 1231q5 44 33 75t65 31q41 0 71 -31.5t30 -74.5q0 -55 -30 -95t-71 -40q-44 0 -73.5 40.5t-24.5 94.5z" />
<glyph unicode="&#xec;" horiz-adv-x="550" d="M57 0v49q59 9 86.5 28.5t40 61.5t15.5 129l12 340q2 10 2 33q0 106 -20 150.5t-80 70.5v41l243 58l27 -29l-16 -266v-398q0 -35 0.5 -54.5t2.5 -43.5t5.5 -35.5t10.5 -26t17 -21.5t25.5 -15t34 -13t45.5 -10v-49h-451zM127 1413l14 84h99l254 -438l-29 -29z" />
<glyph unicode="&#xed;" horiz-adv-x="550" d="M57 0v49q59 9 86.5 28.5t40 61.5t15.5 129l12 340q2 10 2 33q0 106 -20 150.5t-80 70.5v41l243 58l27 -29l-16 -266v-398q0 -35 0.5 -54.5t2.5 -43.5t5.5 -35.5t10.5 -26t17 -21.5t25.5 -15t34 -13t45.5 -10v-49h-451zM240 1059l254 438h98l14 -84l-338 -383z" />
<glyph unicode="&#xee;" horiz-adv-x="550" d="M0 1073l311 395h35l240 -395l-35 -29l-240 242l-282 -242zM57 0v49q59 9 86.5 28.5t40 61.5t15.5 129l12 340q2 10 2 33q0 106 -20 150.5t-80 70.5v41l243 58l27 -29l-16 -266v-398q0 -35 0.5 -54.5t2.5 -43.5t5.5 -35.5t10.5 -26t17 -21.5t25.5 -15t34 -13t45.5 -10v-49 h-451z" />
<glyph unicode="&#xef;" horiz-adv-x="550" d="M29 1231q5 44 33 75t65 31q41 0 70.5 -31.5t29.5 -74.5q0 -56 -29.5 -95.5t-70.5 -39.5q-44 0 -73.5 40.5t-24.5 94.5zM57 0v49q59 9 86.5 28.5t40 61.5t15.5 129l12 340q2 10 2 33q0 106 -20 150.5t-80 70.5v41l243 58l27 -29l-16 -266v-398q0 -35 0.5 -54.5t2.5 -43.5 t5.5 -35.5t10.5 -26t17 -21.5t25.5 -15t34 -13t45.5 -10v-49h-451zM360 1231q4 44 33 75t66 31q41 0 70.5 -31.5t29.5 -74.5q0 -56 -29.5 -95.5t-70.5 -39.5q-44 0 -74 40.5t-25 94.5z" />
<glyph unicode="&#xf0;" d="M131 434q0 238 119.5 385.5t312.5 147.5q86 0 150 -41q-18 142 -76 243l-215 -112l-37 67l209 111q-106 133 -275 151l19 78q28 6 59 6q235 0 361 -149l188 100l35 -69l-178 -95q135 -228 135 -749q0 -133 -32.5 -235.5t-90.5 -164t-131 -92t-160 -30.5q-92 0 -167.5 37 t-124 99.5t-75 143t-26.5 168.5zM305 518q0 -75 21.5 -149.5t62 -138t106 -103t144.5 -39.5q51 0 87 103.5t36 232.5q0 453 -238 453q-86 0 -152.5 -109t-66.5 -250z" />
<glyph unicode="&#xf1;" horiz-adv-x="1116" d="M70 0v49q78 20 101.5 59t27.5 160l12 340q2 8 2 29q0 101 -24 147.5t-91 77.5v41l248 64l21 -13v-141q135 85 210 116.5t148 31.5q40 0 83.5 -16.5t68.5 -41.5q55 -55 55 -196v-439q0 -54 2.5 -84t8.5 -54t22 -37t36 -22.5t58 -21.5v-49h-438v49q59 9 86.5 28.5 t39.5 61.5t15 129l14 340v13q0 95 -45 149.5t-123 54.5q-53 0 -101.5 -15t-139.5 -60v-482q0 -35 0.5 -54.5t2.5 -43.5t5.5 -35.5t10.5 -26t17 -21.5t25.5 -15t34 -13t45.5 -10v-49h-438zM211 1118l199 240h57q22 0 190 -98q53 -29 93 -29q38 0 80 27.5t116 99.5l43 -27 l-184 -227h-57q-38 0 -197 86q-54 31 -94 31q-36 0 -82.5 -30t-120.5 -101z" />
<glyph unicode="&#xf2;" horiz-adv-x="1058" d="M84 418q0 255 133.5 402t362.5 147q189 0 292 -116t103 -331q0 -255 -133 -402t-363 -147q-189 0 -292 116.5t-103 330.5zM268 487q0 -189 75 -310.5t192 -121.5q112 0 184 113.5t72 288.5q0 186 -75 306t-192 120q-112 0 -184 -111.5t-72 -284.5zM297 1413l14 84h99 l254 -438l-29 -29z" />
<glyph unicode="&#xf3;" horiz-adv-x="1058" d="M84 418q0 255 133.5 402t362.5 147q189 0 292 -116t103 -331q0 -255 -133 -402t-363 -147q-189 0 -292 116.5t-103 330.5zM268 487q0 -189 75 -310.5t192 -121.5q112 0 184 113.5t72 288.5q0 186 -75 306t-192 120q-112 0 -184 -111.5t-72 -284.5zM469 1059l254 438h98 l15 -84l-338 -383z" />
<glyph unicode="&#xf4;" horiz-adv-x="1058" d="M84 418q0 255 133.5 402t362.5 147q189 0 292 -116t103 -331q0 -255 -133 -402t-363 -147q-189 0 -292 116.5t-103 330.5zM254 1073l311 395h35l240 -395l-35 -29l-240 242l-282 -242zM268 487q0 -189 75 -310.5t192 -121.5q112 0 184 113.5t72 288.5q0 186 -75 306 t-192 120q-112 0 -184 -111.5t-72 -284.5z" />
<glyph unicode="&#xf5;" horiz-adv-x="1058" d="M84 418q0 255 133.5 402t362.5 147q189 0 292 -116t103 -331q0 -255 -133 -402t-363 -147q-189 0 -292 116.5t-103 330.5zM199 1139l196 239h58q21 0 192 -98q53 -29 90 -29q38 0 80.5 27.5t116.5 99.5l43 -26l-184 -228h-56q-39 0 -198 86q-54 31 -93 31 q-37 0 -83 -29.5t-121 -101.5zM268 487q0 -189 75 -310.5t192 -121.5q112 0 184 113.5t72 288.5q0 186 -75 306t-192 120q-112 0 -184 -111.5t-72 -284.5z" />
<glyph unicode="&#xf6;" horiz-adv-x="1058" d="M84 418q0 255 133.5 402t362.5 147q189 0 292 -116t103 -331q0 -255 -133 -402t-363 -147q-189 0 -292 116.5t-103 330.5zM268 487q0 -189 75 -310.5t192 -121.5q112 0 184 113.5t72 288.5q0 186 -75 306t-192 120q-112 0 -184 -111.5t-72 -284.5zM268 1231q4 44 33 75 t66 31q41 0 70.5 -31.5t29.5 -74.5q0 -56 -29.5 -95.5t-70.5 -39.5q-44 0 -74 40.5t-25 94.5zM600 1231q5 44 33 75t65 31q41 0 71 -31.5t30 -74.5q0 -55 -30 -95t-71 -40q-44 0 -73.5 40.5t-24.5 94.5z" />
<glyph unicode="&#xf7;" horiz-adv-x="1146" d="M68 412l28 147l654 -6l350 6v-147l-269 14h-509zM457 104q0 57 40.5 96.5t98.5 39.5q54 0 91.5 -39t37.5 -95q0 -55 -41 -95t-98 -40q-54 0 -91.5 38.5t-37.5 94.5zM457 840q0 57 40 96t99 39q54 0 91.5 -38.5t37.5 -94.5q0 -55 -41 -95t-98 -40q-54 0 -91.5 38.5 t-37.5 94.5z" />
<glyph unicode="&#xf8;" horiz-adv-x="1058" d="M80 418q0 248 129 394.5t350 154.5l33 180l82 -35l-27 -149q157 -20 242.5 -134.5t85.5 -308.5q0 -255 -133 -402t-363 -147h-12l-35 -190l-82 29q31 170 31 172q-144 28 -222.5 140.5t-78.5 295.5zM264 487q0 -127 37.5 -227.5t101.5 -155.5l142 777q-8 2 -21 2 q-113 0 -186.5 -111.5t-73.5 -284.5zM483 61q24 -6 52 -6q112 0 184 113.5t72 288.5q0 140 -44.5 246t-119.5 151z" />
<glyph unicode="&#xf9;" horiz-adv-x="1067" d="M70 868v50l276 36l-6 -530l-2 -23q0 -113 9 -162.5t34 -82.5q51 -64 151 -64q44 0 83 13.5t106 50.5l14 522q3 85 -28.5 122.5t-126.5 67.5v50l309 36l-12 -700q-1 -98 24.5 -135t102.5 -49v-41l-242 -72l-55 29l14 112q-96 -73 -159 -100t-136 -27q-112 0 -177 76 t-65 207v438q0 84 -25 122.5t-89 53.5zM311 1413l15 84h98l254 -438l-29 -29z" />
<glyph unicode="&#xfa;" horiz-adv-x="1071" d="M70 868v50l276 36l-6 -530l-2 -23q0 -113 9 -162.5t34 -82.5q51 -64 151 -64q44 0 83 13.5t106 50.5l14 522q3 85 -28.5 122.5t-126.5 67.5v50l309 36l-12 -700q-1 -98 24.5 -135t102.5 -49v-41l-242 -72l-55 29l14 112q-96 -73 -159 -100t-136 -27q-112 0 -177 76 t-65 207v438q0 84 -25 122.5t-89 53.5zM438 1059l254 438h99l14 -84l-338 -383z" />
<glyph unicode="&#xfb;" horiz-adv-x="1067" d="M70 868v50l276 36l-6 -530l-2 -23q0 -113 9 -162.5t34 -82.5q51 -64 151 -64q44 0 83 13.5t106 50.5l14 522q3 85 -28.5 122.5t-126.5 67.5v50l309 36l-12 -700q-1 -98 24.5 -135t102.5 -49v-41l-242 -72l-55 29l14 112q-96 -73 -159 -100t-136 -27q-112 0 -177 76 t-65 207v438q0 84 -25 122.5t-89 53.5zM225 1073l312 395h34l242 -395l-37 -29l-239 242l-283 -242z" />
<glyph unicode="&#xfc;" horiz-adv-x="1067" d="M70 868v50l276 36l-6 -530l-2 -23q0 -113 9 -162.5t34 -82.5q51 -64 151 -64q44 0 83 13.5t106 50.5l14 522q3 85 -28.5 122.5t-126.5 67.5v50l309 36l-12 -700q-1 -98 24.5 -135t102.5 -49v-41l-242 -72l-55 29l14 112q-96 -73 -159 -100t-136 -27q-112 0 -177 76 t-65 207v438q0 84 -25 122.5t-89 53.5zM297 1231q5 44 33 75t65 31q41 0 71 -31.5t30 -74.5q0 -55 -30 -95t-71 -40q-44 0 -73.5 40.5t-24.5 94.5zM629 1231q5 44 33 75t65 31q41 0 70.5 -31.5t29.5 -74.5q0 -56 -29.5 -95.5t-70.5 -39.5q-44 0 -73.5 40.5t-24.5 94.5z" />
<glyph unicode="&#xfd;" horiz-adv-x="833" d="M-14 897v35h381v-35q-4 -1 -41 -14q-72 -24 -72 -78q0 -23 14 -70l172 -522l168 479q27 80 27 115q0 36 -27 55.5t-100 34.5v35h354v-35q-44 -19 -70.5 -54t-56.5 -108l-424 -1018q-34 -81 -77 -118t-103 -37q-49 0 -75.5 22t-26.5 62q0 68 84 100l71 29q37 15 76.5 65 t95.5 150l-272 801q-15 45 -35.5 67t-62.5 39zM367 1059l254 438h98l14 -84l-338 -383z" />
<glyph unicode="&#xfe;" horiz-adv-x="1087" d="M43 -389q90 9 123 53.5t33 159.5v1233q0 110 -8 165t-28 84t-63 48v59l254 41l29 -27l-31 -593q61 54 142 90.5t153 36.5q157 0 257 -129t100 -330q0 -232 -133.5 -381.5t-340.5 -149.5q-51 0 -85 8.5t-93 34.5l8 -225q3 -89 41.5 -125t149.5 -53v-49h-508v49zM352 254 q0 -80 52.5 -135.5t127.5 -55.5q132 0 217 112t85 284q0 160 -81.5 263t-207.5 103q-48 0 -87 -9.5t-106 -39.5v-522z" />
<glyph unicode="&#xff;" horiz-adv-x="833" d="M-14 897v35h381v-35q-4 -1 -41 -14q-72 -24 -72 -78q0 -23 14 -70l172 -522l168 479q27 80 27 115q0 36 -27 55.5t-100 34.5v35h354v-35q-44 -19 -70.5 -54t-56.5 -108l-424 -1018q-34 -81 -77 -118t-103 -37q-49 0 -75.5 22t-26.5 62q0 68 84 100l71 29q37 15 76.5 65 t95.5 150l-272 801q-15 45 -35.5 67t-62.5 39zM211 1231q5 44 33 75t65 31q41 0 71 -31.5t30 -74.5q0 -55 -30 -95t-71 -40q-44 0 -73.5 40.5t-24.5 94.5zM543 1231q5 44 33 75t65 31q41 0 70.5 -31.5t29.5 -74.5q0 -56 -29.5 -95.5t-70.5 -39.5q-44 0 -73.5 40.5 t-24.5 94.5z" />
<glyph unicode="&#x152;" horiz-adv-x="1818" d="M70 666q0 140 47.5 265t129 215t194.5 142.5t239 52.5q68 0 229 -28h717l12 -295l-41 -14q-25 72 -48 106t-68 66q-46 33 -116 46.5t-200 18.5l-49 2v-522h29q155 0 212 6.5t91 28.5q26 15 41.5 39.5t36.5 81.5h28v-398h-28q-15 44 -25 68t-32 45.5t-43 30.5t-69.5 16 t-98.5 8t-142 2v-366q0 -94 10 -126t45 -51q46 -24 136 -24q65 0 137 29q61 27 99.5 66t90.5 122l37 59l33 -10l-68 -348l-702 -2q-174 -29 -262 -29q-164 0 -302.5 93t-219 253.5t-80.5 350.5zM283 672q0 -265 130 -439t328 -174q107 0 156 45.5t49 151.5v727 q0 133 -28 188q-21 44 -76 68.5t-125 24.5q-209 0 -321.5 -160.5t-112.5 -431.5z" />
<glyph unicode="&#x153;" horiz-adv-x="1603" d="M84 418q0 256 134 402.5t368 146.5q94 0 164 -27q38 -15 70 -46t77 -95l49 49q115 106 301 106q138 0 215.5 -67.5t77.5 -188.5q0 -50 -14 -153h-580v-53q0 -180 78.5 -272.5t230.5 -92.5q62 0 115 10t141 39l43 -6q-31 -85 -138 -137.5t-247 -52.5q-100 0 -158 29 t-134 118l-15 20q-55 -63 -71 -77q-51 -46 -134 -72.5t-178 -26.5q-189 0 -292 116.5t-103 330.5zM268 487q0 -189 75 -310.5t192 -121.5q112 0 184 113.5t72 288.5q0 186 -75 306t-192 120q-112 0 -184 -111.5t-72 -284.5zM961 629h395l28 35v43q0 64 -51 109.5t-123 45.5 q-177 0 -249 -233z" />
<glyph unicode="&#x178;" horiz-adv-x="1044" d="M0 1272v41h395v-41q-55 -10 -76.5 -28.5t-21.5 -53.5q0 -28 14 -60l240 -509l156 340q69 150 69 200q0 83 -141 111v41h424v-41q-92 -48 -113 -72q-28 -31 -84 -141l-198 -381q-70 -134 -70 -297v-113q0 -104 56.5 -154.5t197.5 -70.5v-43h-664v43q134 23 187 72.5 t53 152.5v113q0 147 -49 248l-219 458q-47 100 -70 127t-86 58zM283 1538q5 44 33 75.5t65 31.5q41 0 70.5 -32t29.5 -75q0 -56 -29.5 -95.5t-70.5 -39.5q-44 0 -73.5 40.5t-24.5 94.5zM614 1538q5 44 33.5 75.5t65.5 31.5q41 0 70.5 -32t29.5 -75q0 -56 -29.5 -95.5 t-70.5 -39.5q-44 0 -74 40.5t-25 94.5z" />
<glyph unicode="&#x2c6;" horiz-adv-x="921" d="M152 1130l327 359l287 -367l-29 -20l-260 194l-305 -186z" />
<glyph unicode="&#x2dc;" horiz-adv-x="921" d="M125 1159l199 240h57q21 0 190 -99q51 -28 93 -28q38 0 80 27.5t116 99.5l43 -27l-184 -227h-57q-38 0 -197 86q-54 31 -94 31q-35 0 -81.5 -30t-121.5 -102z" />
<glyph unicode="&#x2000;" horiz-adv-x="858" />
<glyph unicode="&#x2001;" horiz-adv-x="1716" />
<glyph unicode="&#x2002;" horiz-adv-x="858" />
<glyph unicode="&#x2003;" horiz-adv-x="1716" />
<glyph unicode="&#x2004;" horiz-adv-x="572" />
<glyph unicode="&#x2005;" horiz-adv-x="429" />
<glyph unicode="&#x2006;" horiz-adv-x="286" />
<glyph unicode="&#x2007;" horiz-adv-x="286" />
<glyph unicode="&#x2008;" horiz-adv-x="214" />
<glyph unicode="&#x2009;" horiz-adv-x="343" />
<glyph unicode="&#x200a;" horiz-adv-x="95" />
<glyph unicode="&#x2010;" horiz-adv-x="675" d="M84 571l494 58l14 -162l-494 -57z" />
<glyph unicode="&#x2011;" horiz-adv-x="675" d="M84 571l494 58l14 -162l-494 -57z" />
<glyph unicode="&#x2012;" horiz-adv-x="675" d="M84 571l494 58l14 -162l-494 -57z" />
<glyph unicode="&#x2013;" horiz-adv-x="1017" d="M0 467v127h1018v-127h-1018z" />
<glyph unicode="&#x2014;" horiz-adv-x="2013" d="M0 467v127h2034v-127h-2034z" />
<glyph unicode="&#x2018;" horiz-adv-x="550" d="M141 1014q0 76 43 150t168 212l58 -63q-6 -4 -58 -41q-37 -34 -60.5 -81t-23.5 -89q0 -59 43 -78l41 -20q26 -14 42 -39t16 -54q0 -49 -35.5 -84.5t-85.5 -35.5q-63 0 -105.5 64t-42.5 159z" />
<glyph unicode="&#x2019;" horiz-adv-x="550" d="M141 819q31 20 58 43q37 32 60.5 79.5t23.5 88.5q0 56 -43 78l-41 22q-58 32 -58 91q0 51 35 85.5t86 34.5q63 0 105.5 -63t42.5 -158q0 -78 -43 -151.5t-168 -212.5z" />
<glyph unicode="&#x201a;" horiz-adv-x="550" d="M141 106q0 50 34 84.5t83 34.5q62 0 107 -66t45 -157q0 -75 -44 -150t-167 -212l-58 63q31 20 58 43q37 34 60.5 80.5t23.5 87.5q0 28 -12.5 50.5t-32.5 31.5l-39 18q-26 12 -42 37.5t-16 54.5z" />
<glyph unicode="&#x201c;" horiz-adv-x="917" d="M141 1014q0 76 43 150t168 212l58 -63q-6 -4 -58 -41q-37 -34 -60.5 -81t-23.5 -89q0 -59 43 -78l41 -20q26 -14 42 -39t16 -54q0 -49 -35.5 -84.5t-85.5 -35.5q-63 0 -105.5 64t-42.5 159zM508 1014q0 76 43.5 150t169.5 212l55 -63q-25 -16 -55 -41q-38 -34 -62 -80.5 t-24 -89.5q0 -59 43 -78l43 -20q26 -12 40.5 -37.5t14.5 -55.5q0 -50 -35 -85t-86 -35q-63 0 -105 64t-42 159z" />
<glyph unicode="&#x201d;" horiz-adv-x="917" d="M141 819q31 20 58 43q37 32 60.5 79.5t23.5 88.5q0 56 -43 78l-41 22q-58 32 -58 91q0 51 35 85.5t86 34.5q63 0 105.5 -63t42.5 -158q0 -78 -43 -151.5t-168 -212.5zM508 819q27 17 57 43q38 32 61 79t23 89q0 58 -41 78l-43 22q-57 29 -57 91q0 51 35.5 85.5t85.5 34.5 q63 0 105 -63t42 -158q0 -78 -43 -152.5t-168 -211.5z" />
<glyph unicode="&#x201e;" horiz-adv-x="917" d="M141 104q0 51 35 87t86 36q63 0 105.5 -64t42.5 -159q0 -78 -43 -151.5t-168 -212.5l-58 63q31 20 58 43q37 34 60.5 80.5t23.5 87.5q0 58 -43 80l-41 20q-26 12 -42 37t-16 53zM508 104q0 51 35.5 87t85.5 36q63 0 105 -64t42 -159q0 -78 -43 -152.5t-168 -211.5l-57 63 q27 17 57 43q38 33 61 79.5t23 88.5q0 62 -41 80l-43 20q-26 12 -41.5 37t-15.5 53z" />
<glyph unicode="&#x2022;" horiz-adv-x="903" d="M240 649q1 83 63.5 141t149.5 58q88 0 149.5 -60t61.5 -145q0 -91 -61.5 -155t-149.5 -64t-151 66t-62 159z" />
<glyph unicode="&#x2026;" horiz-adv-x="1652" d="M141 104q0 57 40.5 96.5t99.5 39.5q54 0 91.5 -39t37.5 -95t-41 -95.5t-99 -39.5q-54 0 -91.5 38.5t-37.5 94.5zM692 104q0 57 40.5 96.5t98.5 39.5q54 0 92 -39t38 -95t-41 -95.5t-99 -39.5q-54 0 -91.5 38.5t-37.5 94.5zM1243 104q0 57 40.5 96.5t98.5 39.5 q54 0 91.5 -39t37.5 -95t-40.5 -95.5t-98.5 -39.5q-54 0 -91.5 38.5t-37.5 94.5z" />
<glyph unicode="&#x202f;" horiz-adv-x="343" />
<glyph unicode="&#x2039;" horiz-adv-x="544" d="M106 508l324 369l43 -15l-170 -354l170 -387l-43 -23z" />
<glyph unicode="&#x203a;" horiz-adv-x="542" d="M106 121l168 387l-168 354l41 15l326 -369l-326 -410z" />
<glyph unicode="&#x205f;" horiz-adv-x="429" />
<glyph unicode="&#x20ac;" horiz-adv-x="1134" d="M-37 354l12 62h117q-8 41 -8 90q0 33 2 49h-86l14 61h80q36 193 188.5 306.5t391.5 113.5q87 0 164 -19t174 -59v-239l-37 -12q-63 138 -127 196q-31 29 -87.5 45.5t-115.5 16.5q-150 0 -246 -94.5t-118 -254.5h346l-13 -61h-340v-27q0 -48 11 -112h301l-13 -62h-272 q44 -135 143 -218t215 -83q226 0 363 262l41 -10l-76 -282q-110 -28 -171.5 -37t-149.5 -9q-130 0 -216 25t-161 84q-131 103 -183 268h-143z" />
<glyph unicode="&#x2122;" horiz-adv-x="2420" d="M72 1081l51 262q102 -29 161.5 -36t204.5 -7h117q142 0 200 7t157 36l51 -256l-27 -26q-60 95 -112.5 128.5t-141.5 33.5h-115v-488q0 -106 44 -152t159 -59v-51h-545v51q114 15 152.5 59t38.5 160v480h-115q-72 0 -127 -35t-127 -127zM1075 473v43q77 27 111.5 61 t40.5 95l41 438q4 18 4 51q0 46 -25 67.5t-82 22.5v64h246l303 -584l285 584h258v-58h-10q-93 0 -93 -71q0 -10 3 -47l26 -525q2 -42 21.5 -65.5t66.5 -38.5v-43h-344v49q61 6 83.5 28.5t19.5 78.5l-27 516l-334 -693l-326 635l-10 -321q-3 -20 -3 -37.5t1.5 -35t1.5 -25.5 q0 -57 27.5 -89t95.5 -57v-43h-381z" />
<glyph unicode="&#xe000;" horiz-adv-x="931" d="M0 0v932h932v-932h-932z" />
</font>
</defs>
</svg>
