<?xml version="1.0" standalone="no"?>
<!DOCTYPE svg PUBLIC "-//W3C//DTD SVG 1.1//EN" "http://www.w3.org/Graphics/SVG/1.1/DTD/svg11.dtd" >
<svg xmlns="http://www.w3.org/2000/svg">
<metadata></metadata>
<defs>
<font id="quadraat-italicitalic" horiz-adv-x="1030" >
<font-face units-per-em="2048" ascent="1638" descent="-410" />
<missing-glyph horiz-adv-x="423" />
<glyph unicode="&#xfb01;" horiz-adv-x="1044" d="M-328 -387l56 143l305 -123q78 15 109 90t36 257l19 784h-174l6 117h176l4 247q3 145 88 234q89 92 268 92q155 0 373 -84q-6 -16 -25.5 -60t-33.5 -79q-14 12 -47.5 27.5t-80.5 33t-87 32t-92 32t-70 24.5q-37 0 -66 -34q-35 -40 -48.5 -103t-18.5 -172l-9 -190h213 q61 0 113 19t154 73h49q-23 -174 -29 -309l-24 -480l12 -28h127l-14 -41q-17 -49 -84.5 -85.5t-149.5 -41.5l-43 -2l37 764l-12 14h-357l-39 -784q-6 -129 -24.5 -204.5t-57.5 -125.5q-75 -96 -256 -96q-26 0 -46 0.5t-43 4t-34 5t-39 9t-37 10t-49 14.5t-55 16z" />
<glyph unicode="&#xfb02;" horiz-adv-x="1036" d="M-328 -387l54 145l114 -55l193 -70q78 15 109 90t36 257l21 782h-174l4 119h176l6 247q3 152 92.5 239t235.5 87q94 0 221 -27l155 25l-41 -360l-47 -922l13 -14l129 12q0 -3 -1 -9t-6.5 -22t-13 -31t-22.5 -33.5t-35 -31.5q-31 -21 -59.5 -34.5t-48 -18t-35 -6 t-22.5 0.5l-7 1l-43 2l67 1310l-245 86q-42 -13 -62 -36q-58 -73 -67 -275l-9 -190h213l-6 -119h-213l-41 -782q-4 -89 -15 -152.5t-34 -118t-60.5 -87t-94 -50.5t-134.5 -18q-74 0 -127 11t-176 48z" />
<glyph horiz-adv-x="2048" />
<glyph horiz-adv-x="2048" />
<glyph unicode="&#xd;" horiz-adv-x="2048" />
<glyph unicode=" "  horiz-adv-x="423" />
<glyph unicode="&#x09;" horiz-adv-x="423" />
<glyph unicode="&#xa0;" horiz-adv-x="423" />
<glyph unicode="!" horiz-adv-x="538" d="M164 78q0 62 35.5 99.5t93.5 37.5q19 0 33 -2q18 -50 18 -86q0 -63 -39.5 -100t-105.5 -37h-19q-16 51 -16 88zM219 377v936h174l-69 -936h-105z" />
<glyph unicode="&#x22;" horiz-adv-x="833" d="M121 819l41 438l106 78l107 -78l-185 -438l-28 -28zM459 819l43 438l106 78l105 -78l-183 -438l-28 -28z" />
<glyph unicode="#" horiz-adv-x="1349" d="M70 453l28 92h283l92 280h-299l25 93h309l170 466l84 -34l-154 -432h295l164 466l92 -34l-149 -432h268l-29 -93h-268l-104 -280h317l-29 -92h-317l-170 -496l-92 29l155 467h-288l-170 -496l-93 37l162 459h-282zM479 545h291l107 280h-297z" />
<glyph unicode="$" d="M156 35l16 348l70 -27l61 -241q26 -10 76 -25.5t61 -19.5l27 526q-164 106 -228.5 193.5t-64.5 205.5q0 140 90 228.5t236 89.5l10 153h84l-8 -151q67 0 114.5 -8t153.5 -37l-14 -283l-68 25l-49 184q-117 39 -125 41l-16 4l-27 -496q42 -31 82 -59q132 -98 184.5 -178 t52.5 -184q0 -333 -354 -342l-12 -220l-86 2l14 218q-90 11 -192 34q-55 12 -88 19zM313 1049q0 -70 28.5 -114.5t119.5 -117.5q8 -8 16 -14l23 438q-85 -7 -136 -59.5t-51 -132.5zM522 57q97 14 149 65t52 134q0 71 -46 144t-132 139z" />
<glyph unicode="%" horiz-adv-x="1650" d="M74 920q0 186 107 296.5t272 110.5q145 0 224 -82t79 -233q0 -179 -106 -291.5t-275 -112.5q-143 0 -222 82t-79 230zM213 918q0 -216 176 -216q103 0 164 85.5t61 230.5q0 215 -174 215q-102 0 -164.5 -87t-62.5 -228zM483 0l566 1356l108 -43l-567 -1356zM891 291 q0 17 4 49q19 166 120 263t257 97q144 0 223.5 -82.5t79.5 -232.5q0 -179 -106.5 -292t-274.5 -113q-143 0 -223 82t-80 229zM1032 289q0 -215 176 -215q102 0 164 85.5t62 229.5q0 215 -174 215q-103 0 -165.5 -86.5t-62.5 -228.5z" />
<glyph unicode="&#x26;" horiz-adv-x="1449" d="M113 279q0 98 45.5 167.5t163.5 165.5l45 37q-148 209 -148 373q0 144 96.5 231.5t249.5 87.5q138 0 221.5 -66.5t83.5 -182.5q0 -106 -77 -194t-261 -206l-22 -14q40 -47 62 -73.5t40 -46.5t25.5 -28t28 -29t36.5 -38q126 -131 332.5 -266t372.5 -197l-2 -29h-47 q-73 0 -117.5 7t-101.5 28q-84 30 -150 66q-16 9 -40 21t-38 19.5t-35.5 21t-44.5 30.5q-76 -101 -162.5 -145t-205.5 -44q-164 0 -257 83t-93 221zM264 315q0 -115 70.5 -186.5t183.5 -71.5q46 0 82.5 13t83.5 45q24 16 38 29t20.5 21t29.5 38q-17 16 -59 54t-75 69t-60 59 q-32 32 -60 65t-41.5 50t-38 50.5t-30.5 41.5q-35 -28 -48 -41q-45 -44 -70.5 -106.5t-25.5 -129.5zM358 1044q0 -75 30.5 -159.5t82.5 -151.5l31 23q69 50 121 102q49 49 76.5 113t27.5 125q0 86 -44 133t-124 47q-87 0 -144 -66t-57 -166zM881 625q0 56 44.5 93.5 t123.5 37.5q156 0 307 -97v-24q-146 41 -248 41q-51 0 -81 -24t-30 -58q0 -52 29 -78h-29q-46 0 -81 29.5t-35 79.5z" />
<glyph unicode="'" horiz-adv-x="493" d="M121 819l41 438l106 78l107 -78l-185 -438l-43 -28z" />
<glyph unicode="(" horiz-adv-x="552" d="M141 258q0 378 111 698q40 112 85.5 206t139.5 259l66 -30q-97 -250 -133 -352t-60 -197q-69 -279 -69 -625q0 -161 26 -285q23 -116 69 -175.5t161 -123.5l-7 -22q-68 9 -112 18q-76 19 -133.5 70t-83.5 123q-60 160 -60 436z" />
<glyph unicode=")" horiz-adv-x="552" d="M4 -358q98 247 134.5 348.5t60.5 197.5q73 286 73 635q0 149 -24 275q-22 115 -68 175.5t-160 125.5l7 22q98 -9 148 -27.5t101 -64.5q54 -51 78 -121q58 -160 58 -424q0 -379 -115 -710q-40 -110 -85.5 -203t-141.5 -260z" />
<glyph unicode="*" horiz-adv-x="983" d="M86 1182l57 80l207 -144l-55 -82zM170 662l276 360v360h111v-362l258 -361l-84 -73q-231 327 -233 327l-244 -323zM659 1120l209 146l56 -82l-207 -144z" />
<glyph unicode="+" horiz-adv-x="1146" d="M51 453l29 141h430v367l141 49l-14 -174v-242h156l290 6v-151l-268 18h-178v-467l-141 -29l14 312v184h-205z" />
<glyph unicode="," horiz-adv-x="573" d="M176 74q0 49 34 80.5t85 31.5q54 0 91.5 -37t37.5 -92q0 -63 -33.5 -136.5t-146.5 -258.5h-58l97 281v28l-29 29h-41q-22 20 -29.5 35.5t-7.5 38.5z" />
<glyph unicode="-" horiz-adv-x="634" d="M84 571l453 58l14 -162l-453 -57z" />
<glyph unicode="." horiz-adv-x="573" d="M174 72q0 64 44 108.5t106 44.5h43q22 -26 29 -43t7 -43q0 -63 -44 -108t-105 -45h-41q-23 26 -31 43.5t-8 42.5z" />
<glyph unicode="/" horiz-adv-x="516" d="M70 -360l260 1693l116 -26l-251 -1694z" />
<glyph unicode="0" d="M143 408q0 281 123 438q46 60 112.5 87.5t164.5 27.5q183 0 264.5 -96t81.5 -310q0 -127 -32 -248t-89 -205q-43 -64 -107 -92t-167 -28h-31q-170 0 -244 106q-76 112 -76 320zM287 389q0 -160 46.5 -231.5t158.5 -81.5h12q107 0 174 129t67 336q0 327 -210 327 q-121 0 -184.5 -122.5t-63.5 -356.5z" />
<glyph unicode="1" horiz-adv-x="804" d="M47 0l25 43l258 80l16 20l33 611l-21 28l-215 -14l-4 57l404 148l10 -17l-23 -145l-18 -176l-27 -504l15 -16l229 -72l19 -43h-701z" />
<glyph unicode="2" d="M123 31q274 229 389 386.5t115 293.5q0 60 -44 93.5t-122 33.5q-50 0 -90.5 -10.5t-116.5 -43.5l-10 11l28 120q94 32 143 43t103 11q122 0 198.5 -58.5t76.5 -158.5q0 -109 -62 -209q-46 -75 -121.5 -153.5t-261.5 -246.5l-4 -2h510v-155q-30 1 -116 7.5t-107 6.5h-498z " />
<glyph unicode="3" d="M72 -438l16 61q239 13 383.5 129t144.5 295q0 109 -71 153t-211 44q-50 0 -121 -15l20 129q25 -4 64 -4q107 0 229 88q162 116 162 250q0 75 -39 115.5t-112 40.5q-46 0 -88.5 -10t-141.5 -45l-12 10l27 112q35 12 75 27q100 27 193 27q121 0 183.5 -59t62.5 -173 q0 -59 -14 -95.5t-46 -84.5q-35 -53 -93 -96t-179 -107l6 -14q67 -4 117.5 -23.5t78.5 -46.5t45.5 -63.5t23 -68.5t5.5 -68q0 -139 -88 -256.5t-239.5 -185.5t-331.5 -68q-29 0 -49 2z" />
<glyph unicode="4" d="M23 49l626 914l115 -7l-43 -823h225l-14 -133h-219l-25 -438h-141l24 438h-528zM205 133h375l36 619z" />
<glyph unicode="5" d="M133 -446l12 69q70 9 107 15q100 20 188 74.5t146.5 142t58.5 188.5q0 71 -37 127t-119 106l-272 168l29 488h575l-10 -141h-479l-15 -234l281 -164q48 -28 79.5 -51.5t64.5 -59t49 -82.5t16 -106q0 -206 -168 -364q-91 -86 -208.5 -127.5t-297.5 -48.5z" />
<glyph unicode="6" d="M178 532q0 440 197 715q175 242 573 242q39 0 72 -2l-16 -62q-131 -5 -197 -22t-145 -68q-101 -65 -180 -185.5t-113 -262.5q38 15 69 28q107 35 178 35q79 0 129 -32q61 -41 97.5 -144t36.5 -235q0 -181 -74 -332q-54 -114 -133.5 -166.5t-196.5 -52.5q-173 0 -235 120 t-62 424zM328 502q0 -112 18 -223q15 -101 50 -137.5t120 -32.5l105 6q98 146 98 389q0 146 -53 241q-26 47 -69 65.5t-126 18.5h-111q-20 -106 -26 -168t-6 -159z" />
<glyph unicode="7" d="M102 -414q63 84 92 128.5t72 127.5l504 955l-14 14h-475l-74 -119l-68 -14l37 274h758l14 -28l-563 -1112q-51 -103 -104 -254h-148z" />
<glyph unicode="8" d="M104 307q0 114 72 212t238 208l18 12l-119 135q-84 96 -114.5 160.5t-30.5 141.5q0 63 26.5 121.5t73.5 101.5q51 47 116.5 67.5t162.5 20.5q89 0 147 -17.5t109 -58.5q98 -86 98 -205q0 -98 -70 -188q-46 -58 -87.5 -95t-161.5 -128l82 -86q17 -17 73 -80 q131 -143 131 -291q0 -158 -109.5 -255t-289.5 -97q-164 0 -264.5 88t-100.5 233zM252 317q0 -105 69.5 -180.5t167.5 -75.5q95 0 161.5 70.5t66.5 173.5q0 41 -12 82q-18 53 -46.5 94t-126.5 150l-57 63q-118 -95 -170.5 -184t-52.5 -193zM319 1206q0 -60 29.5 -119 t100.5 -143q44 -52 94 -110q50 50 88 94q117 128 117 270q0 99 -59 156t-161 57q-92 0 -150.5 -57t-58.5 -148z" />
<glyph unicode="9" d="M70 -430l22 51q53 -6 80 -6q85 0 162 25t144 76t116 135.5t70 195.5l-58 -20q-107 -37 -184 -37q-268 0 -268 360q0 278 105.5 440t285.5 162q69 0 115 -11t86 -41.5t62.5 -86.5t35 -145t12.5 -217q0 -490 -162 -687q-91 -110 -204 -159t-279 -49q-46 0 -141 14zM307 422 q0 -174 58.5 -250t193.5 -76q54 0 117 10q26 250 26 357q0 205 -38 283.5t-138 78.5h-110q-109 -133 -109 -403z" />
<glyph unicode=":" horiz-adv-x="573" d="M154 70q0 66 44 107.5t113 41.5h35q23 -27 30 -45t7 -45q0 -66 -44.5 -109t-113.5 -43q-17 0 -35 3q-22 29 -29 47t-7 43zM180 643q0 65 44.5 107.5t113.5 42.5q23 0 35 -2q22 -26 29.5 -44.5t7.5 -44.5q0 -67 -44.5 -109t-115.5 -42h-33q-22 29 -29.5 48t-7.5 44z" />
<glyph unicode=";" horiz-adv-x="573" d="M131 70q0 47 34 78.5t85 31.5q54 0 91.5 -36.5t37.5 -90.5q0 -65 -32 -137t-146 -262h-58l93 283l2 28l-27 29h-43q-22 20 -29.5 35.5t-7.5 40.5zM190 641q0 66 44.5 109t113.5 43q5 0 17 -1t18 -1q22 -26 29.5 -44.5t7.5 -44.5q0 -67 -44.5 -110t-115.5 -43q-5 0 -17 1 t-18 1q-35 47 -35 90z" />
<glyph unicode="&#x3c;" horiz-adv-x="1146" d="M98 453l826 557l71 -142q-76 -45 -165.5 -100.5t-150.5 -94.5t-167 -107t-154 -99l641 -354l-86 -146l-211 142z" />
<glyph unicode="=" horiz-adv-x="1146" d="M68 209l28 147l654 -6l350 6v-147l-269 14h-509zM68 618l22 142h719l291 6v-152l-269 19h-509z" />
<glyph unicode="&#x3e;" horiz-adv-x="1146" d="M176 113l641 354q-49 31 -154 98.5t-166.5 107t-151 95t-165.5 100.5l72 142l825 -555l-604 -346l-211 -142z" />
<glyph unicode="?" horiz-adv-x="698" d="M135 70q0 62 35.5 99.5t93.5 37.5q19 0 33 -2q18 -53 18 -88q0 -61 -39 -98t-104 -37h-20q-17 55 -17 88zM156 1141q0 34 25.5 69.5t88.5 87.5v-131q137 -44 238 -86q78 -32 113.5 -78t35.5 -116q0 -65 -30 -127q-40 -80 -123 -166.5t-262 -233.5l-54 64 q169 142 241.5 244t72.5 196t-107 135l-194 76q-45 16 -45 66z" />
<glyph unicode="@" horiz-adv-x="1636" d="M27 455q0 202 65.5 345.5t192.5 256.5q233 211 565 211q220 0 393 -90t269 -252.5t96 -370.5q0 -162 -69.5 -303t-186.5 -224t-252 -83q-55 0 -96 11t-111 44l8 170q-119 -108 -185.5 -149t-121.5 -41q-60 0 -99.5 98t-39.5 246t58.5 285t158.5 222q70 60 168 85t272 28 l-43 -266l-27 -594q30 -13 47 -17t50 -4q152 0 234.5 118t82.5 335q0 247 -90 393q-73 123 -210.5 194t-299.5 71q-138 0 -266.5 -52t-214.5 -143q-180 -189 -180 -539q0 -348 184 -532q151 -145 455 -248l-15 -41q-145 24 -214.5 44.5t-170.5 70.5q-192 94 -299.5 284 t-107.5 437zM596 334q0 -72 8.5 -113.5t36.5 -107.5l262 106l33 598h-170q-101 -151 -135.5 -248t-34.5 -235z" />
<glyph unicode="A" horiz-adv-x="1067" d="M-63 0l16 43l104 70l451 1093l27 92l151 50l281 -1235l116 -70l19 -43h-451l23 43l129 72l-66 315h-438l-106 -289l-3 -28l117 -70l19 -43h-389zM332 528l12 -20h375l-144 641z" />
<glyph unicode="B" horiz-adv-x="1050" d="M29 0l22 43l107 55l22 29l49 932l-6 147l-123 64l-20 41h524q311 0 311 -254q0 -124 -58.5 -208t-186.5 -144v-15q148 -28 225.5 -95t77.5 -202q0 -107 -58.5 -199t-152.5 -143q-63 -33 -131 -42t-223 -9h-379zM346 293l4 -166l23 -29l102 2q68 1 104 5.5t67.5 17.5 t64.5 41q90 77 90 213q0 117 -75.5 180.5t-215.5 63.5h-148zM367 719l14 -14h211q166 153 166 335q0 88 -49.5 137.5t-137.5 49.5h-170l-14 -142z" />
<glyph unicode="C" horiz-adv-x="985" d="M43 528q0 189 53 353.5t148 273.5q150 172 422 172q82 0 136 -8t154 -35l-18 -113l-12 -204l-62 28l-47 176l-33 41q-42 21 -68 27t-73 6q-166 0 -258 -96q-82 -82 -129 -244.5t-47 -359.5q0 -229 91.5 -349t266.5 -120q45 0 74 7t78 30l39 43l73 217l66 28l-16 -288 l12 -70q-81 -26 -199.5 -41.5t-226.5 -15.5q-209 0 -316.5 137.5t-107.5 404.5z" />
<glyph unicode="D" horiz-adv-x="1193" d="M25 0l22 43l113 53l22 29l51 958l-2 121l-143 64l-20 41h573q190 0 293 -97q83 -78 128.5 -205t45.5 -280q0 -195 -75.5 -366.5t-205.5 -272.5q-62 -47 -140.5 -68.5t-192.5 -21.5zM346 287l4 -162l29 -29h119q158 0 243 76q89 78 144 234.5t55 328.5q0 134 -32 243 t-91 175q-66 72 -217 72h-197l-14 -113z" />
<glyph unicode="E" horiz-adv-x="948" d="M29 0l16 43l115 55l22 29l49 932l-6 147l-131 64l-12 41h594l219 14l-10 -84l-15 -254l-55 29l-59 182l-27 29h-326l-12 -113l-22 -401l8 -8l268 8l78 147h43l-23 -422h-43l-67 176l-262 7l-6 -7l-19 -346l6 -141l27 -29l354 15l23 28l80 170l65 27l-33 -338h-839z" />
<glyph unicode="F" horiz-adv-x="880" d="M29 0l22 43l109 55l22 29l49 903l-12 182l-117 58l-20 41h565l221 14l-12 -84l-10 -260l-55 29l-64 188l-27 29h-297l-12 -113l-22 -401l8 -8l268 8l78 147h43l-23 -422h-43l-67 176l-262 7l-6 -7l-17 -327l4 -160l27 -35l131 -49l20 -43h-501z" />
<glyph unicode="G" horiz-adv-x="1093" d="M57 524q0 294 107 510q71 141 198 217t295 76q75 0 130 -7t171 -30l-22 -127l-10 -190l-62 28l-53 183l-33 43q-73 18 -127 18q-209 0 -316.5 -179.5t-107.5 -528.5q0 -236 91 -348.5t282 -112.5q66 0 133 16l37 41l21 395l-158 78l-21 43h410l-2 -35l-74 -63l-20 -410 l8 -98q-107 -26 -148 -33q-156 -24 -307 -24q-422 0 -422 538z" />
<glyph unicode="H" horiz-adv-x="1353" d="M29 0l22 43l109 55l24 43l37 578l19 479l-109 72l-20 41h452l-22 -41l-131 -72l-15 -127l-18 -352l604 2l14 14l15 324l-9 147l-94 64l-26 41h444l-8 -41l-109 -49l-30 -43q-25 -442 -56 -1065l135 -70l21 -43h-459l21 43l114 70l13 112l28 396h-610l-14 -15l-19 -338 l6 -155l117 -70l19 -43h-465z" />
<glyph unicode="I" horiz-adv-x="577" d="M29 0l16 43l117 63l22 35l56 1071l-103 58l-18 41h430l-17 -41l-116 -58l-23 -34l-55 -1065l117 -70l12 -43h-438z" />
<glyph unicode="J" horiz-adv-x="591" d="M-215 -387l27 127l270 -92q35 14 43 20q49 32 71.5 119t30.5 268l9 213l26 910l-20 34l-131 58l-19 41h453l-25 -41l-94 -58l-41 -929l-10 -166q-15 -241 -40.5 -334.5t-92.5 -155.5q-75 -69 -205 -69q-70 0 -120 11t-132 44z" />
<glyph unicode="K" horiz-adv-x="1153" d="M29 0l22 43l117 55l22 29l50 924l-7 161l-110 58l-19 41h465l-22 -41l-137 -64l-13 -106l-45 -832l6 -155l125 -70l19 -43h-473zM387 655l88 43l414 500l2 37l-96 35l-21 41h410l-17 -41l-114 -49l-480 -531l463 -584l166 -86l-2 -34h-90q-93 0 -145.5 17.5t-106.5 68.5 q-39 37 -125 153l-291 396z" />
<glyph unicode="L" horiz-adv-x="892" d="M29 0l22 43l109 55l22 29l49 932l-6 147l-123 64l-20 41h502l-17 -41l-166 -64l-12 -112l-43 -826l6 -141l27 -29l319 15l29 28l94 170l58 27l-39 -338h-811z" />
<glyph unicode="M" horiz-adv-x="1652" d="M41 0l25 43l100 41l31 43l153 1044l-18 50l-101 77v27l310 -27l14 -135l276 -915l345 895l36 155l297 27v-27l-104 -86l20 -1095l123 -74l19 -43h-461l27 43l137 70l-10 950l-416 -1020l-99 -86l-323 1102l-103 -912l11 -55l125 -49l12 -43h-426z" />
<glyph unicode="N" horiz-adv-x="1312" d="M10 0l25 43l108 49l37 41l64 1051l-152 100l2 27h303l578 -1000h14l25 873l-27 37l-153 49l-19 41h479l-22 -41l-109 -49l-22 -37l-51 -832l-11 -338l-94 -43l-635 1100h-20l-23 -950l27 -29l139 -49l19 -43h-482z" />
<glyph unicode="O" horiz-adv-x="1171" d="M57 520q0 150 33.5 291t95.5 248q52 88 144 164q75 60 142 81t181 21q239 0 350 -127t111 -401q0 -387 -158.5 -600t-445.5 -213q-223 0 -338 136.5t-115 399.5zM227 545q0 -130 26.5 -214.5t88.5 -152.5q41 -45 106 -73.5t127 -28.5q180 0 273.5 179.5t93.5 524.5 q0 134 -21.5 214t-74.5 141q-40 46 -104.5 74t-131.5 28q-178 0 -280.5 -185.5t-102.5 -506.5z" />
<glyph unicode="P" horiz-adv-x="1017" d="M14 0l23 43l123 55l22 29l49 932l-6 147l-123 64l-20 41h475q132 0 217 -25q97 -28 151 -116.5t54 -219.5q0 -204 -115.5 -334.5t-296.5 -130.5q-39 0 -106 11l6 55q10 -2 31 -2q158 0 235.5 100.5t77.5 304.5q0 154 -61.5 213.5t-219.5 59.5h-127l-14 -113l-45 -846 l8 -141l27 -29l153 -55l19 -43h-537z" />
<glyph unicode="Q" horiz-adv-x="1171" d="M57 522q0 307 129 537q53 93 142 166q69 57 140.5 78.5t188.5 21.5q111 0 203 -31q118 -38 186 -175t68 -335q0 -153 -32.5 -293.5t-92.5 -246.5q-50 -89 -143 -158q-49 -36 -96 -53.5t-136 -32.5v-14l170 -234l224 -55v-21q-108 -38 -189 -38q-99 0 -166 49t-125 166 l-69 137q-104 10 -159.5 32t-102.5 72q-140 143 -140 428zM227 545q0 -130 26.5 -214.5t88.5 -152.5q41 -45 106 -73.5t127 -28.5q180 0 273.5 179.5t93.5 524.5q0 134 -21.5 214t-74.5 141q-40 46 -104.5 74t-131.5 28q-178 0 -280.5 -185.5t-102.5 -506.5z" />
<glyph unicode="R" horiz-adv-x="1144" d="M18 0l17 43l129 55l22 29l50 932l-7 147l-137 64l-20 41h532q175 0 256.5 -66.5t81.5 -208.5q0 -70 -24 -135q-28 -75 -84 -139.5t-177 -161.5l377 -522l178 -92l-2 -35l-106 6q-84 6 -148 27q-63 20 -112 75.5t-154 223.5l-176 282l-147 6l-17 -303l6 -141l27 -29 l127 -55l18 -43h-510zM371 678l20 -23l205 -6l45 29q33 42 37 49q39 57 62.5 137.5t23.5 159.5q0 104 -50 153.5t-157 49.5h-149l-15 -113z" />
<glyph unicode="S" horiz-adv-x="866" d="M63 33l15 114l12 234l62 -29l53 -205l41 -41q54 -26 87 -34.5t79 -8.5q102 0 162.5 58.5t60.5 157.5q0 49 -14 81q-18 39 -58.5 86.5t-89.5 83.5l-223 168q-156 118 -156 289q0 157 94 249.5t252 92.5q97 0 159 -10.5t187 -48.5l-18 -78l-18 -205l-62 29l-35 141l-32 49 q-50 26 -80.5 34.5t-81.5 8.5q-101 0 -161 -55t-60 -147q0 -79 35 -131.5t135 -124.5l178 -127q118 -84 167.5 -165.5t49.5 -187.5q0 -152 -95.5 -241.5t-258.5 -89.5q-86 0 -166.5 11t-219.5 42z" />
<glyph unicode="T" horiz-adv-x="1038" d="M-2 981l12 217l-8 127l219 -14h572l297 22l-13 -112l-12 -248l-70 22l-53 203l-27 29h-282l-17 -29l-47 -924l6 -147l27 -29l125 -55l18 -43h-530l25 43l129 55l30 29l13 127l51 944l-14 29h-275l-31 -29l-80 -190z" />
<glyph unicode="U" horiz-adv-x="1318" d="M78 1311h495l-16 -41l-166 -72l-41 -760v-43q0 -73 10 -114q17 -82 100.5 -132.5t201.5 -50.5q76 0 143 27q65 26 96.5 61t46 95.5t19.5 177.5l24 592l-8 141l-27 29l-110 49l-12 41h460l-16 -41l-131 -64l-25 -184l-49 -666q-9 -146 -74 -229q-53 -69 -155.5 -109.5 t-225.5 -40.5q-144 0 -258 60q-87 46 -126 128.5t-39 219.5v39l26 641l-6 133l-125 72z" />
<glyph unicode="V" horiz-adv-x="989" d="M-25 1311h424l-16 -41l-123 -49l-2 -37l209 -994l371 994l-13 37l-104 49l-12 41h383l-25 -41l-84 -64l-440 -1044l-43 -148l-150 -43l-260 1237l-102 62z" />
<glyph unicode="W" horiz-adv-x="1626" d="M-31 1311h424l-16 -41l-115 -49l-10 -37l133 -959l387 1045l166 63l2 -92l158 -1022l354 959l-4 43l-105 49l-18 41h404l-17 -41l-110 -64l-469 -1143l-11 -49l-149 -34l-162 1085l-375 -967l-18 -84l-144 -34l-190 1224l-102 66z" />
<glyph unicode="X" horiz-adv-x="1044" d="M-55 0l22 43l119 72l393 549l-282 534l-109 72l-12 41h409l-16 -41l-94 -49v-23l196 -416l248 410v20l-88 58l-12 41h366l-16 -41l-102 -60l-357 -505l299 -592l111 -70l12 -43h-438l16 43l117 63v21l-209 459l-285 -465l7 -23l116 -55l11 -43h-422z" />
<glyph unicode="Y" horiz-adv-x="839" d="M-47 1311h369l-17 -41l-88 -43l-2 -29l221 -514l275 514v23l-123 49l-13 41h375l-16 -41l-74 -43l-371 -606l-18 -64l-14 -289l6 -141l20 -29l138 -55l12 -43h-508l22 43l117 49l31 35l22 438l-12 56l-278 606l-62 43z" />
<glyph unicode="Z" horiz-adv-x="933" d="M-4 49l283 430l434 713l-6 14l-433 -8l-36 -27l-72 -149l-64 -27l13 240l-19 76l199 -13h614l39 -36l-268 -402l-455 -747l6 -15l496 23l37 26l86 164l65 27l-41 -352l-118 14h-713z" />
<glyph unicode="[" horiz-adv-x="552" d="M158 -346q29 315 38 496.5t9 449.5q0 235 -8 382.5t-33 406.5l432 49l-6 -127h-318q74 -504 74 -752q0 -270 -86 -813h311l-6 -127z" />
<glyph unicode="\" horiz-adv-x="516" d="M164 1307l127 26l74 -1693l-121 -19z" />
<glyph unicode="]" horiz-adv-x="552" d="M-47 -254h332q-86 543 -86 813q0 254 73 752h-297l-6 127l414 -49q-26 -250 -33.5 -398t-7.5 -391q0 -268 9 -449.5t38 -496.5l-428 -35z" />
<glyph unicode="^" horiz-adv-x="921" d="M172 1120l410 367l200 -338l-22 -23l-211 177l-348 -203z" />
<glyph unicode="_" horiz-adv-x="989" d="M0 -70h989v-129h-989v129z" />
<glyph unicode="`" horiz-adv-x="921" d="M244 1413l14 84h98l254 -438l-28 -29z" />
<glyph unicode="a" horiz-adv-x="915" d="M90 322q0 176 66.5 328t175.5 229q66 46 162.5 64t277.5 18q-33 -135 -41 -269l-29 -522l15 -14l127 14q-9 -41 -17 -57q-25 -54 -95 -93.5t-138 -39.5h-43l10 167l-14 9q-109 -100 -177.5 -138t-136.5 -38q-38 0 -55 14q-37 26 -62.5 121t-25.5 207zM229 344 q0 -65 9.5 -109.5t37.5 -121.5l289 106l31 615h-197q-65 -97 -93 -155.5t-50 -141.5q-27 -111 -27 -193z" />
<glyph unicode="b" horiz-adv-x="882" d="M70 1403l272 57l27 -22q-27 -214 -33 -344l-17 -318l15 -14q96 110 163.5 152t145.5 42q38 0 59 -14q37 -28 64 -124.5t27 -203.5q0 -167 -67.5 -326t-166.5 -225q-53 -35 -127 -56t-149 -21q-44 0 -73 6.5t-77 27.5l21 291l47 895zM287 141l26 -28h176q8 13 20.5 31 t21.5 31.5t16 25.5q57 99 79.5 186.5t22.5 202.5q0 76 -8 118.5t-37 110.5l-287 -112z" />
<glyph unicode="c" horiz-adv-x="608" d="M90 360q0 161 37.5 298t105.5 223q61 77 170 77q51 0 87 -7.5t102 -32.5l-37 -142q-25 17 -41 27t-35 18.5t-28 12t-39.5 13t-49.5 15.5l-28 -14q-90 -142 -90 -455q0 -151 29.5 -216.5t97.5 -65.5q37 0 53 8l158 74l6 -13q-71 -109 -130 -153.5t-155 -44.5 q-98 0 -155.5 102t-57.5 276z" />
<glyph unicode="d" horiz-adv-x="915" d="M90 328v6q0 170 60 312q62 144 170.5 227t240.5 83q10 0 25.5 -1t19.5 -1l15 285l-134 158l279 63l20 -22q-19 -122 -30 -316l-51 -952l14 -14l127 14q-9 -41 -17 -57q-25 -54 -95 -93.5t-138 -39.5h-43l10 167l-14 9q-109 -100 -177 -138t-136 -38q-39 0 -56 14 q-37 26 -63.5 123.5t-26.5 210.5zM231 354q0 -70 9.5 -116t38.5 -125l288 112l31 611h-195q-27 -37 -53 -76q-43 -60 -81 -184.5t-38 -221.5z" />
<glyph unicode="e" horiz-adv-x="649" d="M90 313q0 129 30.5 265.5t76.5 234.5q74 152 233 152q195 0 195 -172q0 -98 -47 -156q-58 -72 -124.5 -119t-217.5 -121q-3 -53 -3 -67q0 -217 146 -217q19 0 59 8l211 49l6 -12q-200 -176 -360 -176q-95 0 -150 88.5t-55 242.5zM240 479q132 81 185.5 145t53.5 138 q0 38 -17.5 55t-58.5 17h-86q-22 -46 -30.5 -74t-20.5 -92q-15 -74 -26 -189z" />
<glyph unicode="f" horiz-adv-x="520" d="M-328 -381l56 141q57 -35 131 -63l174 -64q80 20 110.5 92t34.5 255l19 784h-177l7 117h176l6 247q4 158 93 242t243 84t327 -65l-55 -134q-47 27 -125 56l-194 71q-67 -22 -93.5 -85.5t-35.5 -225.5l-11 -190h213l-6 -117h-213l-41 -784q-7 -143 -25 -213.5t-59 -122.5 q-74 -90 -258 -90q-149 0 -297 65z" />
<glyph unicode="g" horiz-adv-x="886" d="M-78 -213q0 43 33 76q34 34 89 59t95 25h25l-86 -158v-29l12 -14q40 -46 109 -74t137 -28q107 0 160.5 71t62.5 222l12 210l-22 9q-108 -101 -175 -138.5t-136 -37.5q-39 0 -56 14q-37 26 -62.5 123.5t-25.5 208.5q0 170 66.5 321.5t173.5 224.5q65 45 163 65t279 24 q-35 -179 -37 -279l-20 -662q-4 -150 -26 -221.5t-81 -130.5q-112 -112 -327 -112q-154 0 -258.5 66.5t-104.5 164.5zM236 354q0 -69 9 -115.5t38 -123.5l288 106l29 613h-199q-23 -34 -59 -95q-106 -183 -106 -385z" />
<glyph unicode="h" horiz-adv-x="954" d="M117 1417l241 43l15 -22l-37 -422l-14 -254l14 -12q106 127 180.5 177t159.5 50q52 1 80 -25q25 -23 24 -66v-9l-37 -707l15 -14l127 14q-4 -18 -17 -57q-25 -54 -92 -90.5t-141 -36.5h-41l35 678v34q0 36 -8 107l-56 14l-248 -141l-26 -531q-1 -13 -1 -26q0 -58 11 -121 h-160l64 1227z" />
<glyph unicode="i" horiz-adv-x="534" d="M70 762q25 104 85 151.5t167 47.5h63l-35 -269l-26 -508l18 -28l121 14q-9 -41 -17 -57q-25 -54 -91.5 -90.5t-141.5 -36.5h-41l33 649q1 20 1 39q0 47 -7 88l-15 14zM238 1255q0 67 39 112.5t96 45.5q2 0 22 -4q11 -43 11 -63q0 -72 -39.5 -116t-102.5 -44h-12 q-14 46 -14 69z" />
<glyph unicode="j" horiz-adv-x="520" d="M-244 -381l33 133q80 -40 141 -55l187 -49q34 53 43.5 89t13.5 142l14 318l13 354v88q0 66 -4 125l-13 14l-114 -14q29 95 94 146t155 51h29l27 -29q-12 -222 -35 -694q-21 -417 -86 -553q-60 -129 -229 -129q-70 0 -125.5 13t-143.5 50zM236 1253q0 70 38.5 114 t100.5 44h18q8 -47 8 -65q0 -78 -39 -119t-114 -43q-12 42 -12 69z" />
<glyph unicode="k" horiz-adv-x="860" d="M76 1409l276 49l21 -14q-28 -187 -39 -428l-43 -846q-1 -12 -1 -27q0 -54 9 -143h-160l62 1212zM344 514l64 23l241 297v14l-80 51v33l342 29l-4 -43l-116 -70l-297 -311l231 -424l111 -35q-31 -55 -68 -76.5t-100 -21.5h-50z" />
<glyph unicode="l" horiz-adv-x="499" d="M98 1403l254 59l27 -37q-29 -176 -35 -297l-53 -958l14 -14l127 14q-10 -45 -16 -57q-25 -54 -92 -90.5t-142 -36.5h-41l60 1214z" />
<glyph unicode="m" horiz-adv-x="1437" d="M70 762q25 95 90 147t162 52h40l-10 -211l15 -15q107 124 182.5 173.5t155.5 49.5q104 0 104 -104v-6l-4 -98l12 -15q107 125 182 174t158 49q105 0 105 -99v-11l-35 -678l14 -14l127 14q-6 -27 -16 -57q-25 -54 -92.5 -90.5t-141.5 -36.5h-43l33 622v35q0 60 -6 119 l-55 43l-246 -141l-25 -453q0 -123 8 -211h-159l30 608q0 6 1 18.5t1 18.5q0 29 -6 131l-55 29l-248 -141l-24 -453q0 -131 8 -211h-160l39 762l-12 14z" />
<glyph unicode="n" horiz-adv-x="970" d="M70 762q60 199 252 199h40l-10 -211l15 -15q109 123 182.5 171t155.5 48q104 0 104 -95v-11l-35 -678l12 -14l115 14q-12 -79 -79 -131.5t-156 -52.5h-41l30 622q1 21 1 47q0 52 -5 121l-55 29l-248 -141l-26 -494q0 -86 8 -170h-158l39 762l-12 14z" />
<glyph unicode="o" horiz-adv-x="851" d="M90 348q0 152 37 291q85 324 375 324q136 -1 202 -83q63 -79 62 -263v-17q-9 -620 -416 -620q-135 0 -197.5 88t-62.5 280zM242 381q0 -171 51 -234q17 -20 45.5 -27t87.5 -7h98q48 96 66 184q28 152 28 274q0 153 -38.5 208t-145.5 55h-98q-13 -31 -25 -54 q-69 -156 -69 -399z" />
<glyph unicode="p" horiz-adv-x="903" d="M8 -438l2 35l123 51l23 28q7 124 57 1094l-14 14l-127 -20q6 39 16 63q25 56 93 95t141 39h43l-11 -177l15 -6q100 103 167 143t142 40q41 0 59 -15q37 -26 63.5 -123.5t26.5 -206.5q0 -169 -65 -324.5t-168 -228.5q-54 -38 -111 -53.5t-170 -23.5l-14 -297l25 -41 l133 -49l-2 -37h-447zM319 113h205q32 35 45 51q52 73 83.5 192t31.5 244q0 36 -1.5 61t-7 51.5t-13.5 51.5t-23 63l-289 -112z" />
<glyph unicode="q" horiz-adv-x="874" d="M90 326q0 171 67 323.5t175 227.5q65 45 163.5 64t278.5 20q-38 -178 -45 -324l-51 -961l20 -28l117 -51l-2 -35h-453l2 35l166 65l9 14l24 480h-14q-109 -100 -177.5 -138t-136.5 -38q-35 0 -55 14q-37 26 -62.5 123.5t-25.5 208.5zM229 352q0 -69 9 -115.5t38 -123.5 l289 110l31 611h-197q-170 -240 -170 -482z" />
<glyph unicode="r" horiz-adv-x="614" d="M70 750q6 32 20 69q25 57 94 99.5t138 42.5h40l-10 -199l15 -12l194 225l55 -57l-24 -197l-242 -29l-33 -692h-153l47 762l-12 14z" />
<glyph unicode="s" horiz-adv-x="626" d="M16 27l33 149q35 -18 55 -28t53 -19.5t46 -13t75.5 -16.5t100.5 -21l14 8q29 42 29 98q0 69 -82 164l-131 150q-53 60 -74.5 109t-21.5 106q0 109 72 178.5t202 69.5q94 0 211 -15l-37 -141q-27 11 -48 19t-50 15.5t-44.5 10.5t-62.5 12.5t-73 14.5q-31 -56 -31 -123 q0 -53 17.5 -89.5t58.5 -84.5l114 -131q2 -2 15.5 -18t17.5 -21t17 -21t18 -24.5t15 -24.5t14 -28t10 -27.5t8 -31.5t2 -32q0 -104 -70.5 -170.5t-177.5 -66.5q-127 0 -295 43z" />
<glyph unicode="t" horiz-adv-x="565" d="M23 764l6 117h186q2 66 2 129q0 59 -2 118l164 56l-23 -303h232l-4 -117h-234l-24 -461q-1 -23 -1 -44q0 -83 13 -126l14 -6l193 43l6 -14q-92 -92 -162 -131t-145 -39q-43 0 -58.5 17.5t-15.5 68.5v12l39 680h-186z" />
<glyph unicode="u" horiz-adv-x="948" d="M66 762q22 97 85.5 148t163.5 51h43l-36 -693l8 -106l41 -21l258 113l26 508v61q0 58 -6 95l172 57q-20 -129 -28 -283l-29 -522l14 -14l117 16q-30 -99 -89 -142.5t-151 -43.5h-41l9 184l-13 14q-97 -108 -177.5 -153t-160.5 -45q-55 0 -77.5 25.5t-22.5 88.5v13l35 649 l-14 14z" />
<glyph unicode="v" horiz-adv-x="843" d="M68 772q19 99 74.5 144t160.5 45h57l-32 -502q-6 -77 -6 -142q0 -67 18 -141l70 -35q64 13 97 39t66 86q46 82 73 193t30 205q1 26 -2.5 54t-7.5 43l-4 15l-15 15l-84 -15v10q0 88 43 131.5t107 43.5h71q2 -70 2 -142v-69q-6 -127 -22 -205q-31 -151 -76 -254.5 t-127 -194.5q-101 -110 -219 -110q-91 0 -129.5 56t-38.5 185q0 27 2 41l17 332l4 127l-4 64h-15z" />
<glyph unicode="w" horiz-adv-x="1298" d="M72 762q14 93 78 146t172 53h55q-33 -191 -39 -347l-10 -219q0 -10 -1 -29.5t-1 -29.5q0 -68 10 -166l61 -37l236 191l29 383v124q-1 9 -5 87l158 43l-33 -502q-4 -78 -4 -119q0 -103 10 -170l64 -31q57 13 84.5 27.5t56.5 52.5q101 133 131 375q5 39 5 71q0 85 -33 126 l-101 -21q12 105 62 149t119 44h53l6 -213q1 -19 1 -37q0 -105 -20 -203q-22 -116 -64.5 -210t-99 -165t-125 -110t-139.5 -39q-143 0 -155 170l-4 55l-15 14q-104 -127 -176.5 -183t-132.5 -56q-129 0 -129 211v28l19 332q6 126 6 143q0 43 -2 76l-15 15z" />
<glyph unicode="x" horiz-adv-x="790" d="M-37 14l37 156q112 27 175.5 76.5t137.5 173.5l19 31l-199 368l-100 -14q25 85 65.5 120.5t112.5 35.5h43l170 -375l25 41q80 133 108.5 173.5t73.5 88.5q25 27 117 86l26 -43l-8 -141q-56 -15 -87.5 -28.5t-67.5 -44.5t-67.5 -72.5t-86.5 -123.5l205 -395l100 14 q-32 -82 -70.5 -117.5t-93.5 -35.5q-19 0 -49 6l-178 387q-142 -219 -209 -291t-158 -104z" />
<glyph unicode="y" horiz-adv-x="950" d="M74 770q29 92 90.5 141.5t130.5 49.5h55l-24 -502q-2 -35 -2 -105q0 -100 8 -184l63 -29l238 156l24 453l-4 182l115 43l41 -14l-37 -707q-14 -279 -27 -364q-19 -123 -67 -209q-30 -56 -98.5 -88.5t-147.5 -32.5q-56 0 -110 11t-177 48l52 141q5 -3 13.5 -9t13.5 -8.5 t18 -8.5t35 -13t57 -18l180 -55q30 23 44.5 45.5t25.5 58.5q20 66 26.5 129t18.5 316l-15 14q-50 -62 -93 -99.5t-111 -84.5q-72 -52 -121 -52q-54 0 -84.5 47.5t-30.5 129.5q0 71 2 116l17 353q1 27 1 50v33q-2 36 -4 58l-2 22h-14z" />
<glyph unicode="z" horiz-adv-x="688" d="M14 78l166 211l293 461l-14 12h-240q-90 0 -121.5 15t-31.5 57q0 71 81 155l37 -86h453l39 -69l-152 -185l-321 -487l6 -6h332q57 0 83.5 -18t26.5 -56q0 -65 -65 -152l-54 84h-483z" />
<glyph unicode="{" horiz-adv-x="755" d="M29 489v60q154 8 208.5 52.5t51.5 164.5l-15 448v21q0 139 62 201q47 44 119 59.5t229 15.5h29v-63q-82 0 -116 -5t-69 -22q-57 -26 -77.5 -85t-20.5 -197v-377q0 -103 -21 -142.5t-92 -68.5l-69 -29l69 -28q68 -28 90.5 -70t22.5 -141v-418q0 -104 7.5 -155t26.5 -80 t62 -52q47 -24 136 -24h51v-62q-20 -2 -60 -2q-138 0 -202.5 15t-118.5 61q-33 27 -45.5 69t-12.5 125v29l15 490q3 122 -51 164.5t-209 45.5z" />
<glyph unicode="|" horiz-adv-x="755" d="M295 -537v2171h156v-2171h-156z" />
<glyph unicode="}" horiz-adv-x="755" d="M43 -446h51q52 0 78.5 4.5t56.5 19.5q60 29 78.5 83.5t18.5 203.5v418q0 100 22 141.5t90 69.5l70 28l-70 29q-70 29 -91 68.5t-21 142.5v377q0 137 -20 194t-79 88q-30 17 -65 22t-119 5v63h29q155 0 226 -15.5t122 -59.5q61 -55 61 -201q0 -15 -2 -21l-12 -448 q-3 -120 51.5 -164.5t208.5 -52.5v-60q-155 -3 -209 -45.5t-51 -164.5l12 -490q2 -10 2 -29q0 -79 -12.5 -120.5t-44.5 -73.5q-47 -44 -114.5 -60t-207.5 -16q-41 0 -59 2v62z" />
<glyph unicode="~" horiz-adv-x="1146" d="M145 432l199 250h78q9 0 83.5 -28.5t129.5 -55.5q89 -43 151 -43q27 0 76.5 33t100.5 104l63 -47l-184 -237h-78q-41 0 -223 77q-4 1 -23 9t-29 11.5t-28.5 8.5t-35.5 7.5t-34 2.5q-23 0 -79 -39.5t-103 -101.5z" />
<glyph unicode="&#xa1;" horiz-adv-x="538" d="M150 0l81 936l105 -2l-6 -934h-180zM215 1184q0 63 38 100t103 37h25q16 -57 16 -86q0 -61 -36 -99t-95 -38q-21 0 -33 2q-18 50 -18 84z" />
<glyph unicode="&#xa2;" d="M63 410q0 120 33.5 232.5t93.5 191.5q57 75 150 133q57 34 104 48.5t136 26.5l22 220h86l-24 -211h26q26 0 46 -0.5t41 -2.5t32 -3t33.5 -5.5t28.5 -6t35.5 -8.5t37.5 -9l-14 -268l-82 34l-47 185q-56 14 -107 18l-32 2l-78 -938h10l135 12q13 0 25 2l67 197l86 37 l-14 -277q-88 -23 -139.5 -29t-173.5 -11l-23 -211h-86l23 211q-114 6 -176.5 23t-112.5 54q-142 111 -142 353zM236 420q0 -163 60 -246t204 -117l78 922q-99 -20 -148 -51t-96 -103q-98 -147 -98 -405z" />
<glyph unicode="&#xa3;" horiz-adv-x="1003" d="M33 0l20 43l131 72l13 139l18 362h-158l6 101h158l4 84q9 198 35 282.5t98 155.5q99 96 299 96q136 0 225 -38.5t89 -98.5q0 -56 -109 -94q-32 53 -55 76q-30 36 -80 59t-98 23q-91 0 -146 -68q-43 -51 -59 -119.5t-27 -238.5l-8 -119h404l-7 -101h-401l-14 -256 q-4 -85 -11.5 -124.5t-31.5 -108.5l8 -6l502 26l77 185l84 28l-34 -374l-156 14h-776z" />
<glyph unicode="&#xa4;" d="M121 557l178 178q-41 68 -41 158t41 158l-178 178l84 84l170 -170q88 69 203 69q114 0 200 -67l168 168l84 -84l-174 -174q41 -71 41 -162t-41 -162l174 -174l-84 -84l-168 168q-87 -68 -200 -68t-203 70l-170 -170zM375 893q0 -90 57.5 -152.5t145.5 -62.5t145 62 t57 153t-57 153t-145 62t-145.5 -62.5t-57.5 -152.5z" />
<glyph unicode="&#xa5;" d="M16 1311h418l-33 -56l-102 -34l227 -543l312 536l-129 43l-43 54h424l-31 -49l-88 -50l-355 -534h271l-6 -86h-310l-10 -197h297l-4 -84h-297l-10 -198l158 -70l26 -43h-534l30 43l164 70l10 198h-282l4 84h283l10 199l-13 -2h-282l4 86h258l-252 543l-88 49z" />
<glyph unicode="&#xa6;" horiz-adv-x="755" d="M295 -217v539h156v-539h-156zM295 860v539h156v-539h-156z" />
<glyph unicode="&#xa7;" horiz-adv-x="1011" d="M70 -254l51 115l368 -137q65 34 93 79t28 115q0 65 -39 113.5t-127 99.5l-94 53l-84 43q-160 82 -160 242q0 48 15 89t44.5 76t58.5 60t73 56l25 -41q-36 -46 -51 -85.5t-15 -88.5q0 -71 39.5 -122.5t134.5 -103.5l113 -61q127 -69 179 -137t52 -164q0 -136 -101 -222.5 t-261 -86.5q-85 0 -176 28.5t-166 79.5zM219 1038q0 137 102.5 224.5t262.5 87.5q84 0 173 -27t163 -74l-50 -116l-370 129q-63 -34 -90 -79t-27 -114q0 -68 40 -119t130 -96q103 -53 180 -90q164 -80 164 -246q0 -119 -92 -205q-27 -27 -92 -73l-25 41q62 84 62 170 q0 72 -40.5 122t-138.5 103l-112 61q-132 71 -186 138t-54 163z" />
<glyph unicode="&#xa8;" horiz-adv-x="1118" d="M395 1311l15 98l49 55h92l27 -26l-7 -115l-49 -49h-86zM692 1311l13 98l51 55h90l28 -26l-6 -115l-49 -49h-86z" />
<glyph unicode="&#xa9;" horiz-adv-x="1433" d="M49 657q0 181 89.5 333.5t243 241.5t335.5 89q181 0 334 -89t242 -242t89 -333q0 -137 -52.5 -260.5t-142 -212.5t-212.5 -141.5t-258 -52.5q-136 0 -259.5 52.5t-213 141.5t-142.5 212.5t-53 260.5zM135 657q0 -158 78 -292t212 -211.5t292 -77.5q156 0 289 77.5 t210.5 211.5t77.5 292q0 156 -77.5 289.5t-210.5 212t-289 78.5q-158 0 -292.5 -78.5t-212 -212t-77.5 -289.5zM381 668q0 144 91.5 233.5t236.5 89.5q53 0 98 -10.5t129 -40.5l6 -170l-31 -10q-34 96 -79.5 137t-120.5 41q-88 0 -140.5 -68t-52.5 -182q0 -126 56 -204 t145 -78q72 0 116.5 37.5t82.5 129.5l40 -6l-40 -205q-112 -20 -183 -20q-162 0 -258 89t-96 237z" />
<glyph unicode="&#xaa;" horiz-adv-x="737" d="M49 856q0 114 55.5 219t149.5 166q68 46 151 64.5t244 21.5l-41 -201l-24 -381l12 -10h121q-26 -62 -89.5 -97.5t-146.5 -35.5l-41 4l6 142q-120 -92 -168 -120t-98 -28q-55 0 -93 75t-38 181zM182 870q0 -54 8 -83.5t35 -77.5l226 86l36 432h-135q-100 -97 -135 -170 t-35 -187z" />
<glyph unicode="&#xab;" horiz-adv-x="768" d="M49 475l346 410h56l-234 -424l70 -295h-56zM365 469l340 416h55l-225 -424l67 -295h-55z" />
<glyph unicode="&#xac;" horiz-adv-x="1167" d="M88 514l37 141h672l293 7l-3 -5l-28 -460l-154 22l19 148l6 153l-119 8h-469z" />
<glyph unicode="&#xad;" horiz-adv-x="634" d="M84 571l453 58l14 -162l-453 -57z" />
<glyph unicode="&#xae;" horiz-adv-x="1433" d="M49 657q0 181 89.5 334t242.5 241.5t334 88.5q136 0 259.5 -52.5t213 -141t142 -211.5t52.5 -259t-52.5 -259t-142 -212t-213 -141.5t-259.5 -52.5q-181 0 -334 88.5t-242.5 242t-89.5 334.5zM133 657q0 -157 78.5 -291t212.5 -212t291 -78q117 0 224 46.5t185 124 t124 185.5t46 225q0 156 -78 289.5t-211.5 212t-289.5 78.5q-157 0 -291 -78.5t-212.5 -212t-78.5 -289.5zM420 367v41q58 4 74 23t16 81v317q0 46 -16.5 73t-63.5 56v33l178 -16q61 16 127 16q94 0 145.5 -40t51.5 -113q0 -58 -28.5 -97t-108.5 -90q144 -204 172 -236 l12 -12q26 -26 55 -38t76 -15v-31q-46 -10 -74 -10q-106 0 -170 64q-36 37 -62 77t-97 168q-11 -1 -24.5 -3.5t-16.5 -2.5q-5 0 -19 2.5t-22 3.5v-106q0 -55 13 -73.5t60 -30.5v-41h-278zM625 700q22 -15 35 -19.5t36 -4.5q11 0 76 14q49 60 49 121q0 50 -30 80 q-26 26 -58 35t-108 10v-236z" />
<glyph unicode="&#xaf;" horiz-adv-x="921" d="M227 1257v127h545v-127h-545z" />
<glyph unicode="&#xb0;" horiz-adv-x="532" d="M57 1122q0 88 61.5 149.5t149.5 61.5t149.5 -61.5t61.5 -149.5t-61.5 -150.5t-149.5 -62.5t-149.5 62.5t-61.5 150.5zM119 1122q0 -64 43.5 -106.5t105.5 -42.5q66 0 108 41.5t42 107.5q0 63 -43.5 106.5t-106.5 43.5q-65 0 -107 -44t-42 -106z" />
<glyph unicode="&#xb1;" horiz-adv-x="1146" d="M51 473l29 141h430v367l141 49l-14 -174v-242h156l290 7v-152l-268 18h-178v-405l-141 -29l14 312v122h-205zM68 -262l28 147l654 -6l329 6v-147l-248 14h-509z" />
<glyph unicode="&#xb2;" d="M195 702q200 161 280 258t80 185q0 36 -27.5 58t-76.5 22q-40 0 -91.5 -10.5t-80.5 -26.5l-17 14l21 109q37 17 100 28t115 11q95 0 144.5 -52.5t49.5 -138.5q0 -52 -21.5 -100t-66.5 -94t-90 -81t-115 -83v-19h336v-127q-31 1 -90 6t-80 5h-360z" />
<glyph unicode="&#xb3;" horiz-adv-x="720" d="M84 348l18 58q170 9 267.5 84t97.5 198q0 67 -46.5 94t-137.5 27q-55 0 -101 -10l19 114q27 -4 55 -4q70 0 152 58q57 42 83.5 79t26.5 84q0 44 -25 69.5t-69 25.5q-91 0 -166 -37l-16 14l20 90q93 37 199 37q91 0 137.5 -43.5t46.5 -126.5q0 -78 -53.5 -139t-179.5 -113 v-16q194 -16 194 -186q0 -67 -37.5 -132.5t-99.5 -116.5t-151 -82.5t-185 -31.5z" />
<glyph unicode="&#xb4;" horiz-adv-x="681" d="M285 1059l239 438h115l12 -98l-338 -369z" />
<glyph unicode="&#xb6;" horiz-adv-x="1165" d="M70 985q0 149 107 249.5t267 100.5q68 0 191 -22l-29 -791h-22q-132 0 -251.5 64.5t-191 171.5t-71.5 227zM229 -317l58 141l284 -72q44 32 64 54.5t35 58.5q47 106 57 276l61 1170l410 2l-18 -41l-236 -84l-61 -1047q-15 -250 -128.5 -373.5t-328.5 -123.5 q-58 0 -96.5 7.5t-100.5 31.5z" />
<glyph unicode="&#xb7;" horiz-adv-x="550" d="M141 571q0 56 41 96t99 40q54 0 91.5 -39t37.5 -95q0 -57 -40.5 -96t-99.5 -39q-54 0 -91.5 38.5t-37.5 94.5z" />
<glyph unicode="&#xb8;" horiz-adv-x="921" d="M104 -401l41 90h197q25 45 25 67q0 18 -7.5 32.5t-16.5 23t-28.5 17t-30 12t-35.5 10t-32 8.5l57 170h66l-43 -135q93 -15 133.5 -44.5t40.5 -82.5q0 -48 -37 -89.5t-94 -56.5q-55 -14 -94.5 -18t-141.5 -4z" />
<glyph unicode="&#xb9;" d="M225 666l25 49l196 61l17 21l18 348l-20 29l-174 -13l-4 51l350 146l10 -17l-22 -145l-19 -170l-12 -242l14 -16l168 -53l19 -49h-566z" />
<glyph unicode="&#xba;" horiz-adv-x="737" d="M70 885q0 207 89.5 324.5t246.5 117.5q133 0 180 -35q36 -28 58 -94t22 -149q0 -115 -37 -222q-41 -126 -110 -174.5t-206 -48.5q-125 0 -184 68t-59 213zM203 918q0 -147 59 -197q29 -23 90 -23h105q31 56 51 148.5t20 181.5q0 106 -34 154.5t-107 48.5h-111 q-73 -118 -73 -313z" />
<glyph unicode="&#xbb;" horiz-adv-x="768" d="M23 127l225 424l-68 295h56l182 -303l-340 -416h-55zM332 127l233 424l-69 295h55l182 -309l-346 -410h-55z" />
<glyph unicode="&#xbc;" horiz-adv-x="1650" d="M121 666l24 49l197 61l16 21l19 348l-21 29l-174 -13l-4 51l350 146l11 -17l-23 -145l-18 -170l-13 -242l15 -16l168 -53l18 -49h-565zM471 0l670 1356l90 -43l-670 -1356zM836 94l450 578l121 -4l-37 -539h150l-11 -129h-145l-23 -287h-141l21 287h-367zM971 129h256 l33 363z" />
<glyph unicode="&#xbd;" horiz-adv-x="1650" d="M121 666l24 49l197 61l16 21l19 348l-21 29l-174 -13l-4 51l350 146l11 -17l-23 -145l-18 -170l-13 -242l15 -16l168 -53l18 -49h-565zM471 0l670 1356l90 -43l-670 -1356zM987 35q201 162 281 258.5t80 183.5q0 36 -28 58t-77 22q-40 0 -91.5 -10.5t-80.5 -26.5l-16 15 l20 108q37 17 100 28t115 11q95 0 145 -52.5t50 -137.5q0 -52 -21.5 -100.5t-66.5 -94t-90 -81.5t-115 -83v-18h336v-127q-28 1 -88 5.5t-82 4.5h-361z" />
<glyph unicode="&#xbe;" horiz-adv-x="1650" d="M51 348l19 58q170 9 267 84t97 198q0 67 -46.5 94t-137.5 27q-54 0 -100 -10l18 114q27 -4 55 -4q70 0 152 58q57 42 83.5 79t26.5 84q0 44 -25 69.5t-69 25.5q-91 0 -166 -37l-16 14l20 90q93 37 199 37q91 0 137.5 -43.5t46.5 -126.5q0 -78 -53.5 -139t-179.5 -113v-16 q194 -16 194 -186q0 -67 -37.5 -132.5t-99.5 -116.5t-151 -82.5t-185 -31.5zM471 0l670 1356l90 -43l-670 -1356zM856 74l451 598l106 -4l-37 -559h150l-10 -109h-146l-22 -287h-127l20 287h-367zM991 109h256l33 383z" />
<glyph unicode="&#xbf;" horiz-adv-x="690" d="M43 371q0 65 27 123q40 86 125.5 175t267.5 234l53 -63q-172 -142 -245.5 -245t-73.5 -200q0 -95 108 -135l197 -72q22 -7 34.5 -25t12.5 -40q0 -31 -23.5 -67t-85.5 -99l9 135q-134 38 -209 65.5t-121.5 60t-61 66.5t-14.5 87zM367 1137q0 61 37.5 102t93.5 41 q23 0 41 -4q8 -48 8 -94q0 -129 -119 -129q-22 0 -36.5 14.5t-19.5 32t-5 37.5z" />
<glyph unicode="&#xc0;" horiz-adv-x="1067" d="M-63 0l16 43l104 70l451 1093l27 92l151 50l281 -1235l116 -70l19 -43h-451l23 43l129 72l-66 315h-438l-106 -289l-3 -28l117 -70l19 -43h-389zM199 1581l84 57l368 -198l-14 -27l-410 84zM332 528l12 -20h375l-144 641z" />
<glyph unicode="&#xc1;" horiz-adv-x="1067" d="M-63 0l16 43l104 70l451 1093l27 92l151 50l281 -1235l116 -70l19 -43h-451l23 43l129 72l-66 315h-438l-106 -289l-3 -28l117 -70l19 -43h-389zM332 528l12 -20h375l-144 641zM580 1440l366 198l86 -57l-28 -84l-410 -84z" />
<glyph unicode="&#xc2;" horiz-adv-x="1067" d="M-63 0l16 43l104 70l451 1093l27 92l151 50l281 -1235l116 -70l19 -43h-451l23 43l129 72l-66 315h-438l-106 -289l-3 -28l117 -70l19 -43h-389zM305 1399l361 248l204 -232l-22 -20l-205 114l-309 -131zM332 528l12 -20h375l-144 641z" />
<glyph unicode="&#xc3;" horiz-adv-x="1067" d="M-63 0l16 43l104 70l451 1093l27 92l151 50l281 -1235l116 -70l19 -43h-451l23 43l129 72l-66 315h-438l-106 -289l-3 -28l117 -70l19 -43h-389zM279 1403l219 211h55l223 -92l170 116l29 -22l-191 -191h-57l-219 91l-197 -134zM332 528l12 -20h375l-144 641z" />
<glyph unicode="&#xc4;" horiz-adv-x="1067" d="M-63 0l16 43l104 70l451 1093l27 92l151 50l281 -1235l116 -70l19 -43h-451l23 43l129 72l-66 315h-438l-106 -289l-3 -28l117 -70l19 -43h-389zM332 528l12 -20h375l-144 641zM395 1495l15 98l49 56h92l27 -27l-7 -115l-49 -49h-86zM692 1495l13 98l51 56h90l28 -27 l-6 -115l-49 -49h-86z" />
<glyph unicode="&#xc5;" horiz-adv-x="1067" d="M-63 0l16 43l104 70l451 1093l27 92l151 50l281 -1235l116 -70l19 -43h-451l23 43l129 72l-66 315h-438l-106 -289l-3 -28l117 -70l19 -43h-389zM332 528l12 -20h375l-144 641zM446 1563q0 71 50 120.5t120 49.5t120 -49.5t50 -120.5t-50 -120.5t-120 -49.5t-120 49.5 t-50 120.5zM532 1563q0 -35 24.5 -59.5t59.5 -24.5t59.5 24.5t24.5 59.5t-24.5 59.5t-59.5 24.5t-59.5 -24.5t-24.5 -59.5z" />
<glyph unicode="&#xc6;" horiz-adv-x="1576" d="M-35 0l23 49l121 68l630 1089l-129 62l-26 43h721l219 14l-11 -84l-14 -254l-55 29l-60 182l-28 29h-324l-14 -113l-21 -401l7 -8l270 8l78 147h43l-23 -422h-43l-67 176l-263 7l-6 -7l-18 -346l6 -141l27 -29l354 15l22 28l80 170l66 27l-33 -338h-846l33 57l127 58 l23 401h-377l-226 -403l117 -82l14 -31h-397zM504 600l332 2l32 627h-18z" />
<glyph unicode="&#xc7;" horiz-adv-x="985" d="M43 524q0 316 127 531q58 95 149 166q72 56 158.5 81t206.5 25q83 0 123.5 -7.5t105.5 -33.5l-16 -340l-70 43l-59 236q-56 20 -111 20q-130 0 -210 -46t-136 -152q-98 -183 -98 -510q0 -133 23.5 -215t80.5 -148q41 -47 107 -72.5t145 -25.5q67 0 170 20l70 244l88 41 l-20 -342q-80 -25 -123 -32.5t-156 -14.5q-22 -3 -76 -6l-26 -103q93 -15 133.5 -44.5t40.5 -82.5q0 -49 -36 -89.5t-93 -55.5q-53 -15 -93 -19t-145 -4l41 90h199q22 46 22 68q0 20 -10 36t-21 25t-35.5 18.5t-35.5 12.5t-39 10l49 138h-8q-113 11 -175 32.5t-108 67.5 q-139 139 -139 438z" />
<glyph unicode="&#xc8;" horiz-adv-x="931" d="M33 0l16 43l115 55l22 29l50 932l-7 147l-131 64l-12 41h594l219 14l-10 -84l-15 -254l-55 29l-59 182l-27 29h-325l-13 -113l-22 -401l8 -8l268 8l78 147h43l-22 -422h-43l-68 176l-262 7l-6 -7l-19 -346l6 -141l27 -29l354 15l23 28l80 170l65 27l-33 -338h-839z M188 1581l84 57l367 -198l-14 -27l-410 84z" />
<glyph unicode="&#xc9;" horiz-adv-x="931" d="M33 0l16 43l115 55l22 29l50 932l-7 147l-131 64l-12 41h594l219 14l-10 -84l-15 -254l-55 29l-59 182l-27 29h-325l-13 -113l-22 -401l8 -8l268 8l78 147h43l-22 -422h-43l-68 176l-262 7l-6 -7l-19 -346l6 -141l27 -29l354 15l23 28l80 170l65 27l-33 -338h-839z M512 1440l369 198l84 -57l-29 -84l-410 -84z" />
<glyph unicode="&#xca;" horiz-adv-x="931" d="M33 0l16 43l115 55l22 29l50 932l-7 147l-131 64l-12 41h594l219 14l-10 -84l-15 -254l-55 29l-59 182l-27 29h-325l-13 -113l-22 -401l8 -8l268 8l78 147h43l-22 -422h-43l-68 176l-262 7l-6 -7l-19 -346l6 -141l27 -29l354 15l23 28l80 170l65 27l-33 -338h-839z M254 1399l358 248l205 -232l-22 -20l-205 114l-309 -131z" />
<glyph unicode="&#xcb;" horiz-adv-x="931" d="M33 0l16 43l115 55l22 29l50 932l-7 147l-131 64l-12 41h594l219 14l-10 -84l-15 -254l-55 29l-59 182l-27 29h-325l-13 -113l-22 -401l8 -8l268 8l78 147h43l-22 -422h-43l-68 176l-262 7l-6 -7l-19 -346l6 -141l27 -29l354 15l23 28l80 170l65 27l-33 -338h-839z M272 1495l15 98l49 56h92l27 -27l-6 -115l-50 -49h-86zM569 1495l13 98l51 56h90l29 -27l-7 -115l-49 -49h-86z" />
<glyph unicode="&#xcc;" horiz-adv-x="577" d="M-72 1581l86 57l367 -198l-14 -27l-410 84zM29 0l16 43l117 63l22 35l56 1071l-103 58l-18 41h430l-17 -41l-116 -58l-23 -34l-55 -1065l117 -70l12 -43h-438z" />
<glyph unicode="&#xcd;" horiz-adv-x="577" d="M27 0l16 43l117 63l22 35l56 1071l-103 58l-18 41h430l-17 -41l-116 -58l-23 -34l-55 -1065l117 -70l12 -43h-438zM295 1440l367 198l83 -57l-26 -84l-410 -84z" />
<glyph unicode="&#xce;" horiz-adv-x="577" d="M16 1399l361 248l205 -232l-23 -20l-207 114l-309 -131zM29 0l16 43l117 63l22 35l56 1071l-103 58l-18 41h430l-17 -41l-116 -58l-23 -34l-55 -1065l117 -70l12 -43h-438z" />
<glyph unicode="&#xcf;" horiz-adv-x="577" d="M27 0l16 43l117 63l22 35l56 1071l-103 58l-18 41h430l-17 -41l-116 -58l-23 -34l-55 -1065l117 -70l12 -43h-438zM129 1495l14 98l50 56h92l26 -27l-6 -115l-49 -49h-86zM426 1495l12 98l51 56h91l28 -27l-6 -115l-49 -49h-86z" />
<glyph unicode="&#xd0;" horiz-adv-x="1193" d="M25 0l22 43l113 53l22 29l23 426l-150 -49l-24 73l178 58l24 450l-2 121l-143 64l-20 41h573q190 0 293 -97q83 -78 128.5 -205t45.5 -280q0 -195 -75.5 -366.5t-205.5 -272.5q-62 -47 -140.5 -68.5t-192.5 -21.5zM346 287l4 -162l29 -29h119q158 0 243 76 q89 78 144 234.5t55 328.5q0 134 -32 243t-91 175q-66 72 -217 72h-197l-14 -113l-22 -428l170 55l22 -73l-197 -64z" />
<glyph unicode="&#xd1;" horiz-adv-x="1312" d="M10 0l25 43l108 49l37 41l64 1051l-152 100l2 27h303l578 -1000h14l25 873l-27 37l-153 49l-19 41h479l-22 -41l-109 -49l-22 -37l-51 -832l-11 -338l-94 -43l-635 1100h-20l-23 -950l27 -29l139 -49l19 -43h-482zM403 1403l218 211h57l221 -92l170 116l31 -22l-191 -191 h-57l-221 91l-197 -134z" />
<glyph unicode="&#xd2;" horiz-adv-x="1142" d="M43 520q0 150 33.5 291t95.5 248q53 89 143 164q75 60 142.5 81t181.5 21q239 0 350 -127t111 -401q0 -387 -158.5 -600t-445.5 -213q-223 0 -338 136.5t-115 399.5zM213 545q0 -130 26.5 -214.5t88.5 -152.5q41 -45 106 -73.5t127 -28.5q180 0 273.5 179.5t93.5 524.5 q0 133 -21.5 213.5t-75.5 141.5q-40 46 -104 74t-131 28q-178 0 -280.5 -185.5t-102.5 -506.5zM254 1593l86 58l373 -199l-17 -27l-405 84z" />
<glyph unicode="&#xd3;" horiz-adv-x="1142" d="M59 520q0 150 33.5 291t95.5 248q52 88 144 164q75 60 142 81t181 21q239 0 350 -127t111 -401q0 -387 -158.5 -600t-445.5 -213q-223 0 -338 136.5t-115 399.5zM229 545q0 -130 26.5 -214.5t88.5 -152.5q41 -45 106.5 -73.5t127.5 -28.5q180 0 273 179.5t93 524.5 q0 134 -21.5 214t-74.5 141q-40 46 -104.5 74t-131.5 28q-178 0 -280.5 -185.5t-102.5 -506.5zM625 1440l366 198l84 -57l-28 -84l-410 -84z" />
<glyph unicode="&#xd4;" horiz-adv-x="1142" d="M59 520q0 150 33.5 291t95.5 248q52 88 144 164q75 60 142 81t181 21q239 0 350 -127t111 -401q0 -387 -158.5 -600t-445.5 -213q-223 0 -338 136.5t-115 399.5zM229 545q0 -130 26.5 -214.5t88.5 -152.5q41 -45 106.5 -73.5t127.5 -28.5q180 0 273 179.5t93 524.5 q0 134 -21.5 214t-74.5 141q-40 46 -104.5 74t-131.5 28q-178 0 -280.5 -185.5t-102.5 -506.5zM330 1399l360 248l205 -232l-23 -20l-206 114l-310 -131z" />
<glyph unicode="&#xd5;" horiz-adv-x="1142" d="M55 520q0 150 33.5 291t95.5 248q52 88 144 164q75 60 142 81t181 21q239 0 350 -127t111 -401q0 -387 -158.5 -600t-445.5 -213q-223 0 -338 136.5t-115 399.5zM225 545q0 -130 26.5 -214.5t88.5 -152.5q41 -45 106 -73.5t127 -28.5q180 0 273.5 179.5t93.5 524.5 q0 134 -21.5 214t-74.5 141q-40 46 -104.5 74t-131.5 28q-178 0 -280.5 -185.5t-102.5 -506.5zM319 1403l218 211h57l221 -92l170 116l31 -22l-191 -191h-57l-221 91l-197 -134z" />
<glyph unicode="&#xd6;" horiz-adv-x="1142" d="M43 520q0 150 33.5 291t95.5 248q53 89 143 164q75 60 142.5 81t181.5 21q239 0 350 -127t111 -401q0 -387 -158.5 -600t-445.5 -213q-223 0 -338 136.5t-115 399.5zM213 545q0 -130 26.5 -214.5t88.5 -152.5q41 -45 106 -73.5t127 -28.5q180 0 273.5 179.5t93.5 524.5 q0 133 -21.5 213.5t-75.5 141.5q-40 46 -104 74t-131 28q-178 0 -280.5 -185.5t-102.5 -506.5zM436 1495l15 98l49 56h92l26 -27l-6 -115l-49 -49h-86zM733 1495l12 98l52 56h90l28 -27l-6 -115l-49 -49h-86z" />
<glyph unicode="&#xd7;" horiz-adv-x="1146" d="M147 152l238 219l102 102q-128 130 -331 311l112 86l307 -309l310 309l98 -98l-117 -100l-200 -199q36 -38 81 -82t75 -72.5t87 -82.5t78 -74l-108 -109l-177 203l-127 127l-329 -330z" />
<glyph unicode="&#xd8;" horiz-adv-x="1171" d="M57 520q0 54 5 112.5t20.5 140t41 154t71.5 147t105.5 128.5t149.5 88t199 35l25 164l67 -14l-22 -152q205 -17 300 -144.5t95 -381.5q0 -384 -155.5 -596t-438.5 -217l-31 -203l-75 14q2 12 5 32t9.5 62.5t10.5 70.5t3 28q-189 20 -287 155t-98 377zM227 545 q0 -130 26.5 -214.5t88.5 -152.5q51 -54 119 -80l174 1139h-25q-178 0 -280.5 -185.5t-102.5 -506.5zM535 80q28 -4 40 -4q180 0 273.5 179.5t93.5 524.5q0 134 -21.5 214t-74.5 141q-57 64 -141 88z" />
<glyph unicode="&#xd9;" horiz-adv-x="1320" d="M78 1311h495l-16 -41l-166 -72l-41 -760v-43q0 -73 10 -114q17 -82 100.5 -132.5t201.5 -50.5q76 0 143 27q65 26 96.5 61t46 95.5t19.5 177.5l24 592l-8 141l-27 29l-110 49l-12 41h460l-16 -41l-131 -64l-25 -184l-49 -666q-9 -146 -74 -229q-53 -69 -155.5 -109.5 t-225.5 -40.5q-144 0 -258 60q-87 46 -126 128.5t-39 219.5v39l26 641l-6 133l-125 72zM346 1579l88 57l371 -198l-14 -27l-406 84z" />
<glyph unicode="&#xda;" horiz-adv-x="1320" d="M78 1311h495l-16 -41l-166 -72l-41 -760v-43q0 -73 10 -114q17 -82 100.5 -132.5t201.5 -50.5q76 0 143 27q65 26 96.5 61t46 95.5t19.5 177.5l24 592l-8 141l-27 29l-110 49l-12 41h460l-16 -41l-131 -64l-25 -184l-49 -666q-9 -146 -74 -229q-53 -69 -155.5 -109.5 t-225.5 -40.5q-144 0 -258 60q-87 46 -126 128.5t-39 219.5v39l26 641l-6 133l-125 72zM608 1438l363 198l82 -57l-33 -84l-399 -84z" />
<glyph unicode="&#xdb;" horiz-adv-x="1320" d="M78 1311h495l-16 -41l-166 -72l-41 -760v-43q0 -73 10 -114q17 -82 100.5 -132.5t201.5 -50.5q76 0 143 27q65 26 96.5 61t46 95.5t19.5 177.5l24 592l-8 141l-27 29l-110 49l-12 41h460l-16 -41l-131 -64l-25 -184l-49 -666q-9 -146 -74 -229q-53 -69 -155.5 -109.5 t-225.5 -40.5q-144 0 -258 60q-87 46 -126 128.5t-39 219.5v39l26 641l-6 133l-125 72zM379 1397l366 239l201 -225l-16 -14l-205 112l-317 -141z" />
<glyph unicode="&#xdc;" horiz-adv-x="1236" d="M49 1311h496l-17 -41l-166 -72l-40 -760v-43q0 -73 10 -114q17 -82 100 -132.5t201 -50.5q75 0 143 27q65 26 96.5 61t46 95.5t19.5 177.5l25 592l-9 141l-26 29l-111 49l-12 41h461l-17 -41l-131 -64l-24 -184l-50 -666q-10 -147 -73 -229q-53 -69 -155.5 -109.5 t-225.5 -40.5q-144 0 -258 60q-87 46 -126.5 128.5t-39.5 219.5v39l27 641l-7 133l-125 72zM469 1495l14 98l49 56h93l26 -27l-6 -115l-49 -49h-86zM766 1495l12 98l51 56h91l28 -27l-6 -115l-49 -49h-86z" />
<glyph unicode="&#xdd;" horiz-adv-x="839" d="M-47 1311h369l-17 -41l-88 -43l-2 -29l221 -514l275 514v23l-123 49l-13 41h375l-16 -41l-74 -43l-371 -606l-18 -64l-14 -289l6 -141l20 -29l138 -55l12 -43h-508l22 43l117 49l31 35l22 438l-12 56l-278 606l-62 43zM391 1438l363 198l82 -57l-33 -84l-400 -84z" />
<glyph unicode="&#xde;" horiz-adv-x="1017" d="M14 0l23 43l123 55l22 29l54 1085l-103 58l-18 41h430l-17 -41l-116 -58l-23 -34l-8 -66h166q200 0 311 -83.5t111 -276.5q0 -204 -115.5 -334.5t-296.5 -130.5q-45 0 -106 10l6 55q10 -2 30 -2q314 0 314 406q0 154 -61.5 213t-219.5 59h-139l-37 -760l8 -141l27 -29 l153 -55l19 -43h-537z" />
<glyph unicode="&#xdf;" horiz-adv-x="1077" d="M-328 -387l56 147l307 -127q57 12 86 44.5t42.5 101t16.5 201.5l25 1085q4 187 106.5 287t284.5 100q154 0 255 -80t101 -203q0 -115 -84 -190l-77 -70q-8 -7 -39 -45q-31 -39 -41.5 -66.5t-10.5 -64.5q0 -53 36 -107t143 -161q141 -130 141 -246q0 -100 -72 -167.5 t-178 -67.5t-242 26l-55 10l43 127l320 -69q26 37 34.5 63t8.5 62q0 32 -11 54t-43 56l-198 215q-40 42 -54 73.5t-14 74.5q0 48 15.5 83t64.5 89q90 103 123 173t33 157q0 186 -189 186q-119 0 -177 -78.5t-67 -263.5l-49 -1042q-6 -139 -22.5 -211t-54.5 -119 q-37 -43 -106 -72t-140 -29q-55 0 -121.5 13.5t-196.5 50.5z" />
<glyph unicode="&#xe0;" horiz-adv-x="915" d="M90 322q0 176 66.5 328t175.5 229q66 46 162.5 64t277.5 18q-33 -135 -41 -269l-29 -522l15 -14l127 14q-9 -41 -17 -57q-25 -54 -95 -93.5t-138 -39.5h-43l10 167l-14 9q-109 -100 -177.5 -138t-136.5 -38q-38 0 -55 14q-37 26 -62.5 121t-25.5 207zM203 1413l14 84h98 l254 -438l-28 -29zM229 344q0 -65 9.5 -109.5t37.5 -121.5l289 106l31 615h-197q-65 -97 -93 -155.5t-50 -141.5q-27 -111 -27 -193z" />
<glyph unicode="&#xe1;" horiz-adv-x="915" d="M90 322q0 176 66.5 328t175.5 229q66 46 162.5 64t277.5 18q-33 -135 -41 -269l-29 -522l15 -14l127 14q-9 -41 -17 -57q-25 -54 -95 -93.5t-138 -39.5h-43l10 167l-14 9q-109 -100 -177.5 -138t-136.5 -38q-38 0 -55 14q-37 26 -62.5 121t-25.5 207zM229 344 q0 -65 9.5 -109.5t37.5 -121.5l289 106l31 615h-197q-65 -97 -93 -155.5t-50 -141.5q-27 -111 -27 -193zM502 1059l239 438h115l12 -98l-338 -369z" />
<glyph unicode="&#xe2;" horiz-adv-x="915" d="M90 322q0 176 66.5 328t175.5 229q66 46 162.5 64t277.5 18q-33 -135 -41 -269l-29 -522l15 -14l127 14q-9 -41 -17 -57q-25 -54 -95 -93.5t-138 -39.5h-43l10 167l-14 9q-109 -100 -177.5 -138t-136.5 -38q-38 0 -55 14q-37 26 -62.5 121t-25.5 207zM217 1079l408 367 l200 -338l-22 -23l-209 177l-350 -203zM229 344q0 -65 9.5 -109.5t37.5 -121.5l289 106l31 615h-197q-65 -97 -93 -155.5t-50 -141.5q-27 -111 -27 -193z" />
<glyph unicode="&#xe3;" horiz-adv-x="915" d="M90 322q0 176 66.5 328t175.5 229q66 46 162.5 64t277.5 18q-33 -135 -41 -269l-29 -522l15 -14l127 14q-9 -41 -17 -57q-25 -54 -95 -93.5t-138 -39.5h-43l10 167l-14 9q-109 -100 -177.5 -138t-136.5 -38q-38 0 -55 14q-37 26 -62.5 121t-25.5 207zM229 344 q0 -65 9.5 -109.5t37.5 -121.5l289 106l31 615h-197q-65 -97 -93 -155.5t-50 -141.5q-27 -111 -27 -193zM229 1118l187 238h57l211 -119l182 156l45 -29l-200 -246h-58l-219 113l-168 -150z" />
<glyph unicode="&#xe4;" horiz-adv-x="915" d="M90 322q0 176 66.5 328t175.5 229q66 46 162.5 64t277.5 18q-33 -135 -41 -269l-29 -522l15 -14l127 14q-9 -41 -17 -57q-25 -54 -95 -93.5t-138 -39.5h-43l10 167l-14 9q-109 -100 -177.5 -138t-136.5 -38q-38 0 -55 14q-37 26 -62.5 121t-25.5 207zM229 344 q0 -65 9.5 -109.5t37.5 -121.5l289 106l31 615h-197q-65 -97 -93 -155.5t-50 -141.5q-27 -111 -27 -193zM330 1198l10 96l51 60h88l33 -33l-12 -109l-43 -49h-84zM627 1200l10 94l51 60h88l33 -33l-12 -109l-43 -49h-86z" />
<glyph unicode="&#xe5;" horiz-adv-x="915" d="M90 319q0 165 68 316t174 225q66 46 163 64t279 20l-43 -266l-26 -508l14 -14h127q-28 -82 -95 -129t-155 -47h-43l10 190q-115 -107 -186.5 -148.5t-140.5 -41.5q-39 0 -56 14q-37 26 -63.5 122t-26.5 203zM231 348q0 -66 9.5 -111.5t38.5 -123.5l288 106l31 592h-199 q-38 -54 -61 -92q-107 -176 -107 -371zM385 1239q0 71 49.5 120.5t120.5 49.5t120.5 -49.5t49.5 -120.5t-49.5 -120.5t-120.5 -49.5t-120.5 49.5t-49.5 120.5zM471 1239q0 -35 24.5 -59.5t59.5 -24.5t59.5 24.5t24.5 59.5t-24.5 59.5t-59.5 24.5t-59.5 -24.5t-24.5 -59.5z " />
<glyph unicode="&#xe6;" horiz-adv-x="1087" d="M66 154q0 94 63 143q38 33 162 84l196 78l15 170q0 5 1 13.5t1 12.5q0 96 -24.5 136t-94.5 40q-57 0 -131 -40l-25 -197l-125 55q35 77 57 114t58 77q50 54 121.5 88.5t134.5 34.5q134 0 143 -121q61 70 108 94.5t116 24.5q89 0 147 -49.5t58 -123.5q0 -97 -97.5 -179 t-328.5 -177q-3 -61 -3 -70q0 -133 40.5 -189t136.5 -56q32 0 53 8l201 65l6 -20l-72 -61q-87 -74 -144 -101.5t-122 -27.5q-60 0 -101.5 23t-76.5 75q-8 -4 -40 -22t-42 -23q-65 -34 -100 -41.5t-95 -7.5q-91 0 -143.5 46t-52.5 124zM227 195q0 -56 41 -80.5t121 -24.5 q38 0 127 29q-38 74 -35 174l2 92l-104 -43q-152 -64 -152 -147zM627 508q136 60 200 121t64 131q0 84 -111 84q-14 0 -32 -5t-28 -9t-32.5 -15t-28.5 -14z" />
<glyph unicode="&#xe7;" horiz-adv-x="587" d="M90 360q0 161 37.5 298t105.5 223q61 77 170 77q51 0 87 -7.5t102 -32.5l-37 -142q-25 17 -41 27t-35 18.5t-28 12t-39.5 13t-49.5 15.5l-28 -14q-90 -142 -90 -455q0 -150 29.5 -215t97.5 -65q10 0 26 4l185 57l6 -12q-49 -54 -78 -80.5t-68 -52.5q-57 -37 -116 -43 l-29 -92q93 -15 133.5 -44.5t40.5 -82.5q0 -48 -37 -89.5t-94 -56.5q-55 -14 -94.5 -18t-141.5 -4l41 90h197q25 45 25 67q0 18 -7.5 32.5t-16.5 23t-28.5 17t-30 12t-35.5 10t-32 8.5l43 131q-79 20 -124.5 118.5t-45.5 251.5z" />
<glyph unicode="&#xe8;" horiz-adv-x="649" d="M90 313q0 129 30.5 265.5t76.5 234.5q74 152 233 152q195 0 195 -172q0 -98 -47 -156q-58 -72 -124.5 -119t-217.5 -121q-3 -53 -3 -67q0 -217 146 -217q19 0 59 8l211 49l6 -12q-200 -176 -360 -176q-95 0 -150 88.5t-55 242.5zM104 1413l15 84h98l254 -438l-29 -29z M240 479q132 81 185.5 145t53.5 138q0 38 -17.5 55t-58.5 17h-86q-22 -46 -30.5 -74t-20.5 -92q-15 -74 -26 -189z" />
<glyph unicode="&#xe9;" horiz-adv-x="649" d="M90 313q0 129 30.5 265.5t76.5 234.5q74 152 233 152q195 0 195 -172q0 -98 -47 -156q-58 -72 -124.5 -119t-217.5 -121q-3 -53 -3 -67q0 -217 146 -217q19 0 59 8l211 49l6 -12q-200 -176 -360 -176q-95 0 -150 88.5t-55 242.5zM240 479q132 81 185.5 145t53.5 138 q0 38 -17.5 55t-58.5 17h-86q-22 -46 -30.5 -74t-20.5 -92q-15 -74 -26 -189zM401 1059l240 438h115l12 -98l-338 -369z" />
<glyph unicode="&#xea;" horiz-adv-x="649" d="M90 313q0 129 30.5 265.5t76.5 234.5q74 152 233 152q195 0 195 -172q0 -98 -47 -156q-58 -72 -124.5 -119t-217.5 -121q-3 -53 -3 -67q0 -217 146 -217q19 0 59 8l211 49l6 -12q-200 -176 -360 -176q-95 0 -150 88.5t-55 242.5zM104 1079l408 367l203 -338l-23 -23 l-211 177l-348 -203zM240 479q132 81 185.5 145t53.5 138q0 38 -17.5 55t-58.5 17h-86q-22 -46 -30.5 -74t-20.5 -92q-15 -74 -26 -189z" />
<glyph unicode="&#xeb;" horiz-adv-x="649" d="M90 313q0 129 30.5 265.5t76.5 234.5q74 152 233 152q195 0 195 -172q0 -98 -47 -156q-58 -72 -124.5 -119t-217.5 -121q-3 -53 -3 -67q0 -217 146 -217q19 0 59 8l211 49l6 -12q-200 -176 -360 -176q-95 0 -150 88.5t-55 242.5zM219 1198l10 96l52 60h88l32 -33 l-12 -109l-43 -49h-86zM240 479q132 81 185.5 145t53.5 138q0 38 -17.5 55t-58.5 17h-86q-22 -46 -30.5 -74t-20.5 -92q-15 -74 -26 -189zM514 1200l10 94l51 60h91l32 -33l-12 -109l-43 -49h-86z" />
<glyph unicode="&#xec;" horiz-adv-x="532" d="M-25 1413l15 84h98l254 -438l-29 -29zM70 762q25 104 85 151.5t167 47.5h67l-39 -269l-26 -508l18 -28l121 14q-9 -41 -17 -57q-25 -54 -91.5 -90.5t-141.5 -36.5h-41l33 649q4 70 -6 127l-15 14z" />
<glyph unicode="&#xed;" horiz-adv-x="532" d="M70 762q25 104 85 151.5t167 47.5h67l-39 -269l-26 -508l18 -28l121 14q-9 -41 -17 -57q-25 -54 -91.5 -90.5t-141.5 -36.5h-41l33 649q4 70 -6 127l-15 14zM285 1059l239 438h115l12 -98l-338 -369z" />
<glyph unicode="&#xee;" horiz-adv-x="532" d="M-33 1079l408 367l200 -338l-22 -23l-209 177l-350 -203zM70 762q25 104 85 151.5t167 47.5h67l-39 -269l-26 -508l18 -28l121 14q-9 -41 -17 -57q-25 -54 -91.5 -90.5t-141.5 -36.5h-41l33 649q4 70 -6 127l-15 14z" />
<glyph unicode="&#xef;" horiz-adv-x="532" d="M70 762q25 104 85 151.5t167 47.5h67l-39 -269l-26 -508l18 -28l121 14q-9 -41 -17 -57q-25 -54 -91.5 -90.5t-141.5 -36.5h-41l33 649q4 70 -6 127l-15 14zM88 1198l10 96l52 60h88l32 -33l-12 -109l-43 -49h-86zM383 1200l10 94l51 60h91l32 -33l-12 -109l-43 -49h-86z " />
<glyph unicode="&#xf0;" horiz-adv-x="845" d="M43 1489q25 2 72 2q99 0 194 -35t172 -98l154 82l35 -70q-129 -68 -129 -70q221 -245 221 -700q0 -367 -148 -518q-102 -102 -284 -102q-129 0 -187.5 87t-58.5 281q0 152 37 291q36 138 123 229q88 88 256 88l57 -6q-47 159 -156 277q0 1 -48 -25l-96 -52l-48 -26 l-37 68l174 92q-124 115 -289 133zM233 379q0 -170 52 -234q19 -22 47.5 -29.5t87.5 -6.5l98 2q30 58 44 95.5t24 88.5q28 152 28 276q0 166 -43 224q-19 24 -47 32.5t-75 8.5h-119q-4 -10 -9.5 -20.5t-10.5 -20.5t-7 -13q-70 -159 -70 -403z" />
<glyph unicode="&#xf1;" horiz-adv-x="970" d="M70 762q60 199 252 199h40l-10 -211l15 -15q109 123 182.5 171t155.5 48q110 0 104 -106l-35 -678l12 -14l115 14q-12 -79 -79 -131.5t-156 -52.5h-41l30 622q4 64 -4 168l-55 29l-248 -141l-26 -494q0 -86 8 -170h-158l39 762l-12 14zM225 1118l187 238h57l211 -119 l182 156l45 -29l-200 -246h-58l-219 113l-168 -150z" />
<glyph unicode="&#xf2;" horiz-adv-x="851" d="M90 348q0 152 37 291q85 324 375 324q136 0 201.5 -82.5t62.5 -280.5q-9 -620 -416 -620q-135 0 -197.5 88t-62.5 280zM152 1413l14 84h98l254 -438l-29 -29zM242 381q0 -171 51 -234q17 -20 45.5 -27t87.5 -7h98q48 96 66 184q28 152 28 274q0 153 -38.5 208t-145.5 55 h-98q-13 -31 -25 -54q-69 -156 -69 -399z" />
<glyph unicode="&#xf3;" horiz-adv-x="851" d="M90 348q0 152 37 291q85 324 375 324q136 0 201.5 -82.5t62.5 -280.5q-9 -620 -416 -620q-135 0 -197.5 88t-62.5 280zM242 381q0 -171 51 -234q17 -20 45.5 -27t87.5 -7h98q48 96 66 184q28 152 28 274q0 153 -38.5 208t-145.5 55h-98q-13 -31 -25 -54 q-69 -156 -69 -399zM446 1059l240 438h115l12 -98l-338 -369z" />
<glyph unicode="&#xf4;" horiz-adv-x="851" d="M90 348q0 152 37 291q85 324 375 324q136 0 201.5 -82.5t62.5 -280.5q-9 -620 -416 -620q-135 0 -197.5 88t-62.5 280zM172 1079l408 367l200 -338l-22 -23l-209 177l-350 -203zM242 381q0 -171 51 -234q17 -20 45.5 -27t87.5 -7h98q48 96 66 184q28 152 28 274 q0 153 -38.5 208t-145.5 55h-98q-13 -31 -25 -54q-69 -156 -69 -399z" />
<glyph unicode="&#xf5;" horiz-adv-x="851" d="M90 348q0 152 37 291q85 324 375 324q136 0 201.5 -82.5t62.5 -280.5q-9 -620 -416 -620q-135 0 -197.5 88t-62.5 280zM150 1118l186 238h55l211 -119l182 156l45 -29l-200 -246h-56l-219 113l-170 -150zM242 381q0 -171 51 -234q17 -20 45.5 -27t87.5 -7h98 q48 96 66 184q28 152 28 274q0 153 -38.5 208t-145.5 55h-98q-13 -31 -25 -54q-69 -156 -69 -399z" />
<glyph unicode="&#xf6;" horiz-adv-x="851" d="M90 348q0 152 37 291q85 324 375 324q136 0 201.5 -82.5t62.5 -280.5q-9 -620 -416 -620q-135 0 -197.5 88t-62.5 280zM242 381q0 -171 51 -234q17 -20 45.5 -27t87.5 -7h98q48 96 66 184q28 152 28 274q0 153 -38.5 208t-145.5 55h-98q-13 -31 -25 -54 q-69 -156 -69 -399zM293 1198l10 96l51 60h88l33 -33l-12 -109l-43 -49h-84zM590 1200l10 94l51 60h88l33 -33l-12 -109l-43 -49h-84z" />
<glyph unicode="&#xf7;" horiz-adv-x="1146" d="M68 412l28 147l654 -6l350 6v-147l-269 14h-509zM457 104q0 57 40.5 96.5t98.5 39.5q54 0 91.5 -39t37.5 -95q0 -55 -41 -95t-98 -40q-54 0 -91.5 38.5t-37.5 94.5zM457 840q0 57 40 96t99 39q54 0 91.5 -38.5t37.5 -94.5q0 -55 -41 -95t-98 -40q-54 0 -91.5 38.5 t-37.5 94.5z" />
<glyph unicode="&#xf8;" horiz-adv-x="915" d="M70 348q-1 273 106 439t287 178l26 196l64 -14q-23 -180 -25 -180q126 -8 193.5 -92.5t64.5 -270.5q-4 -288 -104 -445.5t-283 -176.5l-26 -201l-62 14l23 185q-261 9 -264 368zM221 381q0 -146 72 -234q19 -22 59 -30l94 721h-110q-13 -31 -25 -54q-90 -204 -90 -403z M416 113h129q46 92 65 184q29 157 29 278q0 116 -32 176t-95 78q-94 -716 -96 -716z" />
<glyph unicode="&#xf9;" horiz-adv-x="948" d="M66 762q22 97 85.5 148t163.5 51h43l-36 -693l8 -106l41 -21l258 113l26 508v61q0 58 -6 95l172 57q-20 -129 -28 -283l-29 -522l14 -14l117 16q-30 -99 -89 -142.5t-151 -43.5h-41l9 184l-13 14q-97 -108 -177.5 -153t-160.5 -45q-55 0 -77.5 25.5t-22.5 88.5v13l35 649 l-14 14zM195 1413l14 84h98l254 -438l-29 -29z" />
<glyph unicode="&#xfa;" horiz-adv-x="948" d="M66 762q22 97 85.5 148t163.5 51h43l-36 -693l8 -106l41 -21l258 113l26 508v61q0 58 -6 95l172 57q-20 -129 -28 -283l-29 -522l14 -14l117 16q-30 -99 -89 -142.5t-151 -43.5h-41l9 184l-13 14q-97 -108 -177.5 -153t-160.5 -45q-55 0 -77.5 25.5t-22.5 88.5v13l35 649 l-14 14zM477 1059l240 438h114l13 -98l-338 -369z" />
<glyph unicode="&#xfb;" horiz-adv-x="948" d="M66 762q22 97 85.5 148t163.5 51h43l-36 -693l8 -106l41 -21l258 113l26 508v61q0 58 -6 95l172 57q-20 -129 -28 -283l-29 -522l14 -14l117 16q-30 -99 -89 -142.5t-151 -43.5h-41l9 184l-13 14q-97 -108 -177.5 -153t-160.5 -45q-55 0 -77.5 25.5t-22.5 88.5v13l35 649 l-14 14zM172 1079l410 367l200 -338l-22 -23l-211 177l-348 -203z" />
<glyph unicode="&#xfc;" horiz-adv-x="948" d="M66 762q22 97 85.5 148t163.5 51h43l-36 -693l8 -106l41 -21l258 113l26 508v61q0 58 -6 95l172 57q-20 -129 -28 -283l-29 -522l14 -14l117 16q-30 -99 -89 -142.5t-151 -43.5h-41l9 184l-13 14q-97 -108 -177.5 -153t-160.5 -45q-55 0 -77.5 25.5t-22.5 88.5v13l35 649 l-14 14zM307 1198l10 96l52 60h90l33 -33l-13 -109l-45 -49h-84zM604 1200l10 94l52 60h88l32 -33l-12 -109l-43 -49h-84z" />
<glyph unicode="&#xfd;" horiz-adv-x="950" d="M74 770q29 92 90.5 141.5t130.5 49.5h55l-24 -502q-2 -35 -2 -105q0 -100 8 -184l63 -29l238 156l24 453l-4 182l115 43l41 -14l-37 -707q-14 -279 -27 -364q-19 -123 -67 -209q-30 -56 -98.5 -88.5t-147.5 -32.5q-56 0 -110 11t-177 48l52 141q5 -3 13.5 -9t13.5 -8.5 t18 -8.5t35 -13t57 -18l180 -55q30 23 44.5 45.5t25.5 58.5q20 66 26.5 129t18.5 316l-15 14q-50 -62 -93 -99.5t-111 -84.5q-72 -52 -121 -52q-54 0 -84.5 47.5t-30.5 129.5q0 71 2 116l17 353q2 47 0.5 83t-3.5 58l-2 22h-14zM477 1059l240 438h114l13 -98l-338 -369z" />
<glyph unicode="&#xfe;" horiz-adv-x="903" d="M8 -438l2 35l123 51l23 28q13 224 26 479t27.5 563.5t23.5 481.5l-102 203l281 22q-8 -48 -15 -142.5t-20 -154.5l-23 -344l15 -6q100 103 167 143t142 40q41 0 59 -15q37 -26 63.5 -123.5t26.5 -206.5q0 -169 -65 -324.5t-168 -228.5q-54 -38 -111 -53.5t-170 -23.5 l-14 -297l25 -41l133 -49l-2 -37h-447zM319 113h205q32 35 45 51q52 73 83.5 192t31.5 244q0 69 -8.5 112t-36.5 115l-289 -112z" />
<glyph unicode="&#xff;" horiz-adv-x="950" d="M63 770q26 105 73.5 144.5t146.5 39.5h49l-21 -495q-2 -37 -2 -109q0 -98 8 -180l64 -29l217 156l25 436l-7 185l117 40l41 -14l-37 -690q-21 -421 -100 -567q-32 -57 -98.5 -92t-141.5 -35h-16q-13 0 -24 0.5t-20.5 0.5t-20.5 2t-18.5 3t-21.5 4.5l-22 5.5t-27.5 8 t-30.5 9.5t-39 12t-46 13.5l51 141q11 -6 22 -13.5t15.5 -9.5t9 -5t12 -5.5t14.5 -4.5t26.5 -7.5t37.5 -11.5l180 -55q34 26 48.5 46t23.5 56q18 61 24.5 130.5t18.5 316.5l-14 14q-55 -68 -91 -102t-96 -76q-80 -58 -119 -58q-53 0 -83.5 47.5t-30.5 129.5q0 69 2 116 l14 332q0 10 1 31t1 31q0 43 -8 122l-14 7zM252 1223l14 98l49 55h93l26 -26l-6 -115l-49 -49h-86zM549 1223l12 98l51 55h90l29 -26l-6 -115l-49 -49h-86z" />
<glyph unicode="&#x152;" horiz-adv-x="1546" d="M57 520q0 233 72.5 417.5t202 288t293.5 103.5q54 0 141 -18h502l219 14l-12 -84l-13 -254l-55 29l-61 182l-27 29h-326l-12 -113l-20 -401l6 -8l268 8l80 147h41l-23 -422h-41l-69 176l-260 7l-9 -7l-18 -346l8 -141l27 -29l354 15l23 28l77 170l66 27l-31 -338h-805 q-111 -18 -178 -18q-195 0 -307.5 144.5t-112.5 393.5zM227 545q0 -131 27.5 -217.5t87.5 -149.5q47 -49 110.5 -75.5t131.5 -26.5q82 0 138.5 56t59.5 142l31 748q4 100 -53 157.5t-158 57.5q-171 0 -273 -188t-102 -504z" />
<glyph unicode="&#x153;" horiz-adv-x="1183" d="M90 348q0 152 37 291q85 324 375 324q84 0 137.5 -30t83.5 -99q37 67 89.5 99t129.5 32q195 0 195 -172q0 -98 -47 -156q-58 -72 -124.5 -119t-217.5 -121q-3 -52 -3 -67q0 -217 146 -217q19 0 59 8l211 49l6 -12q-200 -176 -360 -176q-111 0 -166 133 q-105 -135 -291 -135q-135 0 -197.5 88t-62.5 280zM242 381q0 -171 51 -234q17 -20 45.5 -27t87.5 -7h98q48 96 66 184q28 152 28 274q0 153 -38.5 208t-145.5 55h-98q-13 -31 -25 -54q-69 -156 -69 -399zM752 479q132 81 185.5 145t53.5 138q0 38 -17.5 55t-58.5 17h-86 q-22 -46 -30.5 -74t-20.5 -92q-15 -74 -26 -189z" />
<glyph unicode="&#x178;" horiz-adv-x="831" d="M-47 1311h369l-17 -41l-88 -43l-2 -29l221 -514l275 514v23l-123 49l-13 41h375l-16 -41l-74 -43l-371 -606l-18 -64l-14 -289l6 -141l20 -29l138 -55l12 -43h-508l22 43l117 49l31 35l22 438l-12 56l-278 606l-62 43zM223 1495l15 98l49 56h92l27 -27l-7 -115l-49 -49 h-86zM520 1495l12 98l52 56h90l28 -27l-6 -115l-49 -49h-86z" />
<glyph unicode="&#x2c6;" horiz-adv-x="921" d="M172 1120l410 367l200 -338l-22 -23l-211 177l-348 -203z" />
<glyph unicode="&#x2dc;" horiz-adv-x="921" d="M184 1159l187 238h57l211 -119l182 156l45 -29l-200 -246h-58l-219 113l-168 -150z" />
<glyph unicode="&#x2000;" horiz-adv-x="866" />
<glyph unicode="&#x2001;" horiz-adv-x="1733" />
<glyph unicode="&#x2002;" horiz-adv-x="866" />
<glyph unicode="&#x2003;" horiz-adv-x="1733" />
<glyph unicode="&#x2004;" horiz-adv-x="577" />
<glyph unicode="&#x2005;" horiz-adv-x="433" />
<glyph unicode="&#x2006;" horiz-adv-x="288" />
<glyph unicode="&#x2007;" horiz-adv-x="288" />
<glyph unicode="&#x2008;" horiz-adv-x="216" />
<glyph unicode="&#x2009;" horiz-adv-x="346" />
<glyph unicode="&#x200a;" horiz-adv-x="96" />
<glyph unicode="&#x2010;" horiz-adv-x="634" d="M84 571l453 58l14 -162l-453 -57z" />
<glyph unicode="&#x2011;" horiz-adv-x="634" d="M84 571l453 58l14 -162l-453 -57z" />
<glyph unicode="&#x2012;" horiz-adv-x="634" d="M84 571l453 58l14 -162l-453 -57z" />
<glyph unicode="&#x2013;" horiz-adv-x="1019" d="M0 467v127h1018v-127h-1018z" />
<glyph unicode="&#x2014;" horiz-adv-x="2033" d="M0 467v127h2034v-127h-2034z" />
<glyph unicode="&#x2018;" horiz-adv-x="399" d="M98 993q0 73 35 143t131 191h58l-86 -225v-29l28 -29h43q22 -20 28.5 -34t6.5 -39q0 -50 -33.5 -81.5t-85.5 -31.5q-57 0 -91 36.5t-34 98.5z" />
<glyph unicode="&#x2019;" horiz-adv-x="399" d="M98 1217q0 47 34 78.5t85 31.5q57 0 91 -36t34 -97q0 -74 -35 -144.5t-131 -189.5h-55l84 225v29l-29 27h-41q-22 22 -29.5 37t-7.5 39z" />
<glyph unicode="&#x201a;" horiz-adv-x="399" d="M63 74q0 49 33 80.5t86 31.5q57 0 91 -36.5t34 -98.5q0 -72 -35.5 -143t-130.5 -191h-57l86 226v28l-29 29h-43q-21 20 -28 35t-7 39z" />
<glyph unicode="&#x201c;" horiz-adv-x="710" d="M98 993q0 73 35 143t131 191h58l-86 -225v-29l28 -29h43q22 -20 28.5 -34t6.5 -39q0 -50 -33.5 -81.5t-85.5 -31.5q-57 0 -91 36.5t-34 98.5zM438 991q0 72 34.5 143.5t129.5 192.5h55l-84 -225v-29l29 -29h41q24 -21 31.5 -35t7.5 -38q0 -49 -34 -81t-85 -32 q-57 0 -91 36.5t-34 96.5z" />
<glyph unicode="&#x201d;" horiz-adv-x="710" d="M98 1212q0 49 33 81t84 32q59 0 93 -36t34 -97q0 -73 -34 -142.5t-128 -193.5h-55l82 225v29l-29 29h-43q-23 20 -30 34t-7 39zM436 1217q0 47 34 78.5t85 31.5q57 0 91 -36t34 -97q0 -73 -34 -143.5t-128 -192.5h-57l84 227l-2 29l-27 27h-43q-22 20 -29.5 35.5 t-7.5 40.5z" />
<glyph unicode="&#x201e;" horiz-adv-x="710" d="M43 76q0 48 33.5 80t85.5 32q57 0 91 -36.5t34 -98.5q0 -72 -34 -142.5t-128 -193.5h-55l82 228v26l-29 29h-43q-23 20 -30 35t-7 41zM381 78q0 49 34 80.5t85 31.5q57 0 91 -36.5t34 -98.5q0 -73 -34 -143.5t-128 -190.5l-57 -2l83 228v28l-28 29l-43 -2 q-22 22 -29.5 37t-7.5 39z" />
<glyph unicode="&#x2022;" horiz-adv-x="903" d="M240 649q1 83 63.5 141t149.5 58q88 0 149.5 -60t61.5 -145q0 -91 -61.5 -155t-149.5 -64t-151 66t-62 159z" />
<glyph unicode="&#x2026;" horiz-adv-x="1652" d="M219 72q0 64 43.5 108.5t106.5 44.5h41q24 -27 31.5 -43.5t7.5 -42.5q0 -63 -44 -108t-106 -45h-43q-23 25 -30 42.5t-7 43.5zM702 66q0 63 45.5 111t104.5 48h43q22 -27 29.5 -45.5t7.5 -44.5q0 -66 -42 -107.5t-108 -41.5h-41q-23 23 -31 39t-8 41zM1225 57 q0 63 44 108.5t105 45.5h43q22 -27 29.5 -43.5t7.5 -42.5q0 -65 -43 -109.5t-106 -44.5h-41q-24 27 -31.5 43.5t-7.5 42.5z" />
<glyph unicode="&#x202f;" horiz-adv-x="346" />
<glyph unicode="&#x2039;" horiz-adv-x="458" d="M43 430l332 416h55l-219 -422l53 -297h-41z" />
<glyph unicode="&#x203a;" horiz-adv-x="458" d="M43 127l225 424l-67 295h55l182 -303l-340 -416h-55z" />
<glyph unicode="&#x205f;" horiz-adv-x="433" />
<glyph unicode="&#x20ac;" horiz-adv-x="923" d="M-80 344l19 68h127v8q0 57 10 129h-94l18 69h90q49 188 179.5 302t322.5 114q75 0 125 -6t147 -27l-18 -98l-8 -153l-64 16l-57 135l-25 29q-40 16 -59.5 20t-59.5 4q-117 0 -202 -92t-121 -244h340l-19 -69h-333q-9 -88 -9 -123v-14h330l-18 -68h-308q30 -266 273 -266 q38 0 60 5t65 21l33 29l77 176l70 19l-16 -234l12 -59q-11 -3 -21.5 -5.5t-15.5 -3t-6 -1.5q-4 -1 -39.5 -8t-45 -8.5t-40.5 -7t-47.5 -7.5t-42.5 -5t-48.5 -4t-45.5 -1q-173 0 -271.5 92.5t-115.5 267.5h-148z" />
<glyph unicode="&#x2122;" horiz-adv-x="2420" d="M72 1081l51 262q102 -29 161.5 -36t204.5 -7h117q142 0 200 7t157 36l51 -256l-27 -26q-60 95 -112.5 128.5t-141.5 33.5h-115v-488q0 -106 44 -152t159 -59v-51h-545v51q114 15 152.5 59t38.5 160v480h-115q-72 0 -127 -35t-127 -127zM1075 473v43q77 27 111.5 61 t40.5 95l41 438q4 18 4 51q0 46 -25 67.5t-82 22.5v64h246l303 -584l285 584h258v-58h-10q-93 0 -93 -71q0 -10 3 -47l26 -525q2 -42 21.5 -65.5t66.5 -38.5v-43h-344v49q61 6 83.5 28.5t19.5 78.5l-27 516l-334 -693l-326 635l-10 -321q-3 -20 -3 -37.5t1.5 -35t1.5 -25.5 q0 -57 27.5 -89t95.5 -57v-43h-381z" />
<glyph unicode="&#xe000;" horiz-adv-x="972" d="M0 0v973h973v-973h-973z" />
</font>
</defs>
</svg>
