<?xml version="1.0" standalone="no"?>
<!DOCTYPE svg PUBLIC "-//W3C//DTD SVG 1.1//EN" "http://www.w3.org/Graphics/SVG/1.1/DTD/svg11.dtd" >
<svg xmlns="http://www.w3.org/2000/svg">
<metadata></metadata>
<defs>
<font id="todayshop-lightitalicregular" horiz-adv-x="1259" >
<font-face units-per-em="2048" ascent="1638" descent="-410" />
<missing-glyph horiz-adv-x="339" />
<glyph horiz-adv-x="2048" />
<glyph horiz-adv-x="2048" />
<glyph unicode="&#xd;" horiz-adv-x="2048" />
<glyph unicode=" "  horiz-adv-x="339" />
<glyph unicode="&#x09;" horiz-adv-x="339" />
<glyph unicode="&#xa0;" horiz-adv-x="339" />
<glyph unicode="!" horiz-adv-x="368" d="M74 68q3 40 28 68t58 28q31 0 50 -21t19 -55q0 -44 -27 -74t-65 -28q-31 2 -47.5 23.5t-15.5 58.5zM143 297l133 1046h132l-189 -1046h-76z" />
<glyph unicode="&#x22;" horiz-adv-x="616" d="M111 897q103 109 165 226t93 259l94 -12q-48 -282 -275 -512zM350 897q103 113 165 229.5t91 255.5l96 -12q-49 -284 -274 -512z" />
<glyph unicode="#" horiz-adv-x="1105" d="M88 451l23 73h211l92 297h-211l22 74h211l137 448h80l-137 -448h281l137 448h80l-137 -448h208l-22 -74h-209l-92 -297h211l-23 -73h-211l-139 -451h-80l139 451h-280l-139 -451h-80l139 451h-211zM401 524h281l92 297h-280z" />
<glyph unicode="$" horiz-adv-x="729" d="M-31 152l33 114q83 -82 154 -117.5t149 -35.5q114 0 182 65.5t68 175.5q0 89 -88 174q-21 21 -33 31q-47 41 -96 82l-49 41q-86 74 -120 138.5t-34 156.5q0 71 38.5 140t102.5 110q64 43 166 57l27 176h88l-27 -176q103 -13 203 -80l-43 -100q-119 80 -221 80 q-95 0 -159 -57.5t-64 -143.5q0 -54 20.5 -97.5t45.5 -68.5t79 -69q48 -36 94 -76q98 -79 140.5 -152.5t42.5 -161.5q0 -140 -88 -233.5t-234 -108.5l-31 -198h-88l31 198q-96 15 -150.5 41t-138.5 95z" />
<glyph unicode="%" horiz-adv-x="1298" d="M96 838q4 103 39 198.5t92 163.5q78 96 189 105q97 7 156 -62.5t59 -191.5q0 -103 -34.5 -213.5t-88.5 -182.5q-80 -108 -201 -108q-107 0 -162 76.5t-49 214.5zM199 844q-8 -103 23 -159t95 -56q106 0 164 159q45 117 45 259q0 178 -123 178q-77 0 -135.5 -108.5 t-68.5 -272.5zM279 0l716 1325l84 -20l-714 -1325zM727 291q4 103 39 198.5t92 163.5q41 51 85.5 75.5t103.5 29.5q95 8 154 -62.5t59 -191.5q0 -105 -33.5 -212.5t-89.5 -182.5q-83 -109 -201 -109q-106 0 -160.5 76.5t-48.5 214.5zM829 297q-8 -103 23.5 -159t95.5 -56 q66 0 115 70t70.5 163t21.5 185q0 178 -123 178q-75 0 -134 -109.5t-69 -271.5z" />
<glyph unicode="&#x26;" horiz-adv-x="1601" d="M68 535q0 133 54.5 270t143.5 231q151 157 336 166q101 4 165 -54t64 -155q0 -100 -64 -202.5t-185 -194.5q-81 -62 -161 -107t-216 -106q32 -143 139.5 -223t267.5 -80q146 0 284.5 81t233.5 222q65 95 101 190.5t59 239.5h-250l15 96h602l-15 -96h-229 q-22 -138 -52.5 -232t-86.5 -192q-110 -194 -291.5 -304t-390.5 -110q-143 0 -258.5 56t-181.5 157q-45 68 -64.5 148.5t-19.5 198.5zM188 487l2 -12v-12q151 66 263 145q119 88 188.5 184.5t73.5 182.5q4 61 -37.5 100t-104.5 33q-102 -9 -191 -92t-142 -217 q-31 -76 -41.5 -136t-10.5 -165v-11z" />
<glyph unicode="'" horiz-adv-x="378" d="M111 897q103 109 165 226t93 259l94 -12q-48 -282 -275 -512z" />
<glyph unicode="(" horiz-adv-x="419" d="M84 621q19 247 123.5 463t286.5 382l57 -51q-171 -177 -261 -362t-110 -404q-30 -360 148 -733l-82 -37q-189 357 -162 742z" />
<glyph unicode=")" horiz-adv-x="423" d="M-61 -70q172 177 261.5 362t108.5 402q30 365 -147 736l84 36q187 -354 160 -743q-19 -248 -123 -463t-285 -381z" />
<glyph unicode="*" horiz-adv-x="751" d="M158 1221l39 84l258 -152l32 299l91 -10l-60 -291l285 76l12 -88l-291 -47l154 -254l-82 -39l-125 258l-188 -223l-66 57l209 209z" />
<glyph unicode="+" horiz-adv-x="1021" d="M109 606l14 92h377l57 381h100l-57 -381h377l-12 -92h-379l-58 -381h-98l57 381h-378z" />
<glyph unicode="," horiz-adv-x="241" d="M-217 -297q110 119 175.5 243t96.5 273l101 -12q-52 -300 -291 -545z" />
<glyph unicode="-" horiz-adv-x="489" d="M45 434l21 101h387l-21 -101h-387z" />
<glyph unicode="." horiz-adv-x="266" d="M-2 68q3 40 28 68t58 28q31 0 50.5 -21t19.5 -55q0 -44 -27.5 -74t-65.5 -28q-31 2 -47.5 23.5t-15.5 58.5z" />
<glyph unicode="/" horiz-adv-x="729" d="M-57 -100l817 1564l90 -18l-817 -1569z" />
<glyph unicode="0" horiz-adv-x="937" d="M74 516q12 225 84 410.5t186 292t246 106.5q164 0 251 -126t87 -363q0 -137 -32.5 -283t-90.5 -270q-143 -308 -404 -308q-164 0 -252.5 146t-74.5 395zM195 442q3 -173 60 -269.5t157 -96.5q176 0 282 223q52 115 82.5 259t30.5 278q0 189 -58 288t-167 99 q-73 0 -141.5 -55t-118.5 -152q-52 -96 -89.5 -241t-37.5 -267v-66z" />
<glyph unicode="1" horiz-adv-x="616" d="M92 1063q317 156 500 270l41 -28l-195 -1305h-114l178 1182q-219 -122 -367 -191z" />
<glyph unicode="2" horiz-adv-x="872" d="M-49 57q159 141 262 242q202 197 300 310.5t137.5 196t39.5 173.5q0 103 -67.5 172.5t-167.5 69.5q-135 0 -269 -134l-43 91q147 147 326 147q157 0 250.5 -95.5t93.5 -256.5q0 -115 -67 -229t-246 -302q-124 -129 -363 -344h676l-31 -98h-817z" />
<glyph unicode="3" horiz-adv-x="784" d="M-53 94l37 107q152 -127 305 -127q156 0 241 98q76 86 76 199q0 128 -84 200q-79 66 -164 66h-165l14 90h172q32 0 48 3.5t42 17.5q80 41 127 113t47 151q0 94 -62 153.5t-159 59.5q-132 0 -256 -103l-29 95q84 59 153 83.5t150 24.5q143 0 232.5 -84t89.5 -217 q0 -114 -58 -191.5t-190 -138.5q111 -46 162 -122t51 -197q0 -174 -125.5 -287t-318.5 -113q-88 0 -167.5 28t-168.5 91z" />
<glyph unicode="4" horiz-adv-x="970" d="M16 453l791 884l55 -24l-125 -828h224l-21 -90h-217l-57 -395h-109l59 395h-575zM150 485h479l96 641q-63 -84 -141 -170l-281 -313q-58 -66 -80.5 -89.5t-72.5 -68.5z" />
<glyph unicode="5" horiz-adv-x="802" d="M-53 88l35 105q67 -55 149 -86t160 -31q151 0 248.5 98t97.5 250q0 98 -51.5 174.5t-143.5 114.5q-86 36 -233 49l160 538h479l-14 -100h-383l-107 -362q118 -14 201 -56q100 -47 156.5 -140.5t56.5 -209.5q0 -91 -36.5 -179t-100.5 -151q-130 -127 -336 -127 q-184 0 -338 113z" />
<glyph unicode="6" horiz-adv-x="905" d="M59 457q11 211 122.5 401t299 323.5t418.5 182.5l-12 -102q-208 -56 -355 -166q-97 -72 -160 -152.5t-136 -220.5q74 55 126.5 76t120.5 24q159 8 263.5 -95.5t111.5 -276.5q9 -207 -108.5 -341.5t-307.5 -134.5q-178 0 -286 135.5t-97 346.5zM178 426 q0 -157 75.5 -254.5t195.5 -97.5q139 0 215.5 93t76.5 261q0 132 -85 221.5t-205 83.5q-89 -3 -166 -55q-72 -48 -76 -57q-31 -116 -31 -195z" />
<glyph unicode="7" horiz-adv-x="845" d="M39 12l760 1188h-674l16 100h803l17 -40l-816 -1285z" />
<glyph unicode="8" horiz-adv-x="849" d="M31 324q9 170 176 278q50 31 172 78q-123 113 -167 183.5t-44 156.5q0 128 100.5 216.5t245.5 88.5q156 0 252 -84q46 -41 73 -100t27 -117q0 -155 -153 -266q-40 -28 -156 -80q120 -117 158 -174q71 -101 71 -191q0 -151 -105 -244.5t-275 -93.5q-163 0 -272.5 101.5 t-102.5 247.5zM150 313q0 -103 75.5 -175t184.5 -72q120 0 194.5 67t65.5 168q-4 54 -30.5 101t-86.5 110q-17 21 -61 63l-56 52q-79 -37 -119 -61t-73 -54q-94 -88 -94 -199zM285 1036q0 -51 24.5 -98.5t83.5 -110.5q3 -3 53.5 -50t51.5 -48q118 58 176 113q78 81 78 180 q0 92 -68 152.5t-170 60.5q-97 0 -163 -58t-66 -141z" />
<glyph unicode="9" horiz-adv-x="890" d="M49 -59l29 110q130 34 218.5 79t176.5 122q91 80 146 156.5t102 189.5q-115 -106 -272 -106q-151 0 -248 108.5t-97 278.5q0 184 111.5 310.5t280.5 135.5q171 9 285 -107.5t114 -299.5q0 -209 -84.5 -395.5t-245.5 -334.5q-114 -103 -237.5 -162t-278.5 -85zM223 883 q0 -132 75 -215.5t194 -83.5q126 0 217 88q36 36 36 39q19 60 23 89t4 101q0 142 -75.5 233t-207.5 91q-113 0 -189.5 -98.5t-76.5 -243.5z" />
<glyph unicode=":" horiz-adv-x="331" d="M59 82q3 40 28 68t58 28q31 0 50.5 -21t19.5 -55q0 -44 -27 -74t-65 -28q-32 1 -49 23t-15 59zM166 799q1 40 26.5 68t59.5 28q32 0 51 -21t19 -55q0 -44 -27.5 -74t-65.5 -28q-32 1 -48.5 23t-14.5 59z" />
<glyph unicode=";" horiz-adv-x="335" d="M-137 -297q110 119 175.5 243t96.5 273l101 -12q-52 -300 -291 -545zM166 799q1 40 26.5 68t59.5 28q31 0 50.5 -21t19.5 -55q0 -44 -27.5 -74t-65.5 -28q-32 1 -48.5 23t-14.5 59z" />
<glyph unicode="&#x3c;" horiz-adv-x="700" d="M41 457l348 399l37 -80l-279 -319l185 -320l-64 -78zM311 457l348 399l37 -80l-278 -319l184 -320l-61 -78z" />
<glyph unicode="=" horiz-adv-x="1021" d="M96 457l15 92h833l-14 -92h-834zM141 756l15 92h833l-14 -92h-834z" />
<glyph unicode="&#x3e;" horiz-adv-x="700" d="M2 139l281 320l-185 317l62 80l227 -397l-346 -400zM272 139l281 320l-184 317l61 80l227 -397l-346 -400z" />
<glyph unicode="?" horiz-adv-x="667" d="M106 68q2 26 14 48t31.5 35t41.5 13q31 0 50 -21t19 -55q0 -44 -27 -74t-65 -28q-32 1 -49 23t-15 59zM152 297q10 96 28.5 153.5t55.5 110.5q6 9 11 17q7 10 48 54q5 6 8 9.5t8.5 9t11 11.5t11.5 12q53 55 108 112q73 77 106.5 144t33.5 135q0 88 -59 145.5t-150 57.5 q-49 0 -88.5 -11t-96.5 -40l-12 94q59 32 106 44.5t105 12.5q135 0 226.5 -84.5t91.5 -210.5q0 -94 -45.5 -174.5t-159.5 -187.5q-97 -92 -143.5 -150t-69.5 -116t-35 -148h-100z" />
<glyph unicode="@" horiz-adv-x="2162" d="M172 403q0 217 102 416q129 251 371 391t529 140q133 0 254.5 -29.5t224 -89.5t178 -145t118 -202.5t42.5 -256.5q0 -214 -100 -364.5t-298 -219.5q-124 -43 -231 -43h-164l29 186q-47 -83 -139 -134.5t-189 -51.5q-70 0 -120 27t-77 74.5t-39 103t-12 121.5 q0 90 21.5 178.5t65.5 167t104.5 138.5t144.5 95t180 35q108 0 271 -37l-117 -805h68q105 3 198 49q143 67 217 187.5t74 281.5q0 125 -35.5 230t-100 180t-153.5 127.5t-196 78t-228 25.5q-137 0 -269 -42t-241.5 -120t-193 -181t-130 -233t-46.5 -269q0 -361 188.5 -545 t552.5 -184q279 0 483 90l25 -95q-214 -94 -520 -94q-410 0 -626 206.5t-216 612.5zM764 328q0 -232 170 -232q85 0 168 65t133 150l82 520q-80 17 -146 17q-78 0 -145.5 -31t-114.5 -83.5t-81 -120t-50 -140t-16 -145.5z" />
<glyph unicode="A" horiz-adv-x="1079" d="M-90 0l772 1376h68l284 -1376h-119l-92 471h-534l-258 -471h-121zM340 561h465l-62 311q-4 20 -14.5 77.5t-17.5 92.5q-1 7 -4.5 21.5t-4.5 21.5l-6 39l-8 39l-6 39q-77 -158 -172 -330z" />
<glyph unicode="B" horiz-adv-x="915" d="M41 16l199 1325q23 1 84 6t102 5h47q166 0 266.5 -85.5t100.5 -226.5q0 -74 -31 -141.5t-88 -114.5q-33 -28 -125 -69q135 -46 199.5 -127t64.5 -207q0 -98 -43 -178t-121 -131q-128 -80 -346 -80q-135 0 -309 24zM170 102q111 -18 205 -18q181 0 270 80q43 37 67.5 91 t24.5 110q0 131 -85.5 209.5t-227.5 78.5h-170zM266 743h199q95 0 173.5 85t78.5 188q1 123 -77 188q-70 59 -190 59q-13 0 -26 -1q-7 -1 -23 -2.5t-30 -2.5t-27 -2z" />
<glyph unicode="C" horiz-adv-x="1064" d="M78 563q0 174 77 349.5t203 285.5q92 82 206 126t233 44q101 0 178.5 -22.5t159.5 -77.5l-45 -101q-84 53 -155.5 75t-158.5 22q-155 0 -287 -96t-209 -261t-77 -358q0 -214 111 -340.5t300 -126.5q112 0 205.5 36.5t202.5 121.5l-21 -131q-103 -72 -199.5 -103 t-221.5 -31q-119 0 -226.5 52t-171.5 141q-104 139 -104 395z" />
<glyph unicode="D" horiz-adv-x="1208" d="M41 18l199 1325q14 1 45.5 3t42.5 2q35 2 104 2h53q327 0 514 -171t187 -470q0 -150 -58 -288t-161 -237q-110 -103 -249.5 -148.5t-346.5 -45.5q-129 0 -330 28zM172 113q109 -23 203 -23q176 0 296.5 39.5t209.5 126.5q80 78 129 200t49 242q0 264 -156 408.5 t-442 144.5q-70 0 -119 -2z" />
<glyph unicode="E" horiz-adv-x="854" d="M41 0l201 1343h622l-14 -98h-506l-74 -489h451l-14 -99h-451l-82 -555h631l-33 -102h-731z" />
<glyph unicode="F" horiz-adv-x="733" d="M41 0l201 1343h610l-14 -98h-494l-76 -508h443l-15 -98h-442l-96 -639h-117z" />
<glyph unicode="G" horiz-adv-x="1204" d="M78 590q12 215 110 393.5t255.5 281.5t340.5 103q239 0 404 -123l-51 -98q-102 67 -180.5 92t-186.5 25q-152 0 -283.5 -96.5t-208.5 -260.5t-77 -354q0 -114 33.5 -209.5t93.5 -155.5q54 -52 135.5 -83t165.5 -31q108 0 171.5 18.5t147.5 75.5l58 385h-336l14 98h451 l-78 -532q-109 -77 -213.5 -110.5t-235.5 -33.5q-260 0 -402 165q-129 150 -129 397q0 26 1 53z" />
<glyph unicode="H" horiz-adv-x="1175" d="M41 0l201 1343h116l-88 -587h734l88 587h116l-202 -1343h-117l98 657h-731l-98 -657h-117z" />
<glyph unicode="I" horiz-adv-x="331" d="M41 0l201 1343h116l-200 -1343h-117z" />
<glyph unicode="J" horiz-adv-x="612" d="M-53 39l16 111q99 -71 198 -71l42 3q75 12 112.5 70t57.5 196l149 995h117l-150 -997q-14 -91 -25.5 -136t-31.5 -85q-37 -70 -106.5 -110t-155.5 -40q-123 0 -223 64z" />
<glyph unicode="K" horiz-adv-x="999" d="M35 0l201 1343h116l-96 -651l705 672l112 -31l-631 -596l504 -737h-137l-451 670l-125 -123l-81 -547h-117z" />
<glyph unicode="L" horiz-adv-x="788" d="M41 0l201 1343h116l-184 -1241h563l-35 -102h-661z" />
<glyph unicode="M" horiz-adv-x="1536" d="M-49 0l500 1362h69l162 -883q30 -157 49 -321q55 120 158 321l457 883h69l35 -1362h-113l-16 827q0 19 -1 73t-1 85v145q-70 -156 -148 -303l-428 -827h-75l-154 829q-4 20 -51 306q-56 -181 -101 -306l-301 -829h-110z" />
<glyph unicode="N" d="M41 0l201 1341l57 19l537 -860q87 -142 182 -314q20 184 39 310l125 847h106l-201 -1347l-57 -19l-536 861q-9 15 -27.5 45t-23 37t-18 29t-16.5 27.5t-14.5 24.5t-16.5 28.5t-17.5 31.5t-22.5 40.5t-27 49.5q-19 -182 -37 -307l-127 -844h-106z" />
<glyph unicode="O" d="M78 524q0 163 47 313t135 269q185 247 475 262q16 1 32 1q202 -1 335 -143q143 -154 143 -405q0 -235 -88.5 -429t-243 -305.5t-342.5 -111.5q-224 0 -358.5 149.5t-134.5 399.5zM203 520q0 -195 107 -318.5t276 -123.5q107 0 206.5 55t165.5 150q72 104 117 247t45 267 q0 217 -105.5 344t-285.5 127q-144 0 -265 -99.5t-191 -271.5t-70 -377z" />
<glyph unicode="P" horiz-adv-x="839" d="M39 0l201 1341q138 9 200 9q220 0 332.5 -93t112.5 -276q0 -86 -38 -166.5t-104 -136.5q-61 -51 -152.5 -79t-193.5 -28h-75q-2 0 -80 4l-86 -575h-117zM258 678q53 -10 129 -10q184 0 275 82q46 40 73 101.5t27 125.5q0 139 -91 211q-82 65 -225 66q-16 0 -32 -1 q-18 0 -72 -4z" />
<glyph unicode="Q" horiz-adv-x="1265" d="M78 524q0 165 55 320.5t146 270t215 184t256 69.5q138 0 235 -45.5t166 -142.5q98 -143 98 -359q0 -228 -96 -430t-258 -315q206 -185 549 -291l-125 -76q-166 57 -289.5 132t-230.5 184q-124 -50 -234 -50q-226 0 -356.5 147.5t-130.5 401.5zM203 520q0 -198 105 -320 t274 -122q106 0 205 55t167 150q79 110 124.5 254.5t45.5 285.5q0 196 -107 320.5t-274 124.5q-145 0 -269.5 -101t-197.5 -273.5t-73 -373.5z" />
<glyph unicode="R" horiz-adv-x="970" d="M41 0l201 1341q153 9 207 9q205 0 314 -93t109 -268q0 -85 -41.5 -164.5t-113.5 -130.5q-32 -25 -66 -40.5t-96 -35.5l377 -618h-139l-351 592h-196l-88 -592h-117zM260 684h209q104 0 192.5 93.5t88.5 203.5q0 137 -84 207q-43 38 -96.5 53.5t-141.5 15.5q-20 0 -82 -4z " />
<glyph unicode="S" horiz-adv-x="794" d="M-35 125l21 137q156 -184 352 -184q123 0 198.5 72.5t75.5 189.5q0 35 -9 66.5t-21.5 54t-37 49t-42.5 43t-51 43.5q-17 13 -51.5 42t-45.5 38q-123 100 -167 172.5t-44 175.5q0 141 108 242.5t259 101.5q161 0 295 -94l-41 -107q-78 51 -137.5 73t-122.5 22 q-67 0 -121 -28.5t-86 -79.5t-35 -116v-11q0 -69 36 -123q40 -58 155 -150q71 -57 109 -89.5t57.5 -52.5t39.5 -45q76 -98 76 -211q0 -173 -112 -277t-299 -104q-186 0 -359 150z" />
<glyph unicode="T" horiz-adv-x="999" d="M133 1245l14 98h969l-16 -98h-424l-187 -1245h-116l186 1245h-426z" />
<glyph unicode="U" horiz-adv-x="1171" d="M100 356q0 65 21 205l117 782h116l-121 -802q-12 -84 -12 -181q0 -123 92.5 -202.5t233.5 -79.5q111 0 194 39t129 112q38 60 57.5 130.5t47.5 248.5l108 735h117l-117 -780q-26 -182 -50 -259.5t-75 -143.5q-66 -89 -175.5 -137t-247.5 -48q-190 0 -312.5 107.5 t-122.5 273.5z" />
<glyph unicode="V" horiz-adv-x="1116" d="M137 1329l111 29l180 -891q27 -127 57 -324q77 163 166 324l486 891l106 -29l-733 -1329h-94z" />
<glyph unicode="W" horiz-adv-x="1624" d="M133 1329l113 29l151 -893q29 -171 45 -326q60 130 142 285l225 432l-86 473l111 29l149 -881q22 -142 45 -327q74 166 158 327l465 881l104 -29l-706 -1329h-93l-122 717l-375 -717h-90z" />
<glyph unicode="X" horiz-adv-x="1040" d="M-68 14l562 697l-322 618l109 35l286 -563l449 565l102 -37l-502 -624l359 -691l-107 -34l-325 634l-504 -634z" />
<glyph unicode="Y" horiz-adv-x="989" d="M129 1329l117 29l276 -635l492 637l108 -31l-555 -706l-92 -623h-117l93 623z" />
<glyph unicode="Z" horiz-adv-x="1013" d="M-57 45l972 1200h-722l16 98h860l21 -45l-969 -1196h827l-16 -102h-969z" />
<glyph unicode="[" horiz-adv-x="471" d="M35 -100l231 1546h336l-22 -80h-224l-206 -1386h233l-23 -80h-325z" />
<glyph unicode="]" horiz-adv-x="477" d="M-61 -100l22 80h223l207 1386h-233l22 80h326l-232 -1546h-335z" />
<glyph unicode="^" horiz-adv-x="1079" d="M-90 0l772 1376h68l284 -1376h-119l-92 471h-534l-258 -471h-121zM340 561h465l-123 621zM387 1305q0 39 24.5 66.5t59.5 27.5q29 0 46.5 -19t17.5 -53q0 -41 -23.5 -68.5t-58.5 -27.5q-31 0 -48.5 19.5t-17.5 54.5zM870 1305q0 39 24.5 66.5t59.5 27.5q29 0 46.5 -19 t17.5 -53q0 -41 -23.5 -68.5t-58.5 -27.5q-31 0 -48.5 19.5t-17.5 54.5z" />
<glyph unicode="_" horiz-adv-x="813" d="M-113 -289l9 47h813l-9 -47h-813z" />
<glyph unicode="`" horiz-adv-x="0" d="M-61 1376l106 17l133 -289l-72 -14z" />
<glyph unicode="a" horiz-adv-x="813" d="M31 219q0 145 38 275t103.5 223.5t156.5 148t193 54.5q62 0 106 -6.5t122 -26.5l-74 -504q-23 -152 -23 -211q0 -104 72 -104q2 0 13 1t18 1l-23 -78q-20 -4 -49 -4q-72 0 -106 52q-26 41 -27 113q0 19 2 40l8 86q-40 -83 -67 -125.5t-64 -79.5q-88 -91 -194 -97h-12 q-80 0 -134 64q-58 69 -59 178zM143 213q3 -73 39 -111q31 -33 76 -32h14q96 13 174 120q47 58 125 216l62 409q-68 15 -121 15q-16 0 -31 -1q-192 -21 -282 -274q-57 -159 -57 -303q0 -19 1 -39z" />
<glyph unicode="b" horiz-adv-x="788" d="M45 63l207 1383h106l-125 -815q53 104 109 174q41 51 98 82t111 31q100 0 152.5 -65.5t52.5 -188.5q0 -218 -90 -406q-70 -149 -183 -221q-94 -60 -203 -60q-23 0 -47 3q-58 6 -98 24t-90 59zM158 102q66 -42 129 -43q10 0 20 2q98 9 165 72.5t114 192.5q26 71 43.5 160 t17.5 153q-1 97 -35 145q-30 41 -84 42q-8 0 -16 -1q-84 -9 -160 -104q-54 -68 -135 -232z" />
<glyph unicode="c" horiz-adv-x="630" d="M45 313q0 100 30.5 210.5t82.5 197.5q54 92 127.5 144.5t158.5 58.5q11 1 22 1q123 0 193 -124l-77 -62q-32 51 -66 71q-29 17 -68 17h-12q-110 -6 -184 -135q-42 -77 -68 -178t-26 -188q0 -256 151 -256q130 0 228 139l45 -64q-57 -83 -127.5 -126.5t-147.5 -43.5 q-127 0 -194.5 87t-67.5 251z" />
<glyph unicode="d" horiz-adv-x="817" d="M31 219q0 145 38 274.5t103.5 222.5t156.5 147.5t193 54.5q64 0 123 -15l82 543h107l-158 -1063q-23 -152 -23 -211q0 -104 72 -104q2 0 13 1t18 1l-23 -78q-20 -4 -49 -4q-72 0 -106 52q-26 41 -27 113q0 19 2 40l8 86q-40 -83 -67 -125.5t-64 -79.5q-88 -91 -194 -97 h-12q-80 0 -134 64q-58 69 -59 178zM143 213q3 -73 39 -111q31 -33 76 -32h14q96 13 174 120q47 58 125 216l60 407q-69 14 -117 14q-18 0 -33 -2q-192 -21 -282 -270q-57 -159 -57 -303q0 -19 1 -39z" />
<glyph unicode="e" horiz-adv-x="667" d="M45 338q0 60 17.5 141t43.5 144q57 138 154 219.5t203 81.5q97 0 151 -51q48 -45 49 -116q0 -9 -1 -18q-10 -117 -134.5 -215t-371.5 -184q-2 -12 -2 -37q0 -101 45 -165t120 -68h12q59 0 115 36q62 40 136 132l43 -58q-133 -205 -332 -205q-64 0 -117.5 32t-85.5 89 q-26 44 -35.5 97t-9.5 145zM160 408q116 46 217 106q94 57 136.5 108.5t45.5 112.5v6q-1 41 -27 67q-28 28 -77 28q-59 0 -118 -45t-101 -121q-32 -61 -47 -113.5t-29 -148.5z" />
<glyph unicode="f" horiz-adv-x="466" d="M-221 -432q28 -4 33 -4h15q41 0 81 13q47 16 76 46q45 45 69 121.5t49 251.5l115 815h-176l12 84h174l15 104q21 138 36.5 197t45.5 107q49 82 147 123q63 26 134 26q40 0 83 -8l-14 -84q-28 4 -33 4q-14 1 -27 1q-41 0 -80 -11q-51 -15 -83 -45q-40 -39 -60.5 -99.5 t-40.5 -203.5l-14 -111h211l-12 -84h-211l-103 -737q-34 -237 -62.5 -335.5t-80.5 -156.5q-51 -57 -127 -85q-58 -21 -114 -21q-18 0 -36 2q-2 0 -22 4v86z" />
<glyph unicode="g" horiz-adv-x="747" d="M-127 -287q0 63 43 121t119 100q53 31 162 70q-78 34 -105 60q-24 22 -24 57v8q1 35 24 59t107 80q-133 72 -133 246q0 167 97.5 286.5t235.5 119.5q80 0 132 -28t87 -91q99 137 201 137q19 0 31 -2l-14 -102h-25q-88 0 -168 -80q13 -52 13 -107q0 -11 -1 -22 q-11 -173 -113 -282q-93 -98 -217 -98q-14 0 -28 1q-7 0 -39 4q-53 -38 -68 -56t-14 -40q1 -19 17.5 -33t56.5 -31l217 -94q105 -48 150 -97.5t45 -119.5q0 -135 -122 -232.5t-292 -97.5q-169 0 -272 72t-103 192zM-18 -279q0 -82 76 -134t196 -52q132 0 216.5 62.5 t84.5 160.5q0 56 -42 91t-175 92q-24 10 -55 24l-27 10q-139 -60 -186 -98q-88 -73 -88 -156zM178 520q0 -94 37 -147t104 -56h10q82 0 141 79q61 85 71 227q1 15 1 28q0 81 -35 133q-41 60 -116 60q-88 0 -150.5 -95.5t-62.5 -228.5z" />
<glyph unicode="h" horiz-adv-x="788" d="M37 0l217 1446h106l-129 -830q83 160 157 229t169 75q9 1 17 1q76 1 118 -51q40 -48 40 -131q0 -14 -1 -30q-3 -47 -12 -99l-90 -610h-109l90 602q11 64 11 103q0 61 -21.5 88.5t-67.5 27.5q-82 0 -155.5 -80t-159.5 -262l-72 -479h-108z" />
<glyph unicode="i" horiz-adv-x="313" d="M35 0l133 895h108l-133 -895h-108zM197 1231q0 39 24.5 66.5t59.5 27.5q29 0 46 -19t17 -53q0 -41 -23.5 -68.5t-58.5 -27.5q-31 0 -48 19.5t-17 54.5z" />
<glyph unicode="j" horiz-adv-x="313" d="M-305 -426q46 -4 61 -4q89 0 139.5 40.5t84 140t61.5 294.5l127 850h108l-126 -842q-34 -227 -68.5 -330t-97.5 -161q-88 -82 -232 -82q-11 0 -57 4v90zM197 1231q0 39 24.5 66.5t59.5 27.5q29 0 46 -19t17 -53q0 -41 -23.5 -68.5t-58.5 -27.5q-31 0 -48 19.5t-17 54.5z " />
<glyph unicode="k" horiz-adv-x="751" d="M35 0l217 1446h106l-135 -864q33 55 48 79t48.5 73.5t58 74.5t59.5 55t71.5 43t75.5 13q79 0 125.5 -47.5t46.5 -129.5q0 -36 -19 -81.5t-47 -79.5q-47 -54 -99 -94t-165 -109l250 -379h-129l-244 381q192 114 270 193t78 159q0 44 -29 71q-25 24 -62 24q-5 0 -11 -1 q-73 -6 -150 -89t-190 -277l-68 -461h-106z" />
<glyph unicode="l" horiz-adv-x="313" d="M35 0l215 1446h108l-215 -1446h-108z" />
<glyph unicode="m" horiz-adv-x="1255" d="M41 0l80 535q21 149 21 234q0 17 -1 32q-3 42 -24 86l94 31q20 -26 27.5 -60.5t7.5 -85.5v-27q0 -10 -2 -24q0 -31 -6 -86q86 156 157.5 220.5t157.5 64.5q161 0 161 -179q0 -15 -1 -32q-4 -46 -6 -82q51 102 101.5 166.5t104 95.5t113.5 31q86 0 128 -47t42 -144 q0 -30 -8 -96l-94 -633h-109l88 586q0 2 1 5q4 31 6 47t4 44.5t0 44.5t-7.5 36.5t-15.5 31t-27.5 18.5t-40.5 8q-75 0 -142.5 -73.5t-154.5 -247.5l-75 -500h-107l86 575q9 68 12 125v14q0 108 -85 108q-6 0 -13 -1q-76 -7 -140.5 -78t-150.5 -243l-73 -500h-109z" />
<glyph unicode="n" horiz-adv-x="798" d="M41 0l80 535q19 125 19 220q0 24 -1 46q-3 44 -22 86l94 31q33 -45 33 -117v-43q0 -52 -8 -140q83 157 157 226t168 76q9 1 17 1q77 1 119 -51q39 -47 39 -129q0 -15 -1 -32q-3 -47 -12 -99l-90 -610h-109l90 602q11 64 11 103q-1 65 -25 93q-21 23 -64 24q-8 0 -16 -1 q-74 -6 -144 -86t-157 -256l-69 -479h-109z" />
<glyph unicode="o" horiz-adv-x="759" d="M45 332q0 141 56 285.5t141 220.5q100 86 227 86q121 0 185.5 -90t64.5 -259q0 -115 -35.5 -235t-97.5 -211q-103 -154 -287 -154q-124 0 -189 91t-65 266zM156 328q0 -134 40.5 -198t125.5 -64q119 0 188 124q98 173 98 385q0 259 -174 259q-74 0 -138 -69t-102 -186 t-38 -251z" />
<glyph unicode="p" horiz-adv-x="839" d="M-39 180l16 111q29 -35 48 -52t86 -73l125 844l102 18l-66 -414q66 121 111 181q92 121 211 127h14q96 0 149 -77q49 -72 49 -192q0 -19 -1 -39q-9 -157 -64.5 -297t-144.5 -231q-52 -55 -127 -84q-62 -23 -125 -23q-14 0 -27 1q-48 2 -122 30l-84 -561h-109l92 623 q-48 31 -73 51.5t-60 56.5zM209 102q41 -23 68 -31t67 -8q92 0 166 66t121 190q64 168 64 318q0 31 -3 61q-6 66 -40 101q-31 31 -76 31q-6 0 -13 -1q-46 -5 -84 -30.5t-82 -83.5q-71 -95 -133 -230z" />
<glyph unicode="q" horiz-adv-x="788" d="M31 219q0 145 38 275t103.5 223.5t156.5 148t193 54.5q62 0 106 -6.5t122 -26.5l-215 -1438h-107l125 813q-74 -148 -147 -214.5t-170 -70.5h-12q-80 0 -134 64q-59 69 -59 178zM143 213q5 -50 25.5 -87.5t50.5 -49.5q19 -7 40 -7q28 0 61 13q58 22 100 74q38 43 65.5 90 t85.5 160l62 409q-68 15 -121 15q-16 0 -31 -1q-192 -21 -282 -274q-58 -161 -58 -295q0 -24 2 -47z" />
<glyph unicode="r" horiz-adv-x="536" d="M41 0l80 535q19 125 19 220q0 24 -1 46q-3 44 -22 86l94 31q27 -32 33 -96q3 -35 3 -67q0 -25 -2 -49q-5 -52 -18 -133q88 185 155 261.5t150 83.5q6 1 12 1q29 0 62 -12l-33 -108q-26 5 -47 5q-9 0 -18 -1q-47 -6 -91 -44t-95 -116q-65 -106 -107 -194l-65 -449h-109z " />
<glyph unicode="s" horiz-adv-x="536" d="M-57 63l28 103q102 -94 211 -94q83 0 130.5 45t47.5 125q0 24 -6.5 45t-21.5 41.5t-26.5 33t-35.5 36.5l-10 10q-8 7 -25.5 23.5t-25.5 23.5q-69 65 -96 113.5t-27 109.5q0 100 79 172t189 72q87 0 174 -43l-14 -101q-86 51 -166 51q-46 0 -80.5 -17t-53.5 -48.5 t-19 -73.5q0 -38 19.5 -69.5t74.5 -83.5q87 -81 137 -140q49 -60 49 -139q0 -119 -85.5 -200t-209.5 -81q-125 0 -237 86z" />
<glyph unicode="t" horiz-adv-x="550" d="M31 811l10 70l98 4q65 2 91.5 24t41.5 86l29 127h66l-35 -227h227l-12 -84h-228l-77 -526q-11 -64 -11 -101q0 -112 111 -112q69 0 150 41l20 -76q-103 -57 -217 -57q-86 0 -133 51q-42 45 -42 120q0 9 1 19q3 61 14 121l78 520h-182z" />
<glyph unicode="u" horiz-adv-x="806" d="M63 174q2 42 13 111l90 610h108l-92 -621q-8 -55 -8 -106q0 -44 26 -70q25 -25 62 -24h6q71 5 137 78t162 256l74 487h107l-76 -512q-21 -135 -21 -211q0 -104 70 -104q21 0 33 2l-25 -78q-20 -4 -49 -4q-72 0 -106 53q-27 42 -27 113q0 19 2 39l8 86q-46 -90 -76.5 -137 t-64.5 -79q-88 -88 -195 -88q-82 0 -123 52q-36 45 -36 123q0 12 1 24z" />
<glyph unicode="v" horiz-adv-x="686" d="M68 883l104 30l82 -557q10 -68 25 -200q9 19 28.5 59.5t38.5 80t29 60.5l278 557l95 -30l-459 -883h-82z" />
<glyph unicode="w" horiz-adv-x="1101" d="M68 883l104 30l86 -573q14 -87 29 -205q66 136 104 209l133 254l-45 285l105 30l84 -555q14 -95 24 -202l13 24l10 25l12 22q17 36 33.5 71.5t27.5 59.5l281 555l94 -30l-461 -883h-81l-78 492l-254 -492h-78z" />
<glyph unicode="x" horiz-adv-x="667" d="M-63 12l342 467l-185 404l99 30l151 -346l250 346l90 -30l-301 -406l213 -465l-98 -30l-179 407l-290 -407z" />
<glyph unicode="y" horiz-adv-x="690" d="M-254 -424q37 -5 70 -5q113 0 176 60q117 107 233 340l33 64l-188 848l106 30l115 -555q29 -160 35 -198q23 54 33.5 79t23 52t29.5 67l243 555l97 -30l-365 -787q-52 -115 -129 -256q-114 -204 -206 -283t-218 -79q-29 0 -84 8z" />
<glyph unicode="z" horiz-adv-x="606" d="M-53 41l551 770h-404l12 84h517l18 -43l-545 -762h449l-13 -90h-567z" />
<glyph unicode="{" d="M78 524q0 163 47 313t135 269q185 247 475 262q224 12 367 -141.5t143 -405.5q0 -235 -88.5 -429t-243 -305.5t-342.5 -111.5q-224 0 -358.5 149.5t-134.5 399.5zM203 520q0 -195 107 -318.5t276 -123.5q107 0 206.5 55t165.5 150q72 104 117 247t45 267 q0 217 -105.5 344t-285.5 127q-144 0 -265 -99.5t-191 -271.5t-70 -377zM231 1305q0 39 24.5 66.5t59.5 27.5q29 0 46.5 -19t17.5 -53q0 -41 -23.5 -68.5t-58.5 -27.5q-31 0 -48.5 19.5t-17.5 54.5zM1118 1305q0 39 24.5 66.5t59.5 27.5q29 0 46.5 -19t17.5 -53 q0 -41 -23.5 -68.5t-58.5 -27.5q-31 0 -48.5 19.5t-17.5 54.5z" />
<glyph unicode="}" horiz-adv-x="1171" d="M100 356q0 65 21 205l117 782h116l-121 -802q-12 -84 -12 -181q0 -123 92.5 -202.5t233.5 -79.5q111 0 194 39t129 112q38 60 57.5 130.5t47.5 248.5l108 735h117l-117 -780q-26 -182 -50 -259.5t-75 -143.5q-66 -89 -175.5 -137t-247.5 -48q-190 0 -312.5 107.5 t-122.5 273.5zM463 1305q0 39 24.5 66.5t59.5 27.5q29 0 46 -19t17 -53q0 -41 -23.5 -68.5t-58.5 -27.5q-31 0 -48 19.5t-17 54.5zM811 1305q0 39 24.5 66.5t59.5 27.5q29 0 46 -19t17 -53q0 -41 -23 -68.5t-58 -27.5q-31 0 -48.5 19.5t-17.5 54.5z" />
<glyph unicode="~" horiz-adv-x="1079" d="M-90 0l643 1145q-38 53 -29 127q9 75 64.5 127.5t126.5 52.5t112.5 -49.5t34.5 -124.5q-6 -81 -63 -135l235 -1143h-119l-92 471h-534l-258 -471h-121zM340 561h465l-107 533q-12 -2 -28 -2q-21 0 -37 4zM594 1268q-3 -50 20.5 -82.5t63.5 -32.5q45 0 78 34.5t37 88.5 q5 47 -19.5 80t-64.5 33q-46 0 -78 -34t-37 -87z" />
<glyph unicode="&#xa1;" horiz-adv-x="368" d="M27 0l190 1047h74l-131 -1047h-133zM205 1255q0 46 25.5 74.5t66.5 28.5q31 0 48.5 -23.5t14.5 -58.5q-3 -41 -27.5 -68.5t-58.5 -27.5q-31 0 -50 20.5t-19 54.5z" />
<glyph unicode="&#xa2;" horiz-adv-x="624" d="M72 510q0 141 48 273t129.5 220.5t176.5 108.5l29 201h88l-29 -193q59 -6 98.5 -34.5t73.5 -88.5l-78 -61q-34 51 -66.5 71t-78.5 17q-110 -6 -184 -135q-42 -78 -68.5 -179t-26.5 -188q0 -256 152 -256q128 0 227 140l45 -64q-99 -143 -235 -166l-29 -196h-88l29 196 q-100 12 -156.5 100t-56.5 234z" />
<glyph unicode="&#xa3;" horiz-adv-x="905" d="M-49 33q123 163 180 261t119 253h-223l12 88h246q18 54 57 160.5t45 122.5q89 225 244 317q113 68 221 68q65 0 119 -11l-15 -100q-51 10 -96 10q-110 0 -197 -62t-141 -179q-40 -84 -84 -209l-14 -39l-12 -39l-15 -39h348l-12 -88h-366q-49 -129 -95 -214.5t-141 -223.5 q108 -17 158.5 -21t181.5 -4q123 0 299 33q33 8 78 16l-37 -110q-17 -2 -42 -6t-32 -5q-144 -24 -309 -24q-139 0 -232.5 8.5t-244.5 36.5z" />
<glyph unicode="&#xa4;" horiz-adv-x="1021" d="M61 311l89 76q10 10 90 74q-45 74 -45 162q0 140 108 262q-7 7 -33 36t-37 37l-63 76l78 70l65 -78q5 -5 13 -15t15 -20t17 -22.5t17 -20.5q109 72 227 72q110 0 197 -72q11 9 29.5 27t33 31.5t23.5 19.5l86 78l59 -70l-88 -76q-31 -21 -90 -73q45 -74 45 -162 q0 -139 -109 -262q8 -9 34.5 -36t33.5 -38l66 -76l-78 -67l-66 75q-7 11 -61 80q-106 -73 -225 -73q-116 0 -201 73l-41 -41q-40 -36 -43 -39l-88 -75zM287 637q0 -95 62 -158t157 -63q78 0 148 41t111.5 109t41.5 145q0 94 -62.5 156.5t-156.5 62.5q-59 0 -114.5 -24 t-96.5 -64t-65.5 -94t-24.5 -111z" />
<glyph unicode="&#xa7;" horiz-adv-x="700" d="M-145 -350l51 63q88 -64 166 -69q54 -5 88.5 27.5t38.5 92.5q5 49 -2 134q-9 91 -13.5 133t-11.5 112l-45 461q-10 92 -10 191q0 165 72 318t190.5 247t245.5 94q52 0 86 -8t75 -31l-12 -86q-47 28 -78.5 38.5t-68.5 12.5q-66 3 -94.5 -43t-20.5 -143q7 -98 16 -178 l4 -49l7 -49q6 -70 14 -151t17.5 -173t15.5 -150q14 -140 14 -213q0 -238 -123 -417q-78 -117 -183.5 -180.5t-221.5 -63.5q-61 0 -111 18.5t-106 61.5zM223 874q-7 -116 4 -215l47 -489l7 -64q14 -139 16 -178q4 -78 -2.5 -120t-30.5 -123q40 36 61 58t44 54q59 82 93 180 t34 187v74q-4 87 -11 145l-47 446q-12 123 -18 240q-4 91 1.5 141.5t29.5 126.5q-98 -83 -158.5 -205.5t-69.5 -257.5z" />
<glyph unicode="&#xa8;" horiz-adv-x="0" d="M-113 1233q3 38 25 64t53 26q28 0 45 -17t17 -46q0 -44 -23.5 -73t-58.5 -28q-29 1 -44.5 21t-13.5 53zM190 1233q3 38 25 64t53 26q28 0 45 -17t17 -46q0 -44 -23.5 -73t-58.5 -28q-29 1 -44.5 21t-13.5 53z" />
<glyph unicode="&#xab;" horiz-adv-x="700" d="M41 457l348 399l37 -80l-279 -319l185 -320l-64 -78zM311 457l348 399l37 -80l-278 -319l184 -320l-61 -78z" />
<glyph unicode="&#xad;" horiz-adv-x="489" d="M45 434l21 101h387l-21 -101h-387z" />
<glyph unicode="&#xaf;" horiz-adv-x="0" d="M-119 1198l21 86h428l-21 -86h-428z" />
<glyph unicode="&#xb4;" horiz-adv-x="0" d="M-29 1106l262 289l121 -19l-303 -286z" />
<glyph unicode="&#xb6;" horiz-adv-x="1073" d="M16 1020q0 91 48 167t131 116q49 23 102 31.5t143 8.5h529v-49h-248v-1697h-47v1697h-197v-1697h-47v1105q-93 -1 -147 9t-105 37q-75 43 -118.5 115.5t-43.5 156.5z" />
<glyph unicode="&#xb8;" horiz-adv-x="0" d="M-258 -406q156 167 219 320l88 -23q-31 -85 -95.5 -176.5t-143.5 -163.5z" />
<glyph unicode="&#xbb;" horiz-adv-x="700" d="M2 139l281 320l-185 317l62 80l227 -397l-346 -400zM272 139l281 320l-184 317l61 80l227 -397l-346 -400z" />
<glyph unicode="&#xbf;" horiz-adv-x="667" d="M25 279q0 94 45 174.5t159 187.5q140 132 185.5 208t62.5 206h101q-10 -96 -28.5 -153.5t-55.5 -110.5q-5 -8 -11 -16q-6 -10 -35 -41q-29 -30 -53 -56q-53 -54 -108 -113q-73 -77 -106.5 -143.5t-33.5 -134.5q0 -88 59 -145.5t150 -57.5q49 0 88.5 11t96.5 40l12 -94 q-59 -32 -106 -44.5t-105 -12.5q-135 0 -226 84.5t-91 210.5zM467 1264q0 44 27 74t65 28q32 -1 49 -23t15 -59q-3 -40 -28 -68t-58 -28q-31 0 -50.5 21t-19.5 55z" />
<glyph unicode="&#xc0;" horiz-adv-x="1079" d="M-90 0l772 1376h68l284 -1376h-119l-92 471h-534l-258 -471h-121zM340 561h465l-62 311q-4 20 -14.5 77.5t-17.5 92.5q-1 7 -4.5 21.5t-4.5 21.5l-6 39l-8 39l-6 39q-77 -158 -172 -330zM561 1669l107 17l133 -289l-72 -13z" />
<glyph unicode="&#xc1;" horiz-adv-x="1079" d="M-90 0l772 1376h68l284 -1376h-119l-92 471h-534l-258 -471h-121zM340 561h465l-62 311q-4 20 -14.5 77.5t-17.5 92.5q-1 7 -4.5 21.5t-4.5 21.5l-6 39l-8 39l-6 39q-77 -158 -172 -330zM594 1399l262 289l121 -19l-303 -287z" />
<glyph unicode="&#xc2;" horiz-adv-x="1079" d="M-90 0l772 1376h68l284 -1376h-119l-92 471h-534l-258 -471h-121zM340 561h465l-62 311q-4 20 -14.5 77.5t-17.5 92.5q-1 7 -4.5 21.5t-4.5 21.5l-6 39l-8 39l-6 39q-77 -158 -172 -330zM459 1405l268 278h61l136 -278l-84 -16l-99 210l-194 -210z" />
<glyph unicode="&#xc3;" horiz-adv-x="1079" d="M-90 0l772 1376h68l284 -1376h-119l-92 471h-534l-258 -471h-121zM340 561h465l-62 311q-4 20 -14.5 77.5t-17.5 92.5q-1 7 -4.5 21.5t-4.5 21.5l-6 39l-8 39l-6 39q-77 -158 -172 -330zM481 1470l19 95q16 16 31.5 28t28 20t26.5 11.5t24.5 5t24.5 -1.5t23 -5.5 t24.5 -10.5t25 -13t27.5 -15.5t29 -16.5q45 -25 80 -25q27 0 58 17.5t81 60.5l-16 -94q-38 -37 -68.5 -52.5t-62.5 -15.5q-23 0 -62 17q-8 3 -88 45q-53 24 -80.5 24t-56 -17t-68.5 -57z" />
<glyph unicode="&#xc4;" horiz-adv-x="1079" d="M-90 0l772 1376h68l284 -1376h-119l-92 471h-534l-258 -471h-121zM340 561h465l-62 311q-4 20 -14.5 77.5t-17.5 92.5q-1 7 -4.5 21.5t-4.5 21.5l-6 39l-8 39l-6 39q-77 -158 -172 -330zM510 1528q3 38 25 64t53 26q28 0 44.5 -17.5t16.5 -46.5q0 -44 -23.5 -72.5 t-58.5 -27.5q-29 1 -44 21t-13 53zM813 1528q3 38 25 64t53 26q28 0 44.5 -17.5t16.5 -46.5q0 -44 -23.5 -72.5t-58.5 -27.5q-29 1 -44 21t-13 53z" />
<glyph unicode="&#xc5;" horiz-adv-x="1079" d="M-90 0l764 1360q-131 37 -113 176q9 75 64.5 127.5t126.5 52.5t112.5 -49.5t34.5 -124.5q-6 -67 -43.5 -113.5t-101.5 -66.5l280 -1362h-119l-92 471h-534l-258 -471h-121zM340 561h465l-62 311q-3 17 -13.5 73.5t-18.5 96.5q-3 23 -9 43l-6 39l-8 41l-6 39 q-85 -175 -172 -332zM631 1532q-4 -49 20 -82t64 -33q45 0 77.5 34.5t36.5 88.5q5 47 -19.5 80t-64.5 33q-46 0 -77.5 -34t-36.5 -87z" />
<glyph unicode="&#xc6;" horiz-adv-x="1638" d="M-90 0l1055 1343h680l-15 -98h-506l-73 -489h450l-14 -99h-451l-82 -555h631l-33 -102h-731l72 473h-485l-367 -473h-131zM479 563h426l103 684z" />
<glyph unicode="&#xc7;" horiz-adv-x="1064" d="M78 563q0 174 77 349.5t203 285.5q92 82 206 126t233 44q101 0 178.5 -22.5t159.5 -77.5l-45 -101q-84 53 -155.5 75t-158.5 22q-155 0 -287 -96t-209 -261t-77 -358q0 -214 111 -340.5t300 -126.5q112 0 205.5 36.5t202.5 121.5l-21 -131q-103 -72 -199.5 -103 t-221.5 -31q-119 0 -226.5 52t-171.5 141q-104 139 -104 395zM274 -406q158 169 220 320l88 -23q-31 -85 -96 -177t-146 -163z" />
<glyph unicode="&#xc8;" horiz-adv-x="854" d="M41 0l201 1343h622l-14 -98h-506l-74 -489h451l-14 -99h-451l-82 -555h631l-33 -102h-731zM436 1669l107 17l133 -289l-72 -13z" />
<glyph unicode="&#xc9;" horiz-adv-x="854" d="M41 0l201 1343h622l-14 -98h-506l-74 -489h451l-14 -99h-451l-82 -555h631l-33 -102h-731zM469 1399l262 289l119 -19l-301 -287z" />
<glyph unicode="&#xca;" horiz-adv-x="854" d="M41 0l201 1343h622l-14 -98h-506l-74 -489h451l-14 -99h-451l-82 -555h631l-33 -102h-731zM334 1405l266 278h64l135 -278l-84 -16l-99 210l-194 -210z" />
<glyph unicode="&#xcb;" horiz-adv-x="854" d="M41 0l201 1343h622l-14 -98h-506l-74 -489h451l-14 -99h-451l-82 -555h631l-33 -102h-731zM385 1528q3 38 25 64t53 26q28 0 44.5 -17.5t16.5 -46.5q0 -44 -23.5 -72.5t-58.5 -27.5q-29 1 -44 21t-13 53zM688 1528q3 38 25 64t53 26q28 0 44.5 -17.5t16.5 -46.5 q0 -44 -23.5 -72.5t-58.5 -27.5q-29 1 -44 21t-13 53z" />
<glyph unicode="&#xcc;" horiz-adv-x="331" d="M41 0l201 1343h116l-200 -1343h-117zM174 1669l107 17l133 -289l-72 -13z" />
<glyph unicode="&#xcd;" horiz-adv-x="331" d="M41 0l201 1343h116l-200 -1343h-117zM207 1399l262 289l121 -19l-301 -287z" />
<glyph unicode="&#xce;" horiz-adv-x="331" d="M41 0l201 1343h116l-200 -1343h-117zM72 1405l268 278h61l136 -278l-84 -16l-99 210l-194 -210z" />
<glyph unicode="&#xcf;" horiz-adv-x="331" d="M41 0l201 1343h116l-200 -1343h-117zM123 1528q3 38 25 64t53 26q28 0 44.5 -17.5t16.5 -46.5q0 -45 -23.5 -73.5t-58.5 -26.5q-29 1 -44 21t-13 53zM426 1528q3 38 25 64t53 26q28 0 44.5 -17.5t16.5 -46.5q0 -44 -23.5 -72.5t-58.5 -27.5q-29 1 -44 21t-13 53z" />
<glyph unicode="&#xd1;" d="M41 0l201 1341l57 19l537 -860q87 -142 182 -314q20 184 39 310l125 847h106l-201 -1347l-57 -19l-536 861q-9 15 -27.5 45t-23 37t-18 29t-16.5 27.5t-14.5 24.5t-16.5 28.5t-17.5 31.5t-22.5 40.5t-27 49.5q-19 -182 -37 -307l-127 -844h-106zM559 1470l16 95 q19 18 35.5 31t32.5 19.5t28 11t28 2.5t25.5 -3.5t27.5 -9.5t27 -13t30.5 -17.5t32.5 -18.5q45 -25 78 -25q29 0 60 17.5t81 60.5l-17 -94q-38 -37 -68.5 -52.5t-62.5 -15.5q-21 0 -63 17q-6 2 -88 45q-49 24 -80 24q-27 0 -55 -17t-68 -57z" />
<glyph unicode="&#xd2;" d="M78 524q0 163 47 313t135 269q185 247 475 262q224 12 367 -141.5t143 -405.5q0 -235 -88.5 -429t-243 -305.5t-342.5 -111.5q-224 0 -358.5 149.5t-134.5 399.5zM203 520q0 -195 107 -318.5t276 -123.5q107 0 206.5 55t165.5 150q72 104 117 247t45 267 q0 217 -105.5 344t-285.5 127q-144 0 -265 -99.5t-191 -271.5t-70 -377zM639 1669l106 17l134 -289l-72 -13z" />
<glyph unicode="&#xd3;" d="M78 524q0 163 47 313t135 269q185 247 475 262q224 12 367 -141.5t143 -405.5q0 -235 -88.5 -429t-243 -305.5t-342.5 -111.5q-224 0 -358.5 149.5t-134.5 399.5zM203 520q0 -195 107 -318.5t276 -123.5q107 0 206.5 55t165.5 150q72 104 117 247t45 267 q0 217 -105.5 344t-285.5 127q-144 0 -265 -99.5t-191 -271.5t-70 -377zM672 1399l262 289l119 -19l-301 -287z" />
<glyph unicode="&#xd4;" d="M78 524q0 163 47 313t135 269q185 247 475 262q224 12 367 -141.5t143 -405.5q0 -235 -88.5 -429t-243 -305.5t-342.5 -111.5q-224 0 -358.5 149.5t-134.5 399.5zM203 520q0 -195 107 -318.5t276 -123.5q107 0 206.5 55t165.5 150q72 104 117 247t45 267 q0 217 -105.5 344t-285.5 127q-144 0 -265 -99.5t-191 -271.5t-70 -377zM537 1405l266 278h63l135 -278l-83 -16l-99 210l-194 -210z" />
<glyph unicode="&#xd5;" d="M78 524q0 163 47 313t135 269q185 247 475 262q224 12 367 -141.5t143 -405.5q0 -235 -88.5 -429t-243 -305.5t-342.5 -111.5q-224 0 -358.5 149.5t-134.5 399.5zM203 520q0 -195 107 -318.5t276 -123.5q107 0 206.5 55t165.5 150q72 104 117 247t45 267 q0 217 -105.5 344t-285.5 127q-144 0 -265 -99.5t-191 -271.5t-70 -377zM559 1470l16 95q19 18 35 30.5t32.5 19.5t28.5 11.5t28 2.5t25.5 -3.5t27.5 -10t27 -13t30.5 -17t32.5 -18.5q45 -25 78 -25q28 0 58 17t83 61l-19 -94q-39 -37 -68 -52.5t-61 -15.5q-21 0 -63 17 q-6 2 -88 45q-49 24 -80 24q-27 0 -55 -17t-68 -57z" />
<glyph unicode="&#xd6;" d="M78 524q0 163 47 313t135 269q185 247 475 262q224 12 367 -141.5t143 -405.5q0 -235 -88.5 -429t-243 -305.5t-342.5 -111.5q-224 0 -358.5 149.5t-134.5 399.5zM203 520q0 -195 107 -318.5t276 -123.5q107 0 206.5 55t165.5 150q72 104 117 247t45 267 q0 217 -105.5 344t-285.5 127q-144 0 -265 -99.5t-191 -271.5t-70 -377zM588 1528q3 38 25 64t53 26q28 0 44.5 -17.5t16.5 -46.5q0 -44 -23.5 -72.5t-58.5 -27.5q-29 1 -44 21t-13 53zM891 1528q3 38 25 64t53 26q28 0 44.5 -17.5t16.5 -46.5q0 -44 -23.5 -72.5 t-58.5 -27.5q-29 1 -44 21t-13 53z" />
<glyph unicode="&#xd7;" horiz-adv-x="1021" d="M115 340l358 313l-266 312l80 67l264 -311l358 311l58 -67l-359 -312l266 -313l-77 -68l-267 312l-358 -312z" />
<glyph unicode="&#xd8;" d="M2 -23l174 197q-94 139 -94 350q0 170 52.5 326.5t140.5 269.5t209.5 180.5t254.5 67.5q125 0 213 -34.5t158 -110.5l145 161l72 -20l-174 -197q94 -149 94 -346q0 -176 -52 -333t-141.5 -269.5t-214 -178t-264.5 -65.5q-221 0 -358 146l-145 -164zM207 520 q0 -134 57 -248l762 856q-110 140 -293 140q-144 0 -265 -99.5t-191 -271.5t-70 -377zM301 215q109 -137 287 -137q107 0 207 55t166 150q72 104 116.5 246t44.5 268q0 90 -12.5 149.5t-44.5 122.5z" />
<glyph unicode="&#xd9;" horiz-adv-x="1171" d="M100 356q0 65 21 205l117 782h116l-121 -802q-12 -84 -12 -181q0 -123 92.5 -202.5t233.5 -79.5q111 0 194 39t129 112q38 60 57.5 130.5t47.5 248.5l108 735h117l-117 -780q-26 -182 -50 -259.5t-75 -143.5q-66 -89 -175.5 -137t-247.5 -48q-190 0 -312.5 107.5 t-122.5 273.5zM594 1669l106 17l134 -289l-72 -13z" />
<glyph unicode="&#xda;" horiz-adv-x="1171" d="M100 356q0 65 21 205l117 782h116l-121 -802q-12 -84 -12 -181q0 -123 92.5 -202.5t233.5 -79.5q111 0 194 39t129 112q38 60 57.5 130.5t47.5 248.5l108 735h117l-117 -780q-26 -182 -50 -259.5t-75 -143.5q-66 -89 -175.5 -137t-247.5 -48q-190 0 -312.5 107.5 t-122.5 273.5zM627 1399l262 289l119 -19l-301 -287z" />
<glyph unicode="&#xdb;" horiz-adv-x="1171" d="M100 356q0 65 21 205l117 782h116l-121 -802q-12 -84 -12 -181q0 -123 92.5 -202.5t233.5 -79.5q111 0 194 39t129 112q38 60 57.5 130.5t47.5 248.5l108 735h117l-117 -780q-26 -182 -50 -259.5t-75 -143.5q-66 -89 -175.5 -137t-247.5 -48q-190 0 -312.5 107.5 t-122.5 273.5zM492 1405l266 278h63l135 -278l-84 -16l-98 210l-194 -210z" />
<glyph unicode="&#xdc;" horiz-adv-x="1171" d="M100 356q0 65 21 205l117 782h116l-121 -802q-12 -84 -12 -181q0 -123 92.5 -202.5t233.5 -79.5q111 0 194 39t129 112q38 60 57.5 130.5t47.5 248.5l108 735h117l-117 -780q-26 -182 -50 -259.5t-75 -143.5q-66 -89 -175.5 -137t-247.5 -48q-190 0 -312.5 107.5 t-122.5 273.5zM543 1528q3 38 25 64t53 26q28 0 44.5 -17.5t16.5 -46.5q0 -45 -23.5 -73.5t-58.5 -26.5q-29 1 -44 21t-13 53zM846 1528q3 38 25 64t53 26q28 0 44.5 -17.5t16.5 -46.5q0 -44 -23.5 -72.5t-58.5 -27.5q-29 1 -44 21t-13 53z" />
<glyph unicode="&#xdd;" horiz-adv-x="989" d="M129 1329l117 29l276 -635l492 637l108 -31l-555 -706l-92 -623h-117l93 623zM537 1399l260 289l121 -19l-302 -287z" />
<glyph unicode="&#xdf;" horiz-adv-x="798" d="M-283 -432q14 -2 33 -2q61 0 101.5 13.5t70.5 45.5q46 46 70 122t47 249l127 926q29 221 129 329q50 54 116.5 84.5t135.5 30.5q77 0 135 -27t89.5 -76t31.5 -114q0 -23 -4 -44.5t-15.5 -43t-19 -35.5t-28 -37t-29 -32t-35 -35t-33.5 -33l-47 -47l-25 -23 q-52 -52 -68.5 -78t-17.5 -61q-1 -26 8.5 -46t40.5 -59l99 -114q70 -83 88 -120.5t18 -102.5q0 -109 -85 -185t-208 -76q-131 0 -227 93l51 82q54 -44 94.5 -62.5t90.5 -21.5q47 -3 87 18.5t63.5 60.5t23.5 86q0 17 -2 31.5t-7.5 28t-10 22.5t-14.5 22.5t-15.5 20t-19 22 t-19.5 21.5l-101 117q-46 52 -57.5 101.5t7 95t65.5 96.5q8 13 22 27l39 36q37 39 76 78q108 108 102 203q-3 57 -45.5 90t-112.5 33q-101 0 -168 -89t-90 -255l-122 -895q-29 -213 -57 -305.5t-81 -151.5q-105 -114 -274 -102q-13 0 -23 2v86z" />
<glyph unicode="&#xe0;" horiz-adv-x="813" d="M31 219q0 145 38 275t103.5 223.5t156.5 148t193 54.5q62 0 106 -6.5t122 -26.5l-74 -504q-23 -152 -23 -211q0 -104 72 -104q2 0 13 1t18 1l-23 -78q-20 -4 -49 -4q-73 0 -106.5 52.5t-24.5 152.5l8 86q-40 -83 -67 -125.5t-64 -79.5q-88 -91 -194 -97q-88 -5 -146.5 64 t-58.5 178zM143 213q4 -72 39.5 -110.5t89.5 -32.5q96 13 174 120q47 58 125 216l62 409q-88 20 -152 14q-192 -21 -282 -274q-65 -181 -56 -342zM344 1376l107 17l133 -289l-72 -14z" />
<glyph unicode="&#xe1;" horiz-adv-x="813" d="M31 219q0 145 38 275t103.5 223.5t156.5 148t193 54.5q62 0 106 -6.5t122 -26.5l-74 -504q-23 -152 -23 -211q0 -104 72 -104q2 0 13 1t18 1l-23 -78q-20 -4 -49 -4q-73 0 -106.5 52.5t-24.5 152.5l8 86q-40 -83 -67 -125.5t-64 -79.5q-88 -91 -194 -97q-88 -5 -146.5 64 t-58.5 178zM143 213q4 -72 39.5 -110.5t89.5 -32.5q96 13 174 120q47 58 125 216l62 409q-88 20 -152 14q-192 -21 -282 -274q-65 -181 -56 -342zM377 1106l262 289l121 -19l-303 -286z" />
<glyph unicode="&#xe2;" horiz-adv-x="813" d="M31 219q0 145 38 275t103.5 223.5t156.5 148t193 54.5q62 0 106 -6.5t122 -26.5l-74 -504q-23 -152 -23 -211q0 -104 72 -104q2 0 13 1t18 1l-23 -78q-20 -4 -49 -4q-73 0 -106.5 52.5t-24.5 152.5l8 86q-40 -83 -67 -125.5t-64 -79.5q-88 -91 -194 -97q-88 -5 -146.5 64 t-58.5 178zM143 213q4 -72 39.5 -110.5t89.5 -32.5q96 13 174 120q47 58 125 216l62 409q-88 20 -152 14q-192 -21 -282 -274q-65 -181 -56 -342zM242 1112l268 279h61l136 -279l-84 -16l-99 211l-194 -211z" />
<glyph unicode="&#xe3;" horiz-adv-x="813" d="M31 219q0 145 38 275t103.5 223.5t156.5 148t193 54.5q62 0 106 -6.5t122 -26.5l-74 -504q-23 -152 -23 -211q0 -104 72 -104q2 0 13 1t18 1l-23 -78q-20 -4 -49 -4q-73 0 -106.5 52.5t-24.5 152.5l8 86q-40 -83 -67 -125.5t-64 -79.5q-88 -91 -194 -97q-88 -5 -146.5 64 t-58.5 178zM143 213q4 -72 39.5 -110.5t89.5 -32.5q96 13 174 120q47 58 125 216l62 409q-88 20 -152 14q-192 -21 -282 -274q-65 -181 -56 -342zM264 1176l17 94q61 58 112 61q33 0 72 -16l4 -2q9 -5 78 -41q45 -25 78 -25q28 0 58 17t83 61l-16 -94q-40 -37 -70 -52.5 t-62 -15.5q-31 0 -77 23l-74 37q-49 24 -80 24q-52 0 -123 -71z" />
<glyph unicode="&#xe4;" horiz-adv-x="813" d="M31 219q0 145 38 275t103.5 223.5t156.5 148t193 54.5q62 0 106 -6.5t122 -26.5l-74 -504q-23 -152 -23 -211q0 -104 72 -104q2 0 13 1t18 1l-23 -78q-20 -4 -49 -4q-73 0 -106.5 52.5t-24.5 152.5l8 86q-40 -83 -67 -125.5t-64 -79.5q-88 -91 -194 -97q-88 -5 -146.5 64 t-58.5 178zM143 213q4 -72 39.5 -110.5t89.5 -32.5q96 13 174 120q47 58 125 216l62 409q-88 20 -152 14q-192 -21 -282 -274q-65 -181 -56 -342zM295 1233q3 38 25 64t53 26q28 0 44.5 -17t16.5 -46q0 -44 -23.5 -73t-58.5 -28q-29 1 -44 21t-13 53zM598 1233q3 38 25 64 t53 26q28 0 44.5 -17t16.5 -46q0 -44 -23.5 -73t-58.5 -28q-29 1 -44 21t-13 53z" />
<glyph unicode="&#xe5;" horiz-adv-x="813" d="M31 219q0 145 38 275t103.5 223.5t156.5 148t193 54.5q62 0 106 -6.5t122 -26.5l-74 -504q-23 -152 -23 -211q0 -104 72 -104q2 0 13 1t18 1l-23 -78q-20 -4 -49 -4q-73 0 -106.5 52.5t-24.5 152.5l8 86q-40 -83 -67 -125.5t-64 -79.5q-88 -91 -194 -97q-88 -5 -146.5 64 t-58.5 178zM143 213q4 -72 39.5 -110.5t89.5 -32.5q96 13 174 120q47 58 125 216l62 409q-88 20 -152 14q-192 -21 -282 -274q-65 -181 -56 -342zM356 1241q9 75 65.5 127.5t125.5 52.5q71 0 112.5 -49.5t34.5 -124.5q-7 -79 -62.5 -132.5t-129.5 -53.5q-73 0 -114 51 t-32 129zM426 1237q-3 -50 20.5 -82.5t63.5 -32.5q45 0 78 34.5t37 88.5q5 47 -19.5 80t-64.5 33q-46 0 -78 -34t-37 -87z" />
<glyph unicode="&#xe6;" horiz-adv-x="1116" d="M31 219q0 195 64 354.5t177 250.5t250 91q56 0 123 -22l-14 -98q-85 38 -150 32q-78 -6 -144 -60t-112 -149q-43 -91 -65.5 -201.5t-16.5 -203.5q4 -72 39.5 -110.5t89.5 -32.5q115 15 220 186q0 10 -3 16v68q0 58 18 139t44 144q57 138 153.5 219.5t202.5 81.5 q97 0 151.5 -51t47.5 -134q-10 -117 -134.5 -215t-371.5 -184q0 -7 -1 -21.5t-1 -15.5q0 -101 45.5 -164.5t120.5 -68.5q64 -4 126 35.5t136 132.5l43 -58q-133 -205 -330 -205q-86 0 -147 51.5t-86 145.5q-109 -186 -270 -195q-88 -5 -146.5 64t-58.5 178zM604 408 q111 43 217 106q94 57 137 109t46 112q2 46 -27 73.5t-78 27.5q-60 0 -118.5 -45t-98.5 -121q-33 -61 -48.5 -113.5t-29.5 -148.5z" />
<glyph unicode="&#xe7;" horiz-adv-x="630" d="M45 313q0 100 30.5 210.5t82.5 197.5q54 92 127.5 144.5t158.5 58.5q139 12 215 -123l-77 -62q-33 52 -66.5 71.5t-79.5 16.5q-110 -6 -184 -135q-42 -77 -68 -178t-26 -188q0 -256 151 -256q130 0 228 139l45 -64q-57 -83 -127.5 -126.5t-147.5 -43.5q-127 0 -194.5 87 t-67.5 251zM57 -406q156 167 219 320l89 -23q-31 -84 -95.5 -176t-144.5 -164z" />
<glyph unicode="&#xe8;" horiz-adv-x="667" d="M45 338q0 60 17.5 141t43.5 144q57 138 154 219.5t203 81.5q97 0 151.5 -51t47.5 -134q-10 -117 -134.5 -215t-371.5 -184q-2 -12 -2 -37q0 -101 45 -165t120 -68q64 -4 126.5 36t136.5 132l43 -58q-133 -205 -332 -205q-64 0 -117.5 32t-85.5 89q-26 44 -35.5 97 t-9.5 145zM160 408q116 46 217 106q94 57 136.5 108.5t45.5 112.5q2 46 -26.5 73.5t-77.5 27.5q-59 0 -118 -45t-101 -121q-32 -61 -47 -113.5t-29 -148.5zM272 1376l107 17l133 -289l-72 -14z" />
<glyph unicode="&#xe9;" horiz-adv-x="667" d="M45 338q0 60 17.5 141t43.5 144q57 138 154 219.5t203 81.5q97 0 151.5 -51t47.5 -134q-10 -117 -134.5 -215t-371.5 -184q-2 -12 -2 -37q0 -101 45 -165t120 -68q64 -4 126.5 36t136.5 132l43 -58q-133 -205 -332 -205q-64 0 -117.5 32t-85.5 89q-26 44 -35.5 97 t-9.5 145zM160 408q116 46 217 106q94 57 136.5 108.5t45.5 112.5q2 46 -26.5 73.5t-77.5 27.5q-59 0 -118 -45t-101 -121q-32 -61 -47 -113.5t-29 -148.5zM305 1106l262 289l121 -19l-303 -286z" />
<glyph unicode="&#xea;" horiz-adv-x="667" d="M45 338q0 60 17.5 141t43.5 144q57 138 154 219.5t203 81.5q97 0 151.5 -51t47.5 -134q-10 -117 -134.5 -215t-371.5 -184q-2 -12 -2 -37q0 -101 45 -165t120 -68q64 -4 126.5 36t136.5 132l43 -58q-133 -205 -332 -205q-64 0 -117.5 32t-85.5 89q-26 44 -35.5 97 t-9.5 145zM160 408q116 46 217 106q94 57 136.5 108.5t45.5 112.5q2 46 -26.5 73.5t-77.5 27.5q-59 0 -118 -45t-101 -121q-32 -61 -47 -113.5t-29 -148.5zM168 1112l268 279h62l135 -279l-84 -16l-98 211l-195 -211z" />
<glyph unicode="&#xeb;" horiz-adv-x="667" d="M45 338q0 60 17.5 141t43.5 144q57 138 154 219.5t203 81.5q97 0 151.5 -51t47.5 -134q-10 -117 -134.5 -215t-371.5 -184q-2 -12 -2 -37q0 -101 45 -165t120 -68q64 -4 126.5 36t136.5 132l43 -58q-133 -205 -332 -205q-64 0 -117.5 32t-85.5 89q-26 44 -35.5 97 t-9.5 145zM160 408q116 46 217 106q94 57 136.5 108.5t45.5 112.5q2 46 -26.5 73.5t-77.5 27.5q-59 0 -118 -45t-101 -121q-32 -61 -47 -113.5t-29 -148.5zM221 1233q3 38 25 64t53 26q28 0 44.5 -17t16.5 -46q0 -45 -23 -73.5t-58 -27.5q-29 1 -44.5 21t-13.5 53zM524 1233 q3 38 25 64t53 26q28 0 45 -17t17 -46q0 -44 -23.5 -73t-58.5 -28q-29 1 -44.5 21t-13.5 53z" />
<glyph unicode="&#xec;" horiz-adv-x="313" d="M35 0l133 895h108l-133 -895h-108zM94 1376l107 17l133 -289l-72 -14z" />
<glyph unicode="&#xed;" horiz-adv-x="313" d="M35 0l133 895h108l-133 -895h-108zM127 1106l262 289l121 -19l-303 -286z" />
<glyph unicode="&#xee;" horiz-adv-x="313" d="M-8 1112l268 279h62l135 -279l-84 -16l-99 211l-194 -211zM35 0l133 895h108l-133 -895h-108z" />
<glyph unicode="&#xef;" horiz-adv-x="313" d="M35 0l133 895h108l-133 -895h-108zM43 1233q3 38 25 64t53 26q28 0 44.5 -17t16.5 -46q0 -44 -23.5 -73t-58.5 -28q-29 1 -44 21t-13 53zM346 1233q3 38 25 64t53 26q28 0 44.5 -17t16.5 -46q0 -44 -23.5 -73t-58.5 -28q-29 1 -44 21t-13 53z" />
<glyph unicode="&#xf1;" horiz-adv-x="798" d="M41 0l80 535q24 156 18 266q-3 44 -22 86l94 31q33 -45 33 -117v-43q0 -52 -8 -140q83 157 157 226t168 76q89 6 136 -50.5t38 -160.5q-3 -47 -12 -99l-90 -610h-109l90 602q11 64 11 103q0 66 -24.5 93.5t-80.5 22.5q-74 -6 -144 -86t-157 -256l-69 -479h-109zM258 1176 l16 94q61 58 113 61q33 0 72 -16l4 -2q9 -5 78 -41q45 -25 77 -25q29 0 59.5 17t82.5 61l-17 -94q-40 -37 -69.5 -52.5t-61.5 -15.5q-31 0 -77 23l-74 37q-50 24 -80 24q-52 0 -123 -71z" />
<glyph unicode="&#xf2;" horiz-adv-x="759" d="M45 332q0 141 56 285.5t141 220.5q100 86 227 86q121 0 185.5 -90t64.5 -259q0 -115 -35.5 -235t-97.5 -211q-103 -154 -287 -154q-124 0 -189 91t-65 266zM156 328q0 -134 40.5 -198t125.5 -64q119 0 188 124q98 173 98 385q0 259 -174 259q-74 0 -138 -69t-102 -186 t-38 -251zM319 1376l107 17l133 -289l-72 -14z" />
<glyph unicode="&#xf3;" horiz-adv-x="759" d="M45 332q0 141 56 285.5t141 220.5q100 86 227 86q121 0 185.5 -90t64.5 -259q0 -115 -35.5 -235t-97.5 -211q-103 -154 -287 -154q-124 0 -189 91t-65 266zM156 328q0 -134 40.5 -198t125.5 -64q119 0 188 124q98 173 98 385q0 259 -174 259q-74 0 -138 -69t-102 -186 t-38 -251zM352 1106l262 289l121 -19l-303 -286z" />
<glyph unicode="&#xf4;" horiz-adv-x="759" d="M45 332q0 141 56 285.5t141 220.5q100 86 227 86q121 0 185.5 -90t64.5 -259q0 -115 -35.5 -235t-97.5 -211q-103 -154 -287 -154q-124 0 -189 91t-65 266zM156 328q0 -134 40.5 -198t125.5 -64q119 0 188 124q98 173 98 385q0 259 -174 259q-74 0 -138 -69t-102 -186 t-38 -251zM215 1112l268 279h62l135 -279l-84 -16l-98 211l-195 -211z" />
<glyph unicode="&#xf5;" horiz-adv-x="759" d="M45 332q0 141 56 285.5t141 220.5q100 86 227 86q121 0 185.5 -90t64.5 -259q0 -115 -35.5 -235t-97.5 -211q-103 -154 -287 -154q-124 0 -189 91t-65 266zM156 328q0 -134 40.5 -198t125.5 -64q119 0 188 124q98 173 98 385q0 259 -174 259q-74 0 -138 -69t-102 -186 t-38 -251zM240 1176l16 94q61 58 113 61q32 0 71 -16l4 -2q9 -5 78 -41q45 -25 78 -25q28 0 58 17t83 61l-16 -94q-40 -37 -69.5 -52.5t-61.5 -15.5t-78 23l-74 37q-50 24 -80 24q-28 0 -55.5 -16t-66.5 -55z" />
<glyph unicode="&#xf6;" horiz-adv-x="759" d="M45 332q0 141 56 285.5t141 220.5q100 86 227 86q121 0 185.5 -90t64.5 -259q0 -115 -35.5 -235t-97.5 -211q-103 -154 -287 -154q-124 0 -189 91t-65 266zM156 328q0 -134 40.5 -198t125.5 -64q119 0 188 124q98 173 98 385q0 259 -174 259q-74 0 -138 -69t-102 -186 t-38 -251zM270 1233q3 38 25 64t53 26q28 0 45 -17t17 -46q0 -44 -23.5 -73t-58.5 -28q-29 1 -44.5 21t-13.5 53zM573 1233q3 38 25 64t53 26q28 0 45 -17t17 -46q0 -44 -23.5 -73t-58.5 -28q-29 1 -44.5 21t-13.5 53z" />
<glyph unicode="&#xf7;" horiz-adv-x="1021" d="M119 606l14 92h834l-15 -92h-833zM428 346q5 29 28 49.5t52 20.5t46.5 -20.5t12.5 -49.5q-4 -29 -28 -49.5t-52 -20.5t-45.5 21t-13.5 49zM518 956q4 29 28 49.5t52 20.5q29 0 46.5 -20.5t12.5 -49.5t-27.5 -49t-51.5 -20t-47 20.5t-13 48.5z" />
<glyph unicode="&#xf8;" horiz-adv-x="770" d="M-53 -2l127 143q-27 83 -27 191q0 143 55.5 286.5t141.5 219.5q95 86 227 86q62 0 115 -29t84 -80l92 105l59 -21l-127 -141q27 -79 27 -183q0 -115 -35.5 -235t-97.5 -211q-103 -154 -287 -154q-137 0 -203 111l-96 -109zM158 328q0 -53 4 -86l426 483q-37 109 -152 109 q-74 0 -138 -69t-102 -186t-38 -251zM176 174q42 -108 148 -108q119 0 188 124q98 173 98 383q0 33 -6 80z" />
<glyph unicode="&#xf9;" horiz-adv-x="806" d="M63 174q2 42 13 111l90 610h108l-92 -621q-8 -55 -8 -106q0 -43 26.5 -69.5t67.5 -24.5q71 5 137 78t162 256l74 487h107l-76 -512q-21 -135 -21 -211q0 -104 70 -104q21 0 33 2l-25 -78q-20 -4 -49 -4q-72 0 -106 53t-25 152l8 86q-46 -90 -76.5 -137t-64.5 -79 q-88 -88 -195 -88q-82 0 -123 52t-35 147zM334 1376l106 17l133 -289l-71 -14z" />
<glyph unicode="&#xfa;" horiz-adv-x="806" d="M63 174q2 42 13 111l90 610h108l-92 -621q-8 -55 -8 -106q0 -43 26.5 -69.5t67.5 -24.5q71 5 137 78t162 256l74 487h107l-76 -512q-21 -135 -21 -211q0 -104 70 -104q21 0 33 2l-25 -78q-20 -4 -49 -4q-72 0 -106 53t-25 152l8 86q-46 -90 -76.5 -137t-64.5 -79 q-88 -88 -195 -88q-82 0 -123 52t-35 147zM367 1106l262 289l121 -19l-304 -286z" />
<glyph unicode="&#xfb;" horiz-adv-x="806" d="M63 174q2 42 13 111l90 610h108l-92 -621q-8 -55 -8 -106q0 -43 26.5 -69.5t67.5 -24.5q71 5 137 78t162 256l74 487h107l-76 -512q-21 -135 -21 -211q0 -104 70 -104q21 0 33 2l-25 -78q-20 -4 -49 -4q-72 0 -106 53t-25 152l8 86q-46 -90 -76.5 -137t-64.5 -79 q-88 -88 -195 -88q-82 0 -123 52t-35 147zM231 1112l269 279h61l135 -279l-84 -16l-98 211l-195 -211z" />
<glyph unicode="&#xfc;" horiz-adv-x="806" d="M63 174q2 42 13 111l90 610h108l-92 -621q-8 -55 -8 -106q0 -43 26.5 -69.5t67.5 -24.5q71 5 137 78t162 256l74 487h107l-76 -512q-21 -135 -21 -211q0 -104 70 -104q21 0 33 2l-25 -78q-20 -4 -49 -4q-72 0 -106 53t-25 152l8 86q-46 -90 -76.5 -137t-64.5 -79 q-88 -88 -195 -88q-82 0 -123 52t-35 147zM285 1233q3 39 24.5 64.5t52.5 25.5q28 0 45 -17t17 -46q0 -44 -23.5 -73t-58.5 -28q-29 1 -44 21t-13 53zM588 1233q3 38 25 64t53 26q28 0 44.5 -17t16.5 -46q0 -44 -23.5 -73t-58.5 -28q-29 1 -44 21t-13 53z" />
<glyph unicode="&#xfd;" horiz-adv-x="690" d="M-254 -424q164 -23 246 55q117 107 233 340l33 64l-188 848l106 30l115 -555q29 -160 35 -198q23 54 33.5 79t23 52t29.5 67l243 555l97 -30l-365 -787q-52 -115 -129 -256q-114 -204 -206 -283t-218 -79q-29 0 -84 8zM315 1106l263 289l120 -19l-301 -286z" />
<glyph unicode="&#xff;" horiz-adv-x="690" d="M-254 -424q164 -23 246 55q117 107 233 340l33 64l-188 848l106 30l115 -555q29 -160 35 -198q23 54 33.5 79t23 52t29.5 67l243 555l97 -30l-365 -787q-52 -115 -129 -256q-114 -204 -206 -283t-218 -79q-29 0 -84 8zM233 1233q3 38 25 64t53 26q28 0 45 -17t17 -46 q0 -44 -23.5 -73t-58.5 -28q-29 1 -44.5 21t-13.5 53zM537 1233q3 39 24.5 64.5t52.5 25.5q28 0 45 -17t17 -46q0 -44 -23.5 -73t-58.5 -28q-29 1 -44 21t-13 53z" />
<glyph unicode="&#x152;" horiz-adv-x="1667" d="M78 524q0 170 52.5 326.5t140.5 269.5t209.5 180.5t254.5 67.5q99 0 169 -20t138 -66l9 61h622l-14 -98h-506l-74 -489h451l-14 -99h-451l-84 -555h633l-33 -102h-731l8 51q-137 -76 -287 -76q-224 0 -358.5 149.5t-134.5 399.5zM203 520q0 -195 107 -318.5t276 -123.5 q80 0 141.5 20t146.5 72l150 993q-72 60 -134.5 82.5t-160.5 22.5q-144 0 -265 -99.5t-191 -271.5t-70 -377z" />
<glyph unicode="&#x153;" horiz-adv-x="1204" d="M45 332q0 142 55.5 286t141.5 220q95 86 227 86q91 0 149.5 -52t77.5 -147q47 88 130 143.5t169 55.5q97 0 151.5 -51t47.5 -134q-10 -117 -134.5 -215t-371.5 -184q-2 -12 -2 -37q0 -101 45.5 -164.5t120.5 -68.5q64 -4 126 35.5t136 132.5l43 -58q-133 -205 -332 -205 q-55 0 -104 25t-78 68q-23 29 -43 96q-92 -189 -301 -189q-124 0 -189 91t-65 266zM156 328q0 -134 40 -198t123 -64q120 0 189 124q98 165 98 385q0 259 -172 259q-75 0 -139 -69.5t-101.5 -186t-37.5 -250.5zM692 408q116 46 217 106q94 57 137 109t46 112q2 46 -27 73.5 t-78 27.5q-59 0 -118 -45t-101 -121q-32 -61 -47 -113.5t-29 -148.5z" />
<glyph unicode="&#x178;" horiz-adv-x="989" d="M129 1329l117 29l276 -635l492 637l108 -31l-555 -706l-92 -623h-117l93 623zM451 1528q3 39 24.5 64.5t52.5 25.5q28 0 45 -17.5t17 -46.5q0 -45 -23.5 -73.5t-58.5 -26.5q-29 1 -44 21t-13 53zM754 1528q3 39 24.5 64.5t52.5 25.5q28 0 45 -17.5t17 -46.5 q0 -44 -23.5 -72.5t-58.5 -27.5q-29 1 -44 21t-13 53z" />
<glyph unicode="&#x2c6;" horiz-adv-x="0" d="M-164 1112l268 279h62l135 -279l-84 -16l-98 211l-195 -211z" />
<glyph unicode="&#x2dc;" horiz-adv-x="0" d="M-141 1176l16 94q61 58 113 61q32 0 71 -16l4 -2q9 -5 78 -41q45 -25 78 -25q28 0 58 17t83 61l-16 -94q-40 -37 -69.5 -52.5t-61.5 -15.5q-8 0 -22.5 3.5t-29.5 8.5t-26 11l-74 37q-50 24 -79 24q-52 0 -123 -71z" />
<glyph unicode="&#x2000;" horiz-adv-x="858" />
<glyph unicode="&#x2001;" horiz-adv-x="1716" />
<glyph unicode="&#x2002;" horiz-adv-x="858" />
<glyph unicode="&#x2003;" horiz-adv-x="1716" />
<glyph unicode="&#x2004;" horiz-adv-x="572" />
<glyph unicode="&#x2005;" horiz-adv-x="429" />
<glyph unicode="&#x2006;" horiz-adv-x="286" />
<glyph unicode="&#x2007;" horiz-adv-x="286" />
<glyph unicode="&#x2008;" horiz-adv-x="214" />
<glyph unicode="&#x2009;" horiz-adv-x="343" />
<glyph unicode="&#x200a;" horiz-adv-x="95" />
<glyph unicode="&#x2010;" horiz-adv-x="489" d="M45 434l21 101h387l-21 -101h-387z" />
<glyph unicode="&#x2011;" horiz-adv-x="489" d="M45 434l21 101h387l-21 -101h-387z" />
<glyph unicode="&#x2012;" horiz-adv-x="489" d="M45 434l21 101h387l-21 -101h-387z" />
<glyph unicode="&#x2013;" horiz-adv-x="882" d="M49 436l21 94h774l-19 -94h-776z" />
<glyph unicode="&#x2014;" horiz-adv-x="882" d="M49 436l21 94h774l-19 -94h-776z" />
<glyph unicode="&#x2018;" horiz-adv-x="372" d="M115 870q48 284 274 512l78 -39q-104 -113 -165.5 -228.5t-90.5 -256.5z" />
<glyph unicode="&#x2019;" horiz-adv-x="378" d="M111 897q103 109 165 226t93 259l94 -12q-48 -282 -275 -512z" />
<glyph unicode="&#x201c;" horiz-adv-x="612" d="M115 870q49 281 274 512l78 -39q-105 -113 -166.5 -229.5t-89.5 -255.5zM354 870q48 282 275 512l78 -39q-104 -112 -165.5 -228t-92.5 -257z" />
<glyph unicode="&#x201d;" horiz-adv-x="616" d="M111 897q103 109 165 226t93 259l94 -12q-48 -282 -275 -512zM350 897q103 113 165 229.5t91 255.5l96 -12q-49 -284 -274 -512z" />
<glyph unicode="&#x201e;" horiz-adv-x="481" d="M-199 -268q199 214 258 487l95 -12q-49 -285 -275 -514zM41 -268q104 112 165.5 229.5t90.5 257.5l96 -12q-49 -283 -274 -514z" />
<glyph unicode="&#x202f;" horiz-adv-x="343" />
<glyph unicode="&#x2039;" horiz-adv-x="430" d="M41 457l348 399l37 -80l-279 -319l185 -320l-64 -78z" />
<glyph unicode="&#x203a;" horiz-adv-x="430" d="M2 139l277 320l-181 317l62 80l227 -397l-346 -400z" />
<glyph unicode="&#x205f;" horiz-adv-x="429" />
<glyph unicode="&#x20ac;" horiz-adv-x="937" d="M6 510l53 96h82q0 32 17 109h-123l55 96h94q76 228 243.5 372t365.5 144q170 0 299 -100l-64 -99q-70 52 -126.5 74.5t-133.5 22.5q-161 0 -281.5 -112.5t-181.5 -299.5h553l-53 -96h-524q-10 -55 -15 -109h477l-53 -96h-426q12 -191 113.5 -308.5t265.5 -117.5 q70 0 121 19t137 69l43 -90q-142 -104 -342 -104q-205 0 -332.5 146.5t-132.5 383.5h-131z" />
<glyph unicode="&#xe000;" horiz-adv-x="911" d="M0 0v911h911v-911h-911z" />
</font>
</defs>
</svg>
