<?xml version="1.0" standalone="no"?>
<!DOCTYPE svg PUBLIC "-//W3C//DTD SVG 1.1//EN" "http://www.w3.org/Graphics/SVG/1.1/DTD/svg11.dtd" >
<svg xmlns="http://www.w3.org/2000/svg">
<metadata></metadata>
<defs>
<font id="todayshop-lightregular" horiz-adv-x="794" >
<font-face units-per-em="2048" ascent="1638" descent="-410" />
<missing-glyph horiz-adv-x="360" />
<glyph horiz-adv-x="2048" />
<glyph horiz-adv-x="2048" />
<glyph unicode="&#xd;" horiz-adv-x="2048" />
<glyph unicode=" "  horiz-adv-x="360" />
<glyph unicode="&#x09;" horiz-adv-x="360" />
<glyph unicode="&#xa0;" horiz-adv-x="360" />
<glyph unicode="!" horiz-adv-x="372" d="M135 74q0 38 22 63t56 25q37 0 59.5 -24.5t22.5 -65.5q0 -38 -22.5 -62t-57.5 -24t-57.5 25t-22.5 63zM141 1343h138l-25 -1048h-82z" />
<glyph unicode="&#x22;" horiz-adv-x="663" d="M41 883q88 152 131.5 266t56.5 233l109 -12q-28 -249 -203 -508zM315 883q88 151 132 266t59 233l106 -12q-28 -249 -202 -508z" />
<glyph unicode="#" horiz-adv-x="1142" d="M94 449l12 75h218l47 301h-217l12 76h217l70 442h82l-70 -442h287l71 442h82l-71 -442h217l-13 -76h-215l-49 -301h217l-10 -75h-217l-72 -449h-82l70 449h-287l-71 -449h-82l71 449h-217zM406 524h286l49 301h-288z" />
<glyph unicode="$" horiz-adv-x="788" d="M10 147l29 121q104 -88 172.5 -118.5t159.5 -30.5q73 0 130.5 29.5t89.5 82t32 119.5q0 48 -13 86t-38 66t-54.5 47.5t-68.5 36.5q-55 25 -107 47l-53 24q-124 54 -180 130t-56 190t79 199.5t204 107.5v180h90v-174q59 -7 102.5 -19.5t81.5 -33t82 -55.5l-53 -105 q-119 101 -248 107q-59 3 -110 -23.5t-81 -74t-30 -105.5q0 -44 14 -79.5t40.5 -61.5t56.5 -44t69 -34q54 -23 105 -47l53 -23q70 -29 125.5 -77.5t81.5 -104.5q17 -34 22.5 -66.5t5.5 -85.5q0 -88 -48.5 -169.5t-125.5 -122.5q-59 -33 -143 -46v-198h-90v192 q-118 13 -183.5 40t-142.5 93z" />
<glyph unicode="%" horiz-adv-x="1507" d="M37 946q0 160 88.5 265t230.5 112q141 8 234.5 -98t93.5 -273q0 -179 -91 -286t-243 -107q-138 0 -225.5 108t-87.5 279zM145 948q0 -131 60 -214t155 -83q103 0 157 75t54 218q0 53 -17.5 112.5t-43.5 96.5t-69 58.5t-89 21.5q-98 0 -152.5 -75t-54.5 -210zM436 0 l541 1321h94l-541 -1321h-94zM821 385q0 161 88.5 265t231.5 112q141 7 234 -99t93 -272q0 -179 -90.5 -286t-242.5 -107q-138 0 -226 108t-88 279zM930 387q0 -131 60 -214t155 -83q103 0 157 75t54 218q0 52 -18 112t-44 97t-68.5 58.5t-88.5 21.5q-98 0 -152.5 -75 t-54.5 -210z" />
<glyph unicode="&#x26;" horiz-adv-x="1755" d="M51 662q0 120 45.5 228.5t128.5 184.5q66 62 154.5 98.5t171.5 36.5q165 0 275.5 -69.5t177.5 -216.5v-90l-742 -459q82 -132 210.5 -206.5t275.5 -74.5q206 0 352 98t221 287q34 84 47.5 164t13.5 191h-252v104h613v-104h-232q-6 -139 -26 -234t-62 -192 q-85 -192 -268 -310t-397 -118q-341 0 -541 231q-166 190 -166 451zM178 696q-6 -116 39 -227l678 414q-54 109 -148.5 165.5t-209.5 49.5q-153 -9 -251.5 -119.5t-107.5 -282.5z" />
<glyph unicode="'" horiz-adv-x="391" d="M41 883q88 152 131.5 266t56.5 233l109 -12q-28 -249 -203 -508z" />
<glyph unicode="(" horiz-adv-x="481" d="M51 680q0 204 89.5 411t252.5 382l64 -64q-297 -343 -297 -731q0 -200 73.5 -378t231.5 -359l-74 -68q-181 192 -260.5 380.5t-79.5 426.5z" />
<glyph unicode=")" horiz-adv-x="481" d="M14 1405l74 68q181 -192 260.5 -381t79.5 -428q0 -204 -90 -411t-254 -380l-64 64q299 338 299 731q0 199 -74 377t-231 360z" />
<glyph unicode="*" horiz-adv-x="780" d="M47 1171l31 93l276 -109l-14 297h98l-14 -297l278 109l31 -93l-280 -86l180 -233l-78 -53l-166 245l-162 -245l-77 53l176 233z" />
<glyph unicode="+" horiz-adv-x="1050" d="M90 602v96h389v394h103v-394h387v-96h-387v-391h-103v391h-389z" />
<glyph unicode="," horiz-adv-x="266" d="M-104 -311q101 168 144 280t62 252l111 -12q-12 -137 -69 -278t-152 -265z" />
<glyph unicode="-" horiz-adv-x="569" d="M51 436l19 105h448l-18 -105h-449z" />
<glyph unicode="." horiz-adv-x="262" d="M51 74q0 38 22 63t56 25q37 0 59.5 -24.5t22.5 -65.5q0 -38 -22.5 -62t-57.5 -24t-57.5 25t-22.5 63z" />
<glyph unicode="/" horiz-adv-x="835" d="M27 -100l675 1546h105l-676 -1546h-104z" />
<glyph unicode="0" horiz-adv-x="970" d="M51 664q0 293 118 472.5t316 190.5q128 7 226.5 -73t152.5 -232.5t54 -355.5q0 -321 -116 -506t-317 -185q-206 0 -320 181t-114 508zM178 682q0 -277 77.5 -433.5t219.5 -168.5q151 -12 233.5 142t82.5 446q0 113 -25 225.5t-66 185.5q-35 66 -96 106t-127 40 q-62 0 -117.5 -33.5t-89.5 -91.5q-43 -74 -67.5 -185.5t-24.5 -232.5z" />
<glyph unicode="1" horiz-adv-x="649" d="M0 985q218 124 489 342l48 -24v-1303h-119v1159q-226 -172 -361 -246z" />
<glyph unicode="2" horiz-adv-x="923" d="M14 66q192 181 363 370q135 147 225 275q82 117 88 245q6 109 -72 187t-192 78q-132 0 -266 -131l-68 73q77 77 123 105q104 61 209 61q181 0 287 -101.5t106 -273.5q0 -97 -53 -200.5t-170 -237.5q-91 -104 -173 -188.5t-222 -218.5h712l-24 -109h-854z" />
<glyph unicode="3" horiz-adv-x="864" d="M0 139l74 82q135 -141 317 -141q140 0 222.5 74t82.5 198q0 71 -37 135t-98 101q-64 41 -201 41h-131v96h222q44 0 96 49q100 90 100 215q0 100 -73 166t-183 66q-154 0 -262 -123l-76 73q144 156 340 156q167 0 272 -90.5t105 -235.5q0 -94 -48 -166.5t-153 -136.5 q124 -43 190 -129.5t66 -206.5q0 -170 -121.5 -278.5t-312.5 -108.5q-241 0 -391 164z" />
<glyph unicode="4" horiz-adv-x="999" d="M14 471l697 854l59 -22v-814h215l-12 -94h-203v-395h-117v395h-614zM133 489h520v635q-53 -78 -127 -170l-252 -309q-42 -53 -64 -76.5t-77 -79.5z" />
<glyph unicode="5" horiz-adv-x="835" d="M0 82l57 92q62 -44 136 -70t141 -26q157 0 249.5 87.5t92.5 235.5q0 158 -116 245t-327 87q-4 0 -39 -1t-55 -1l97 572h528v-107h-434l-64 -362h37q250 0 375 -125q58 -55 90.5 -132.5t32.5 -162.5q0 -195 -130 -317t-337 -122q-87 0 -176 28.5t-158 78.5z" />
<glyph unicode="6" horiz-adv-x="942" d="M47 504q0 108 40.5 230t109.5 224q179 263 516 400l90 -64q-134 -54 -222.5 -110.5t-172.5 -141.5q-89 -92 -138.5 -179.5t-91.5 -231.5q76 96 149 138t173 50q111 8 205 -43t149 -145t55 -209q0 -199 -120 -323t-314 -124q-114 0 -208 55.5t-150 155.5q-70 123 -70 318z M170 424q0 -138 93.5 -242t219.5 -104q138 0 219.5 89.5t81.5 242.5q0 132 -93.5 222.5t-219.5 80.5q-78 -7 -147.5 -47t-116.5 -105q-37 -50 -37 -55v-82z" />
<glyph unicode="7" horiz-adv-x="878" d="M14 1198v105h828l20 -54q-32 -62 -120 -234t-114 -224t-91 -181.5t-101 -205.5t-90 -191t-108 -236l-119 39q306 666 600 1182h-705z" />
<glyph unicode="8" horiz-adv-x="923" d="M41 344q0 83 42 159t116 126q43 31 147 67q-68 27 -105.5 51t-68.5 58q-76 82 -76 194q0 138 104.5 233t256.5 95q164 0 267 -86.5t103 -224.5q0 -163 -118 -250q-41 -28 -131 -64q130 -50 186 -96q55 -46 87 -114t32 -142q0 -167 -116.5 -271t-303.5 -104 q-184 0 -303 104t-119 265zM164 340q0 -113 86.5 -190.5t212.5 -77.5q140 0 220.5 75t74.5 199q-3 75 -41.5 131.5t-118.5 102.5q-16 10 -85.5 44t-74.5 29q-150 -62 -212 -132.5t-62 -180.5zM217 1008q3 -63 36 -111t99 -90q11 -6 71.5 -36.5t63.5 -27.5 q121 54 172.5 114.5t51.5 148.5q0 98 -69.5 161.5t-176.5 63.5q-115 0 -184 -61.5t-64 -161.5z" />
<glyph unicode="9" horiz-adv-x="933" d="M37 901q0 112 57 210.5t154 157t207 58.5q201 0 315.5 -138.5t114.5 -381.5q0 -189 -93 -370t-262 -322q-117 -98 -286 -170l-109 55q137 58 229.5 121t178.5 155q81 87 127 171t84 215q-144 -175 -332 -175q-181 0 -295 136q-90 106 -90 278zM160 905q0 -135 86 -225 t209 -84q140 6 245 111q60 63 60 67q2 18 2 45q0 175 -90 291q-81 111 -232 111q-118 0 -199 -92t-81 -224z" />
<glyph unicode=":" horiz-adv-x="335" d="M111 90q0 37 21.5 61.5t55.5 24.5q37 0 59.5 -24.5t22.5 -65.5q0 -38 -22.5 -62t-57.5 -24t-57 25t-22 65zM113 809q0 37 21.5 61.5t55.5 24.5q37 0 59.5 -24.5t22.5 -65.5q0 -38 -22 -62t-57 -24t-57.5 25t-22.5 65z" />
<glyph unicode=";" horiz-adv-x="335" d="M-47 -311q101 169 144.5 280.5t62.5 251.5l110 -12q-12 -137 -69 -278t-152 -265zM119 809q0 37 22 61.5t56 24.5q37 0 59.5 -24.5t22.5 -65.5q0 -38 -22.5 -62t-57.5 -24t-57.5 25t-22.5 65z" />
<glyph unicode="&#x3c;" horiz-adv-x="765" d="M41 457l334 395l39 -82l-258 -309l258 -305l-39 -97zM342 457l332 395l41 -82l-260 -309l260 -305l-41 -97z" />
<glyph unicode="=" horiz-adv-x="1050" d="M100 451v96h856v-96h-856zM100 756v96h856v-96h-856z" />
<glyph unicode="&#x3e;" horiz-adv-x="765" d="M51 143l260 308l-260 307l41 94l332 -395l-332 -398zM352 143l258 308l-258 307l39 94l334 -395l-334 -398z" />
<glyph unicode="?" horiz-adv-x="737" d="M51 1268q70 52 134.5 74t148.5 22q147 0 249.5 -95.5t102.5 -232.5q0 -86 -32 -160t-109 -163q-30 -35 -60.5 -70t-45 -52t-17.5 -20q-43 -53 -60.5 -102.5t-17.5 -120.5q0 -33 2 -51h-106q-4 40 -4 53q0 88 24.5 150.5t93.5 148.5q99 120 121 150t41 67q41 78 41 166 q0 94 -72.5 161t-173.5 67q-64 0 -105 -14t-102 -56zM215 74q0 36 22.5 61t55.5 25q37 0 59.5 -24t22.5 -64q0 -38 -22.5 -62t-57.5 -24t-57.5 25t-22.5 63z" />
<glyph unicode="@" horiz-adv-x="2162" d="M172 403q0 217 102 416q129 251 371 391t529 140q133 0 254.5 -29.5t224 -89.5t178 -145t118 -202.5t42.5 -256.5q0 -214 -100 -364.5t-298 -219.5q-124 -43 -231 -43h-164l29 186q-47 -83 -139 -134.5t-189 -51.5q-70 0 -120 27t-77 74.5t-39 103t-12 121.5 q0 90 21.5 178.5t65.5 167t104.5 138.5t144.5 95t180 35q108 0 271 -37l-117 -805h68q105 3 198 49q143 67 217 187.5t74 281.5q0 125 -35.5 230t-100 180t-153.5 127.5t-196 78t-228 25.5q-137 0 -269 -42t-241.5 -120t-193 -181t-130 -233t-46.5 -269q0 -361 188.5 -545 t552.5 -184q279 0 483 90l25 -95q-214 -94 -520 -94q-410 0 -626 206.5t-216 612.5zM764 328q0 -232 170 -232q85 0 168 65t133 150l82 520q-80 17 -146 17q-78 0 -145.5 -31t-114.5 -83.5t-81 -120t-50 -140t-16 -145.5z" />
<glyph unicode="A" horiz-adv-x="1157" d="M-25 0l564 1378h75l566 -1378h-136l-188 471h-567l-189 -471h-125zM328 569h487l-182 457q-46 118 -62 172q-23 -77 -59 -172z" />
<glyph unicode="B" horiz-adv-x="962" d="M106 8v1331q194 17 279 17q199 0 313.5 -89t114.5 -243q0 -92 -49 -164t-154 -135q72 -15 112.5 -34.5t80.5 -57.5q112 -106 112 -266q0 -105 -55.5 -193t-152.5 -135q-109 -51 -265 -51q-131 0 -336 20zM233 106q112 -16 216 -16q154 0 243.5 73t89.5 199 q0 85 -42.5 153.5t-118.5 105.5q-75 32 -203 32h-185v-547zM233 750h242q66 0 132 78t75 167q1 13 1 25q-1 100 -75 164q-84 72 -231 71q-65 0 -144 -6v-499z" />
<glyph unicode="C" horiz-adv-x="1148" d="M51 684q0 140 55 275t150 225q92 90 216.5 139t258.5 49q219 0 404 -108l-58 -109q-101 55 -181.5 77.5t-176.5 22.5q-235 0 -384 -161t-149 -414q0 -242 150 -412q70 -79 177 -127.5t210 -48.5q119 0 203.5 24t171.5 81l49 -101q-179 -125 -430 -125q-133 0 -261.5 54.5 t-219.5 148.5q-185 191 -185 510z" />
<glyph unicode="D" horiz-adv-x="1269" d="M106 8v1329q174 15 318 15q392 0 594 -193q97 -92 149 -221.5t52 -278.5q0 -177 -73.5 -321t-205.5 -229q-95 -62 -238 -91q-134 -26 -249 -26h-93q-109 0 -254 16zM233 115q107 -15 222 -15q310 0 469 144.5t159 427.5q0 136 -68.5 264.5t-178.5 200.5q-96 60 -262 88 q-110 19 -225 19q-58 0 -116 -5v-1124z" />
<glyph unicode="E" horiz-adv-x="890" d="M106 0v1343h695v-106h-568v-475h510v-107h-510v-544h654l-21 -111h-760z" />
<glyph unicode="F" horiz-adv-x="784" d="M109 0v1343h663v-106h-536v-500h479v-106h-479v-631h-127z" />
<glyph unicode="G" horiz-adv-x="1331" d="M51 680q0 143 53.5 271.5t144.5 220.5t218 146t268 54q289 0 494 -164l-72 -102q-183 151 -418 151q-246 0 -398.5 -161.5t-152.5 -419.5q0 -129 54 -253t145 -202q69 -61 172.5 -99t202.5 -38q123 0 191 15.5t153 64.5v391h-350l16 107h461v-556q-114 -72 -225.5 -103.5 t-251.5 -31.5q-313 0 -509 197t-196 512z" />
<glyph unicode="H" horiz-adv-x="1251" d="M106 0v1343h127v-585h783v585h127v-1343h-127v651h-783v-651h-127z" />
<glyph unicode="I" horiz-adv-x="339" d="M106 0v1343h127v-1343h-127z" />
<glyph unicode="J" horiz-adv-x="663" d="M4 31l31 108q94 -47 180 -47q124 0 169.5 65t45.5 244v942h127v-978q0 -105 -14.5 -166.5t-50.5 -108.5q-38 -51 -107 -80.5t-147 -29.5q-71 0 -121 11t-113 40z" />
<glyph unicode="K" horiz-adv-x="1046" d="M106 0v1343h127v-684l691 703l120 -37l-583 -592l608 -733h-160l-538 655l-138 -141v-514h-127z" />
<glyph unicode="L" horiz-adv-x="845" d="M106 0v1343h127v-1232h609l-21 -111h-715z" />
<glyph unicode="M" horiz-adv-x="1591" d="M33 0l149 1352h86l400 -883q77 -173 133 -307l10 24q68 165 119 283l389 883h86l156 -1352h-125l-88 819q-2 37 -10.5 118.5t-10.5 109.5l-4 36l-2 37q-59 -157 -123 -301l-362 -819h-86l-367 815q-66 145 -125 297l-2 -35l-4 -37q-16 -194 -21 -225l-86 -815h-112z" />
<glyph unicode="N" horiz-adv-x="1339" d="M106 0v1339l70 23l707 -848q20 -24 46.5 -56t35.5 -43t24 -28.5t20 -24.5t14 -18t17.5 -22t18.5 -23.5t27.5 -35.5t35.5 -46q-1 37 -1 62.5t-0.5 33t-0.5 14v10v17.5q-2 70 -2 156v833h112v-1337l-61 -22l-712 854q-40 46 -74 88t-82 102t-86 107v-33q2 -92 2 -103 q2 -76 2 -157v-842h-113z" />
<glyph unicode="O" horiz-adv-x="1456" d="M51 684q0 164 67.5 308t188.5 239q83 64 194.5 102.5t215.5 38.5q116 0 197 -19.5t163 -66.5q158 -91 244 -251.5t86 -364.5q0 -205 -85.5 -364t-240.5 -247t-354 -88q-194 0 -348.5 91t-241 254t-86.5 368zM188 684q0 -126 47 -243t130 -199q71 -71 169 -112.5 t193 -41.5q302 0 447 215q98 146 98 363q0 167 -72.5 303t-200.5 213.5t-284 77.5q-235 0 -381 -159.5t-146 -416.5z" />
<glyph unicode="P" horiz-adv-x="929" d="M106 0v1339q30 2 94.5 6.5t115 7.5t81.5 3q137 0 228.5 -25.5t154.5 -81.5q117 -105 117 -291q0 -102 -56.5 -195t-148.5 -140q-110 -58 -297 -58q-44 0 -162 4v-569h-127zM233 674q61 -4 164 -4q175 0 272 77.5t97 217.5t-94.5 212t-278.5 72q-56 0 -160 -8v-567z" />
<glyph unicode="Q" horiz-adv-x="1456" d="M51 684q0 142 52 269.5t140.5 219t212 145.5t261.5 54q312 0 501 -192.5t189 -509.5q0 -198 -82 -354t-235 -250q115 -111 265.5 -178t362.5 -107l-129 -96q-182 34 -325 110t-289 217q-122 -41 -250 -41q-193 0 -347 91t-240.5 254t-86.5 368zM188 684q0 -127 47 -245 t130 -197q70 -70 169 -112t193 -42q302 0 447 215q98 140 98 363q0 167 -72.5 303.5t-200.5 213.5t-284 77q-235 0 -381 -159.5t-146 -416.5z" />
<glyph unicode="R" horiz-adv-x="1017" d="M106 0v1337q163 19 314 19q247 0 364 -123q99 -105 99 -256q0 -126 -74.5 -224t-200.5 -139l432 -614h-155l-400 584h-252v-584h-127zM233 684h269q102 0 178 85.5t76 199.5q0 131 -91 206.5t-249 75.5h-47q-41 0 -136 -6v-561z" />
<glyph unicode="S" horiz-adv-x="849" d="M4 113l33 131q174 -162 348 -162q135 0 213 69.5t78 190.5q0 127 -92 197q-36 29 -121 71l-123 56q-149 69 -209.5 148t-60.5 204q0 149 107.5 251.5t262.5 102.5q187 0 324 -119l-55 -110q-140 117 -273 117q-104 0 -171.5 -61t-71.5 -161v-13q0 -117 100 -181 q63 -39 108 -60l41 -20q44 -19 84 -39q99 -46 150 -84.5t80 -89.5q49 -83 49 -199q0 -166 -117.5 -273.5t-300.5 -107.5q-109 0 -197.5 33t-185.5 109z" />
<glyph unicode="T" horiz-adv-x="1105" d="M10 1237v106h1088v-106h-480v-1237h-126v1237h-482z" />
<glyph unicode="U" horiz-adv-x="1269" d="M102 541v802h127v-782q0 -176 25 -252q37 -106 138.5 -165.5t246.5 -59.5q236 0 340 147q61 89 61 304v808h127v-804q0 -180 -37.5 -283t-128.5 -174q-69 -53 -167.5 -82t-208.5 -29q-187 0 -317.5 77t-176.5 214q-29 96 -29 279z" />
<glyph unicode="V" horiz-adv-x="1196" d="M4 1329l121 33l358 -891q83 -207 119 -324q13 38 65 178.5t54 145.5l354 891l115 -33l-539 -1329h-102z" />
<glyph unicode="W" horiz-adv-x="1853" d="M4 1329l121 33l354 -895q56 -138 119 -320q101 268 139 363l140 342l-191 477l119 33l352 -885q56 -140 117 -325q21 63 31 91t14 40t8.5 22t20 53.5t41.5 118.5l348 885l112 -33l-532 -1329h-98l-295 743l-289 -743h-98z" />
<glyph unicode="X" horiz-adv-x="1204" d="M4 16l526 686l-481 625l123 39l434 -578l438 578l115 -39l-485 -625l528 -686l-129 -39l-473 631l-481 -631z" />
<glyph unicode="Y" horiz-adv-x="1097" d="M4 1329l125 37l428 -639l422 639l113 -37l-478 -715v-614h-127v614z" />
<glyph unicode="Z" horiz-adv-x="1101" d="M8 49l854 1188h-778v106h942l23 -49l-850 -1183h893l-21 -111h-1040z" />
<glyph unicode="[" horiz-adv-x="471" d="M106 -100v1546h353l-17 -90h-229v-1366h246l-17 -90h-336z" />
<glyph unicode="]" horiz-adv-x="471" d="M14 -100l17 90h229v1366h-246l17 90h336v-1546h-353z" />
<glyph unicode="^" horiz-adv-x="1157" d="M-25 0l564 1378h75l566 -1378h-136l-188 471h-567l-189 -471h-125zM231 1311q0 35 23.5 58.5t58.5 23.5t58.5 -23.5t23.5 -58.5t-23.5 -58.5t-58.5 -23.5t-58.5 23.5t-23.5 58.5zM328 569h487l-182 457q-46 118 -62 172q-23 -77 -59 -172zM766 1311q0 35 23.5 58.5 t58.5 23.5t58.5 -23.5t23.5 -58.5t-23.5 -58.5t-58.5 -23.5t-58.5 23.5t-23.5 58.5z" />
<glyph unicode="_" horiz-adv-x="813" d="M0 -242h813v-47h-813v47z" />
<glyph unicode="`" horiz-adv-x="0" d="M-281 1362l121 31l279 -267l-76 -30z" />
<glyph unicode="a" d="M37 242q12 219 299 284q69 15 213 29v47v12q0 60 -9 92q-10 36 -38 62q-48 48 -132 48q-10 0 -20 -1q-131 -9 -268 -86v100q157 86 293 86q169 0 243 -102q48 -59 48 -221v-346q0 -109 12 -137q14 -41 76 -41q2 0 17.5 1t23.5 1l-15 -82q-44 -8 -69 -8q-124 0 -150 102 q-126 -105 -276 -105q-112 0 -183 76q-65 70 -65 172v17zM154 244v-11q0 -67 44 -113q48 -48 128 -48q58 0 108 19.5t115 66.5v319q-216 -26 -301.5 -77t-93.5 -156z" />
<glyph unicode="b" horiz-adv-x="948" d="M102 74v1372h117v-627q78 51 134.5 71.5t119.5 20.5q195 0 309.5 -127t114.5 -342q0 -196 -130 -330.5t-321 -134.5q-97 0 -174 21.5t-170 75.5zM219 131q66 -34 115.5 -47.5t109.5 -13.5q151 0 240.5 104.5t89.5 282.5q0 72 -28 145.5t-74 120.5q-88 88 -228 88 q-58 0 -107 -18.5t-118 -65.5v-596z" />
<glyph unicode="c" d="M51 461q0 124 59.5 230t161 167.5t220.5 61.5q159 0 286 -93l-59 -88q-64 43 -115 60.5t-110 17.5q-139 0 -229.5 -99.5t-90.5 -254.5q0 -160 89 -265t231 -114q12 -1 24 -1q49 -1 95 13q58 16 130 60l45 -82q-128 -97 -294 -97q-200 0 -321.5 133t-121.5 351z" />
<glyph unicode="d" horiz-adv-x="974" d="M51 446q0 125 58 232t157 170t215 63q75 0 124.5 -12.5t125.5 -50.5v598h117v-1200q0 -109 12 -137q14 -41 76 -41q2 0 17.5 1t23.5 1l-16 -82q-39 -8 -68 -8q-125 0 -152 104q-74 -60 -138.5 -83.5t-158.5 -23.5q-90 0 -174 45.5t-137 122.5q-82 118 -82 301zM174 446 q0 -159 86 -263.5t217 -104.5q82 0 132 18t122 74v559q-67 49 -123 69q-49 17 -107 17h-18q-134 -6 -221.5 -110.5t-87.5 -258.5z" />
<glyph unicode="e" horiz-adv-x="872" d="M51 467q0 121 56 225.5t151.5 166t206.5 61.5q225 0 323 -185q43 -77 46 -188l-48 -58h-614v-38q0 -158 93.5 -263.5t234.5 -105.5q160 0 272 106l62 -67q-141 -144 -353 -144q-102 0 -194 47.5t-152 131.5q-84 120 -84 311zM178 573h545q-10 115 -81 182.5t-181 67.5 q-77 0 -145 -41t-105 -108q-20 -39 -33 -101z" />
<glyph unicode="f" horiz-adv-x="579" d="M10 805v90h193v147q0 106 23 176.5t75 124.5q62 65 158 93q55 17 115 17q44 0 90 -9l-15 -96q-35 6 -68 6q-46 0 -88 -12q-72 -19 -112 -64q-34 -38 -48 -92t-14 -146v-145h250v-90h-250v-805h-116v805h-193z" />
<glyph unicode="g" horiz-adv-x="858" d="M0 -252q0 80 59 149.5t166 116.5q-65 20 -91 52q-22 25 -22 62q0 8 1 17q6 43 35 72.5t98 61.5q-100 51 -146.5 126t-46.5 187q0 135 98 232.5t234 97.5q50 0 78.5 -5t79.5 -22h317v-84l-217 6q107 -101 107 -239q0 -146 -97.5 -240t-249.5 -94q-27 0 -94 12 q-50 -27 -71.5 -47.5t-24.5 -46.5q-3 -23 23 -39.5t86 -30.5l272 -61q117 -26 181 -99q59 -67 59 -158v-14q-6 -139 -128 -229t-305 -90q-177 0 -289 86t-112 221zM113 -238q0 -98 86.5 -162.5t218.5 -64.5q135 0 219 61.5t84 161.5q0 46 -18.5 79.5t-56.5 55.5t-76 34.5 t-97 25.5l-174 37q-97 -57 -141.5 -111.5t-44.5 -116.5zM170 604q0 -118 64.5 -195t164.5 -77q103 0 169.5 65t66.5 166q0 120 -67 197.5t-169 77.5q-98 0 -163.5 -67t-65.5 -167z" />
<glyph unicode="h" horiz-adv-x="929" d="M102 0v1446h117v-676q76 79 144 114.5t145 35.5q152 0 237.5 -86.5t85.5 -239.5v-594h-116v537q0 87 -12.5 134t-43.5 81q-64 67 -172 67q-72 0 -136 -35t-132 -112v-672h-117z" />
<glyph unicode="i" horiz-adv-x="327" d="M84 1237q0 35 23.5 58.5t58.5 23.5t58.5 -23.5t23.5 -58.5t-23.5 -58.5t-58.5 -23.5t-58.5 23.5t-23.5 58.5zM104 0v895h117v-895h-117z" />
<glyph unicode="j" horiz-adv-x="327" d="M-203 -528l17 98q10 0 28 -1t21 -1q70 0 121.5 26.5t76.5 75.5q23 44 31 105t8 192v928h117v-971q0 -123 -12.5 -189.5t-44.5 -119.5q-47 -80 -144 -119q-69 -29 -151 -29q-33 0 -68 5zM80 1237q0 35 23.5 58.5t58.5 23.5t58.5 -23.5t23.5 -58.5t-23.5 -58.5t-58.5 -23.5 t-58.5 23.5t-23.5 58.5z" />
<glyph unicode="k" horiz-adv-x="821" d="M102 0v1446h117v-983l461 442l115 -24l-377 -363l428 -518h-146l-368 451l-113 -111v-340h-117z" />
<glyph unicode="l" horiz-adv-x="321" d="M102 0v1446h117v-1446h-117z" />
<glyph unicode="m" horiz-adv-x="1488" d="M47 872l96 48q35 -31 52 -65.5t24 -94.5q112 160 291 160q201 0 268 -166q140 166 299 166q189 0 269 -125q45 -71 45 -205v-590h-117v547q0 83 -5 117t-22 61q-26 44 -75 70t-107 26q-146 0 -258 -153q2 -39 2 -80v-588h-117v565q0 80 -9.5 120t-35.5 71q-56 65 -164 65 q-138 0 -256 -153v-668h-116v578q0 140 -13 199.5t-51 94.5z" />
<glyph unicode="n" horiz-adv-x="937" d="M47 872l96 48q35 -31 52 -65.5t24 -94.5q140 160 297 160q152 0 238 -86t86 -240v-594h-117v537q0 87 -12 134t-43 81q-64 67 -172 67q-72 0 -137 -35.5t-132 -111.5v-672h-116v578q0 140 -13 199.5t-51 94.5z" />
<glyph unicode="o" horiz-adv-x="999" d="M51 446q0 201 128.5 336.5t318.5 135.5q193 0 320.5 -130t127.5 -327q0 -214 -121 -349t-313 -135q-245 0 -365 166q-96 126 -96 303zM172 461q0 -164 96.5 -275.5t237.5 -111.5q144 0 231.5 98t87.5 260q0 171 -95 278t-247 107q-138 0 -224.5 -99t-86.5 -257z" />
<glyph unicode="p" horiz-adv-x="956" d="M47 872l96 48q52 -46 66 -103q118 92 268 101q15 1 30 1q165 0 277 -122q123 -133 123 -346q0 -203 -126.5 -335t-319.5 -132q-70 0 -118.5 10t-115.5 39v-584h-116v1129q0 139 -13 198t-51 96zM227 141q69 -38 120 -52q42 -12 92 -12q11 0 22 1q146 6 233.5 107 t87.5 261q0 168 -88.5 270.5t-234.5 102.5q-63 0 -114.5 -18t-117.5 -62v-598z" />
<glyph unicode="q" horiz-adv-x="952" d="M53 446q0 203 130 338.5t325 135.5q87 0 154 -16t186 -64v-1391h-117v633q-77 -55 -136 -74.5t-144 -19.5q-94 0 -180 44.5t-140 121.5q-78 112 -78 292zM176 465q0 -167 81 -269.5t220 -109.5h19q61 0 110 16q56 20 125 72v594q-62 32 -114 44.5t-119 12.5 q-133 0 -227.5 -105.5t-94.5 -254.5z" />
<glyph unicode="r" horiz-adv-x="616" d="M45 872l96 48q41 -35 58 -80t20 -125q79 118 132.5 161.5t117.5 43.5q56 0 143 -37l-26 -101q-43 20 -68 25.5t-63 5.5q-52 0 -106.5 -46t-123.5 -149v-618h-116v578q0 140 -13 199.5t-51 94.5z" />
<glyph unicode="s" horiz-adv-x="630" d="M4 102l59 82q45 -52 109 -81t129 -29q85 0 134.5 41.5t49.5 113.5q0 102 -131 154l-98 43q-103 44 -146 90.5t-51 120.5q-2 15 -2 30q1 95 69 167q78 84 198 84q132 0 241 -82l-43 -93q-67 44 -102 58.5t-78 17.5h-14q-66 -1 -112 -35q-50 -38 -50 -100q0 -67 55 -104 q41 -30 156 -78q125 -54 172 -111.5t47 -157.5q0 -60 -35.5 -119t-91.5 -91q-73 -43 -178 -43q-174 0 -287 122z" />
<glyph unicode="t" horiz-adv-x="606" d="M0 805v76l51 2q109 3 146 37q15 15 24.5 51t18.5 119l8 63h74l-13 -258h252v-90h-252v-500q0 -66 3.5 -102t12.5 -57t27 -35q28 -24 78 -28q14 -1 28 -1q35 0 67 7q46 10 87 28l19 -86q-59 -26 -108.5 -36.5t-119.5 -10.5q-65 0 -117.5 30.5t-72.5 81.5q-12 33 -16 69.5 t-4 125.5v514h-193z" />
<glyph unicode="u" horiz-adv-x="937" d="M98 348v547h117v-545q0 -87 15 -138.5t49 -82.5q60 -51 159 -51q72 0 127.5 25.5t130.5 93.5v698h117v-649q0 -109 12 -137q14 -41 76 -41q2 0 17.5 1t23.5 1l-16 -82q-39 -8 -68 -8q-139 0 -151 129q-75 -71 -146 -101.5t-160 -30.5q-74 0 -139.5 30.5t-105.5 82.5 q-32 43 -45 99.5t-13 158.5z" />
<glyph unicode="v" horiz-adv-x="817" d="M4 883l113 30l219 -571q42 -114 49 -135q0 -1 4.5 -13.5t11 -29.5t9.5 -25q12 33 22.5 64t14.5 44t13.5 36.5t24.5 58.5l226 571l102 -30l-354 -883h-105z" />
<glyph unicode="w" horiz-adv-x="1312" d="M4 883l111 30l229 -585q44 -115 76 -211q39 120 76 217l108 293l-100 256l110 30l220 -573q53 -137 73 -211q8 25 17.5 50t15.5 44q2 5 41 117l223 573l101 -30l-351 -883h-104l-201 522l-192 -522h-103z" />
<glyph unicode="x" horiz-adv-x="813" d="M4 14l338 447l-322 420l115 32l273 -368l270 368l104 -32l-315 -418l340 -445l-115 -32l-291 395l-290 -399z" />
<glyph unicode="y" horiz-adv-x="806" d="M-104 -514l18 94q52 -12 98 -12q86 0 140 56t120 214l70 170l-336 875l111 30l215 -571q21 -53 71 -203q11 31 22 64t15.5 45t14 35t24.5 59l221 571l105 -30l-432 -1073q-73 -183 -154.5 -260.5t-200.5 -77.5q-48 0 -122 14z" />
<glyph unicode="z" horiz-adv-x="761" d="M8 55l551 750h-508v90h647l17 -53l-551 -752h586l-21 -90h-704z" />
<glyph unicode="{" horiz-adv-x="1456" d="M51 684q0 164 67.5 308t188.5 239q83 64 194.5 102.5t215.5 38.5q116 0 197 -19.5t163 -66.5q158 -91 244 -251.5t86 -364.5q0 -205 -85.5 -364t-240.5 -247t-354 -88q-194 0 -348.5 91t-241 254t-86.5 368zM162 1311q0 35 23.5 58.5t58.5 23.5t58.5 -23.5t23.5 -58.5 t-23.5 -58.5t-58.5 -23.5t-58.5 23.5t-23.5 58.5zM188 684q0 -126 47 -243t130 -199q71 -71 169 -112.5t193 -41.5q302 0 447 215q98 146 98 363q0 167 -72.5 303t-200.5 213.5t-284 77.5q-235 0 -381 -159.5t-146 -416.5zM1153 1311q0 35 23.5 58.5t58.5 23.5t58.5 -23.5 t23.5 -58.5t-23.5 -58.5t-58.5 -23.5t-58.5 23.5t-23.5 58.5z" />
<glyph unicode="}" horiz-adv-x="1269" d="M102 541v802h127v-782q0 -176 25 -252q37 -106 138.5 -165.5t246.5 -59.5q236 0 340 147q61 89 61 304v808h127v-804q0 -180 -37.5 -283t-128.5 -174q-69 -53 -167.5 -82t-208.5 -29q-187 0 -317.5 77t-176.5 214q-29 96 -29 279zM346 1311q0 35 23.5 58.5t58.5 23.5 t58.5 -23.5t23.5 -58.5t-23.5 -58.5t-58.5 -23.5t-58.5 23.5t-23.5 58.5zM766 1311q0 35 23.5 58.5t58.5 23.5t58.5 -23.5t23.5 -58.5t-23.5 -58.5t-58.5 -23.5t-58.5 23.5t-23.5 58.5z" />
<glyph unicode="~" horiz-adv-x="1157" d="M-25 0l467 1143q-47 53 -47 129t53.5 128t131.5 52t129 -51.5t51 -130.5q0 -71 -49 -123l469 -1147h-136l-188 471h-567l-189 -471h-125zM328 569h487l-207 523q-14 -2 -33 -2q-22 0 -38 4zM467 1270q0 -47 32 -81t76 -34q51 0 82 31.5t31 83.5q0 49 -32 82.5t-78 33.5 q-50 0 -80.5 -32t-30.5 -84z" />
<glyph unicode="&#xa1;" horiz-adv-x="372" d="M80 1270q0 38 22.5 62t57.5 24t57.5 -25t22.5 -65q0 -37 -22 -61.5t-56 -24.5q-37 0 -59.5 24.5t-22.5 65.5zM96 0l23 1051h84l28 -1051h-135z" />
<glyph unicode="&#xa2;" d="M51 666q0 173 112 302.5t279 149.5v172h90v-170q137 -9 246 -88l-59 -88q-118 76 -225 76q-138 0 -229 -100.5t-91 -253.5q0 -182 109 -285q44 -43 104.5 -68.5t118.5 -25.5q64 0 117 16t120 55l45 -82q-62 -45 -120.5 -66.5t-135.5 -27.5v-180h-90v180 q-180 20 -285.5 150t-105.5 334z" />
<glyph unicode="&#xa3;" horiz-adv-x="942" d="M16 0v78q61 7 94 23t64 53q52 65 80 184l47 205h-240v92h265l49 199q37 149 72.5 227t95.5 139q110 113 284 113q31 0 74 -6l21 -109q-124 25 -216 -14t-141 -129q-37 -66 -88 -279l-35 -141h332v-92h-356l-45 -197q-23 -94 -48.5 -144t-72.5 -96h676l-21 -106h-891z" />
<glyph unicode="&#xa4;" horiz-adv-x="1050" d="M84 303l119 117q21 21 43 35q-76 101 -76 219t76 219q-23 13 -43 33l-119 118l70 70l118 -119q12 -10 35 -43q101 76 217 76q115 0 219 -76q23 33 35 43l117 119l72 -70l-119 -118q-18 -18 -45 -33q76 -101 76 -219q0 -121 -76 -219q28 -18 45 -35l119 -117l-72 -70 l-117 117q-19 19 -35 45q-101 -76 -219 -76q-116 0 -217 76q-16 -26 -35 -45l-118 -117zM262 674q0 -108 77 -185t185 -77q107 0 184.5 77.5t77.5 184.5q0 109 -76.5 185.5t-185.5 76.5t-185.5 -76.5t-76.5 -185.5z" />
<glyph unicode="&#xa7;" horiz-adv-x="817" d="M51 582q0 68 29 140t78 124q37 40 94 80q-46 62 -63 106.5t-17 104.5q0 126 90.5 216t226.5 97q109 6 220 -47l-35 -98q-59 28 -96.5 37.5t-88.5 9.5q-88 0 -146 -60t-58 -149q0 -58 35.5 -114t130.5 -148q133 -129 182 -183t84 -112q51 -82 51 -180q0 -106 -48.5 -193 t-152.5 -166q51 -63 71.5 -109t25.5 -106q10 -138 -80 -233.5t-238 -104.5q-126 -9 -240 53l33 97q106 -56 189 -56q99 0 160 55.5t61 145.5q0 69 -37.5 127.5t-155.5 173.5q-134 133 -195.5 209t-85.5 138t-24 145zM162 594q0 -144 139 -283l213 -215q141 120 141 297 q0 66 -36 132t-119 149l-199 196q-139 -122 -139 -276z" />
<glyph unicode="&#xa8;" horiz-adv-x="0" d="M-244 1237q0 32 22 54t54 22t54 -22t22 -54t-22 -54t-54 -22t-54 22t-22 54zM102 1237q0 32 22 54t54 22t54 -22t22 -54t-22 -54t-54 -22t-54 22t-22 54z" />
<glyph unicode="&#xab;" horiz-adv-x="765" d="M41 457l334 395l39 -82l-258 -309l258 -305l-39 -97zM342 457l332 395l41 -82l-260 -309l260 -305l-41 -97z" />
<glyph unicode="&#xad;" horiz-adv-x="569" d="M51 436l19 105h448l-18 -105h-449z" />
<glyph unicode="&#xaf;" horiz-adv-x="0" d="M-244 1198v92h484v-92h-484z" />
<glyph unicode="&#xb4;" horiz-adv-x="0" d="M-117 1126l279 267l121 -31l-324 -266z" />
<glyph unicode="&#xb6;" horiz-adv-x="1073" d="M84 1020q0 91 47.5 167t130.5 116q49 23 102.5 31.5t143.5 8.5h528v-49h-248v-1697h-47v1697h-196v-1697h-47v1105q-93 -1 -147 9t-105 37q-75 43 -118.5 115.5t-43.5 156.5z" />
<glyph unicode="&#xb8;" horiz-adv-x="0" d="M-186 -418q117 161 198 326l101 -8q-29 -70 -91.5 -168t-119.5 -168z" />
<glyph unicode="&#xbb;" horiz-adv-x="765" d="M51 143l260 308l-260 307l41 94l332 -395l-332 -398zM352 143l258 308l-258 307l39 94l334 -395l-334 -398z" />
<glyph unicode="&#xbf;" horiz-adv-x="737" d="M51 315q0 86 32.5 160t109.5 164q31 35 60.5 69.5t44 51.5t17.5 20q43 53 60.5 102.5t17.5 121.5q0 33 -2 51h107q4 -40 4 -54q0 -88 -25 -150.5t-94 -148.5q-99 -120 -121 -150t-41 -67q-41 -78 -41 -166q0 -94 72.5 -160.5t173.5 -66.5q64 0 105 14t102 56l53 -78 q-70 -52 -134.5 -74t-148.5 -22q-148 0 -250 95t-102 232zM362 1280q0 38 22.5 62t57.5 24t57.5 -25t22.5 -63q0 -36 -22.5 -61t-55.5 -25q-37 0 -59.5 24t-22.5 64z" />
<glyph unicode="&#xc0;" horiz-adv-x="1157" d="M-25 0l564 1378h75l566 -1378h-136l-188 471h-567l-189 -471h-125zM299 1659l121 33l278 -267l-75 -30zM328 569h487l-182 457q-46 118 -62 172q-23 -77 -59 -172z" />
<glyph unicode="&#xc1;" horiz-adv-x="1157" d="M-25 0l564 1378h75l566 -1378h-136l-188 471h-567l-189 -471h-125zM328 569h487l-182 457q-46 118 -62 172q-23 -77 -59 -172zM461 1425l278 267l121 -33l-323 -264z" />
<glyph unicode="&#xc2;" horiz-adv-x="1157" d="M-25 0l564 1378h75l566 -1378h-136l-188 471h-567l-189 -471h-125zM307 1413l228 281h92l227 -281l-98 -22l-181 227l-182 -227zM328 569h487l-182 457q-46 118 -62 172q-23 -77 -59 -172z" />
<glyph unicode="&#xc3;" horiz-adv-x="1157" d="M-25 0l564 1378h75l566 -1378h-136l-188 471h-567l-189 -471h-125zM270 1460q35 96 76 136.5t105 43.5q65 3 143 -57q75 -55 117 -55q35 0 62 26.5t50 83.5l64 -12q-57 -173 -182 -182q-35 -2 -65 10t-81 49q-70 51 -117 51q-34 0 -60 -25.5t-52 -82.5zM328 569h487 l-182 457q-46 118 -62 172q-23 -77 -59 -172z" />
<glyph unicode="&#xc4;" horiz-adv-x="1157" d="M-25 0l564 1378h75l566 -1378h-136l-188 471h-567l-189 -471h-125zM328 569h487l-182 457q-46 118 -62 172q-23 -77 -59 -172zM336 1536q0 32 22 54t54 22t53.5 -22t21.5 -54t-21.5 -54t-53.5 -22t-54 22t-22 54zM682 1536q0 32 22 54t54 22t54 -22t22 -54t-22 -54 t-54 -22t-54 22t-22 54z" />
<glyph unicode="&#xc5;" horiz-adv-x="1157" d="M-25 0l557 1362q-137 37 -137 178q0 76 53.5 128t131.5 52t129 -51.5t51 -130.5q0 -64 -37 -111.5t-102 -64.5l559 -1362h-136l-188 471h-567l-189 -471h-125zM328 569h487l-182 457q-42 110 -62 172q-23 -77 -59 -172zM463 1538q0 -49 33 -84t79 -35q53 0 85 32.5 t32 86.5q0 51 -33.5 86t-80.5 35q-51 0 -83 -33.5t-32 -87.5z" />
<glyph unicode="&#xc6;" horiz-adv-x="1718" d="M-25 0l887 1343h764v-106h-567v-475h510v-107h-510v-544h651l-18 -111h-760v498h-494l-327 -498h-136zM502 602h430v651z" />
<glyph unicode="&#xc7;" horiz-adv-x="1148" d="M51 684q0 140 55 275t150 225q92 90 216.5 139t258.5 49q219 0 404 -108l-58 -109q-101 55 -181.5 77.5t-176.5 22.5q-235 0 -384 -161t-149 -414q0 -242 150 -412q70 -79 177 -127.5t210 -48.5q119 0 203.5 24t171.5 81l49 -101q-179 -125 -430 -125q-133 0 -261.5 54.5 t-219.5 148.5q-185 191 -185 510zM387 -418q129 177 199 326l100 -8q-29 -70 -91.5 -168t-119.5 -168z" />
<glyph unicode="&#xc8;" horiz-adv-x="890" d="M106 0v1343h695v-106h-568v-475h510v-107h-510v-544h654l-21 -111h-760zM166 1659l121 33l278 -267l-76 -30z" />
<glyph unicode="&#xc9;" horiz-adv-x="890" d="M106 0v1343h695v-106h-568v-475h510v-107h-510v-544h654l-21 -111h-760zM328 1425l280 267l121 -33l-326 -264z" />
<glyph unicode="&#xca;" horiz-adv-x="890" d="M106 0v1343h695v-106h-568v-475h510v-107h-510v-544h654l-21 -111h-760zM174 1413l227 281h93l227 -281l-98 -22l-179 227l-184 -227z" />
<glyph unicode="&#xcb;" horiz-adv-x="890" d="M106 0v1343h695v-106h-568v-475h510v-107h-510v-544h654l-21 -111h-760zM203 1536q0 32 22 54t54 22t53.5 -22t21.5 -54t-21.5 -54t-53.5 -22t-54 22t-22 54zM549 1536q0 32 22 54t54 22t53.5 -22t21.5 -54t-21.5 -54t-53.5 -22t-54 22t-22 54z" />
<glyph unicode="&#xcc;" horiz-adv-x="339" d="M-111 1659l121 33l279 -267l-76 -30zM106 0v1343h127v-1343h-127z" />
<glyph unicode="&#xcd;" horiz-adv-x="339" d="M53 1425l279 267l121 -33l-324 -264zM106 0v1343h127v-1343h-127z" />
<glyph unicode="&#xce;" horiz-adv-x="339" d="M-100 1413l227 281h92l227 -281l-98 -22l-180 227l-182 -227zM106 0v1343h127v-1343h-127z" />
<glyph unicode="&#xcf;" horiz-adv-x="339" d="M-72 1536q0 32 22 54t54 22t54 -22t22 -54t-22 -54t-54 -22t-54 22t-22 54zM109 0v1343h127v-1343h-127zM274 1536q0 32 22 54t54 22t54 -22t22 -54t-22 -54t-54 -22t-54 22t-22 54z" />
<glyph unicode="&#xd1;" horiz-adv-x="1339" d="M106 0v1339l70 23l707 -848q20 -24 46.5 -56t35.5 -43t24 -28.5t20 -24.5t14 -18t17.5 -22t18.5 -23.5t27.5 -35.5t35.5 -46q-1 37 -1 62.5t-0.5 33t-0.5 14v10v17.5q-2 70 -2 156v833h113v-1337l-62 -22l-712 854q-40 46 -74 88t-82 102t-86 107v-33q2 -92 2 -103 q2 -76 2 -157v-842h-113zM360 1460q37 97 77.5 137t103.5 43q64 3 145 -57q42 -32 67 -43.5t50 -11.5q35 0 61 26t51 84l62 -12q-29 -89 -73 -133t-109 -49q-35 -1 -64 10.5t-82 48.5q-70 51 -114 51q-35 0 -61.5 -25.5t-51.5 -82.5z" />
<glyph unicode="&#xd2;" horiz-adv-x="1456" d="M51 684q0 164 67.5 308t188.5 239q83 64 194.5 102.5t215.5 38.5q116 0 197 -19.5t163 -66.5q158 -91 244 -251.5t86 -364.5q0 -205 -85.5 -364t-240.5 -247t-354 -88q-194 0 -348.5 91t-241 254t-86.5 368zM188 684q0 -126 47 -243t130 -199q71 -71 169 -112.5 t193 -41.5q302 0 447 215q98 146 98 363q0 167 -72.5 303t-200.5 213.5t-284 77.5q-235 0 -381 -159.5t-146 -416.5zM449 1659l120 33l279 -267l-74 -30z" />
<glyph unicode="&#xd3;" horiz-adv-x="1456" d="M51 684q0 164 67.5 308t188.5 239q83 64 194.5 102.5t215.5 38.5q116 0 197 -19.5t163 -66.5q158 -91 244 -251.5t86 -364.5q0 -205 -85.5 -364t-240.5 -247t-354 -88q-194 0 -348.5 91t-241 254t-86.5 368zM188 684q0 -126 47 -243t130 -199q71 -71 169 -112.5 t193 -41.5q302 0 447 215q98 146 98 363q0 167 -72.5 303t-200.5 213.5t-284 77.5q-235 0 -381 -159.5t-146 -416.5zM612 1425l279 267l121 -33l-326 -264z" />
<glyph unicode="&#xd4;" horiz-adv-x="1456" d="M51 684q0 164 67.5 308t188.5 239q83 64 194.5 102.5t215.5 38.5q116 0 197 -19.5t163 -66.5q158 -91 244 -251.5t86 -364.5q0 -205 -85.5 -364t-240.5 -247t-354 -88q-194 0 -348.5 91t-241 254t-86.5 368zM188 684q0 -126 47 -243t130 -199q71 -71 169 -112.5 t193 -41.5q302 0 447 215q98 146 98 363q0 167 -72.5 303t-200.5 213.5t-284 77.5q-235 0 -381 -159.5t-146 -416.5zM459 1413l225 281h92l230 -281l-101 -22l-178 227l-182 -227z" />
<glyph unicode="&#xd5;" horiz-adv-x="1456" d="M51 684q0 164 67.5 308t188.5 239q83 64 194.5 102.5t215.5 38.5q116 0 197 -19.5t163 -66.5q158 -91 244 -251.5t86 -364.5q0 -205 -85.5 -364t-240.5 -247t-354 -88q-194 0 -348.5 91t-241 254t-86.5 368zM188 684q0 -126 47 -243t130 -199q71 -71 169 -112.5 t193 -41.5q302 0 447 215q98 146 98 363q0 167 -72.5 303t-200.5 213.5t-284 77.5q-235 0 -381 -159.5t-146 -416.5zM420 1460q37 96 77.5 136.5t102.5 43.5q64 3 145 -57q42 -32 67 -43.5t50 -11.5q35 0 61.5 26t51.5 84l61 -12q-29 -89 -73 -133t-107 -49q-35 -2 -64.5 10 t-80.5 49q-70 51 -117 51q-35 0 -61.5 -25.5t-51.5 -82.5z" />
<glyph unicode="&#xd6;" horiz-adv-x="1456" d="M51 684q0 164 67.5 308t188.5 239q83 64 194.5 102.5t215.5 38.5q116 0 197 -19.5t163 -66.5q158 -91 244 -251.5t86 -364.5q0 -205 -85.5 -364t-240.5 -247t-354 -88q-194 0 -348.5 91t-241 254t-86.5 368zM188 684q0 -126 47 -243t130 -199q71 -71 169 -112.5 t193 -41.5q302 0 447 215q98 146 98 363q0 167 -72.5 303t-200.5 213.5t-284 77.5q-235 0 -381 -159.5t-146 -416.5zM485 1536q0 32 22 54t54 22t54 -22t22 -54t-22 -54t-54 -22t-54 22t-22 54zM834 1536q0 32 21.5 54t53.5 22t54 -22t22 -54t-22 -54t-54 -22t-53.5 22 t-21.5 54z" />
<glyph unicode="&#xd7;" horiz-adv-x="1050" d="M137 332l320 319l-320 320l70 69l319 -319l320 319l69 -69l-319 -320l319 -319l-69 -70l-320 320l-319 -320z" />
<glyph unicode="&#xd8;" horiz-adv-x="1456" d="M51 684q0 142 52 269.5t140.5 219t212 145.5t261.5 54q234 0 401 -115l99 132l83 -15l-120 -162q110 -100 168.5 -239.5t58.5 -302.5q0 -205 -85.5 -364t-240.5 -247t-354 -88q-214 0 -385 117l-100 -133l-84 14l123 166q-230 205 -230 549zM188 684q0 -127 45 -240.5 t129 -199.5l678 909q-152 107 -327 107q-233 0 -379 -160t-146 -416zM420 193q67 -48 150 -76.5t157 -28.5q301 0 447 215q98 143 98 363q0 127 -45 240.5t-129 197.5z" />
<glyph unicode="&#xd9;" horiz-adv-x="1269" d="M102 541v802h127v-782q0 -176 25 -252q37 -106 138.5 -165.5t246.5 -59.5q236 0 340 147q61 89 61 304v808h127v-804q0 -180 -37.5 -283t-128.5 -174q-69 -53 -167.5 -82t-208.5 -29q-187 0 -317.5 77t-176.5 214q-29 96 -29 279zM354 1659l121 33l279 -267l-74 -30z" />
<glyph unicode="&#xda;" horiz-adv-x="1269" d="M102 541v802h127v-782q0 -176 25 -252q37 -106 138.5 -165.5t246.5 -59.5q236 0 340 147q61 89 61 304v808h127v-804q0 -180 -37.5 -283t-128.5 -174q-69 -53 -167.5 -82t-208.5 -29q-187 0 -317.5 77t-176.5 214q-29 96 -29 279zM518 1425l279 267l121 -33l-326 -264z " />
<glyph unicode="&#xdb;" horiz-adv-x="1269" d="M102 541v802h127v-782q0 -176 25 -252q37 -106 138.5 -165.5t246.5 -59.5q236 0 340 147q61 89 61 304v808h127v-804q0 -180 -37.5 -283t-128.5 -174q-69 -53 -167.5 -82t-208.5 -29q-187 0 -317.5 77t-176.5 214q-29 96 -29 279zM365 1413l225 281h92l229 -281l-100 -22 l-178 227l-182 -227z" />
<glyph unicode="&#xdc;" horiz-adv-x="1269" d="M102 541v802h127v-782q0 -176 25 -252q37 -106 138.5 -165.5t246.5 -59.5q236 0 340 147q61 89 61 304v808h127v-804q0 -180 -37.5 -283t-128.5 -174q-69 -53 -167.5 -82t-208.5 -29q-187 0 -317.5 77t-176.5 214q-29 96 -29 279zM391 1536q0 32 22 54t54 22t54 -22 t22 -54t-22 -54t-54 -22t-54 22t-22 54zM739 1536q0 32 22 54t54 22t54 -22t22 -54t-22 -54t-54 -22t-54 22t-22 54z" />
<glyph unicode="&#xdd;" horiz-adv-x="1097" d="M4 1329l125 37l428 -639l422 639l113 -37l-478 -715v-614h-127v614zM432 1425l279 267l120 -33l-325 -264z" />
<glyph unicode="&#xdf;" horiz-adv-x="901" d="M102 0v909q0 93 10 152t35 108q40 80 113.5 132.5t163.5 64.5q127 17 223.5 -46t116.5 -177q5 -34 3 -67.5t-12 -66.5t-26 -59q-14 -24 -33.5 -47t-46 -48.5t-74.5 -68.5q-44 -39 -57.5 -64t-7.5 -52q3 -15 9.5 -26t19 -22.5t34.5 -27.5q4 -2 82 -55l33 -21 q63 -43 88 -64t43 -46q45 -64 45 -144q0 -122 -85 -199t-218 -77q-144 0 -260 88l39 90q100 -84 223 -84q83 0 136 47t53 121q0 43 -11.5 69t-40 52t-94.5 69q-111 69 -157 115q-41 48 -41 113q0 17 5 38t14 40.5t22 37.5t28 29q29 27 51 47l27 23q117 108 102 233 q-9 83 -75.5 129t-155.5 31q-56 -9 -100.5 -42.5t-69.5 -84.5q-22 -45 -29.5 -97.5t-7.5 -148.5v-903h-117z" />
<glyph unicode="&#xe0;" d="M37 242q12 219 299 284q69 15 213 29v47q1 68 -9 103.5t-38 62.5q-53 53 -152 47q-131 -9 -268 -86v100q157 86 293 86q169 0 243 -102q48 -59 48 -221v-346q0 -109 12 -137q14 -41 76 -41q2 0 17.5 1t23.5 1l-15 -82q-44 -8 -69 -8q-124 0 -150 102q-126 -105 -276 -105 q-112 0 -183 76t-65 189zM109 1362l120 31l279 -267l-76 -30zM154 244q-4 -75 44 -123.5t128 -48.5q58 0 108 19.5t115 66.5v319q-216 -26 -301.5 -77t-93.5 -156z" />
<glyph unicode="&#xe1;" d="M37 242q12 219 299 284q69 15 213 29v47q1 68 -9 103.5t-38 62.5q-53 53 -152 47q-131 -9 -268 -86v100q157 86 293 86q169 0 243 -102q48 -59 48 -221v-346q0 -109 12 -137q14 -41 76 -41q2 0 17.5 1t23.5 1l-15 -82q-44 -8 -69 -8q-124 0 -150 102q-126 -105 -276 -105 q-112 0 -183 76t-65 189zM154 244q-4 -75 44 -123.5t128 -48.5q58 0 108 19.5t115 66.5v319q-216 -26 -301.5 -77t-93.5 -156zM272 1126l279 267l121 -31l-324 -266z" />
<glyph unicode="&#xe2;" d="M37 242q12 219 299 284q69 15 213 29v47q1 68 -9 103.5t-38 62.5q-53 53 -152 47q-131 -9 -268 -86v100q157 86 293 86q169 0 243 -102q48 -59 48 -221v-346q0 -109 12 -137q14 -41 76 -41q2 0 17.5 1t23.5 1l-15 -82q-44 -8 -69 -8q-124 0 -150 102q-126 -105 -276 -105 q-112 0 -183 76t-65 189zM119 1116l227 281h92l228 -281l-99 -22l-180 227l-182 -227zM154 244q-4 -75 44 -123.5t128 -48.5q58 0 108 19.5t115 66.5v319q-216 -26 -301.5 -77t-93.5 -156z" />
<glyph unicode="&#xe3;" d="M37 242q12 219 299 284q69 15 213 29v47q1 68 -9 103.5t-38 62.5q-53 53 -152 47q-131 -9 -268 -86v100q157 86 293 86q169 0 243 -102q48 -59 48 -221v-346q0 -109 12 -137q14 -41 76 -41q2 0 17.5 1t23.5 1l-15 -82q-44 -8 -69 -8q-124 0 -150 102q-126 -105 -276 -105 q-112 0 -183 76t-65 189zM80 1161q37 96 77 136.5t103 43.5q65 3 143 -57q75 -55 117 -55q36 0 63 26t50 84l63 -14q-29 -88 -73.5 -132t-108.5 -48q-35 -2 -64.5 10t-80.5 49q-70 51 -115 51q-35 0 -62 -25.5t-53 -84.5zM154 244q-4 -75 44 -123.5t128 -48.5q58 0 108 19.5 t115 66.5v319q-216 -26 -301.5 -77t-93.5 -156z" />
<glyph unicode="&#xe4;" d="M37 242q12 219 299 284q69 15 213 29v47q1 68 -9 103.5t-38 62.5q-53 53 -152 47q-131 -9 -268 -86v100q157 86 293 86q169 0 243 -102q48 -59 48 -221v-346q0 -109 12 -137q14 -41 76 -41q2 0 17.5 1t23.5 1l-15 -82q-44 -8 -69 -8q-124 0 -150 102q-126 -105 -276 -105 q-112 0 -183 76t-65 189zM145 1237q0 32 22 54t54 22t54 -22t22 -54t-22 -54t-54 -22t-54 22t-22 54zM154 244q-4 -75 44 -123.5t128 -48.5q58 0 108 19.5t115 66.5v319q-216 -26 -301.5 -77t-93.5 -156zM492 1237q0 32 21.5 54t53.5 22t54 -22t22 -54t-22 -54t-54 -22 t-53.5 22t-21.5 54z" />
<glyph unicode="&#xe5;" d="M37 242q12 219 299 284q69 15 213 29v47q1 68 -9 103.5t-38 62.5q-53 53 -152 47q-131 -9 -268 -86v100q157 86 293 86q169 0 243 -102q48 -59 48 -221v-346q0 -109 12 -137q14 -41 76 -41q2 0 17.5 1t23.5 1l-15 -82q-44 -8 -69 -8q-124 0 -150 102q-126 -105 -276 -105 q-112 0 -183 76t-65 189zM154 244q-4 -75 44 -123.5t128 -48.5q58 0 108 19.5t115 66.5v319q-216 -26 -301.5 -77t-93.5 -156zM207 1239q0 76 53 128t131 52t129 -51.5t51 -130.5q0 -74 -54 -126t-130 -52q-79 0 -129.5 50.5t-50.5 129.5zM274 1239q0 -49 33.5 -84t79.5 -35 q53 0 85 32.5t32 86.5q0 49 -34 84t-81 35q-52 0 -83.5 -32.5t-31.5 -86.5z" />
<glyph unicode="&#xe6;" horiz-adv-x="1400" d="M37 248q6 120 87 188.5t253 100.5q57 11 215 28q4 67 2 92q-6 86 -63.5 129t-157.5 35q-139 -9 -273 -92v102q144 80 297 89q109 6 182.5 -39t98.5 -133q66 91 140.5 131.5t174.5 40.5q110 0 197 -49.5t131 -137.5q38 -78 41 -194l-45 -58h-621q-3 -117 35 -202 q40 -89 120.5 -143t174.5 -54q166 0 277 111l59 -68q-139 -148 -350 -148q-206 0 -338 170q-98 -94 -182 -132t-191 -38q-119 0 -194.5 78t-69.5 193zM154 248q0 -80 49.5 -127t134.5 -47q117 0 223 82q15 10 72 59q-29 65 -39 108.5t-10 98.5q0 38 2 63q-55 -7 -90 -12 t-85.5 -15t-82.5 -21t-68.5 -29t-57 -39.5t-34.5 -52.5t-14 -68zM705 565h548q-11 122 -82 190t-188 68q-106 0 -182 -70.5t-96 -187.5z" />
<glyph unicode="&#xe7;" d="M51 461q0 124 59.5 230t161 167.5t220.5 61.5q159 0 286 -93l-59 -88q-64 43 -115 60.5t-110 17.5q-139 0 -229.5 -99.5t-90.5 -254.5q0 -160 89 -265t231 -114q61 -4 119 12.5t130 59.5l45 -82q-128 -97 -294 -97q-200 0 -321.5 133t-121.5 351zM211 -418 q120 165 199 326l100 -8q-33 -74 -95 -173t-118 -163z" />
<glyph unicode="&#xe8;" horiz-adv-x="872" d="M51 467q0 121 56 225.5t151.5 166t206.5 61.5q225 0 323 -185q43 -77 46 -188l-48 -58h-614v-38q0 -158 93.5 -263.5t234.5 -105.5q160 0 272 106l62 -67q-141 -144 -353 -144q-102 0 -194 47.5t-152 131.5q-84 120 -84 311zM156 1362l120 31l279 -267l-76 -30zM178 573 h545q-10 115 -81 182.5t-181 67.5q-77 0 -145 -41t-105 -108q-20 -39 -33 -101z" />
<glyph unicode="&#xe9;" horiz-adv-x="872" d="M51 467q0 121 56 225.5t151.5 166t206.5 61.5q225 0 323 -185q43 -77 46 -188l-48 -58h-614v-38q0 -158 93.5 -263.5t234.5 -105.5q160 0 272 106l62 -67q-141 -144 -353 -144q-102 0 -194 47.5t-152 131.5q-84 120 -84 311zM178 573h545q-10 115 -81 182.5t-181 67.5 q-77 0 -145 -41t-105 -108q-20 -39 -33 -101zM319 1126l279 267l121 -31l-324 -266z" />
<glyph unicode="&#xea;" horiz-adv-x="872" d="M51 467q0 121 56 225.5t151.5 166t206.5 61.5q225 0 323 -185q43 -77 46 -188l-48 -58h-614v-38q0 -158 93.5 -263.5t234.5 -105.5q160 0 272 106l62 -67q-141 -144 -353 -144q-102 0 -194 47.5t-152 131.5q-84 120 -84 311zM166 1116l227 281h92l228 -281l-99 -22 l-180 227l-182 -227zM178 573h545q-10 115 -81 182.5t-181 67.5q-77 0 -145 -41t-105 -108q-20 -39 -33 -101z" />
<glyph unicode="&#xeb;" horiz-adv-x="872" d="M51 467q0 121 56 225.5t151.5 166t206.5 61.5q225 0 323 -185q43 -77 46 -188l-48 -58h-614v-38q0 -158 93.5 -263.5t234.5 -105.5q160 0 272 106l62 -67q-141 -144 -353 -144q-102 0 -194 47.5t-152 131.5q-84 120 -84 311zM178 573h545q-10 115 -81 182.5t-181 67.5 q-77 0 -145 -41t-105 -108q-20 -39 -33 -101zM195 1237q0 32 21.5 54t53.5 22t54 -22t22 -54t-22 -54t-54 -22t-53.5 22t-21.5 54zM541 1237q0 32 21.5 54t53.5 22t54 -22t22 -54t-22 -54t-54 -22t-53.5 22t-21.5 54z" />
<glyph unicode="&#xec;" horiz-adv-x="321" d="M-119 1362l121 31l279 -267l-76 -30zM102 0v895h117v-895h-117z" />
<glyph unicode="&#xed;" horiz-adv-x="321" d="M45 1126l279 267l120 -31l-323 -266zM104 0v895h117v-895h-117z" />
<glyph unicode="&#xee;" horiz-adv-x="321" d="M-111 1116l228 281h92l227 -281l-98 -22l-180 227l-183 -227zM102 0v895h117v-895h-117z" />
<glyph unicode="&#xef;" horiz-adv-x="321" d="M-82 1237q0 32 22 54t54 22t54 -22t22 -54t-22 -54t-54 -22t-54 22t-22 54zM102 0v895h117v-895h-117zM264 1237q0 32 22 54t54 22t54 -22t22 -54t-22 -54t-54 -22t-54 22t-22 54z" />
<glyph unicode="&#xf1;" horiz-adv-x="937" d="M47 872l96 48q35 -31 52 -65.5t24 -94.5q140 160 297 160q152 0 238 -86t86 -240v-594h-117v537q0 87 -12 134t-43 81q-64 67 -172 67q-72 0 -137 -35.5t-132 -111.5v-672h-116v578q0 140 -13 199.5t-51 94.5zM162 1161q37 96 77 136.5t103 43.5q65 3 143 -57 q75 -55 117 -55q36 0 63 26t50 84l63 -14q-29 -88 -73.5 -132t-108.5 -48q-35 -2 -64.5 10t-80.5 49q-70 51 -115 51q-35 0 -62 -25.5t-53 -84.5z" />
<glyph unicode="&#xf2;" horiz-adv-x="999" d="M51 446q0 201 128.5 336.5t318.5 135.5q193 0 320.5 -130t127.5 -327q0 -214 -121 -349t-313 -135q-245 0 -365 166q-96 126 -96 303zM172 461q0 -164 96.5 -275.5t237.5 -111.5q144 0 231.5 98t87.5 260q0 171 -95 278t-247 107q-138 0 -224.5 -99t-86.5 -257zM219 1362 l121 31l278 -267l-75 -30z" />
<glyph unicode="&#xf3;" horiz-adv-x="999" d="M51 446q0 201 128.5 336.5t318.5 135.5q193 0 320.5 -130t127.5 -327q0 -214 -121 -349t-313 -135q-245 0 -365 166q-96 126 -96 303zM172 461q0 -164 96.5 -275.5t237.5 -111.5q144 0 231.5 98t87.5 260q0 171 -95 278t-247 107q-138 0 -224.5 -99t-86.5 -257zM383 1126 l279 267l120 -31l-323 -266z" />
<glyph unicode="&#xf4;" horiz-adv-x="999" d="M51 446q0 201 128.5 336.5t318.5 135.5q193 0 320.5 -130t127.5 -327q0 -214 -121 -349t-313 -135q-245 0 -365 166q-96 126 -96 303zM172 461q0 -164 96.5 -275.5t237.5 -111.5q144 0 231.5 98t87.5 260q0 171 -95 278t-247 107q-138 0 -224.5 -99t-86.5 -257zM229 1116 l228 281h92l227 -281l-98 -22l-180 227l-183 -227z" />
<glyph unicode="&#xf5;" horiz-adv-x="999" d="M51 446q0 201 128.5 336.5t318.5 135.5q193 0 320.5 -130t127.5 -327q0 -214 -121 -349t-313 -135q-245 0 -365 166q-96 126 -96 303zM172 461q0 -164 96.5 -275.5t237.5 -111.5q144 0 231.5 98t87.5 260q0 171 -95 278t-247 107q-138 0 -224.5 -99t-86.5 -257zM190 1161 q37 96 77.5 136.5t103.5 43.5q65 3 143 -57q75 -55 117 -55q36 0 62.5 26t49.5 84l64 -14q-29 -88 -73.5 -132t-108.5 -48q-35 -2 -65 10t-81 49q-70 51 -114 51q-35 0 -62 -25.5t-53 -84.5z" />
<glyph unicode="&#xf6;" horiz-adv-x="999" d="M51 446q0 201 128.5 336.5t318.5 135.5q193 0 320.5 -130t127.5 -327q0 -214 -121 -349t-313 -135q-245 0 -365 166q-96 126 -96 303zM172 461q0 -164 96.5 -275.5t237.5 -111.5q144 0 231.5 98t87.5 260q0 171 -95 278t-247 107q-138 0 -224.5 -99t-86.5 -257zM256 1237 q0 32 22 54t54 22t54 -22t22 -54t-22 -54t-54 -22t-54 22t-22 54zM602 1237q0 32 22 54t54 22t54 -22t22 -54t-22 -54t-54 -22t-54 22t-22 54z" />
<glyph unicode="&#xf7;" horiz-adv-x="1050" d="M96 602v96h856v-96h-856zM453 342q0 29 21 50.5t50 21.5t50.5 -21.5t21.5 -50.5t-21.5 -50.5t-50.5 -21.5t-50 21.5t-21 50.5zM453 958q0 29 21 50.5t50 21.5t50.5 -21.5t21.5 -50.5t-21.5 -50t-50.5 -21t-50 21t-21 50z" />
<glyph unicode="&#xf8;" horiz-adv-x="999" d="M51 444q0 202 128 338t319 136q142 0 254 -74l73 98l72 -14l-92 -125q66 -63 103.5 -154t37.5 -188q0 -214 -121 -349t-313 -135q-85 0 -145 16t-121 56l-72 -96l-74 14l93 125q-142 139 -142 352zM172 461q0 -155 92 -273l420 566q-86 63 -201 63q-138 0 -224.5 -99 t-86.5 -257zM313 141q85 -67 193 -67q145 0 232 97.5t87 260.5q0 78 -23.5 151t-66.5 124z" />
<glyph unicode="&#xf9;" horiz-adv-x="937" d="M98 348v547h117v-545q0 -87 15 -138.5t49 -82.5q60 -51 159 -51q72 0 127.5 25.5t130.5 93.5v698h117v-649q0 -109 12 -137q14 -41 76 -41q2 0 17.5 1t23.5 1l-16 -82q-39 -8 -68 -8q-139 0 -151 129q-75 -71 -146 -101.5t-160 -30.5q-74 0 -139.5 30.5t-105.5 82.5 q-32 43 -45 99.5t-13 158.5zM190 1362l121 31l279 -267l-76 -30z" />
<glyph unicode="&#xfa;" horiz-adv-x="937" d="M98 348v547h117v-545q0 -87 15 -138.5t49 -82.5q60 -51 159 -51q72 0 127.5 25.5t130.5 93.5v698h117v-649q0 -109 12 -137q14 -41 76 -41q2 0 17.5 1t23.5 1l-16 -82q-39 -8 -68 -8q-139 0 -151 129q-75 -71 -146 -101.5t-160 -30.5q-74 0 -139.5 30.5t-105.5 82.5 q-32 43 -45 99.5t-13 158.5zM354 1126l279 267l121 -31l-324 -266z" />
<glyph unicode="&#xfb;" horiz-adv-x="937" d="M98 348v547h117v-545q0 -87 15 -138.5t49 -82.5q60 -51 159 -51q72 0 127.5 25.5t130.5 93.5v698h117v-649q0 -109 12 -137q14 -41 76 -41q2 0 17.5 1t23.5 1l-16 -82q-39 -8 -68 -8q-139 0 -151 129q-75 -71 -146 -101.5t-160 -30.5q-74 0 -139.5 30.5t-105.5 82.5 q-32 43 -45 99.5t-13 158.5zM199 1116l227 281h92l227 -281l-98 -22l-180 227l-182 -227z" />
<glyph unicode="&#xfc;" horiz-adv-x="937" d="M98 348v547h117v-545q0 -87 15 -138.5t49 -82.5q60 -51 159 -51q72 0 127.5 25.5t130.5 93.5v698h117v-649q0 -109 12 -137q14 -41 76 -41q2 0 17.5 1t23.5 1l-16 -82q-39 -8 -68 -8q-139 0 -151 129q-75 -71 -146 -101.5t-160 -30.5q-74 0 -139.5 30.5t-105.5 82.5 q-32 43 -45 99.5t-13 158.5zM227 1237q0 32 22 54t54 22t54 -22t22 -54t-22 -54t-54 -22t-54 22t-22 54zM573 1237q0 32 22 54t54 22t54 -22t22 -54t-22 -54t-54 -22t-54 22t-22 54z" />
<glyph unicode="&#xfd;" horiz-adv-x="806" d="M-104 -514l18 94q52 -12 98 -12q86 0 140 56t120 214l70 170l-336 875l111 30l215 -571q21 -53 71 -203q11 31 22 64t15.5 45t14 35t24.5 59l221 571l105 -30l-432 -1073q-73 -183 -154.5 -260.5t-200.5 -77.5q-48 0 -122 14zM287 1126l278 267l121 -31l-326 -266z" />
<glyph unicode="&#xff;" horiz-adv-x="806" d="M-104 -514l18 94q52 -12 98 -12q86 0 140 56t120 214l70 170l-336 875l111 30l215 -571q21 -53 71 -203q11 31 22 64t15.5 45t14 35t24.5 59l221 571l105 -30l-432 -1073q-73 -183 -154.5 -260.5t-200.5 -77.5q-48 0 -122 14zM160 1237q0 32 22 54t54 22t53.5 -22 t21.5 -54t-21.5 -54t-53.5 -22t-54 22t-22 54zM506 1237q0 32 22 54t54 22t53.5 -22t21.5 -54t-21.5 -54t-53.5 -22t-54 22t-22 54z" />
<glyph unicode="&#x152;" horiz-adv-x="1857" d="M49 684q0 142 52 269.5t140.5 219t212 145.5t261.5 54q201 0 358 -86v57h694v-106h-567v-475h510v-107h-510v-544h653l-20 -111h-760v55q-85 -45 -166 -64.5t-182 -19.5q-194 0 -348.5 91t-241 254t-86.5 368zM186 686q0 -127 46.5 -245t129.5 -199q70 -70 169 -112 t194 -42q106 0 180 20t168 74v965q-103 62 -184 87.5t-176 25.5q-235 0 -381 -159.5t-146 -414.5z" />
<glyph unicode="&#x153;" horiz-adv-x="1525" d="M51 446q0 201 128.5 336.5t318.5 135.5q99 0 183.5 -35.5t143.5 -100.5q129 138 295 138q162 0 265.5 -100.5t103.5 -272.5l-47 -58h-613q-2 -16 -2 -38q0 -158 93.5 -263.5t234.5 -105.5q163 0 272 106l62 -67q-141 -144 -352 -144q-182 0 -312 136q-127 -136 -313 -136 q-242 0 -365 166q-96 129 -96 303zM172 461q0 -163 96.5 -275t237.5 -112q89 0 143 23.5t121 92.5q-38 74 -50.5 130t-12.5 147q0 112 57 223q-89 127 -281 127q-137 0 -224 -99t-87 -257zM834 573h546q-10 115 -81.5 182.5t-182.5 67.5q-77 0 -145 -41t-105 -108 q-19 -36 -32 -101z" />
<glyph unicode="&#x178;" horiz-adv-x="1097" d="M4 1329l125 37l428 -639l422 639l113 -37l-478 -715v-614h-127v614zM305 1536q0 32 22 54t54 22t54 -22t22 -54t-22 -54t-54 -22t-54 22t-22 54zM653 1536q0 32 22 54t54 22t54 -22t22 -54t-22 -54t-54 -22t-54 22t-22 54z" />
<glyph unicode="&#x2c6;" horiz-adv-x="0" d="M-270 1116l227 281h92l227 -281l-98 -22l-180 227l-182 -227z" />
<glyph unicode="&#x2dc;" horiz-adv-x="0" d="M-307 1161q37 96 77 136.5t103 43.5q65 3 143 -57q75 -55 117 -55q36 0 63 26t50 84l63 -14q-29 -88 -73.5 -132t-108.5 -48q-35 -2 -64.5 10t-80.5 49q-70 51 -115 51q-35 0 -62 -25.5t-53 -84.5z" />
<glyph unicode="&#x2000;" horiz-adv-x="860" />
<glyph unicode="&#x2001;" horiz-adv-x="1720" />
<glyph unicode="&#x2002;" horiz-adv-x="860" />
<glyph unicode="&#x2003;" horiz-adv-x="1720" />
<glyph unicode="&#x2004;" horiz-adv-x="573" />
<glyph unicode="&#x2005;" horiz-adv-x="430" />
<glyph unicode="&#x2006;" horiz-adv-x="286" />
<glyph unicode="&#x2007;" horiz-adv-x="286" />
<glyph unicode="&#x2008;" horiz-adv-x="215" />
<glyph unicode="&#x2009;" horiz-adv-x="344" />
<glyph unicode="&#x200a;" horiz-adv-x="95" />
<glyph unicode="&#x2010;" horiz-adv-x="569" d="M51 436l19 105h448l-18 -105h-449z" />
<glyph unicode="&#x2011;" horiz-adv-x="569" d="M51 436l19 105h448l-18 -105h-449z" />
<glyph unicode="&#x2012;" horiz-adv-x="569" d="M51 436l19 105h448l-18 -105h-449z" />
<glyph unicode="&#x2013;" horiz-adv-x="1021" d="M51 440l17 97h901l-17 -97h-901z" />
<glyph unicode="&#x2014;" horiz-adv-x="1021" d="M51 440l17 97h901l-17 -97h-901z" />
<glyph unicode="&#x2018;" horiz-adv-x="391" d="M51 872q27 246 203 510l94 -20q-88 -152 -131.5 -268t-56.5 -234z" />
<glyph unicode="&#x2019;" horiz-adv-x="391" d="M41 883q88 152 131.5 266t56.5 233l109 -12q-28 -249 -203 -508z" />
<glyph unicode="&#x201c;" horiz-adv-x="663" d="M51 874q27 247 203 508l94 -20q-87 -152 -131 -268t-57 -232zM326 874q28 246 202 508l95 -20q-87 -151 -130.5 -266.5t-58.5 -233.5z" />
<glyph unicode="&#x201d;" horiz-adv-x="663" d="M41 883q88 152 131.5 266t56.5 233l109 -12q-28 -249 -203 -508zM315 883q88 151 132 266t59 233l106 -12q-28 -249 -202 -508z" />
<glyph unicode="&#x201e;" horiz-adv-x="540" d="M-82 -283q87 151 131 267t57 235l109 -12q-28 -248 -203 -512zM193 -283q86 149 130.5 266.5t59.5 235.5l106 -12q-27 -241 -200 -512z" />
<glyph unicode="&#x202f;" horiz-adv-x="344" />
<glyph unicode="&#x2039;" horiz-adv-x="466" d="M41 457l334 395l39 -82l-258 -309l258 -305l-39 -97z" />
<glyph unicode="&#x203a;" horiz-adv-x="466" d="M51 143l260 308l-260 307l41 94l332 -395l-332 -398z" />
<glyph unicode="&#x205f;" horiz-adv-x="430" />
<glyph unicode="&#x20ac;" horiz-adv-x="1050" d="M14 510l41 98h82v39q0 43 2 68h-125l43 98h97q45 229 195 372.5t353 143.5q172 0 322 -102l-53 -99q-79 50 -140 72.5t-139 22.5q-163 0 -270.5 -112.5t-142.5 -297.5h565l-41 -98h-535q-2 -20 -2 -53q0 -34 2 -54h490l-43 -98h-434q39 -190 158.5 -307t287.5 -117 q69 0 118 19.5t132 70.5l57 -94q-129 -105 -332 -105q-211 0 -364 148t-191 385h-133z" />
<glyph unicode="&#xe000;" horiz-adv-x="911" d="M0 0v911h911v-911h-911z" />
</font>
</defs>
</svg>
